<?xml version="1.0" standalone="no"?>
<!DOCTYPE svg PUBLIC "-//W3C//DTD SVG 20010904//EN"
 "http://www.w3.org/TR/2001/REC-SVG-20010904/DTD/svg10.dtd">
<svg version="1.0" xmlns="http://www.w3.org/2000/svg"
 width="275.000000pt" height="183.000000pt" viewBox="0 0 275.000000 183.000000"
 preserveAspectRatio="xMidYMid meet">

<g transform="translate(0.000000,183.000000) scale(0.100000,-0.100000)"
fill="#000000" stroke="none">
<path d="M0 970 c0 -473 3 -885 6 -915 l7 -54 558 0 c553 -1 559 0 569 20 6
11 13 30 15 41 6 31 15 35 15 7 0 -14 -7 -35 -16 -47 -14 -21 -14 -22 5 -22
11 0 31 10 45 22 46 42 86 70 86 59 0 -6 -4 -11 -8 -11 -4 0 -15 -16 -24 -35
-15 -33 -14 -34 4 -24 10 5 15 15 12 21 -4 7 -3 8 4 4 7 -4 12 -14 12 -22 0
-12 41 -14 268 -14 297 0 290 -1 307 65 4 17 9 25 12 18 2 -6 -3 -27 -11 -47
l-15 -36 450 0 449 0 0 138 c0 92 -3 132 -10 122 -8 -13 -10 -12 -10 3 0 9 5
17 10 17 6 0 10 60 10 159 0 132 -3 160 -15 165 -8 3 -14 16 -14 28 l2 23 4
-22 c8 -43 20 -23 22 37 2 63 -6 74 -27 40 -16 -26 -24 -25 -74 6 -33 21 -45
24 -64 15 -13 -6 -26 -6 -29 -1 -12 19 58 34 100 22 17 -5 40 -5 53 -1 13 5
22 5 22 -1 0 -6 5 -10 10 -10 7 0 10 186 10 545 l-1 544 -495 0 c-424 0 -498
-2 -511 -14 -19 -19 -34 -19 -27 0 6 13 -23 15 -230 14 -208 -1 -237 -3 -247
-17 -10 -16 -10 -15 -5 1 6 20 -4 22 -23 5 -11 -10 -13 -10 -7 0 4 6 3 12 -3
12 -5 0 -12 -6 -14 -12 -4 -10 -6 -10 -6 0 -1 15 -87 17 -96 2 -4 -6 -12 -7
-18 -3 -17 11 -107 14 -107 3 0 -5 -6 -15 -13 -22 -7 -7 -17 -32 -23 -55 -9
-34 -8 -45 2 -54 7 -6 10 -17 7 -25 -5 -13 -8 -12 -24 2 -11 9 -19 23 -19 31
0 7 -4 13 -10 13 -11 0 -1 -32 14 -42 7 -5 4 -8 -6 -8 -12 0 -19 11 -23 38 -4
20 -14 51 -22 68 -20 40 -14 64 10 40 16 -16 17 -16 17 3 0 19 -6 21 -61 21
-33 0 -70 -5 -81 -11 -15 -8 -19 -8 -14 0 5 7 -1 11 -14 11 -12 0 -18 -4 -15
-10 8 -13 -8 -13 -21 0 -7 7 -77 9 -190 8 l-179 -3 38 -18 c20 -10 37 -19 37
-21 0 -2 -14 -6 -30 -8 -23 -4 -30 -1 -28 11 3 13 -6 16 -46 13 -28 -1 -53 -7
-56 -12 -9 -15 -48 0 -53 21 -4 17 -15 19 -81 19 l-76 0 0 -860z m576 838 c4
-7 4 -10 -1 -6 -4 4 -15 2 -24 -5 -14 -11 -14 -10 -2 6 16 20 18 21 27 5z
m1364 2 c0 -5 -2 -10 -4 -10 -3 0 -8 5 -11 10 -3 6 -1 10 4 10 6 0 11 -4 11
-10z m105 0 c3 -6 -1 -7 -9 -4 -18 7 -21 14 -7 14 6 0 13 -4 16 -10z m-1482
-44 c4 -10 1 -13 -8 -9 -8 3 -12 9 -9 14 7 12 11 11 17 -5z m421 -57 c-17 -18
-16 -19 14 -19 25 0 32 -4 32 -20 0 -11 5 -20 10 -20 6 0 10 -4 10 -10 0 -5
-25 -10 -55 -10 -42 0 -55 3 -55 15 0 8 4 15 9 15 6 0 3 16 -5 35 -19 45 -19
44 19 60 30 13 32 12 35 -7 2 -11 -4 -28 -14 -39z m1651 41 c3 -6 -1 -7 -9 -4
-18 7 -21 14 -7 14 6 0 13 -4 16 -10z m-2410 -72 c-5 -18 -4 -20 4 -8 6 8 11
13 12 10 0 -3 2 -13 4 -22 2 -10 -2 -16 -8 -15 -7 1 -11 -6 -11 -15 2 -22 -10
-23 -30 -2 -19 19 -20 28 -4 54 18 28 41 26 33 -2z m1452 -16 c12 -7 31 -12
42 -12 12 0 21 -4 21 -9 0 -15 31 -21 51 -10 15 7 24 7 35 -1 7 -7 25 -10 40
-7 19 3 24 1 19 -11 -3 -8 0 -21 6 -28 20 -24 -17 -17 -48 10 -29 25 -42 23
-90 -18 -24 -20 -45 -14 -36 11 6 14 -1 15 -53 10 l-59 -7 25 20 c14 11 34 20
45 20 12 1 4 7 -20 15 -22 8 -41 15 -43 15 -2 0 -1 4 2 8 7 12 36 9 63 -6z
m658 -2 c17 -7 15 -9 -12 -9 -18 -1 -33 4 -33 9 0 12 17 12 45 0z m-2302 -74
c-10 -19 -18 -26 -21 -18 -2 8 1 19 7 25 6 6 11 20 11 32 0 16 2 17 9 6 6 -10
4 -25 -6 -45z m232 34 c-3 -5 -1 -10 4 -10 6 0 11 -5 11 -10 0 -7 -7 -7 -21 1
-17 9 -19 13 -8 20 18 11 22 11 14 -1z m744 -71 c-13 -26 -23 -18 -14 10 3 12
11 19 16 16 5 -4 5 -14 -2 -26z m1262 -2 c-5 -5 -17 -5 -28 2 -16 9 -15 10 9
9 16 -2 24 -6 19 -11z m-2196 -17 c-3 -5 -11 -10 -16 -10 -6 0 -7 5 -4 10 3 6
11 10 16 10 6 0 7 -4 4 -10z m868 -14 c-1 -17 5 -18 60 -12 43 5 57 4 47 -4
-8 -5 -24 -10 -35 -11 -11 -1 -4 -5 16 -11 33 -9 98 -62 88 -72 -2 -2 -21 4
-41 14 l-37 18 14 -28 c15 -28 11 -60 -6 -60 -5 0 -21 18 -35 40 -31 47 -41
52 -19 10 13 -25 21 -80 12 -80 -13 0 -69 34 -72 44 -3 6 -9 25 -16 41 l-11
30 -20 -42 c-17 -36 -48 -65 -48 -45 0 4 -4 13 -9 21 -7 11 -14 8 -35 -15 -22
-26 -25 -27 -26 -9 0 11 7 33 15 49 19 36 19 34 -8 29 -13 -3 -29 2 -36 10
-11 14 -6 15 33 14 49 -2 56 2 59 30 1 18 7 19 45 15 43 -5 43 -5 36 23 -6 23
-4 26 12 23 11 -2 18 -11 17 -22z m561 -12 c15 -14 26 -28 23 -31 -4 -3 0 -21
8 -40 8 -18 12 -40 9 -47 -3 -8 4 -16 16 -19 17 -4 20 -10 15 -27 -4 -12 -7
-44 -7 -71 1 -36 -3 -49 -13 -49 -26 0 -38 38 -26 85 14 57 14 58 -5 51 -9 -4
-22 -1 -30 5 -7 5 -25 14 -41 19 -24 8 -23 9 16 7 67 -3 59 16 -19 42 -38 13
-70 27 -70 31 0 12 38 19 78 15 20 -3 29 -2 20 1 -11 3 -18 15 -18 30 0 30 8
30 44 -2z m356 6 c0 -5 -2 -10 -4 -10 -3 0 -8 5 -11 10 -3 6 -1 10 4 10 6 0
11 -4 11 -10z m-1732 -25 c-3 -3 -9 2 -12 12 -6 14 -5 15 5 6 7 -7 10 -15 7
-18z m33 12 c-6 -8 -8 -16 -5 -19 3 -3 1 -9 -4 -12 -6 -3 -9 0 -8 6 2 16 15
38 23 38 3 0 0 -6 -6 -13z m49 -17 c0 -5 -2 -10 -4 -10 -3 0 -8 5 -11 10 -3 6
-1 10 4 10 6 0 11 -4 11 -10z m-63 -36 c-3 -3 -12 -4 -19 -1 -8 3 -5 6 6 6 11
1 17 -2 13 -5z m-76 -35 c-5 -13 -10 -19 -10 -12 -1 15 10 45 15 40 3 -2 0
-15 -5 -28z m1294 11 c-3 -5 -12 -10 -18 -10 -7 0 -6 4 3 10 19 12 23 12 15 0z
m-1180 -10 c3 -5 2 -10 -4 -10 -5 0 -13 5 -16 10 -3 6 -2 10 4 10 5 0 13 -4
16 -10z m-50 -9 c3 -5 1 -12 -5 -16 -5 -3 -10 1 -10 9 0 18 6 21 15 7z m2152
-12 c8 -8 7 -16 -5 -30 -18 -21 -33 -8 -25 22 6 22 14 24 30 8z m-2187 -26 c0
-10 -4 -14 -8 -8 -4 6 -11 13 -16 18 -5 4 -2 7 7 7 10 0 17 -8 17 -17z m1268
5 c-3 -15 -29 -28 -42 -20 -5 3 2 11 15 18 30 17 30 17 27 2z m-1328 -18 c0
-5 -2 -10 -4 -10 -3 0 -8 5 -11 10 -3 6 -1 10 4 10 6 0 11 -4 11 -10z m2153
-40 c14 -11 25 -28 25 -38 0 -9 3 -26 7 -36 6 -14 5 -17 -3 -12 -7 4 -12 13
-12 21 0 8 -4 17 -10 20 -6 4 -7 -1 -3 -12 6 -17 5 -17 -15 1 -12 11 -20 21
-18 24 3 2 1 15 -4 28 -12 29 -1 31 33 4z m-1608 -38 c9 -21 35 -31 35 -14 0
4 12 16 27 26 27 20 25 8 -5 -26 -17 -20 -3 -25 17 -5 9 8 15 8 17 1 3 -6 19
-9 37 -6 31 4 31 4 12 -12 -11 -8 -25 -16 -31 -16 -17 0 -47 -37 -36 -44 6 -3
12 1 16 9 3 8 13 15 23 15 16 -1 16 -2 -2 -16 -11 -8 -26 -19 -34 -23 -10 -6
-11 -13 -3 -27 7 -14 6 -24 -4 -39 -8 -10 -14 -14 -14 -7 0 15 -50 41 -75 39
-14 -1 -20 4 -20 18 0 21 5 22 44 10 19 -6 23 -4 18 8 -3 8 -1 19 5 25 7 7 4
14 -11 21 -14 8 -21 8 -21 1 0 -5 -5 -10 -11 -10 -7 0 -9 10 -7 25 3 14 1 28
-3 31 -5 3 -9 14 -9 25 0 26 22 20 35 -9z m1825 -2 c0 -5 -10 -10 -22 -9 -22
0 -22 1 -3 9 11 5 21 9 23 9 1 1 2 -3 2 -9z m-277 -22 c12 -6 16 -16 12 -25
-3 -9 0 -20 7 -25 8 -6 4 -7 -11 -3 -16 5 -21 4 -16 -4 5 -9 -7 -11 -47 -7
-50 6 -52 5 -33 -10 11 -9 14 -14 6 -12 -8 2 -19 13 -25 24 -6 10 -14 21 -17
24 -3 3 -8 12 -12 22 -11 31 84 43 136 16z m-474 -57 c1 -35 -5 -22 -12 24 -5
28 -4 34 3 20 5 -11 9 -31 9 -44z m606 40 c-3 -6 -11 -11 -17 -11 -6 0 -6 6 2
15 14 17 26 13 15 -4z m92 -36 c0 -8 -4 -12 -9 -9 -4 3 -8 9 -8 15 0 5 4 9 8
9 5 0 9 -7 9 -15z m-1857 -48 c0 -7 -9 -23 -20 -35 -23 -24 -19 -27 33 -37 20
-4 40 -11 43 -16 3 -5 10 -6 16 -3 6 4 8 3 5 -2 -3 -5 -35 -7 -72 -4 l-66 6
33 -28 c18 -15 36 -28 41 -28 4 0 7 -5 7 -11 0 -11 -32 -9 -90 7 l-25 7 24
-22 c14 -12 30 -20 36 -17 6 2 19 -2 30 -10 18 -13 17 -14 -8 -14 -20 0 -27
-5 -27 -20 0 -11 -6 -20 -13 -20 -22 0 -57 31 -57 51 0 29 -19 23 -26 -8 -3
-16 -12 -41 -19 -58 -12 -25 -15 -27 -21 -12 -4 10 -4 46 0 79 5 55 4 59 -12
53 -39 -18 -82 -18 -88 0 -8 20 11 35 45 35 14 0 32 6 40 13 22 18 101 47 130
47 16 0 26 9 34 30 12 31 27 40 27 17z m1321 -16 c28 -28 42 -80 17 -65 -7 5
-8 3 -3 -7 13 -20 6 -79 -10 -96 -8 -8 -18 -25 -21 -37 -3 -13 -23 -32 -47
-44 -23 -12 -32 -20 -20 -17 12 3 24 2 27 -3 3 -5 0 -9 -7 -10 -7 0 -29 -4
-50 -8 -27 -5 -49 -2 -77 11 -35 16 -37 19 -23 33 12 12 33 15 89 13 41 -1 74
2 74 7 0 14 -49 60 -71 67 -10 4 -20 15 -20 26 -1 10 -2 25 -3 32 -2 18 33 47
50 40 8 -3 12 -9 9 -13 -6 -10 60 -80 75 -80 14 0 5 59 -19 118 -12 29 -21 55
-21 57 0 14 25 2 51 -24z m519 3 c0 -8 -5 -12 -10 -9 -6 4 -8 11 -5 16 9 14
15 11 15 -7z m-1650 -9 c0 -8 -2 -15 -4 -15 -2 0 -6 7 -10 15 -3 8 -1 15 4 15
6 0 10 -7 10 -15z m1366 -90 c-6 -25 -58 -68 -95 -80 -19 -6 -23 -4 -18 8 3 9
-3 23 -15 34 -15 13 -22 15 -25 6 -3 -7 -13 -13 -23 -13 -15 0 -17 7 -12 48 6
58 9 62 22 27 9 -23 13 -25 26 -14 8 6 12 19 9 27 -4 10 0 12 12 7 10 -3 23
-7 28 -8 6 -1 13 -6 17 -11 3 -5 21 0 40 12 l33 21 3 -20 c2 -12 1 -31 -2 -44z
m-1466 -36 c0 -6 -4 -7 -10 -4 -5 3 -10 11 -10 16 0 6 5 7 10 4 6 -3 10 -11
10 -16z m1520 -4 c0 -14 -4 -25 -9 -25 -4 0 -6 11 -3 25 2 14 6 25 8 25 2 0 4
-11 4 -25z m-210 -69 c0 -9 -30 -14 -35 -6 -4 6 3 10 14 10 12 0 21 -2 21 -4z
m12 -54 c-6 -2 -10 -7 -7 -12 3 -4 -2 -10 -10 -13 -10 -5 -14 1 -12 22 2 26 4
28 22 18 13 -7 16 -12 7 -15z m-1112 -23 c0 -11 -4 -18 -10 -14 -5 3 -7 12 -3
20 7 21 13 19 13 -6z m1136 6 c-4 -11 5 -21 29 -32 19 -9 36 -22 39 -30 8 -20
-8 -16 -39 11 -16 14 -35 22 -43 18 -8 -3 -13 -1 -10 4 3 5 8 17 11 27 4 9 9
17 13 17 3 0 4 -7 0 -15z m-586 -10 c0 -8 -4 -15 -10 -15 -5 0 -7 7 -4 15 4 8
8 15 10 15 2 0 4 -7 4 -15z m104 -10 c-4 -8 -11 -12 -16 -9 -6 4 -5 10 3 15
19 12 19 11 13 -6z m295 -38 c-12 -43 -23 -52 -46 -37 -15 9 -14 10 6 4 21 -6
20 -3 -10 26 l-34 32 32 -6 c21 -3 37 -1 45 8 18 19 19 15 7 -27z m-360 -4 c2
-2 -5 -3 -16 -3 -11 0 -20 7 -20 15 0 12 3 12 16 3 9 -7 18 -14 20 -15z m511
22 c0 -2 -10 -10 -22 -16 -21 -11 -22 -11 -9 4 13 16 31 23 31 12z m188 -21
c1 -1 -5 -4 -15 -6 -13 -4 -19 0 -19 13 0 14 3 16 16 6 8 -6 16 -12 18 -13z
m-175 -4 c-3 -11 -10 -23 -16 -27 -5 -3 -8 -2 -5 3 3 5 8 17 11 27 9 24 16 22
10 -3z m122 2 c-3 -3 -11 0 -18 7 -9 10 -8 11 6 5 10 -3 15 -9 12 -12z m-1339
-52 c-8 -17 -10 -32 -5 -36 17 -10 9 -22 -20 -26 -23 -3 -27 -1 -23 14 2 10 8
21 13 24 5 3 9 18 9 33 0 35 20 58 33 36 5 -10 3 -27 -7 -45z m1258 32 c0 -16
5 -20 25 -19 14 1 31 8 37 16 9 11 11 11 11 -3 0 -9 -5 -16 -10 -16 -8 0 7
-14 52 -47 2 -1 -1 -9 -7 -16 -7 -8 -9 -17 -5 -20 3 -4 1 -7 -6 -7 -7 0 -9 -5
-5 -12 4 -6 3 -8 -3 -5 -13 8 -26 -20 -17 -35 4 -6 1 -9 -6 -6 -22 7 -19 49 4
58 12 5 17 9 12 9 -5 1 -3 7 3 14 8 10 7 18 -3 32 -9 12 -15 15 -20 7 -4 -7
-2 -12 3 -12 6 0 11 -4 11 -8 0 -4 -9 -8 -19 -8 -16 0 -18 4 -10 18 11 20 3
42 -11 33 -5 -3 -6 -13 -3 -21 5 -14 3 -15 -14 -5 -11 6 -23 18 -27 26 -3 9
-10 13 -16 10 -5 -3 -10 -1 -10 5 0 7 7 10 15 6 13 -5 14 -2 4 15 -9 17 -8 20
3 17 7 -3 13 -14 12 -26z m-344 -67 c14 9 0 -28 -21 -55 -17 -23 -20 -23 -29
-8 -6 10 -17 15 -26 11 -11 -4 -12 -8 -3 -19 15 -18 3 -32 -13 -16 -15 15 -32
16 -23 2 13 -21 -27 -9 -53 15 -26 25 -26 26 -8 40 13 10 24 11 37 5 21 -12
30 -13 27 -2 -6 29 35 56 45 30 3 -7 6 -3 6 8 1 12 11 34 24 50 l22 29 3 -48
c2 -26 7 -45 12 -42z m-242 40 c-3 -3 -9 2 -12 12 -6 14 -5 15 5 6 7 -7 10
-15 7 -18z m722 15 c0 -5 -5 -10 -11 -10 -5 0 -7 5 -4 10 3 6 8 10 11 10 2 0
4 -4 4 -10z m-20 -33 c0 -4 -6 -2 -14 5 -8 7 -12 17 -9 22 5 8 23 -12 23 -27z
m55 0 c6 -5 -1 -5 -15 -2 l-25 6 25 -20 c18 -14 27 -16 32 -8 5 9 10 9 20 -1
11 -11 10 -13 -1 -10 -7 2 -16 -3 -18 -9 -3 -7 2 -13 11 -13 9 0 16 -7 16 -15
0 -8 -4 -15 -10 -15 -5 0 -10 3 -10 8 0 13 -51 63 -60 57 -10 -6 -8 15 4 33 4
7 11 10 15 5 3 -4 11 -11 16 -16z m-146 -23 c1 -1 0 -8 -5 -15 -5 -9 -11 -7
-21 6 -7 11 -13 13 -13 6 0 -15 25 -41 39 -41 13 0 14 -17 2 -24 -5 -3 -12 1
-15 10 -4 9 -9 14 -12 11 -3 -3 -15 4 -26 15 -16 16 -17 22 -7 28 10 7 10 11
0 24 -11 13 -9 13 20 -1 19 -9 36 -17 38 -19z m-316 1 c1 -5 -7 -11 -18 -12
-11 -2 -14 0 -6 3 11 5 11 8 0 16 -11 7 -10 8 4 6 10 -2 19 -7 20 -13z m-844
-7 c18 -11 18 -12 -4 -30 -21 -16 -26 -17 -56 -3 -27 11 -29 14 -13 15 12 0
24 7 28 15 7 18 20 19 45 3z m1081 2 c0 -5 -2 -10 -4 -10 -3 0 -8 5 -11 10 -3
6 -1 10 4 10 6 0 11 -4 11 -10z m-1654 -37 c-7 -7 -26 7 -26 19 0 6 6 6 15 -2
9 -7 13 -15 11 -17z m737 10 c-10 -28 -25 -44 -50 -54 -13 -5 -23 -15 -23 -24
0 -19 14 -19 29 -1 15 18 49 27 57 14 12 -18 -17 -54 -54 -68 -35 -12 -36 -13
-14 -23 12 -6 22 -13 22 -17 0 -8 -30 -24 -40 -22 -3 0 -5 -22 -5 -49 0 -33
-6 -56 -18 -72 -17 -19 -18 -20 -11 -2 5 11 9 45 11 75 8 163 12 194 28 202 8
5 27 20 43 33 33 29 33 29 25 8z m1117 10 c-1 -11 -26 -43 -34 -43 -4 0 -3 27
3 48 2 6 31 1 31 -5z m-90 -13 c0 -5 -4 -10 -9 -10 -6 0 -13 5 -16 10 -3 6 1
10 9 10 9 0 16 -4 16 -10z m-91 -56 c-11 -11 -16 -24 -12 -29 5 -4 2 -5 -5 -1
-10 6 -10 11 -1 23 10 12 10 16 -2 24 -9 6 -10 9 -2 9 7 0 10 7 6 18 -5 14 -3
14 14 -3 20 -20 20 -20 2 -41z m-498 6 c5 0 17 -8 28 -19 18 -18 16 -18 -50
-18 -38 0 -66 4 -63 9 3 5 14 6 25 3 24 -8 24 0 -1 27 -27 30 -5 43 28 17 14
-10 29 -19 33 -19z m699 30 c0 -5 -4 -10 -10 -10 -5 0 -10 5 -10 10 0 6 5 10
10 10 6 0 10 -4 10 -10z m460 -13 c0 -28 -17 -47 -43 -47 -16 0 -18 5 -12 27
11 45 55 61 55 20z m-2344 -36 c-8 -12 19 -63 44 -86 26 -23 25 -40 -2 -59
-30 -21 -16 -31 23 -17 42 14 49 6 53 -62 1 -23 7 -28 36 -33 19 -4 45 -11 58
-15 21 -8 22 -10 8 -38 -19 -35 -71 -61 -125 -61 l-40 0 23 -25 c13 -14 28
-25 35 -25 6 0 11 -7 11 -15 0 -9 7 -18 15 -21 8 -4 12 -11 8 -17 -4 -6 -11
-3 -20 9 -7 10 -21 19 -31 19 -9 0 -22 11 -28 24 l-12 23 -11 -21 c-7 -12 -9
-26 -6 -31 6 -10 -51 -56 -80 -63 -12 -3 -7 -5 15 -6 27 -1 31 -4 20 -11 -23
-15 -59 -12 -56 4 1 8 23 37 49 65 26 28 47 59 47 71 0 11 -14 34 -30 52 -17
17 -33 42 -36 54 -5 21 -10 23 -51 17 l-44 -6 7 29 c9 37 6 34 43 37 39 3 40
22 1 36 -16 5 -30 14 -30 20 0 13 29 41 42 41 5 0 8 7 4 15 -3 8 -1 15 4 15 6
0 10 -6 10 -12 0 -9 3 -9 9 1 8 12 12 12 25 2 13 -11 16 -11 16 3 0 9 -16 23
-39 32 -21 8 -42 23 -45 32 -3 9 -8 22 -12 29 -4 8 5 9 33 2 51 -12 59 -11 45
3 -7 7 -12 19 -12 27 0 11 5 9 16 -7 8 -12 13 -26 10 -31z m622 8 c3 -8 -6 -4
-20 9 -13 12 -28 19 -33 15 -4 -5 -5 -2 -1 5 7 11 12 11 29 -1 11 -7 23 -20
25 -28z m-68 21 c0 -5 -5 -10 -11 -10 -5 0 -7 5 -4 10 3 6 8 10 11 10 2 0 4
-4 4 -10z m1080 -16 c0 -16 -16 -19 -25 -4 -3 6 -1 10 5 10 6 0 8 5 4 12 -4 7
-3 8 4 4 7 -4 12 -14 12 -22z m-1583 10 c-3 -3 -12 -4 -19 -1 -8 3 -5 6 6 6
11 1 17 -2 13 -5z m874 -11 c13 -16 12 -17 -3 -4 -10 7 -18 15 -18 17 0 8 8 3
21 -13z m899 -3 c0 -5 -4 -10 -10 -10 -5 0 -10 5 -10 10 0 6 5 10 10 10 6 0
10 -4 10 -10z m-980 -20 c0 -5 -5 -10 -11 -10 -5 0 -7 5 -4 10 3 6 8 10 11 10
2 0 4 -4 4 -10z m60 5 c0 -2 -9 -9 -19 -15 -14 -7 -22 -7 -27 2 -4 7 -3 8 4 4
7 -4 12 -2 12 3 0 6 7 11 15 11 8 0 15 -2 15 -5z m55 -5 c3 -5 1 -10 -4 -10
-6 0 -11 5 -11 10 0 6 2 10 4 10 3 0 8 -4 11 -10z m1490 -4 c23 -1 33 -20 12
-24 -7 -2 -25 7 -38 18 -13 12 -17 18 -9 14 8 -4 24 -8 35 -8z m-111 -25 c3
-4 -3 -16 -14 -26 -23 -21 -45 -9 -34 18 6 18 39 23 48 8z m-2279 -11 c-3 -5
-10 -10 -16 -10 -5 0 -9 5 -9 10 0 6 7 10 16 10 8 0 12 -4 9 -10z m457 3 c-6
-2 -10 -8 -7 -13 6 -10 -24 -35 -32 -26 -4 4 -1 11 7 16 8 6 11 10 5 10 -5 0
-3 5 5 10 8 5 20 9 25 9 6 0 4 -3 -3 -6z m638 -54 c0 -4 -7 -9 -15 -13 -11 -4
-15 2 -15 26 0 30 1 31 15 12 8 -10 15 -22 15 -25z m1110 -34 c0 -5 -5 -3 -10
5 -5 8 -10 20 -10 25 0 6 5 3 10 -5 5 -8 10 -19 10 -25z m44 9 c3 -8 2 -12 -4
-9 -6 3 -10 10 -10 16 0 14 7 11 14 -7z m-944 -4 c0 -5 -5 -10 -11 -10 -5 0
-7 5 -4 10 3 6 8 10 11 10 2 0 4 -4 4 -10z m769 -17 c2 -1 -6 -1 -18 0 -11 1
-21 8 -21 15 0 12 3 12 18 1 9 -7 19 -14 21 -16z m-289 -3 c0 -10 -39 -34 -46
-27 -3 2 -2 12 2 21 7 17 44 23 44 6z m124 1 c3 -5 -5 -8 -19 -7 -14 0 -25 4
-25 9 0 10 38 9 44 -2z m216 -32 c7 -11 9 -23 6 -26 -7 -7 -46 26 -46 39 0 17
30 7 40 -13z m270 6 c11 -13 10 -14 -4 -9 -9 3 -16 10 -16 15 0 13 6 11 20 -6z
m-845 -5 c5 -8 12 -7 23 2 16 12 16 11 2 -7 -8 -11 -15 -21 -16 -23 0 -1 -9 7
-19 18 -10 11 -13 20 -7 20 6 0 14 -5 17 -10z m119 -9 c17 -7 18 -8 3 -14 -9
-3 -31 0 -49 8 l-33 14 30 0 c17 0 39 -4 49 -8z m157 -2 c14 -7 19 -19 17 -45
-1 -18 -5 -34 -9 -34 -7 0 -59 72 -59 83 0 10 29 8 51 -4z m-1964 -5 c-3 -3
-12 -4 -19 -1 -8 3 -5 6 6 6 11 1 17 -2 13 -5z m2183 -18 c14 -18 14 -19 -8
-7 -12 7 -20 17 -16 22 3 6 7 9 8 7 1 -2 8 -12 16 -22z m-2260 10 c0 -3 -4 -8
-10 -11 -5 -3 -10 -1 -10 4 0 6 5 11 10 11 6 0 10 -2 10 -4z m1298 -5 c10 -6
9 -12 -5 -27 -10 -11 -14 -15 -10 -8 4 7 1 19 -8 28 -18 18 -1 23 23 7z m257
-10 c-3 -6 -11 -11 -16 -11 -5 0 -4 6 3 14 14 16 24 13 13 -3z m-151 -34 c4
-21 0 -29 -17 -38 -20 -9 -21 -9 -4 4 17 14 17 16 -5 32 -17 13 -18 16 -4 11
15 -5 17 -2 13 15 -4 13 -2 18 3 13 5 -5 11 -21 14 -37z m101 22 c-4 -5 -14
-8 -23 -8 -15 1 -15 2 1 6 9 2 14 9 11 15 -4 7 -2 8 5 4 6 -4 9 -12 6 -17z
m114 7 c10 -12 8 -17 -8 -25 -27 -15 -38 -14 -45 5 -3 8 -2 13 3 10 5 -3 11 1
15 9 7 19 20 19 35 1z m326 4 c9 -14 -4 -70 -16 -70 -15 0 -42 49 -35 65 6 17
42 20 51 5z m-502 -16 c-2 -7 1 -15 8 -20 8 -5 10 -3 4 6 -5 9 -4 11 3 6 18
-11 14 -26 -5 -26 -10 0 -23 11 -29 24 -10 21 -9 24 6 23 10 0 16 -6 13 -13z
m222 6 c-3 -5 -12 -10 -18 -10 -7 0 -6 4 3 10 19 12 23 12 15 0z m145 0 c0 -5
-5 -10 -11 -10 -5 0 -7 5 -4 10 3 6 8 10 11 10 2 0 4 -4 4 -10z m-1812 -11
c-2 -6 -8 -10 -13 -10 -5 0 -11 4 -13 10 -2 6 4 11 13 11 9 0 15 -5 13 -11z
m1526 -10 c-4 -8 1 -9 17 -5 l24 6 -23 -12 c-24 -12 -38 -6 -27 11 3 6 8 11
11 11 3 0 2 -5 -2 -11z m-194 -9 c-8 -5 -19 -10 -25 -10 -5 0 -3 5 5 10 8 5
20 10 25 10 6 0 3 -5 -5 -10z m-520 -30 c0 -4 -7 -11 -16 -14 -13 -5 -14 -4
-6 7 7 8 8 18 4 22 -4 5 -1 5 6 1 6 -4 12 -11 12 -16z m544 5 c-4 -8 -10 -15
-15 -15 -4 0 -6 7 -3 15 4 8 10 15 15 15 4 0 6 -7 3 -15z m147 -8 c-13 -13
-26 -3 -16 12 3 6 11 8 17 5 6 -4 6 -10 -1 -17z m36 -69 c-3 -8 -6 -5 -6 6 -1
11 2 17 5 13 3 -3 4 -12 1 -19z m283 -33 c0 -30 -4 -55 -9 -55 -5 0 -23 3 -40
6 -36 7 -35 16 2 71 33 49 47 42 47 -22z m-790 20 c0 -8 -3 -16 -7 -18 -5 -3
-8 5 -8 18 0 13 3 21 8 18 4 -2 7 -10 7 -18z m420 15 c0 -5 -4 -10 -10 -10 -5
0 -10 5 -10 10 0 6 5 10 10 10 6 0 10 -4 10 -10z m55 -10 c27 -30 12 -34 -15
-5 -13 14 -19 25 -13 25 5 0 18 -9 28 -20z m109 8 c-3 -4 -9 -8 -15 -8 -5 0
-9 4 -9 8 0 5 7 9 15 9 8 0 12 -4 9 -9z m-633 -31 c-10 -9 -11 -8 -5 6 3 10 9
15 12 12 3 -3 0 -11 -7 -18z m497 -18 c-3 -8 -7 -3 -11 10 -4 17 -3 21 5 13 5
-5 8 -16 6 -23z m387 -99 c3 -5 1 -10 -4 -10 -6 0 -11 5 -11 10 0 6 2 10 4 10
3 0 8 -4 11 -10z m-595 -70 c0 -5 -7 -10 -15 -10 -8 0 -15 5 -15 10 0 6 7 10
15 10 8 0 15 -4 15 -10z"/>
<path d="M376 1055 c-10 -7 -16 -17 -15 -22 2 -4 15 2 28 15 26 24 17 30 -13
7z"/>
<path d="M1910 1030 c-9 -6 -10 -10 -3 -10 6 0 15 5 18 10 8 12 4 12 -15 0z"/>
<path d="M1957 976 c-4 -10 -1 -13 9 -9 15 6 19 23 5 23 -5 0 -11 -7 -14 -14z"/>
<path d="M1666 364 c-6 -16 2 -18 22 -5 11 7 11 9 -1 14 -9 3 -18 -1 -21 -9z"/>
</g>
</svg>
