<?xml version="1.0" standalone="no"?>
<!DOCTYPE svg PUBLIC "-//W3C//DTD SVG 20010904//EN"
 "http://www.w3.org/TR/2001/REC-SVG-20010904/DTD/svg10.dtd">
<svg version="1.0" xmlns="http://www.w3.org/2000/svg"
 width="477.000000pt" height="375.000000pt" viewBox="0 0 477.000000 375.000000"
 preserveAspectRatio="xMidYMid meet">

<g transform="translate(0.000000,375.000000) scale(0.100000,-0.100000)"
fill="#000000" stroke="none">
<path d="M2780 3000 c0 -5 5 -10 10 -10 6 0 10 5 10 10 0 6 -4 10 -10 10 -5 0
-10 -4 -10 -10z"/>
<path d="M2880 2963 c0 -34 13 -44 23 -19 3 8 -1 22 -8 33 -13 17 -14 16 -15
-14z"/>
<path d="M3081 2904 c0 -11 3 -14 6 -6 3 7 2 16 -1 19 -3 4 -6 -2 -5 -13z"/>
<path d="M2785 2893 c-4 -10 -9 -30 -10 -45 -2 -23 1 -28 20 -28 13 0 26 7 29
16 9 23 7 36 -4 29 -6 -4 -9 3 -7 16 3 27 -18 36 -28 12z"/>
<path d="M2885 2900 c4 -6 11 -8 16 -5 14 9 11 15 -7 15 -8 0 -12 -5 -9 -10z"/>
<path d="M3106 2901 c-7 -10 3 -18 62 -49 23 -13 42 -20 42 -16 0 5 5 3 12 -4
7 -7 22 -12 34 -12 12 0 24 -7 28 -15 3 -8 15 -15 27 -15 21 0 21 1 5 19 -9
10 -36 26 -59 36 -49 20 -93 39 -124 54 -12 6 -24 7 -27 2z"/>
<path d="M2900 2870 c0 -5 5 -10 10 -10 6 0 10 5 10 10 0 6 -4 10 -10 10 -5 0
-10 -4 -10 -10z"/>
<path d="M2850 2855 c0 -8 4 -15 10 -15 5 0 7 7 4 15 -4 8 -8 15 -10 15 -2 0
-4 -7 -4 -15z"/>
<path d="M2995 2860 c3 -5 11 -10 16 -10 6 0 7 5 4 10 -3 6 -11 10 -16 10 -6
0 -7 -4 -4 -10z"/>
<path d="M2942 2844 c3 -20 64 -38 74 -23 3 5 -3 9 -13 9 -10 0 -29 7 -42 16
-22 16 -23 15 -19 -2z"/>
<path d="M3049 2858 c-7 -13 -3 -58 5 -58 5 0 6 -3 3 -7 -7 -7 85 -63 103 -63
7 0 9 8 5 20 -4 14 -2 20 9 20 8 0 23 3 33 7 10 3 15 3 11 -2 -4 -4 -1 -14 7
-21 15 -16 29 -19 20 -5 -3 5 4 16 15 24 29 20 17 25 -50 20 -40 -3 -60 -1
-60 6 0 6 6 11 13 12 6 0 1 5 -12 10 -13 5 -26 7 -28 5 -3 -2 -13 4 -24 15
-16 16 -46 26 -50 17z m83 -70 c-6 -6 -16 -7 -22 -3 -9 6 -9 9 1 16 17 10 34
0 21 -13z"/>
<path d="M3345 2820 c3 -5 10 -10 16 -10 5 0 9 5 9 10 0 6 -7 10 -16 10 -8 0
-12 -4 -9 -10z"/>
<path d="M2810 2789 c0 -11 4 -18 10 -14 5 3 7 12 3 20 -7 21 -13 19 -13 -6z"/>
<path d="M2916 2790 c3 -14 8 -27 11 -30 6 -7 23 22 23 40 0 13 -1 13 -10 0
-9 -13 -11 -13 -21 0 -8 12 -9 9 -3 -10z"/>
<path d="M3382 2803 c-6 -3 -9 -10 -5 -16 4 -7 0 -8 -11 -4 -11 4 -19 1 -23
-9 -5 -13 -15 -15 -45 -10 -34 6 -39 4 -36 -11 1 -10 -1 -24 -5 -30 -10 -16
-13 -15 51 -18 29 -2 50 1 46 6 -3 5 -1 9 5 9 6 0 15 -9 20 -19 8 -14 7 -22
-4 -31 -8 -7 -15 -8 -15 -3 0 5 -6 10 -12 11 -72 5 -150 16 -153 23 -3 4 0 11
6 15 8 4 9 3 5 -4 -4 -7 -1 -12 8 -12 9 0 16 7 16 15 0 20 -19 19 -41 -1 -14
-13 -22 -13 -39 -4 -20 11 -21 10 -15 -9 7 -24 8 -24 -33 -10 -18 6 -29 15
-26 20 3 5 -6 9 -20 9 -14 0 -26 -4 -26 -10 0 -5 7 -10 17 -10 9 0 13 -3 10
-7 -4 -3 -1 -13 7 -22 8 -9 23 -32 34 -52 20 -36 20 -37 1 -32 -21 6 -25 -7
-8 -24 7 -7 8 -17 3 -25 -5 -7 -9 -19 -9 -27 0 -8 -5 -16 -12 -18 -7 -3 -10 3
-6 15 2 10 -5 35 -16 56 -12 20 -21 43 -21 51 0 8 -6 15 -14 15 -15 0 -37 -51
-35 -84 1 -20 1 -19 7 2 11 37 27 25 25 -18 -1 -22 3 -40 8 -40 6 0 6 -7 1
-17 -8 -15 -9 -47 -3 -88 0 -5 13 4 27 20 l26 30 -17 -28 c-15 -26 -15 -31 -1
-62 9 -18 16 -43 16 -54 0 -26 25 -38 45 -21 20 17 19 30 -4 30 -16 0 -17 5
-10 52 5 32 5 56 -1 62 -6 6 -10 15 -10 21 0 5 9 -1 20 -15 l20 -25 0 32 c0
17 -5 35 -12 39 -7 4 -8 3 -4 -4 4 -7 1 -12 -7 -12 -10 0 -12 9 -9 33 5 39 30
70 50 62 12 -4 12 -3 3 9 -19 22 -10 61 14 61 14 0 19 7 20 27 0 14 3 30 8 34
4 4 7 0 7 -9 0 -10 5 -17 11 -17 5 0 8 -4 5 -8 -2 -4 -1 -14 5 -22 7 -12 9
-12 9 4 0 14 5 17 23 12 12 -3 32 -6 45 -6 15 0 22 -6 22 -18 0 -11 11 -24 25
-30 25 -12 31 -23 18 -36 -14 -13 -31 -79 -25 -95 8 -20 28 -41 40 -41 15 0
24 33 11 41 -19 11 6 42 35 44 14 0 26 -3 26 -8 0 -4 5 -5 10 -2 8 5 7 11 -1
21 -15 18 1 18 28 -1 22 -16 34 -47 24 -62 -3 -6 -17 -16 -30 -23 -20 -10 -25
-10 -33 4 -5 9 -13 14 -19 11 -28 -18 20 -80 54 -69 37 11 49 25 36 41 -9 10
-9 17 -1 25 7 7 14 -2 23 -33 8 -30 29 -61 63 -95 28 -28 59 -63 69 -77 22
-33 45 -35 49 -4 4 27 31 29 36 2 5 -25 31 -55 47 -55 19 0 38 -27 38 -56 0
-18 11 -37 33 -56 19 -17 34 -38 34 -49 0 -10 14 -34 30 -52 17 -19 30 -42 30
-50 0 -8 6 -18 13 -21 8 -3 7 -9 -7 -20 -16 -13 -17 -18 -6 -31 7 -8 15 -13
19 -11 12 8 28 -8 35 -36 7 -31 2 -35 -20 -13 -9 8 -20 15 -25 15 -10 0 -6
-86 5 -97 3 -3 6 -16 6 -29 0 -12 7 -24 15 -28 11 -4 15 1 15 19 0 14 -6 25
-12 25 -7 0 -5 5 5 11 12 7 15 17 11 35 -4 14 -2 24 5 24 6 0 11 8 11 18 1 15
2 15 15 -2 15 -19 15 -19 15 2 0 13 -7 25 -16 29 -8 3 -13 12 -10 19 3 8 1 14
-4 14 -6 0 -10 6 -10 14 0 7 -7 19 -15 26 -8 7 -15 19 -15 26 0 8 7 14 15 14
19 0 19 3 -5 50 -11 22 -20 48 -20 60 0 11 -5 20 -10 20 -6 0 -18 17 -28 38
-9 20 -21 40 -27 44 -6 5 -5 8 3 8 6 0 12 7 12 15 0 8 5 15 11 15 6 0 8 -7 5
-16 -6 -16 22 -74 36 -74 4 0 8 -8 8 -19 0 -10 6 -23 13 -28 16 -13 85 -15 92
-3 3 6 -6 10 -20 10 -24 0 -26 3 -21 25 5 18 2 25 -9 25 -8 0 -15 9 -15 20 0
11 -4 20 -10 20 -10 0 -53 81 -46 88 3 2 -6 16 -20 30 -13 15 -24 31 -24 35 0
5 -12 22 -27 38 -16 17 -38 41 -49 54 -12 13 -20 26 -17 29 3 2 -5 9 -16 16
-12 6 -21 17 -21 25 0 8 -4 15 -10 15 -5 0 -10 7 -10 15 0 8 -7 15 -16 15 -10
0 -14 5 -10 16 3 8 2 12 -4 9 -6 -3 -13 1 -16 9 -3 9 -12 16 -20 16 -7 0 -18
9 -25 21 -8 15 -18 20 -35 16 -25 -4 -34 8 -11 16 7 3 -6 22 -35 49 -26 23
-51 55 -57 71 -11 28 -25 35 -36 17 -3 -6 -17 1 -31 15 -22 22 -36 29 -55 27
-4 -1 -6 6 -5 15 1 16 -31 33 -52 26z m38 -43 c6 -11 19 -20 30 -20 11 0 28
-10 39 -21 12 -13 26 -19 35 -16 11 4 16 1 16 -11 0 -9 7 -29 14 -44 13 -25
13 -29 -4 -38 -21 -11 -65 1 -72 20 -2 8 -12 8 -28 2 -50 -17 -79 10 -46 43
11 12 17 11 34 -6 18 -16 72 -28 72 -15 0 2 3 12 7 22 4 12 3 15 -5 10 -13 -8
-82 29 -82 44 0 4 -9 10 -20 13 -11 3 -20 12 -20 21 0 22 17 20 30 -4z m-143
-96 c-3 -3 -12 -4 -19 -1 -8 3 -5 6 6 6 11 1 17 -2 13 -5z m101 -62 c2 -7 -3
-12 -12 -12 -9 0 -16 7 -16 16 0 17 22 14 28 -4z m189 -18 c-3 -3 -12 -4 -19
-1 -8 3 -5 6 6 6 11 1 17 -2 13 -5z m131 -73 c3 -8 -1 -12 -9 -9 -7 2 -15 10
-17 17 -3 8 1 12 9 9 7 -2 15 -10 17 -17z m-134 -44 c-6 -17 -25 -22 -36 -11
-9 8 26 42 35 34 4 -4 5 -14 1 -23z m161 -13 c26 -17 49 -70 34 -79 -22 -14
-83 52 -73 79 8 20 9 20 39 0z m110 -103 c-9 -16 -25 -3 -18 15 4 10 9 12 15
6 6 -6 7 -15 3 -21z m25 -11 c0 -5 -4 -10 -10 -10 -5 0 -10 5 -10 10 0 6 5 10
10 10 6 0 10 -4 10 -10z m-85 -70 c3 -5 1 -10 -4 -10 -6 0 -11 5 -11 10 0 6 2
10 4 10 3 0 8 -4 11 -10z m145 0 c0 -5 -7 -7 -15 -4 -8 4 -15 8 -15 10 0 2 7
4 15 4 8 0 15 -4 15 -10z m0 -59 c0 -11 6 -21 13 -24 6 -2 9 -8 4 -12 -8 -9
-36 23 -37 43 0 6 5 12 10 12 6 0 10 -9 10 -19z m-50 -72 c0 -10 -4 -19 -10
-19 -5 0 -10 12 -10 26 0 14 4 23 10 19 6 -3 10 -15 10 -26z m70 -121 c0 -10
-4 -18 -10 -18 -5 0 -10 9 -10 20 0 11 -9 29 -19 39 -11 11 -16 22 -13 26 9 9
52 -46 52 -67z"/>
<path d="M3410 2661 c0 -6 5 -13 10 -16 6 -3 10 1 10 9 0 9 -4 16 -10 16 -5 0
-10 -4 -10 -9z"/>
<path d="M3515 2620 c3 -5 10 -10 16 -10 5 0 9 5 9 10 0 6 -7 10 -16 10 -8 0
-12 -4 -9 -10z"/>
<path d="M2997 2794 c-3 -4 1 -13 9 -22 12 -11 18 -12 27 -3 9 9 8 14 -3 21
-18 11 -25 12 -33 4z"/>
<path d="M2950 2700 c-17 -17 -36 -44 -41 -60 -6 -16 -19 -32 -30 -35 -22 -7
-26 -47 -5 -67 16 -16 31 -58 28 -75 -2 -7 2 -13 8 -13 5 0 10 -5 10 -12 0 -6
-11 -1 -25 12 -18 17 -22 27 -14 36 6 7 6 14 1 18 -17 10 -35 -23 -29 -54 4
-16 3 -32 -2 -34 -7 -5 -8 -28 -2 -58 0 -4 8 -14 17 -22 10 -11 12 -21 6 -32
-5 -8 -5 -37 -1 -62 7 -50 2 -73 -12 -51 -7 11 -9 9 -9 -6 0 -35 11 -63 27
-70 23 -8 31 5 10 16 -15 9 -25 39 -12 39 19 0 43 -42 41 -72 -3 -36 28 -89
48 -82 6 2 18 -1 26 -6 13 -9 13 -11 0 -20 -8 -6 -23 -8 -32 -6 -11 2 -18 -2
-18 -10 0 -8 4 -14 9 -14 13 0 23 -34 15 -54 -11 -29 -22 -17 -40 42 -9 31
-23 64 -31 73 -7 8 -13 32 -13 52 0 20 -4 37 -9 37 -15 0 -20 -27 -11 -59 4
-16 6 -32 2 -35 -15 -16 -22 -1 -23 52 -1 69 -21 137 -33 107 -4 -10 -2 -21 5
-25 7 -5 9 -26 4 -62 -5 -38 -3 -58 4 -63 7 -4 9 -20 5 -41 -5 -27 -3 -34 10
-34 9 0 13 -6 10 -14 -3 -8 6 -21 23 -31 21 -12 33 -31 43 -68 16 -54 31 -64
41 -25 5 22 5 22 12 -4 4 -16 12 -28 17 -28 13 0 13 27 1 34 -5 4 -8 17 -6 31
1 14 -1 28 -6 31 -11 7 1 34 15 34 8 0 11 -10 8 -29 -2 -16 1 -32 7 -35 6 -4
11 -22 11 -39 0 -18 7 -41 15 -51 8 -11 15 -29 14 -40 0 -16 -4 -12 -17 14
-21 44 -21 44 -28 38 -3 -3 2 -32 12 -64 13 -44 19 -54 24 -40 8 23 60 30 60
8 0 -7 5 -10 11 -6 10 6 28 -12 29 -28 0 -12 -34 4 -47 21 -18 24 -34 2 -25
-34 7 -26 9 -27 16 -10 7 19 8 19 17 2 12 -21 3 -38 -16 -30 -23 8 -18 -13 10
-44 22 -24 25 -25 23 -8 -2 13 2 19 11 17 9 -2 12 4 8 18 -3 13 0 20 9 20 8 0
15 -11 16 -27 0 -16 1 -35 2 -43 1 -8 13 -21 28 -28 16 -7 31 -26 38 -47 8
-24 18 -35 31 -35 23 0 73 -46 64 -59 -3 -5 -1 -12 5 -16 5 -3 10 -1 10 4 0 6
7 11 16 11 13 0 15 -8 12 -35 -2 -20 0 -31 5 -26 5 5 19 4 32 -3 18 -8 23 -17
19 -33 -6 -23 22 -43 81 -57 28 -7 29 -8 11 -21 -12 -9 -16 -20 -12 -31 6 -16
8 -16 22 2 14 18 15 18 9 -4 -4 -12 -3 -22 2 -21 23 4 33 -3 33 -23 0 -21 0
-21 21 -2 15 14 17 20 8 22 -17 3 -42 54 -31 61 12 9 14 41 2 41 -5 0 -10 -9
-10 -20 0 -31 -18 -23 -25 11 -9 38 7 58 30 39 8 -7 15 -8 15 -2 0 16 -29 35
-44 29 -8 -3 -17 1 -20 9 -9 23 -7 27 8 21 10 -4 13 -1 9 9 -3 7 -1 14 4 14
13 0 9 68 -5 82 -7 7 -17 6 -31 -1 -23 -13 -28 -2 -9 17 6 6 8 15 3 19 -4 5
-10 2 -12 -5 -4 -10 -9 -8 -20 7 -8 12 -12 25 -9 30 10 16 -4 37 -24 38 -11 1
-18 -2 -15 -8 4 -5 13 -9 21 -9 8 0 14 -4 14 -10 0 -24 -38 -8 -53 23 l-16 32
2 -29 c1 -19 9 -32 24 -39 13 -6 23 -14 23 -19 0 -5 7 -16 16 -25 8 -9 13 -22
10 -29 -3 -8 -1 -14 4 -14 6 0 10 -5 10 -11 0 -6 -8 -9 -17 -7 -10 2 -17 10
-15 16 2 13 -5 24 -45 67 -13 13 -23 36 -23 50 0 14 -4 25 -8 25 -5 0 -14 12
-21 27 -10 21 -9 28 1 35 10 6 7 13 -12 28 -14 11 -19 20 -11 20 10 0 11 3 2
14 -9 11 -9 15 1 18 10 4 10 8 -1 21 -19 23 -7 47 24 47 15 0 25 6 25 14 0 14
-6 16 -62 18 -17 0 -25 5 -22 13 3 7 -4 19 -15 27 -12 8 -18 18 -14 21 3 4 1
7 -5 7 -6 0 -14 -5 -18 -11 -4 -8 -9 -7 -16 2 -5 9 -6 3 -2 -16 4 -16 11 -35
16 -42 6 -7 4 -13 -4 -15 -11 -4 -10 -9 0 -30 8 -14 15 -42 16 -62 2 -20 12
-46 23 -59 41 -45 55 -75 48 -106 -5 -23 -1 -34 16 -50 26 -24 35 -26 42 -8 4
7 6 6 6 -4 2 -28 -23 -41 -53 -28 -21 10 -27 21 -32 61 -4 28 -13 52 -20 55
-8 3 -14 10 -14 17 0 6 -11 34 -25 61 -13 28 -25 55 -25 62 0 6 -4 13 -8 15
-4 2 -21 25 -36 52 -26 45 -33 69 -40 146 -1 14 -8 38 -14 54 -7 16 -10 32 -6
35 4 3 8 2 11 -4 8 -23 22 -39 29 -32 4 3 1 14 -7 23 -11 14 -10 18 10 33 15
12 22 25 19 41 -2 17 2 26 15 28 10 2 17 -3 17 -12 0 -9 7 -16 16 -16 12 0 14
3 6 13 -6 6 -11 17 -11 22 -1 6 -5 10 -11 10 -19 0 -45 51 -45 90 0 33 -4 42
-28 53 -35 17 -40 13 -27 -24 8 -20 13 -25 19 -15 6 10 10 9 15 -4 9 -23 8
-25 -9 -25 -20 0 -19 -29 1 -37 11 -4 14 -13 10 -29 -4 -15 -2 -24 5 -24 8 0
7 -5 -2 -16 -11 -14 -15 -12 -33 18 -31 49 -51 44 -51 -15 -1 -26 3 -47 7 -47
4 0 8 -4 8 -10 0 -21 -37 -9 -51 18 -8 15 -20 32 -28 38 -17 13 -7 34 17 34
13 0 12 5 -8 19 -13 11 -28 17 -32 15 -4 -3 -8 -1 -8 5 0 5 5 13 10 16 8 5 7
11 -1 21 -25 31 11 108 42 88 5 -3 9 0 9 7 0 23 -35 119 -44 119 -4 0 -5 -8
-1 -17 18 -42 17 -64 -1 -78 -10 -7 -22 -11 -26 -9 -11 7 -1 136 11 144 9 5 8
14 -3 34 -9 17 -12 42 -9 62 4 23 2 34 -6 34 -7 0 -9 5 -5 11 3 6 6 36 5 65
-1 55 14 73 25 30 5 -22 8 -23 35 -12 27 10 28 12 13 23 -13 9 -21 10 -31 2
-10 -9 -13 -8 -13 5 0 9 4 16 9 16 5 0 11 11 13 25 3 14 4 25 2 25 -2 0 -17
-14 -34 -30z m-46 -355 c10 -19 12 -33 5 -41 -6 -7 -6 -21 1 -39 6 -15 8 -30
5 -33 -11 -11 -18 10 -21 59 -2 29 -6 61 -10 73 -8 27 1 19 20 -19z m46 -115
c0 -5 -5 -10 -11 -10 -5 0 -7 5 -4 10 3 6 8 10 11 10 2 0 4 -4 4 -10z m-65
-230 c3 -5 1 -10 -4 -10 -6 0 -11 5 -11 10 0 6 2 10 4 10 3 0 8 -4 11 -10z
m175 -250 c0 -5 -4 -10 -10 -10 -5 0 -10 5 -10 10 0 6 5 10 10 10 6 0 10 -4
10 -10z m35 -20 c3 -5 -1 -10 -9 -10 -9 0 -16 5 -16 10 0 6 4 10 9 10 6 0 13
-4 16 -10z m172 -22 c-3 -8 -6 -5 -6 6 -1 11 2 17 5 13 3 -3 4 -12 1 -19z m13
-28 c0 -5 -5 -10 -11 -10 -5 0 -7 5 -4 10 3 6 8 10 11 10 2 0 4 -4 4 -10z
m118 -292 c-7 -19 -38 -22 -38 -4 0 10 9 16 21 16 12 0 19 -5 17 -12z m24 -55
c-5 -24 -6 -25 -18 -8 -15 20 -10 35 10 35 9 0 12 -9 8 -27z m77 13 c9 -11 8
-15 -5 -20 -25 -9 -34 -7 -34 8 0 8 -6 17 -12 19 -7 3 -1 6 13 6 15 1 32 -5
38 -13z m-29 -86 c0 -6 7 -13 15 -16 15 -6 21 -24 8 -24 -18 1 -50 38 -57 65
l-7 30 20 -22 c12 -12 21 -27 21 -33z"/>
<path d="M2812 2664 c4 -21 22 -23 26 -1 2 10 -3 17 -13 17 -10 0 -15 -6 -13
-16z"/>
<path d="M2871 2644 c0 -11 3 -14 6 -6 3 7 2 16 -1 19 -3 4 -6 -2 -5 -13z"/>
<path d="M3196 2421 c-4 -7 -5 -15 -2 -18 9 -9 19 4 14 18 -4 11 -6 11 -12 0z"/>
<path d="M2955 2390 c3 -5 8 -10 11 -10 2 0 4 5 4 10 0 6 -5 10 -11 10 -5 0
-7 -4 -4 -10z"/>
<path d="M3190 2366 c0 -2 7 -6 15 -10 8 -3 15 -1 15 4 0 6 -7 10 -15 10 -8 0
-15 -2 -15 -4z"/>
<path d="M3410 2340 c0 -5 5 -10 11 -10 5 0 7 5 4 10 -3 6 -8 10 -11 10 -2 0
-4 -4 -4 -10z"/>
<path d="M3020 2306 c0 -2 7 -9 15 -16 13 -11 14 -10 9 4 -5 14 -24 23 -24 12z"/>
<path d="M3474 2294 c3 -9 6 -18 6 -20 0 -2 8 -4 19 -4 10 0 23 -6 28 -12 17
-21 21 -67 8 -85 -19 -26 -42 -9 -50 38 l-7 43 -15 -28 c-13 -24 -13 -30 1
-51 9 -13 24 -26 34 -29 26 -9 72 10 72 29 0 22 -31 97 -48 118 -19 22 -57 23
-48 1z"/>
<path d="M2055 2280 c-3 -5 -1 -10 4 -10 6 0 11 5 11 10 0 6 -2 10 -4 10 -3 0
-8 -4 -11 -10z"/>
<path d="M2010 2255 c-7 -8 -23 -15 -37 -15 -13 0 -22 -4 -19 -9 4 -5 0 -12
-6 -14 -7 -3 -4 -6 7 -7 17 -1 17 -3 -5 -12 -14 -6 -20 -12 -14 -14 6 -3 26 2
45 10 24 11 28 15 14 16 -18 1 -17 3 9 26 15 14 26 27 24 30 -3 2 -11 -2 -18
-11z"/>
<path d="M2155 2250 c3 -5 8 -10 11 -10 2 0 4 5 4 10 0 6 -5 10 -11 10 -5 0
-7 -4 -4 -10z"/>
<path d="M3041 2238 c-1 -15 4 -30 9 -33 12 -7 12 12 0 40 -8 18 -9 17 -9 -7z"/>
<path d="M2160 2233 c-65 -16 -161 -49 -235 -82 -22 -10 -58 -24 -80 -31 -59
-19 -72 -24 -165 -68 -47 -21 -101 -45 -120 -51 -41 -14 -86 -48 -76 -58 4 -4
11 -1 16 7 5 8 12 11 17 7 10 -10 -18 -28 -35 -22 -19 7 -114 -65 -108 -81 3
-8 0 -14 -7 -15 -7 0 -3 -4 8 -9 11 -4 24 -4 30 1 17 16 33 9 31 -14 -1 -24
-19 -29 -45 -13 -7 5 -29 12 -47 16 -29 7 -34 5 -34 -10 0 -10 -7 -21 -16 -24
-25 -9 -27 -7 -13 11 13 15 12 15 -7 3 -13 -8 -21 -24 -22 -43 -1 -32 -12 -49
-19 -29 -3 6 -11 12 -18 12 -14 0 -24 -19 -18 -35 2 -6 19 -9 40 -7 26 3 34 1
28 -7 -4 -7 -13 -10 -20 -7 -7 2 -16 1 -21 -3 -5 -5 -22 -11 -38 -15 -26 -6
-27 -6 -12 9 21 22 20 28 -2 14 -24 -15 -56 -70 -39 -68 20 2 57 -13 57 -23 0
-5 -13 -7 -30 -3 -37 8 -70 -2 -70 -22 0 -9 6 -13 15 -9 9 3 15 0 15 -9 0 -8
-5 -15 -11 -15 -6 0 -9 -6 -6 -13 3 -8 -8 -19 -27 -27 -17 -8 -37 -19 -43 -26
-18 -17 -16 -37 2 -30 8 3 15 1 15 -4 0 -6 11 -10 25 -10 15 0 25 -6 25 -14 0
-23 -17 -28 -25 -8 -6 16 -7 16 -20 -1 -9 -12 -15 -14 -20 -7 -13 20 -36 -11
-30 -39 4 -21 0 -28 -19 -37 -21 -10 -26 -9 -29 5 -3 10 -5 8 -6 -7 0 -13 -5
-21 -10 -17 -5 3 -13 0 -17 -7 -5 -8 -10 -6 -15 8 -6 16 -8 15 -8 -8 -1 -16 4
-28 10 -28 6 0 3 -7 -5 -16 -20 -19 -21 -48 -2 -41 17 7 60 -40 45 -49 -6 -3
-16 -1 -22 5 -6 6 -20 11 -31 11 -21 -1 -21 -1 -2 -15 11 -8 32 -15 48 -15 18
0 33 -8 43 -24 17 -25 94 -56 139 -56 21 0 26 -5 26 -26 0 -21 4 -24 20 -19
30 10 77 -20 85 -55 4 -16 4 -34 0 -40 -3 -5 6 -21 21 -35 27 -25 51 -34 39
-14 -4 5 5 28 19 49 14 22 26 42 26 45 0 3 5 11 10 18 6 7 17 21 24 32 12 16
16 17 30 6 9 -7 16 -20 16 -29 0 -13 2 -13 18 1 20 18 34 13 26 -8 -7 -18 14
-55 29 -52 18 3 34 21 38 42 2 10 16 22 32 26 20 5 27 4 24 -4 -2 -7 -9 -12
-15 -12 -7 0 -12 -4 -12 -10 0 -18 72 -11 84 8 8 13 8 20 -3 26 -9 6 -10 11
-2 15 20 13 30 -4 25 -42 l-4 -37 22 48 c23 51 34 57 54 30 12 -17 13 -16 14
7 0 18 3 21 9 11 5 -7 14 -10 20 -7 6 4 12 1 12 -6 1 -7 3 -24 6 -38 2 -14 4
-51 4 -82 0 -34 5 -58 11 -58 6 0 6 -6 -2 -15 -7 -8 -9 -15 -4 -15 15 1 71 83
83 122 7 20 19 42 28 50 14 11 14 9 -1 -13 -10 -17 -15 -36 -11 -51 4 -15 0
-30 -14 -44 -19 -21 -19 -21 5 -21 13 0 24 5 24 13 0 7 9 16 21 19 19 7 20 7
2 21 -16 12 -16 15 -3 24 15 9 33 -5 43 -34 3 -7 9 -7 20 3 14 11 18 11 23 -5
3 -11 12 -31 20 -46 21 -39 17 -44 -11 -18 -14 13 -25 30 -25 38 0 9 -3 13 -6
9 -4 -3 -3 -22 0 -42 5 -27 12 -35 28 -35 17 0 20 -5 16 -30 -6 -37 7 -40 16
-4 6 23 83 191 92 203 2 2 7 1 11 -3 4 -3 2 -11 -4 -17 -6 -6 -9 -18 -6 -26 3
-8 -3 -20 -13 -27 -17 -13 -17 -15 -1 -30 16 -16 17 -16 18 6 1 20 2 20 6 3
10 -48 17 -46 28 10 l11 60 9 -40 c4 -22 13 -43 19 -47 7 -5 4 -8 -6 -8 -12 0
-18 8 -18 22 0 12 -3 19 -6 15 -11 -11 7 -67 22 -67 20 0 17 -10 -12 -36 -29
-28 -24 -31 11 -8 15 10 34 14 48 10 30 -7 45 18 57 94 13 81 27 140 34 147 3
4 6 -21 6 -55 0 -62 6 -72 28 -50 18 18 28 0 13 -23 -7 -12 -11 -22 -9 -22 2
-1 17 -10 34 -19 17 -10 33 -15 36 -12 3 2 3 -8 1 -23 -4 -27 -4 -27 12 -8 8
11 13 25 10 33 -2 7 -1 11 4 8 5 -3 12 10 16 30 7 42 18 38 17 -6 0 -17 3 -28
7 -26 4 3 21 -8 37 -25 l29 -31 -30 13 c-16 8 -33 18 -37 24 -5 6 -8 3 -8 -7
0 -10 3 -18 8 -18 4 0 12 -8 19 -18 10 -17 8 -18 -15 -15 -21 4 -24 2 -12 -6
12 -9 11 -11 -7 -11 -13 0 -23 -4 -23 -10 0 -5 -12 -13 -27 -16 -34 -9 -112
-43 -98 -44 41 -1 273 91 324 128 40 29 141 123 141 132 0 3 -25 25 -56 49
-59 46 -168 175 -180 213 -3 13 -10 25 -13 28 -4 3 -17 25 -29 50 -13 25 -29
56 -37 70 -26 48 -74 155 -80 182 -4 16 -10 26 -14 24 -4 -3 -18 29 -31 71
-22 69 -23 76 -7 85 16 8 16 12 2 38 -20 39 -28 38 -20 -2 7 -33 7 -33 -10
-10 -9 13 -14 30 -11 38 3 8 -2 26 -11 40 -13 20 -14 29 -4 51 10 23 10 25 -3
14 -12 -10 -15 -3 -19 46 -3 32 -13 87 -22 123 -9 36 -21 89 -27 118 -12 60
-15 61 -128 35z m-515 -233 c-3 -5 -11 -10 -16 -10 -6 0 -7 5 -4 10 3 6 11 10
16 10 6 0 7 -4 4 -10z m-40 -34 c0 -13 -4 -28 -9 -33 -5 -5 -7 -1 -3 10 5 14
0 19 -26 24 -31 7 -31 7 -7 14 41 12 46 10 45 -15z m-115 -70 c0 -3 -4 -8 -10
-11 -5 -3 -10 -1 -10 4 0 6 5 11 10 11 6 0 10 -2 10 -4z m105 -26 c8 -13 -5
-13 -25 0 -13 8 -13 10 2 10 9 0 20 -4 23 -10z m-175 -10 c0 -5 -4 -10 -10
-10 -5 0 -10 5 -10 10 0 6 5 10 10 10 6 0 10 -4 10 -10z m-75 -96 c37 -24 40
-44 5 -44 -29 0 -37 16 -15 32 6 4 2 8 -7 8 -10 0 -18 5 -18 10 0 14 7 13 35
-6z m-58 -26 c-3 -7 -5 -2 -5 12 0 14 2 19 5 13 2 -7 2 -19 0 -25z m45 -47 c4
-3 -6 -6 -22 -6 -18 0 -30 5 -30 13 0 13 35 8 52 -7z m-157 -51 c3 -5 -1 -10
-10 -10 -9 0 -13 5 -10 10 3 6 8 10 10 10 2 0 7 -4 10 -10z m23 -87 c5 -18
-23 -16 -39 3 -11 14 -10 15 11 12 13 -1 25 -9 28 -15z m22 -504 c0 -14 -17
-10 -23 5 -4 10 -1 13 9 9 7 -3 14 -9 14 -14z m787 -101 c-3 -8 -6 -5 -6 6 -1
11 2 17 5 13 3 -3 4 -12 1 -19z m203 -9 c0 -6 -4 -7 -10 -4 -5 3 -10 11 -10
16 0 6 5 7 10 4 6 -3 10 -11 10 -16z m65 -39 c-3 -5 -11 -10 -16 -10 -6 0 -7
5 -4 10 3 6 11 10 16 10 6 0 7 -4 4 -10z m-425 -14 c0 -3 -4 -8 -10 -11 -5 -3
-10 -1 -10 4 0 6 5 11 10 11 6 0 10 -2 10 -4z m440 -36 c0 -5 -4 -10 -10 -10
-5 0 -10 5 -10 10 0 6 5 10 10 10 6 0 10 -4 10 -10z"/>
<path d="M1345 1740 c-3 -5 -1 -10 4 -10 6 0 11 5 11 10 0 6 -2 10 -4 10 -3 0
-8 -4 -11 -10z"/>
<path d="M3620 2169 c0 -5 5 -7 10 -4 6 3 10 8 10 11 0 2 -4 4 -10 4 -5 0 -10
-5 -10 -11z"/>
<path d="M3727 2160 c3 -11 13 -20 22 -19 10 0 11 2 4 6 -7 2 -13 11 -13 19 0
8 -4 14 -9 14 -5 0 -7 -9 -4 -20z"/>
<path d="M1700 2146 c0 -8 7 -16 15 -20 9 -3 15 0 15 8 0 8 6 17 13 19 6 3 0
6 -15 6 -18 1 -28 -4 -28 -13z"/>
<path d="M3590 2094 c0 -8 5 -12 10 -9 6 3 10 10 10 16 0 5 -4 9 -10 9 -5 0
-10 -7 -10 -16z"/>
<path d="M3817 2063 c-3 -5 -2 -23 0 -40 4 -24 11 -33 24 -33 22 0 24 18 7 55
-11 25 -23 32 -31 18z"/>
<path d="M3250 2019 c0 -5 5 -7 10 -4 6 3 10 8 10 11 0 2 -4 4 -10 4 -5 0 -10
-5 -10 -11z"/>
<path d="M3184 2009 c-2 -4 0 -10 6 -14 11 -7 30 2 30 14 0 10 -29 10 -36 0z"/>
<path d="M4054 1973 c5 -17 3 -29 -6 -35 -9 -5 -4 -7 12 -5 14 2 29 13 35 25
5 12 15 22 22 22 7 0 13 5 13 10 0 15 -16 12 -30 -5 -7 -8 -16 -15 -21 -15 -5
0 -9 7 -9 15 0 8 -5 15 -11 15 -7 0 -9 -10 -5 -27z"/>
<path d="M3166 1974 c-13 -9 -16 -18 -10 -23 5 -6 16 -4 28 5 13 9 16 18 10
23 -5 6 -16 4 -28 -5z"/>
<path d="M3830 1970 c-12 -7 -12 -12 -2 -22 9 -9 15 -9 24 0 16 16 -2 34 -22
22z"/>
<path d="M3187 1919 c-12 -42 -8 -58 16 -64 12 -3 34 -1 47 5 23 10 23 10 2 6
-19 -4 -22 -1 -20 22 2 19 -2 27 -12 27 -8 0 -18 7 -21 14 -4 11 -8 8 -12 -10z"/>
<path d="M4080 1896 c0 -8 -3 -22 -7 -32 -4 -12 -3 -15 5 -10 7 4 12 1 12 -8
0 -9 7 -16 15 -16 22 0 19 36 -5 60 -15 15 -20 16 -20 6z"/>
<path d="M3887 1839 c-15 -17 -14 -19 19 -35 41 -20 48 -16 35 18 -13 34 -34
40 -54 17z"/>
<path d="M3270 1830 c0 -5 4 -10 9 -10 6 0 13 5 16 10 3 6 -1 10 -9 10 -9 0
-16 -4 -16 -10z"/>
<path d="M4135 1820 c-3 -5 -2 -10 4 -10 5 0 13 5 16 10 3 6 2 10 -4 10 -5 0
-13 -4 -16 -10z"/>
<path d="M4100 1810 c0 -5 5 -10 10 -10 6 0 10 5 10 10 0 6 -4 10 -10 10 -5 0
-10 -4 -10 -10z"/>
<path d="M3365 1799 c-11 -17 1 -21 15 -4 8 9 8 15 2 15 -6 0 -14 -5 -17 -11z"/>
<path d="M3882 1763 c0 -34 16 -66 29 -58 10 7 12 45 3 69 -10 26 -31 18 -32
-11z"/>
<path d="M3395 1770 c-3 -5 -1 -10 4 -10 6 0 11 5 11 10 0 6 -2 10 -4 10 -3 0
-8 -4 -11 -10z"/>
<path d="M4105 1770 c3 -5 8 -10 11 -10 2 0 4 5 4 10 0 6 -5 10 -11 10 -5 0
-7 -4 -4 -10z"/>
<path d="M2940 1760 c0 -5 5 -10 11 -10 5 0 7 5 4 10 -3 6 -8 10 -11 10 -2 0
-4 -4 -4 -10z"/>
<path d="M3390 1736 c0 -9 5 -16 10 -16 6 0 10 4 10 9 0 6 -4 13 -10 16 -5 3
-10 -1 -10 -9z"/>
<path d="M3326 1721 c-3 -5 6 -11 19 -14 29 -5 43 8 19 17 -22 8 -32 8 -38 -3z"/>
<path d="M4120 1685 c0 -39 14 -47 24 -12 9 35 7 47 -9 47 -10 0 -15 -11 -15
-35z"/>
<path d="M3905 1670 c-3 -5 6 -17 20 -26 14 -9 25 -24 25 -34 0 -14 5 -17 21
-13 14 4 25 0 31 -11 14 -26 38 -20 38 10 0 24 -3 26 -30 21 -25 -6 -34 -1
-57 28 -29 37 -38 41 -48 25z"/>
<path d="M3460 1640 c0 -5 5 -10 11 -10 5 0 7 5 4 10 -3 6 -8 10 -11 10 -2 0
-4 -4 -4 -10z"/>
<path d="M3890 1633 c0 -11 8 -31 18 -44 19 -22 19 -22 24 -1 4 14 -2 28 -18
43 -24 22 -24 22 -24 2z"/>
<path d="M4130 1584 c0 -16 -5 -35 -10 -40 -7 -7 -6 -20 4 -39 8 -16 13 -32
10 -37 -3 -4 0 -8 5 -8 10 0 16 54 11 110 -3 38 -20 50 -20 14z"/>
<path d="M4061 1584 c0 -11 3 -14 6 -6 3 7 2 16 -1 19 -3 4 -6 -2 -5 -13z"/>
<path d="M1060 1530 c0 -5 5 -10 11 -10 5 0 7 5 4 10 -3 6 -8 10 -11 10 -2 0
-4 -4 -4 -10z"/>
<path d="M3946 1531 c-3 -5 1 -14 8 -20 12 -10 13 -8 9 8 -6 23 -9 25 -17 12z"/>
<path d="M1000 1485 c-7 -9 -11 -17 -9 -20 3 -2 10 5 17 15 14 24 10 26 -8 5z"/>
<path d="M4037 1483 c-11 -10 -8 -43 3 -43 6 0 10 11 10 25 0 26 -2 29 -13 18z"/>
<path d="M4100 1449 c0 -5 5 -7 10 -4 6 3 10 8 10 11 0 2 -4 4 -10 4 -5 0 -10
-5 -10 -11z"/>
<path d="M973 1442 c-8 -5 -9 -13 -3 -22 11 -17 23 -8 18 14 -2 9 -8 12 -15 8z"/>
<path d="M4095 1400 c-3 -5 1 -10 9 -10 9 0 16 5 16 10 0 6 -4 10 -9 10 -6 0
-13 -4 -16 -10z"/>
<path d="M3200 1380 c0 -5 5 -10 11 -10 5 0 7 5 4 10 -3 6 -8 10 -11 10 -2 0
-4 -4 -4 -10z"/>
<path d="M3777 1383 c-4 -6 0 -16 8 -23 8 -7 15 -19 15 -27 0 -7 6 -16 14 -19
20 -8 8 -34 -15 -34 -10 0 -29 -11 -43 -24 -23 -24 -24 -24 -29 -5 -3 10 -1
19 4 19 19 0 1 63 -26 88 l-27 27 6 -50 c3 -27 3 -44 0 -37 -8 16 -64 16 -64
-1 0 -7 6 -19 13 -26 10 -11 9 -14 -1 -18 -7 -3 -20 -18 -28 -35 -13 -25 -13
-32 -3 -39 10 -6 10 -11 -2 -25 -10 -12 -10 -15 -1 -10 7 4 19 2 27 -4 8 -6
19 -9 24 -6 5 4 12 2 16 -4 4 -7 13 -6 28 1 17 9 20 9 10 -1 -6 -7 -9 -19 -6
-26 3 -8 0 -14 -7 -14 -6 0 -8 5 -5 10 3 6 1 10 -4 10 -6 0 -11 -9 -11 -20 0
-33 39 -26 52 10 8 24 15 29 29 25 14 -5 19 -1 19 14 0 12 5 21 10 21 6 0 10
-6 10 -14 0 -8 3 -22 7 -32 5 -14 2 -16 -15 -12 -18 5 -22 2 -23 -20 -1 -27
-1 -26 -8 3 l-7 30 -5 -32 c-3 -18 -3 -33 0 -34 3 0 14 -2 24 -4 9 -2 17 3 17
10 0 7 9 15 21 18 17 5 20 12 17 54 -2 39 -6 47 -20 45 -10 -2 -18 2 -18 8 0
5 -3 9 -7 9 -28 -5 -54 3 -50 14 2 6 11 10 18 8 41 -12 103 -8 117 6 14 14 17
13 30 -3 13 -17 13 -16 7 16 -4 20 -19 46 -36 61 -16 14 -29 30 -29 35 0 18
-47 67 -53 57z m73 -123 c0 -24 -23 -26 -41 -3 -12 15 -12 16 3 10 10 -3 20
-2 23 3 10 16 15 12 15 -10z m-167 -5 c13 -9 17 -20 12 -34 -8 -26 -21 -27
-28 -3 -2 9 -8 25 -12 35 -9 20 3 22 28 2z"/>
<path d="M3810 1380 c0 -5 5 -10 10 -10 6 0 10 5 10 10 0 6 -4 10 -10 10 -5 0
-10 -4 -10 -10z"/>
<path d="M3290 1320 c0 -5 5 -10 10 -10 6 0 10 5 10 10 0 6 -4 10 -10 10 -5 0
-10 -4 -10 -10z"/>
<path d="M3598 1263 c7 -3 16 -2 19 1 4 3 -2 6 -13 5 -11 0 -14 -3 -6 -6z"/>
<path d="M3440 1160 c0 -5 5 -10 11 -10 5 0 7 5 4 10 -3 6 -8 10 -11 10 -2 0
-4 -4 -4 -10z"/>
<path d="M3870 1150 c0 -5 5 -10 10 -10 6 0 10 5 10 10 0 6 -4 10 -10 10 -5 0
-10 -4 -10 -10z"/>
<path d="M4040 1136 c-12 -16 -42 -118 -35 -124 2 -2 -12 -27 -32 -54 l-35
-51 26 -23 c29 -28 62 -31 94 -8 29 20 28 30 -8 49 -16 9 -30 22 -30 30 0 21
14 19 35 -5 14 -16 21 -18 33 -8 30 26 -6 138 -45 138 -30 0 -10 15 23 18 23
1 46 -5 65 -19 37 -26 84 -23 84 6 0 15 -8 21 -30 23 -16 2 -35 12 -43 23 -16
23 -84 26 -102 5z"/>
<path d="M927 1023 c3 -10 10 -23 15 -29 9 -13 136 -40 144 -31 10 10 -28 37
-52 37 -14 0 -42 9 -64 20 -48 24 -51 25 -43 3z"/>
<path d="M1740 1010 c0 -5 5 -10 11 -10 5 0 7 5 4 10 -3 6 -8 10 -11 10 -2 0
-4 -4 -4 -10z"/>
<path d="M1130 1001 c0 -5 5 -13 10 -16 6 -3 10 -2 10 4 0 5 -4 13 -10 16 -5
3 -10 2 -10 -4z"/>
<path d="M1649 949 c-10 -6 -7 -9 14 -9 29 0 35 5 14 13 -8 3 -20 1 -28 -4z"/>
<path d="M1511 914 c0 -11 3 -14 6 -6 3 7 2 16 -1 19 -3 4 -6 -2 -5 -13z"/>
<path d="M2435 860 c4 -6 11 -8 16 -5 14 9 11 15 -7 15 -8 0 -12 -5 -9 -10z"/>
<path d="M3815 842 c-64 -24 -84 -26 -225 -27 -175 0 -373 11 -440 25 -25 5
-59 9 -75 10 -27 0 -31 -4 -33 -29 -3 -39 21 -55 123 -86 120 -36 237 -55 340
-55 106 0 173 18 278 74 38 20 75 36 83 36 9 0 12 5 9 10 -3 6 3 10 14 10 32
0 50 11 44 26 -3 8 0 14 6 14 6 0 11 5 11 10 0 17 -61 8 -135 -18z"/>
<path d="M1295 850 c3 -5 10 -10 16 -10 5 0 9 5 9 10 0 6 -7 10 -16 10 -8 0
-12 -4 -9 -10z"/>
<path d="M2120 815 c0 -8 4 -15 9 -15 5 0 11 7 15 15 3 9 0 15 -9 15 -8 0 -15
-7 -15 -15z"/>
<path d="M2000 780 c-8 -5 -11 -12 -7 -16 4 -4 15 0 24 9 18 18 8 23 -17 7z"/>
<path d="M2025 750 c-3 -5 1 -10 9 -10 9 0 16 5 16 10 0 6 -4 10 -9 10 -6 0
-13 -4 -16 -10z"/>
<path d="M2300 690 c0 -6 11 -8 28 -4 39 10 40 14 4 14 -18 0 -32 -5 -32 -10z"/>
<path d="M2156 671 c-5 -7 -42 -19 -78 -25 -3 -1 -10 -5 -15 -10 -10 -11 68 3
83 15 6 5 15 5 19 1 5 -4 5 -2 2 5 -4 6 -1 14 5 16 9 4 10 6 1 6 -6 1 -14 -3
-17 -8z"/>
<path d="M1889 655 c-1 -5 -1 -13 0 -17 0 -5 -6 -8 -15 -8 -8 0 -12 5 -9 10 3
6 1 10 -4 10 -6 0 -11 -5 -11 -10 0 -6 -30 -9 -77 -8 -56 2 -88 -2 -113 -14
-19 -9 -45 -19 -57 -23 -13 -3 -23 -11 -23 -16 0 -15 185 -3 335 22 123 21
134 24 88 27 -29 2 -53 8 -53 14 0 6 -6 6 -15 -2 -13 -11 -18 -10 -30 6 -8 10
-15 15 -16 9z"/>
</g>
</svg>
