<?xml version="1.0" standalone="no"?>
<!DOCTYPE svg PUBLIC "-//W3C//DTD SVG 20010904//EN"
 "http://www.w3.org/TR/2001/REC-SVG-20010904/DTD/svg10.dtd">
<svg version="1.0" xmlns="http://www.w3.org/2000/svg"
 width="640.000000pt" height="480.000000pt" viewBox="0 0 640.000000 480.000000"
 preserveAspectRatio="xMidYMid meet">

<g transform="translate(0.000000,480.000000) scale(0.100000,-0.100000)"
fill="#000000" stroke="none">
<path d="M1942 4018 c-18 -5 -30 -13 -27 -18 4 -6 -1 -13 -9 -16 -31 -12 -15
-22 19 -12 19 6 31 16 28 21 -4 6 0 8 10 4 9 -3 19 -2 22 3 8 13 35 13 35 -1
0 -5 -4 -7 -10 -4 -15 9 -12 -11 4 -24 11 -9 15 -9 19 1 3 9 9 7 21 -7 17 -20
17 -20 7 2 -6 12 -8 23 -3 26 4 2 2 2 -5 1 -7 -2 -15 1 -18 6 -4 6 8 10 25 10
17 0 33 -6 36 -14 3 -9 12 -12 22 -9 12 5 14 2 9 -11 -4 -10 -3 -15 3 -11 17
10 11 25 -12 35 -19 7 -14 9 25 9 30 1 46 -3 42 -9 -3 -5 -2 -10 4 -10 5 0 12
6 14 13 4 9 7 9 15 -1 5 -7 16 -10 26 -6 9 3 16 3 15 -2 -4 -22 2 -44 11 -44
7 0 7 6 0 19 -8 16 -6 22 6 29 12 7 13 11 5 16 -17 11 -301 14 -339 4z"/>
<path d="M1785 3991 c-3 -5 2 -11 10 -15 8 -3 17 -1 20 3 3 5 -2 11 -10 15 -8
3 -17 1 -20 -3z"/>
<path d="M1852 3988 c2 -6 10 -14 16 -16 7 -2 10 2 6 12 -7 18 -28 22 -22 4z"/>
<path d="M2333 3993 c9 -2 23 -2 30 0 6 3 -1 5 -18 5 -16 0 -22 -2 -12 -5z"/>
<path d="M2372 3983 c-7 -2 -17 -14 -23 -26 -9 -21 -9 -21 5 -3 8 10 19 15 25
12 5 -4 13 -2 16 4 5 8 11 8 20 0 8 -7 19 -9 25 -5 14 9 38 -17 33 -35 -4 -12
-3 -12 5 -1 7 10 14 10 30 2 11 -6 24 -11 29 -11 4 1 -5 8 -22 17 -16 9 -35
24 -42 33 -11 16 -73 24 -101 13z"/>
<path d="M1745 3960 c-3 -6 1 -7 9 -4 18 7 21 14 7 14 -6 0 -13 -4 -16 -10z"/>
<path d="M1954 3959 c-3 -6 -3 -13 0 -16 3 -4 6 -1 6 5 0 6 7 9 15 6 8 -4 15
-4 15 -1 0 11 -30 16 -36 6z"/>
<path d="M1659 3958 c-7 -25 -5 -38 7 -38 9 0 12 -4 9 -10 -7 -11 21 -2 48 15
14 10 15 14 4 23 -8 7 -18 7 -27 2 -13 -8 -13 -10 0 -10 10 0 11 -3 2 -12 -8
-8 -15 -8 -26 2 -9 7 -13 16 -10 21 3 5 3 9 0 9 -3 0 -6 -1 -7 -2z"/>
<path d="M1800 3951 c0 -5 5 -13 10 -16 6 -3 10 -2 10 4 0 5 -4 13 -10 16 -5
3 -10 2 -10 -4z"/>
<path d="M1620 3930 c-9 -6 -10 -10 -3 -10 6 0 15 5 18 10 8 12 4 12 -15 0z"/>
<path d="M2588 3900 c18 -11 36 -20 40 -20 14 1 -43 40 -58 40 -8 0 0 -9 18
-20z"/>
<path d="M1575 3899 c-4 -6 -5 -12 -2 -15 2 -3 7 2 10 11 7 17 1 20 -8 4z"/>
<path d="M1508 3893 c7 -3 16 -2 19 1 4 3 -2 6 -13 5 -11 0 -14 -3 -6 -6z"/>
<path d="M1463 3882 c-13 -2 -23 -10 -23 -18 0 -11 5 -12 18 -6 9 5 24 11 32
14 21 6 -1 15 -27 10z"/>
<path d="M1395 3870 c-3 -5 -2 -10 4 -10 5 0 13 5 16 10 3 6 2 10 -4 10 -5 0
-13 -4 -16 -10z"/>
<path d="M2640 3866 c0 -2 7 -7 16 -10 8 -3 12 -2 9 4 -6 10 -25 14 -25 6z"/>
<path d="M4298 3863 c7 -3 16 -2 19 1 4 3 -2 6 -13 5 -11 0 -14 -3 -6 -6z"/>
<path d="M4358 3863 c7 -3 16 -2 19 1 4 3 -2 6 -13 5 -11 0 -14 -3 -6 -6z"/>
<path d="M1355 3850 c-3 -5 -1 -10 4 -10 6 0 11 5 11 10 0 6 -2 10 -4 10 -3 0
-8 -4 -11 -10z"/>
<path d="M4208 3853 c7 -3 16 -2 19 1 4 3 -2 6 -13 5 -11 0 -14 -3 -6 -6z"/>
<path d="M2689 3837 c14 -18 51 -42 51 -33 0 3 -15 15 -32 27 -24 17 -29 18
-19 6z"/>
<path d="M1312 3828 c-6 -6 -22 -13 -34 -15 -29 -5 -33 -10 -20 -26 7 -8 11
-16 9 -18 -1 -2 2 -1 8 4 6 5 4 11 -5 17 -12 8 -9 10 12 10 37 0 58 10 58 26
0 17 -12 18 -28 2z"/>
<path d="M4035 3820 c-3 -5 -1 -10 4 -10 6 0 11 5 11 10 0 6 -2 10 -4 10 -3 0
-8 -4 -11 -10z"/>
<path d="M3995 3800 c-3 -5 -2 -10 4 -10 5 0 13 5 16 10 3 6 2 10 -4 10 -5 0
-13 -4 -16 -10z"/>
<path d="M1175 3772 c-10 -10 -5 -24 8 -19 6 2 20 0 30 -5 16 -8 16 -7 6 10
-11 18 -33 25 -44 14z"/>
<path d="M2815 3760 c10 -11 20 -20 23 -20 3 0 -3 9 -13 20 -10 11 -20 20 -23
20 -3 0 3 -9 13 -20z"/>
<path d="M1153 3742 c0 -11 5 -18 9 -16 4 3 8 0 8 -7 0 -7 3 -10 6 -6 3 3 -1
16 -9 28 -16 22 -16 22 -14 1z"/>
<path d="M1109 3733 c-13 -15 -12 -15 9 -4 23 12 28 21 13 21 -5 0 -15 -7 -22
-17z"/>
<path d="M1255 3730 c-3 -5 -1 -10 4 -10 6 0 11 5 11 10 0 6 -2 10 -4 10 -3 0
-8 -4 -11 -10z"/>
<path d="M3865 3714 l-30 -26 33 22 c17 12 32 23 32 26 0 7 -4 5 -35 -22z"/>
<path d="M1055 3708 c-74 -41 -97 -60 -86 -71 9 -9 14 -8 22 5 5 9 22 19 38
23 31 7 55 28 49 44 -2 6 -11 6 -23 -1z"/>
<path d="M2877 3699 c7 -7 15 -10 18 -7 3 3 -2 9 -12 12 -14 6 -15 5 -6 -5z"/>
<path d="M1093 3684 c-3 -9 0 -20 8 -24 18 -12 25 -4 11 13 -7 8 -9 17 -5 20
3 4 3 7 -1 7 -3 0 -9 -7 -13 -16z"/>
<path d="M1133 3687 c0 -7 9 -13 19 -13 10 0 18 1 18 3 0 1 -8 7 -18 12 -13 7
-19 6 -19 -2z"/>
<path d="M2346 3673 c-6 -14 -5 -15 5 -6 7 7 10 15 7 18 -3 3 -9 -2 -12 -12z"/>
<path d="M1017 3646 c-21 -16 -22 -26 -1 -26 8 0 13 4 10 9 -4 5 0 11 6 14 7
2 11 7 8 10 -3 3 -13 0 -23 -7z"/>
<path d="M2930 3656 c0 -2 8 -10 18 -17 15 -13 16 -12 3 4 -13 16 -21 21 -21
13z"/>
<path d="M1070 3646 c0 -2 9 -6 20 -9 11 -3 18 -1 14 4 -5 9 -34 13 -34 5z"/>
<path d="M2330 3640 c0 -5 5 -10 10 -10 6 0 10 5 10 10 0 6 -4 10 -10 10 -5 0
-10 -4 -10 -10z"/>
<path d="M956 3621 c-3 -5 -15 -7 -25 -4 -10 3 -22 0 -25 -6 -4 -6 -2 -11 4
-11 6 0 8 -5 5 -11 -4 -6 -13 -8 -19 -6 -7 3 -19 -3 -27 -14 -7 -10 -16 -19
-20 -19 -3 0 -27 -20 -53 -45 -27 -25 -54 -45 -61 -45 -8 0 -16 -8 -19 -18 -4
-11 -18 -30 -32 -43 -24 -22 -26 -23 -38 -7 -7 10 -16 15 -19 11 -4 -3 -2 -12
3 -18 8 -9 6 -14 -5 -19 -9 -3 -14 -10 -10 -16 3 -5 -11 -27 -32 -49 -37 -38
-73 -93 -73 -112 0 -11 -69 -111 -84 -121 -7 -5 -5 -8 6 -8 15 0 15 -3 1 -40
-14 -34 -18 -38 -32 -28 -14 10 -14 10 0 -6 17 -19 14 -38 -17 -110 -8 -20 -9
-37 -3 -53 6 -16 5 -22 -1 -18 -6 3 -10 1 -10 -6 0 -8 -5 -7 -17 2 -16 13 -17
12 -5 -3 10 -13 11 -29 3 -75 -25 -136 -29 -173 -15 -162 7 6 10 17 7 25 -3 8
0 14 7 14 7 0 10 7 6 16 -3 8 -2 13 2 10 4 -2 12 6 18 19 9 19 9 25 -2 29 -8
3 -14 13 -14 21 0 14 2 14 15 3 40 -36 43 -38 49 -23 6 17 -9 29 -25 20 -6 -4
-9 0 -7 11 2 12 -2 18 -11 16 -11 -2 -12 0 -3 11 7 8 10 22 6 31 -5 12 -2 15
9 10 13 -5 16 2 15 35 0 22 -4 38 -9 35 -5 -3 -9 -2 -9 3 0 4 14 14 30 21 17
8 28 18 25 22 -3 5 3 13 12 19 10 6 14 11 9 11 -5 0 -18 -7 -28 -17 -10 -9
-21 -13 -25 -9 -4 4 -1 11 6 15 7 5 11 13 7 19 -3 6 6 20 21 31 16 11 22 21
15 21 -7 0 -10 5 -7 10 4 6 11 7 17 4 6 -4 8 -2 4 4 -3 6 -2 13 4 17 5 3 10
11 10 17 0 6 -6 6 -15 -2 -9 -7 -18 -10 -22 -6 -3 3 -2 6 3 6 18 0 55 42 50
55 -3 8 0 15 5 17 6 2 11 12 13 23 4 25 20 30 36 10 7 -8 17 -15 22 -15 6 0 4
8 -3 17 -12 14 -12 16 2 11 9 -4 16 -1 16 8 0 7 -4 11 -9 8 -4 -3 -16 0 -25 5
-16 9 -16 10 -1 11 11 0 15 6 11 23 -3 16 -2 18 5 8 7 -9 12 -10 16 -2 4 6 12
9 17 5 6 -4 6 -11 -1 -19 -7 -8 -7 -16 -2 -19 6 -3 13 1 16 10 7 19 -12 47
-25 38 -5 -3 -6 2 -3 10 7 18 34 22 34 6 0 -5 9 -10 19 -10 11 0 21 -6 24 -12
2 -7 4 -1 3 14 -1 17 -5 23 -12 17 -6 -5 -15 -4 -22 3 -18 18 -14 30 8 23 11
-4 20 -2 20 4 0 6 7 11 15 11 8 0 15 5 15 11 0 5 4 8 9 5 5 -4 7 3 4 15 -7 25
13 41 42 34 11 -3 14 -2 7 1 -10 5 -10 9 0 21 11 14 10 15 -10 9 -12 -4 -22
-5 -22 -2 0 14 53 56 72 56 15 0 19 5 15 20 -3 13 1 21 14 25 11 4 17 11 14
16 -10 15 4 10 23 -9 10 -10 17 -25 15 -33 -2 -8 2 -4 8 9 7 12 18 22 26 22 7
0 13 3 13 6 0 8 -33 40 -36 34 -1 -3 -5 -3 -8 0 -3 3 4 11 14 18 11 7 20 8 20
3 0 -5 7 -11 14 -14 10 -4 13 -1 9 9 -3 7 0 14 6 14 6 0 11 5 11 11 0 7 7 17
16 23 14 11 14 13 1 25 -9 7 -18 8 -21 2z m-71 -111 c3 -5 1 -10 -4 -10 -6 0
-11 5 -11 10 0 6 2 10 4 10 3 0 8 -4 11 -10z m-191 -202 c-3 -5 -12 -7 -20 -4
-8 3 -14 0 -14 -6 0 -6 -3 -8 -6 -5 -11 11 16 36 32 30 7 -3 11 -9 8 -15z
m-73 -21 c-10 -9 -11 -8 -5 6 3 10 9 15 12 12 3 -3 0 -11 -7 -18z m-126 -207
c3 -5 1 -10 -4 -10 -6 0 -11 5 -11 10 0 6 2 10 4 10 3 0 8 -4 11 -10z m-125
-420 c0 -5 -4 -10 -10 -10 -5 0 -10 5 -10 10 0 6 5 10 10 10 6 0 10 -4 10 -10z"/>
<path d="M1038 3611 c-12 -14 -13 -22 -5 -30 15 -15 32 -14 19 2 -8 10 -6 16
9 25 11 7 25 10 31 6 7 -4 8 -3 4 4 -11 18 -40 14 -58 -7z"/>
<path d="M2305 3611 c3 -6 -3 -14 -12 -20 -10 -6 -14 -11 -10 -11 4 0 2 -10
-4 -22 -7 -13 -13 -36 -15 -52 l-2 -29 23 29 c15 19 19 31 12 36 -7 4 -5 15 6
32 19 29 22 46 6 46 -5 0 -8 -4 -4 -9z"/>
<path d="M2330 3611 c0 -5 5 -13 10 -16 6 -3 10 -2 10 4 0 5 -4 13 -10 16 -5
3 -10 2 -10 -4z"/>
<path d="M3695 3578 l-40 -43 43 40 c39 36 47 45 39 45 -2 0 -21 -19 -42 -42z"/>
<path d="M990 3586 c0 -2 7 -7 16 -10 8 -3 12 -2 9 4 -6 10 -25 14 -25 6z"/>
<path d="M4925 3580 c3 -5 8 -10 11 -10 2 0 4 5 4 10 0 6 -5 10 -11 10 -5 0
-7 -4 -4 -10z"/>
<path d="M2107 3559 c7 -7 15 -10 18 -7 3 3 -2 9 -12 12 -14 6 -15 5 -6 -5z"/>
<path d="M966 3551 c-4 -5 3 -7 14 -4 23 6 26 13 6 13 -8 0 -17 -4 -20 -9z"/>
<path d="M2326 3541 c-3 -5 -8 -26 -11 -47 -3 -28 -2 -35 5 -24 9 13 11 13 20
0 6 -9 10 -10 10 -3 0 6 -4 15 -10 18 -5 3 -10 11 -10 16 0 6 5 7 10 4 6 -3
10 -1 10 4 0 6 -5 11 -11 11 -8 0 -8 5 1 15 8 9 9 15 2 15 -6 0 -13 -4 -16 -9z"/>
<path d="M2535 3539 c-4 -6 -5 -12 -2 -15 2 -3 7 2 10 11 7 17 1 20 -8 4z"/>
<path d="M843 3483 c-8 -3 -9 -12 -3 -28 5 -12 6 -26 2 -31 -4 -4 -1 -4 6 0 7
4 10 12 6 17 -3 5 -1 16 6 24 12 14 2 25 -17 18z"/>
<path d="M2490 3470 c-13 -8 -13 -11 -1 -19 8 -5 10 -14 6 -21 -6 -9 -4 -11 4
-6 7 5 10 15 6 24 -3 8 0 19 7 24 7 4 9 8 3 8 -5 0 -17 -5 -25 -10z"/>
<path d="M2088 3463 c-1 -5 -2 -27 -2 -50 -1 -35 3 -44 22 -52 19 -9 21 -13
10 -25 -11 -12 -14 -12 -19 2 -10 29 -23 -9 -25 -73 -3 -94 -6 -122 -11 -102
-3 12 -10 16 -20 13 -12 -5 -14 -1 -9 18 5 19 1 28 -15 36 -16 9 -18 14 -8 26
7 9 8 14 1 14 -6 0 -14 -4 -17 -10 -3 -5 -12 -10 -18 -10 -7 0 -6 4 3 10 12 8
12 10 -2 15 -15 6 -13 11 13 36 31 30 40 65 14 56 -8 -4 -17 -2 -20 3 -3 5
-21 2 -40 -7 -19 -9 -32 -20 -29 -24 2 -4 0 -10 -6 -14 -17 -11 -11 -25 15
-37 14 -6 21 -14 16 -18 -14 -8 3 -66 18 -62 14 3 15 -25 0 -34 -7 -4 0 -14
18 -25 26 -17 26 -19 6 -19 -12 0 -24 6 -26 13 -4 9 -6 9 -6 0 -1 -6 4 -15 9
-18 6 -3 10 -20 10 -36 0 -17 4 -39 10 -49 7 -13 6 -19 -5 -24 -8 -3 -17 -1
-20 4 -4 6 -14 10 -23 10 -13 0 -13 -2 4 -15 10 -8 14 -15 7 -15 -6 0 -15 5
-18 10 -4 6 -12 7 -18 3 -7 -4 -6 1 2 11 13 15 13 19 0 27 -10 8 -7 8 11 4 14
-4 31 -14 39 -24 12 -14 13 -14 6 4 -20 56 -34 109 -29 117 3 4 -2 5 -10 2 -8
-3 -12 -13 -9 -22 4 -14 3 -14 -5 -3 -7 10 -7 21 0 34 7 14 7 17 -1 13 -6 -4
-15 3 -20 16 -6 13 -10 17 -10 11 -1 -18 -38 -16 -45 2 -7 18 3 45 16 45 5 0
6 -5 2 -12 -5 -7 -3 -8 6 -3 10 6 9 11 -5 22 -15 10 -20 10 -27 0 -12 -18 -10
-51 4 -65 9 -9 9 -12 -1 -12 -8 0 -10 -7 -6 -21 6 -16 4 -20 -6 -14 -8 5 -6 0
3 -11 10 -11 16 -30 13 -42 -2 -12 0 -22 6 -22 5 0 9 -11 9 -25 0 -26 15 -34
23 -12 3 7 6 5 6 -5 1 -12 -6 -18 -19 -18 -11 0 -20 -5 -20 -11 0 -5 -5 -7
-11 -3 -8 5 -8 8 0 13 8 5 5 13 -9 26 -11 10 -18 21 -15 25 2 4 -10 17 -28 29
l-32 22 28 -25 c31 -28 24 -35 -10 -11 -21 15 -25 47 -10 72 5 8 -12 23 -26
23 -1 0 0 -21 2 -47 3 -41 1 -45 -15 -39 -17 7 -17 6 1 -14 10 -11 15 -20 11
-20 -4 0 -2 -9 4 -21 10 -18 10 -19 -8 -10 -11 6 -23 7 -27 3 -5 -4 -5 -2 -1
5 3 7 -2 14 -14 18 -11 4 -27 22 -35 41 -8 20 -19 33 -24 30 -5 -3 -16 6 -25
19 -9 14 -21 23 -26 20 -6 -4 -10 0 -10 7 0 23 -38 -26 -44 -58 -6 -25 -3 -32
17 -43 18 -9 30 -10 44 -3 17 9 19 8 19 -11 -1 -13 4 -21 12 -19 8 1 11 -1 8
-6 -6 -10 23 -70 48 -99 15 -18 23 -20 39 -12 14 8 18 8 13 0 -4 -6 -1 -11 7
-11 8 0 22 -10 30 -22 13 -19 16 -20 16 -5 1 9 -3 17 -8 17 -6 0 -9 11 -8 25
1 14 5 25 10 25 4 0 12 0 17 0 6 0 10 -7 10 -15 0 -8 4 -15 9 -15 5 0 13 -9
16 -20 3 -11 11 -20 17 -20 6 0 6 6 -2 15 -7 8 -9 15 -5 15 4 0 3 6 -2 13 -6
6 -13 21 -17 31 -5 15 -1 13 20 -7 15 -15 24 -30 21 -33 -5 -6 16 -34 25 -34
11 0 -1 103 -13 110 -7 5 -10 12 -6 16 6 7 49 -31 53 -46 15 -58 40 -70 31
-15 -5 28 -2 35 10 35 9 0 13 -3 10 -7 -8 -7 11 -33 24 -33 4 0 4 13 -1 29
-12 42 12 61 25 20 5 -15 10 -18 18 -10 7 7 7 14 -1 24 -7 8 -9 17 -5 20 12
13 21 7 27 -18 4 -14 11 -23 17 -20 6 5 6 12 -2 22 -10 12 -10 16 1 23 9 6 11
22 6 61 -5 35 -4 50 2 44 6 -5 12 -31 15 -58 3 -26 9 -52 12 -57 11 -18 25
-11 26 13 0 21 1 21 11 -3 l10 -25 9 29 c17 61 22 137 9 161 -11 20 -11 27 0
40 11 13 10 19 -6 36 -11 12 -18 35 -18 59 0 30 -4 41 -18 46 -17 5 -22 25
-21 87 0 17 -6 23 -9 10z m47 -203 c3 -6 -1 -7 -9 -4 -18 7 -21 14 -7 14 6 0
13 -4 16 -10z m-170 -20 c3 -5 1 -10 -4 -10 -6 0 -11 5 -11 10 0 6 2 10 4 10
3 0 8 -4 11 -10z m147 -22 c-7 -7 -12 -8 -12 -2 0 14 12 26 19 19 2 -3 -1 -11
-7 -17z m8 -34 c0 -8 -4 -12 -10 -9 -5 3 -10 10 -10 16 0 5 5 9 10 9 6 0 10
-7 10 -16z m-250 -14 c0 -5 -4 -10 -10 -10 -5 0 -10 5 -10 10 0 6 5 10 10 10
6 0 10 -4 10 -10z m165 -20 c-3 -5 -11 -10 -16 -10 -6 0 -7 5 -4 10 3 6 11 10
16 10 6 0 7 -4 4 -10z m-475 -20 c0 -5 -5 -10 -11 -10 -5 0 -7 5 -4 10 3 6 8
10 11 10 2 0 4 -4 4 -10z m580 -9 c0 -17 -18 -21 -24 -6 -3 9 0 15 9 15 8 0
15 -4 15 -9z m10 -50 c0 -5 -9 -11 -20 -14 -22 -6 -28 8 -7 16 19 8 27 8 27
-2z m-120 -11 c0 -5 -8 -10 -17 -10 -15 0 -16 2 -3 10 19 12 20 12 20 0z
m-385 -50 c3 -5 1 -10 -4 -10 -6 0 -11 5 -11 10 0 6 2 10 4 10 3 0 8 -4 11
-10z m215 -70 c0 -5 -4 -10 -10 -10 -5 0 -10 5 -10 10 0 6 5 10 10 10 6 0 10
-4 10 -10z"/>
<path d="M2255 3444 c-11 -17 -13 -29 -7 -33 13 -8 10 -40 -4 -49 -5 -4 -15
-20 -22 -37 -10 -24 -10 -27 0 -15 7 8 22 22 33 30 18 14 19 14 7 -2 -8 -9
-11 -22 -7 -28 4 -6 1 -9 -6 -8 -7 2 -13 -3 -14 -11 0 -8 -7 -16 -15 -18 -13
-4 -13 -3 0 7 13 10 13 11 0 7 -10 -2 -15 -18 -16 -50 0 -26 -4 -50 -7 -54 -4
-3 -7 -36 -6 -72 0 -50 2 -60 9 -43 5 12 7 28 4 35 -3 8 2 19 10 26 12 10 14
6 10 -31 l-4 -43 12 35 c7 19 14 37 17 40 3 3 7 18 9 35 2 16 8 33 14 36 6 4
3 11 -8 19 -18 11 -18 11 0 6 14 -5 17 -2 12 10 -3 8 1 22 9 30 17 18 20 34 5
34 -5 0 -10 7 -10 16 0 8 5 12 11 9 5 -4 3 10 -5 30 -19 45 -21 101 -3 108 7
4 8 6 1 6 -7 1 -19 -11 -29 -25z m5 -182 c0 -8 -37 -42 -46 -42 -3 0 3 11 13
25 18 24 33 32 33 17z"/>
<path d="M2431 3431 c-12 -16 -21 -32 -21 -36 0 -3 -11 -21 -25 -39 -14 -18
-25 -41 -26 -52 0 -11 -3 -13 -6 -6 -7 19 -22 14 -20 -7 1 -12 7 -17 17 -15 8
2 2 -2 -14 -9 -18 -9 -33 -27 -41 -50 -7 -20 -9 -34 -4 -32 4 3 10 1 13 -4 4
-5 -3 -12 -14 -16 -11 -3 -20 -13 -20 -21 0 -22 0 -21 -15 -63 -15 -43 -9 -60
11 -33 12 15 13 13 8 -18 -7 -37 10 -33 18 5 2 11 9 19 15 18 7 -2 10 7 7 22
-3 15 2 29 13 37 22 16 37 40 64 98 25 56 27 66 12 63 -16 -4 -17 9 -1 25 9 9
7 12 -12 12 -22 1 -23 2 -7 11 25 15 48 4 40 -18 -6 -16 -5 -16 10 -4 9 7 17
19 17 27 0 7 9 18 20 24 11 6 18 15 15 20 -3 5 -1 12 5 15 7 4 2 15 -13 29
-13 12 -22 27 -19 34 7 21 -6 13 -27 -17z m39 -26 c0 -23 -12 -45 -21 -39 -8
5 -13 -9 -10 -28 2 -13 -16 -9 -29 7 -10 13 -10 19 5 35 10 11 15 20 10 20 -4
0 -2 6 5 14 13 17 40 10 40 -9z"/>
<path d="M3580 3445 c-7 -9 -10 -18 -7 -21 3 -3 10 4 17 15 13 25 8 27 -10 6z"/>
<path d="M800 3420 c8 -5 20 -10 25 -10 6 0 3 5 -5 10 -8 5 -19 10 -25 10 -5
0 -3 -5 5 -10z"/>
<path d="M1910 3402 c0 -12 19 -26 26 -19 2 2 -2 10 -11 17 -9 8 -15 8 -15 2z"/>
<path d="M2126 3393 c-6 -14 -5 -15 5 -6 7 7 10 15 7 18 -3 3 -9 -2 -12 -12z"/>
<path d="M2650 3396 c0 -9 -4 -16 -8 -16 -4 0 -16 -13 -25 -30 -21 -36 -16
-39 13 -7 31 32 42 55 30 62 -5 3 -10 -1 -10 -9z"/>
<path d="M3553 3398 c-6 -7 -16 -24 -22 -38 -12 -24 -12 -24 4 -5 20 24 37 55
32 55 -3 0 -9 -6 -14 -12z"/>
<path d="M5260 3390 c0 -5 4 -10 9 -10 6 0 13 5 16 10 3 6 -1 10 -9 10 -9 0
-16 -4 -16 -10z"/>
<path d="M5510 3360 c0 -5 5 -10 10 -10 6 0 10 5 10 10 0 6 -4 10 -10 10 -5 0
-10 -4 -10 -10z"/>
<path d="M780 3346 c0 -2 7 -7 16 -10 8 -3 12 -2 9 4 -6 10 -25 14 -25 6z"/>
<path d="M735 3316 c0 -22 1 -22 22 -7 18 14 19 17 5 23 -26 10 -27 10 -27
-16z"/>
<path d="M1830 3320 c0 -5 5 -10 11 -10 5 0 7 5 4 10 -3 6 -8 10 -11 10 -2 0
-4 -4 -4 -10z"/>
<path d="M2151 3294 c0 -11 3 -14 6 -6 3 7 2 16 -1 19 -3 4 -6 -2 -5 -13z"/>
<path d="M2805 3300 c4 -6 11 -8 16 -5 14 9 11 15 -7 15 -8 0 -12 -5 -9 -10z"/>
<path d="M2540 3290 c-13 -8 -13 -10 1 -10 9 0 19 -9 22 -21 4 -13 1 -19 -6
-17 -16 6 -49 -29 -36 -38 6 -3 8 -13 4 -22 -3 -9 -2 -13 2 -8 4 4 8 18 8 29
0 15 5 21 16 19 9 -1 25 10 35 25 27 41 27 54 -1 43 -14 -5 -25 -5 -27 0 -2 6
-9 6 -18 0z"/>
<path d="M1640 3275 c0 -8 7 -15 16 -15 14 0 14 3 4 15 -7 8 -14 15 -16 15 -2
0 -4 -7 -4 -15z"/>
<path d="M2772 3265 c-17 -38 -15 -47 8 -28 20 17 28 53 12 53 -5 0 -14 -11
-20 -25z"/>
<path d="M3486 3273 c-6 -14 -5 -15 5 -6 7 7 10 15 7 18 -3 3 -9 -2 -12 -12z"/>
<path d="M2730 3269 c0 -5 5 -7 10 -4 6 3 10 8 10 11 0 2 -4 4 -10 4 -5 0 -10
-5 -10 -11z"/>
<path d="M1690 3261 c0 -5 5 -13 10 -16 6 -3 10 -2 10 4 0 5 -4 13 -10 16 -5
3 -10 2 -10 -4z"/>
<path d="M2507 3249 c-4 -16 -3 -18 9 -8 7 6 11 15 8 20 -8 13 -11 11 -17 -12z"/>
<path d="M1330 3240 c-20 -12 -10 -19 14 -10 11 3 15 9 10 13 -6 3 -16 2 -24
-3z"/>
<path d="M2694 3235 c-16 -11 -15 -12 10 -10 34 4 42 11 22 18 -8 3 -22 0 -32
-8z"/>
<path d="M3210 3224 c0 -6 7 -19 15 -30 8 -10 14 -14 14 -9 0 6 -6 19 -14 29
-8 11 -15 15 -15 10z"/>
<path d="M3458 3212 c-3 -11 0 -19 7 -19 7 0 10 8 7 19 -2 10 -6 18 -7 18 -1
0 -5 -8 -7 -18z"/>
<path d="M4424 3216 c-4 -9 -4 -20 0 -23 3 -3 0 -13 -6 -20 -13 -16 -20 -93
-9 -93 5 0 16 9 26 20 15 16 16 22 5 35 -7 9 -10 19 -6 22 4 4 12 1 17 -7 9
-12 10 -11 5 4 -4 10 -2 24 4 31 7 8 4 17 -10 30 -18 16 -20 16 -26 1z"/>
<path d="M2475 3210 c-22 -8 -95 -79 -95 -92 0 -4 -15 -12 -32 -17 -26 -7 -28
-9 -10 -10 28 -1 27 -3 -3 -50 -27 -44 -14 -63 18 -27 l18 21 -11 -23 c-6 -12
-8 -27 -5 -32 4 -6 1 -9 -6 -8 -6 2 -14 -3 -16 -9 -6 -18 12 -16 27 2 7 8 9
15 6 15 -4 0 -1 6 5 13 11 11 16 10 32 -6 18 -18 19 -18 37 0 9 10 15 22 12
27 -3 5 0 6 6 2 6 -3 13 -2 17 4 3 5 11 10 16 10 6 0 -6 -16 -27 -35 -20 -19
-41 -35 -46 -35 -5 0 -6 -4 -3 -10 3 -5 -2 -10 -11 -10 -13 0 -15 -3 -7 -11 7
-7 16 -8 29 0 11 5 35 18 54 27 l35 17 -19 -21 c-15 -18 -16 -24 -6 -37 11
-13 8 -14 -19 -11 -17 2 -34 0 -37 -5 -3 -5 4 -9 15 -9 11 0 23 -5 27 -11 5
-8 10 -6 16 5 5 9 21 16 35 16 20 0 24 4 18 18 -5 13 -3 14 6 5 8 -8 18 -8 30
-2 11 5 28 14 39 19 11 6 24 10 29 10 6 0 21 10 34 23 13 12 33 29 45 37 18
12 19 16 7 23 -16 9 -21 37 -6 37 5 0 12 -8 14 -17 4 -16 5 -16 6 1 0 11 9 29
19 40 17 21 17 21 -4 3 -12 -10 -25 -17 -30 -15 -14 4 -133 -55 -128 -63 2 -4
-1 -11 -7 -15 -8 -4 -9 -3 -5 4 10 16 -5 14 -27 -3 -11 -7 -26 -12 -35 -9 -10
2 -4 -2 12 -9 l28 -14 -31 -22 c-17 -12 -31 -18 -31 -12 0 5 9 13 20 16 11 4
18 11 14 16 -3 5 -9 7 -14 4 -4 -3 -10 1 -13 7 -3 10 -7 10 -20 -1 -12 -9 -17
-10 -17 -2 0 7 16 19 36 27 21 9 43 22 51 30 8 8 19 14 25 14 6 0 8 9 5 20 -3
13 0 20 9 20 8 0 11 -6 7 -17 -4 -11 -3 -14 5 -9 7 4 12 14 12 22 0 8 5 12 10
9 6 -3 10 1 10 9 0 9 5 16 10 16 6 0 10 7 10 16 0 8 -4 12 -10 9 -14 -9 -12
29 2 43 15 15 6 15 -26 1 -14 -7 -23 -15 -21 -20 3 -4 1 -10 -5 -14 -5 -3 -10
1 -10 10 0 11 -15 2 -47 -29 -27 -25 -56 -46 -65 -46 -9 0 -25 -11 -36 -25
-11 -14 -25 -25 -31 -25 -7 0 13 25 44 56 60 60 69 75 31 50 -18 -11 -27 -13
-32 -4 -4 7 -3 8 4 4 7 -4 12 -3 12 3 0 5 -6 12 -12 15 -7 3 -3 3 8 1 24 -6
35 10 25 36 -4 12 -12 14 -26 9z m115 -68 c0 -5 -9 -17 -20 -27 -22 -20 -28
-4 -7 20 14 16 27 19 27 7z m-194 -50 c-18 -16 -18 -16 -6 6 6 13 14 21 18 18
3 -4 -2 -14 -12 -24z m154 -12 c0 -5 -4 -10 -10 -10 -5 0 -10 5 -10 10 0 6 5
10 10 10 6 0 10 -4 10 -10z m-45 -12 c-11 -6 -24 -17 -28 -25 -4 -7 -12 -13
-18 -13 -5 0 -2 11 8 25 10 13 27 24 38 24 l20 0 -20 -11z m75 8 c0 -3 -4 -8
-10 -11 -5 -3 -10 -1 -10 4 0 6 5 11 10 11 6 0 10 -2 10 -4z m-190 -26 c0 -5
-10 -10 -22 -9 -22 0 -22 1 -3 9 11 5 21 9 23 9 1 1 2 -3 2 -9z m333 -32 c-2
-4 -10 -2 -17 5 -8 6 -12 15 -9 19 2 4 10 2 17 -5 8 -6 12 -15 9 -19z m-58 -6
c-3 -3 -11 0 -18 7 -9 10 -8 11 6 5 10 -3 15 -9 12 -12z"/>
<path d="M2716 3204 c-11 -8 -16 -14 -10 -14 5 0 2 -5 -6 -10 -13 -9 -13 -10
0 -10 24 0 42 16 38 33 -3 14 -5 14 -22 1z"/>
<path d="M1680 3192 c0 -11 8 -26 18 -33 15 -13 16 -12 4 3 -8 9 -11 22 -8 27
4 5 2 12 -4 16 -5 3 -10 -3 -10 -13z"/>
<path d="M1370 3190 c-9 -6 -10 -10 -3 -10 6 0 15 5 18 10 8 12 4 12 -15 0z"/>
<path d="M4757 3177 c-10 -12 -21 -27 -25 -34 -4 -6 -16 -13 -27 -15 -27 -4
-59 -34 -51 -47 5 -7 1 -8 -10 -4 -11 4 -15 3 -10 -5 3 -6 0 -14 -8 -19 -7 -4
-24 -29 -36 -55 -12 -26 -30 -50 -41 -53 -10 -4 -19 -13 -19 -21 0 -8 -5 -14
-11 -14 -16 0 -3 49 22 83 11 16 22 39 23 52 1 13 9 31 16 40 9 11 10 19 3 23
-6 4 -13 17 -17 30 -10 29 -24 28 -36 -3 -5 -14 -13 -25 -18 -25 -5 0 -14 -12
-21 -27 -10 -21 -9 -28 1 -34 9 -6 8 -10 -5 -15 -9 -3 -17 -15 -17 -26 0 -12
-4 -17 -12 -12 -6 4 -18 -2 -26 -12 -14 -18 -14 -18 -8 2 4 13 -1 30 -13 46
-11 14 -17 28 -14 32 3 3 1 6 -5 6 -7 0 -12 -5 -12 -11 0 -5 -5 -7 -12 -3 -8
5 -9 0 -6 -14 4 -12 2 -22 -4 -22 -5 0 -16 -7 -25 -16 -9 -8 -22 -13 -31 -9
-8 3 -20 1 -26 -3 -6 -5 -24 -12 -39 -16 -24 -6 -28 -4 -23 11 16 56 17 70 1
83 -14 12 -18 12 -26 -1 -5 -8 -9 -19 -9 -25 0 -6 -7 -17 -15 -24 -16 -14 -21
-75 -5 -65 5 3 7 0 5 -7 -3 -7 -15 -19 -26 -27 -21 -13 -21 -12 -16 44 3 37 1
68 -8 88 l-14 32 -1 -27 c0 -15 -8 -31 -17 -37 -10 -5 -23 -24 -29 -43 -12
-31 -13 -28 -13 46 -1 72 -2 77 -18 65 -15 -13 -15 -12 -4 9 14 26 4 28 -27 6
-30 -21 -31 -88 -1 -104 18 -10 19 -13 6 -28 -8 -9 -19 -30 -25 -47 -10 -27
-11 -24 -10 30 1 85 -28 147 -46 99 -9 -24 -6 -55 9 -98 13 -36 12 -41 -6 -64
-20 -27 -21 -26 -22 36 -1 12 -4 22 -8 22 -4 0 -9 9 -12 20 -10 40 -31 21 -30
-27 1 -23 -34 -14 -41 9 -4 17 -8 20 -17 11 -14 -14 -3 -67 17 -84 20 -16 18
-27 -8 -35 -21 -6 -21 -7 4 -20 26 -13 46 -50 34 -61 -8 -9 -43 35 -73 92 -14
28 -28 44 -30 37 -3 -6 -9 -10 -14 -6 -16 9 -21 -23 -8 -48 7 -13 12 -26 11
-30 -1 -4 6 -4 15 -1 12 5 14 3 8 -6 -4 -8 -2 -17 6 -23 11 -8 10 -9 -3 -4
-20 6 -24 -4 -8 -20 7 -7 4 -10 -12 -10 -25 1 -26 -3 -8 -73 8 -33 8 -47 -2
-59 -15 -18 -18 -63 -4 -55 5 4 7 -1 3 -10 -4 -10 -1 -18 6 -18 7 -1 26 -3 42
-4 17 -2 32 -3 34 -4 10 -2 -44 -51 -56 -51 -7 0 -13 -5 -13 -11 0 -6 9 -9 19
-6 14 3 18 1 14 -9 -3 -9 -13 -12 -23 -9 -10 3 -21 2 -24 -3 -15 -25 106 -23
162 2 36 16 42 23 40 45 -4 35 -26 51 -56 40 -29 -11 -32 -11 -32 0 0 5 14 14
30 20 17 5 30 14 30 18 0 16 -38 42 -68 46 -17 3 -38 10 -49 16 -18 11 3 9 73
-4 16 -4 20 0 19 15 -1 11 -4 22 -7 25 -7 7 19 62 33 70 5 4 9 15 9 26 0 21
16 26 23 7 2 -7 2 -3 0 10 -2 12 1 22 7 22 5 0 9 -5 7 -12 -1 -6 6 -14 16 -16
13 -3 17 3 17 27 0 19 8 35 22 45 20 14 24 14 43 -4 12 -11 24 -17 28 -13 4 3
10 -8 13 -25 8 -39 24 -42 24 -4 0 15 4 33 9 41 7 11 11 10 20 -6 5 -11 7 -23
4 -27 -3 -3 -2 -6 4 -6 6 0 14 -10 18 -22 6 -22 7 -21 21 10 8 18 21 32 31 32
13 0 14 -3 5 -12 -16 -16 -15 -25 4 -32 16 -6 44 15 44 34 0 6 5 8 10 5 6 -4
10 -12 9 -18 -3 -16 22 -67 33 -67 4 0 8 5 8 12 0 9 3 9 11 1 6 -6 12 -23 12
-37 0 -21 2 -24 13 -15 7 6 23 8 34 4 18 -6 20 -12 15 -37 -6 -27 -5 -29 13
-19 14 8 24 7 38 -4 16 -12 17 -14 3 -15 -18 0 -35 -30 -18 -30 7 0 9 -12 7
-29 -3 -22 -1 -28 10 -23 8 3 23 -5 33 -19 20 -26 25 -44 10 -34 -5 3 -12 1
-16 -5 -3 -5 0 -10 7 -10 10 0 9 -3 -1 -9 -12 -8 -13 -12 -1 -25 11 -14 10
-19 -4 -34 -9 -10 -16 -31 -16 -46 0 -31 37 -50 82 -44 25 4 27 2 21 -19 -4
-20 -2 -24 13 -21 15 2 19 -3 17 -24 l-2 -26 56 19 c31 10 58 17 60 16 2 -2
-7 -16 -19 -32 -32 -41 -33 -74 -2 -85 14 -6 37 -10 52 -11 22 0 19 -3 -18
-17 l-45 -15 30 -13 c18 -8 23 -13 13 -14 -10 0 -18 -3 -18 -7 0 -14 129 -81
187 -98 32 -9 66 -18 75 -21 13 -4 16 -1 12 11 -5 11 -2 16 7 14 8 -1 22 1 33
6 11 5 21 4 25 -3 8 -14 72 -7 82 9 4 6 12 9 18 5 6 -4 23 0 38 8 l28 15 -27
1 c-16 0 -28 5 -28 10 0 6 -7 10 -16 10 -9 0 -14 7 -12 18 5 21 -34 60 -67 68
-14 3 -25 10 -25 14 0 4 -15 10 -32 14 l-33 6 27 14 c15 8 35 16 44 18 10 2
18 14 20 30 1 16 6 37 9 49 5 15 2 22 -14 26 -12 3 -21 9 -21 14 0 5 -15 17
-34 25 -33 16 -33 17 -15 35 11 11 24 19 29 19 9 0 14 21 11 47 -1 7 12 19 28
28 42 21 30 40 -25 41 -31 1 -50 8 -62 22 -13 15 -22 17 -41 10 -13 -4 -27 -5
-30 -2 -3 4 0 9 7 11 7 3 19 11 26 19 8 8 19 14 24 14 6 0 12 6 15 14 4 10 0
12 -16 8 l-22 -5 23 25 c38 42 28 58 -24 38 -22 -9 -31 -7 -50 11 -21 20 -23
20 -32 2 -6 -10 -13 -15 -17 -11 -10 10 24 56 46 63 11 4 17 11 13 16 -3 5 -9
7 -14 4 -5 -3 -5 7 0 22 8 22 8 51 1 70 -1 1 -22 -4 -47 -12 -41 -12 -74 -11
-74 2 0 2 5 13 10 24 6 10 7 19 2 19 -5 0 -9 12 -8 28 1 27 -33 57 -45 39 -3
-4 -13 -9 -21 -11 -22 -3 -49 -27 -42 -37 3 -5 0 -9 -6 -9 -20 0 -90 -68 -90
-87 0 -7 -7 -13 -15 -13 -8 0 -15 5 -15 11 0 5 5 7 10 4 6 -3 10 -2 10 4 0 5
6 16 14 23 7 8 20 27 29 43 8 17 36 53 62 80 25 28 53 64 62 80 9 17 25 38 36
48 16 13 18 20 9 29 -19 19 -14 47 14 84 29 38 12 49 -19 11z m-907 -277 c0
-5 -4 -10 -10 -10 -5 0 -10 5 -10 10 0 6 5 10 10 10 6 0 10 -4 10 -10z m539
-19 c-15 -5 -22 6 -14 19 6 9 10 9 16 -1 5 -8 4 -15 -2 -18z m-528 -11 c3 -20
4 -25 12 -40 5 -8 -1 -4 -12 9 -12 13 -21 27 -21 32 0 12 20 11 21 -1z m879
-100 c-24 -15 -37 -11 -16 5 11 8 22 12 25 9 3 -3 -1 -9 -9 -14z m-873 -22
c-3 -8 -6 -5 -6 6 -1 11 2 17 5 13 3 -3 4 -12 1 -19z m-63 -34 c4 -12 2 -12
-14 -4 -11 6 -20 15 -20 20 0 14 28 1 34 -16z m1246 -525 c0 -6 -4 -7 -10 -4
-5 3 -10 11 -10 16 0 6 5 7 10 4 6 -3 10 -11 10 -16z"/>
<path d="M3445 3170 c-3 -5 -1 -10 4 -10 6 0 11 5 11 10 0 6 -2 10 -4 10 -3 0
-8 -4 -11 -10z"/>
<path d="M620 3150 c0 -5 5 -10 11 -10 5 0 7 5 4 10 -3 6 -8 10 -11 10 -2 0
-4 -4 -4 -10z"/>
<path d="M530 3136 c0 -2 7 -9 15 -16 13 -11 14 -10 9 4 -5 14 -24 23 -24 12z"/>
<path d="M1760 3131 c0 -5 7 -15 17 -22 15 -13 15 -12 4 9 -12 23 -21 28 -21
13z"/>
<path d="M2854 3115 c-10 -8 -14 -14 -9 -14 6 0 19 6 29 14 11 8 15 15 10 15
-6 0 -19 -7 -30 -15z"/>
<path d="M1390 3102 c5 -9 20 -30 34 -47 22 -25 27 -28 36 -15 6 9 10 10 10 3
0 -6 -5 -15 -11 -18 -6 -5 -4 -11 7 -19 9 -7 14 -18 11 -24 -4 -5 10 -27 31
-48 20 -20 36 -41 35 -45 -2 -5 6 -13 17 -19 11 -6 17 -16 14 -25 -4 -8 -11
-12 -16 -9 -6 4 -7 9 -1 13 6 3 -4 17 -21 31 -16 14 -27 19 -22 12 5 -8 -10 0
-32 16 -23 16 -56 35 -74 43 -18 7 -38 20 -44 28 -9 12 -12 11 -16 -7 -4 -12
-1 -20 4 -19 6 1 13 -4 15 -11 4 -11 1 -12 -17 -2 -12 6 -24 10 -26 7 -8 -8 8
-37 21 -37 7 0 19 -7 26 -16 7 -9 23 -20 35 -25 13 -4 28 -17 34 -29 20 -37
-13 -33 -95 10 -42 22 -74 36 -70 30 3 -5 2 -10 -4 -10 -5 0 -12 4 -16 9 -7
12 -49 8 -67 -6 -7 -6 -20 -13 -28 -17 -8 -3 -5 -4 8 -2 17 3 25 -2 32 -20 5
-13 15 -24 21 -24 17 0 139 -61 146 -73 4 -7 -1 -8 -13 -2 -18 7 -84 23 -114
28 -10 1 -15 -6 -15 -23 0 -15 -6 -26 -15 -26 -8 -1 -19 -2 -25 -3 -5 -1 1 -7
15 -14 14 -8 24 -19 23 -25 -2 -6 4 -9 12 -6 8 4 15 1 15 -5 0 -6 7 -11 15
-11 8 0 15 4 15 10 0 5 6 7 14 4 9 -3 12 -12 8 -22 -5 -14 -3 -15 9 -5 21 17
42 0 44 -35 1 -21 -2 -29 -12 -25 -17 6 -17 23 0 23 34 1 -25 19 -78 23 -33 3
-54 3 -47 0 6 -2 12 -9 12 -14 0 -5 -11 -3 -25 3 -14 6 -25 15 -25 20 0 5 -6
3 -14 -4 -45 -43 -58 -50 -68 -37 -8 11 -9 11 -6 -1 5 -18 60 -39 106 -39 18
-1 31 -5 28 -9 -3 -5 7 -7 23 -4 17 2 32 -2 40 -12 12 -14 10 -16 -18 -16 -17
0 -31 -4 -31 -10 0 -5 -5 -10 -11 -10 -6 0 -8 7 -4 18 5 13 3 14 -6 5 -6 -6
-18 -9 -27 -6 -10 4 -13 1 -10 -8 3 -8 12 -14 21 -14 29 0 31 -15 1 -16 -16 0
-49 -2 -74 -4 -40 -2 -42 -1 -25 11 23 17 52 18 57 2 3 -9 6 -9 12 0 4 7 2 12
-4 12 -6 0 -9 4 -6 8 6 9 -132 8 -141 -2 -3 -3 -1 -6 5 -6 7 0 12 -5 12 -11 0
-6 -7 -9 -15 -5 -11 4 -14 -1 -13 -19 2 -21 8 -25 33 -25 23 0 27 3 15 10 -13
9 -13 10 0 10 9 0 21 -5 27 -11 7 -7 22 -8 46 -1 27 8 40 7 54 -3 17 -13 15
-15 -14 -21 -18 -3 -33 -12 -33 -19 0 -13 -22 -25 -43 -25 -7 1 -1 8 13 16 14
8 17 13 7 10 -10 -3 -28 -6 -40 -7 -12 0 -16 -3 -9 -6 20 -8 14 -26 -8 -20
-10 3 -19 2 -18 -2 3 -26 -6 -43 -27 -51 -14 -5 -25 -12 -25 -15 0 -4 5 -3 12
1 8 5 9 0 6 -14 -6 -21 -5 -21 20 -8 52 28 106 41 95 23 -3 -5 4 -6 18 -2 17
5 11 -3 -18 -25 -24 -17 -43 -36 -43 -41 0 -5 0 -12 0 -16 0 -5 4 -8 9 -8 5 0
13 -4 18 -9 4 -5 -3 -7 -19 -4 -19 4 -25 1 -21 -9 3 -7 11 -13 18 -13 7 0 15
-4 17 -9 2 -5 25 0 51 13 26 12 45 25 40 29 -8 8 14 27 32 27 6 0 4 -4 -4 -9
-7 -5 -11 -13 -8 -18 4 -6 -10 -27 -30 -49 -20 -21 -36 -43 -35 -48 2 -5 -5
-18 -16 -30 -34 -40 -48 -60 -34 -52 8 5 21 1 31 -8 17 -15 20 -15 41 2 14 11
23 29 23 46 0 20 2 24 8 15 8 -11 12 -10 24 5 7 10 17 16 22 13 9 -5 35 18 27
25 -2 3 3 5 11 5 17 0 20 -23 4 -33 -8 -4 -7 -9 2 -15 11 -7 11 -9 -2 -9 -9 0
-24 -10 -35 -22 -16 -19 -16 -20 -1 -9 29 23 30 5 1 -28 -30 -34 -42 -84 -18
-74 14 5 18 16 15 41 -1 6 2 12 7 12 14 0 23 -27 16 -45 -9 -23 4 -18 17 6 9
17 8 24 -2 31 -11 8 -10 8 4 4 12 -4 20 1 27 18 5 13 14 27 20 31 8 5 8 11 -1
21 -10 12 -9 13 5 8 9 -3 16 -2 16 3 0 5 13 19 28 30 27 20 28 20 29 2 1 -11
-2 -19 -7 -19 -13 0 -31 -64 -24 -84 3 -9 1 -22 -5 -30 -9 -10 -8 -15 4 -20 9
-3 18 1 21 9 4 8 10 15 14 15 5 0 3 -11 -3 -25 -12 -26 -27 -33 -27 -14 0 8
-5 8 -15 -1 -8 -7 -15 -19 -15 -27 0 -13 3 -13 15 -3 8 7 23 9 32 6 10 -4 14
-4 11 0 -4 3 4 16 16 28 13 11 27 32 31 46 4 14 14 36 23 49 11 19 12 26 3 29
-8 3 -6 9 6 19 10 8 12 12 6 8 -9 -4 -13 1 -13 15 0 16 4 20 16 16 9 -3 12 -2
9 5 -4 5 -2 15 3 22 16 19 44 127 38 143 -10 26 -50 -10 -76 -68 -17 -38 -25
-48 -28 -34 -2 10 6 36 18 57 16 29 18 39 8 39 -8 0 -19 -5 -26 -12 -7 -7 -12
-8 -12 -4 0 5 8 15 18 22 9 7 12 14 6 14 -6 0 -17 -7 -24 -15 -15 -18 -34 -20
-27 -2 3 8 -8 12 -36 14 -22 0 -43 7 -47 14 -5 6 -15 9 -23 6 -11 -4 -14 -1
-10 9 7 18 29 18 37 -1 3 -8 11 -15 17 -15 8 0 8 4 -1 15 -16 19 -6 20 13 0
13 -13 16 -13 21 0 3 10 -1 15 -12 15 -9 1 -30 7 -47 15 -28 13 -29 14 -4 9
34 -7 50 15 18 23 -22 6 -22 7 -3 14 13 5 5 8 -27 8 -47 1 -74 23 -43 35 8 3
17 -1 21 -10 4 -12 8 -13 14 -3 6 10 13 10 33 1 16 -7 27 -8 31 -2 9 15 -27
25 -102 29 -17 1 -21 5 -16 18 4 11 8 12 11 5 4 -14 32 -16 32 -2 0 6 5 10 11
10 5 0 7 -5 3 -11 -5 -8 1 -10 20 -7 14 3 26 1 26 -3 0 -12 47 -11 54 0 4 5
-7 12 -24 16 -48 11 -45 35 4 26 4 -1 14 3 21 9 9 8 15 8 20 0 3 -5 13 -10 22
-10 14 0 13 3 -3 22 -16 18 -16 20 -2 15 31 -11 29 8 -4 35 -30 25 -31 27 -11
28 12 0 24 -6 26 -12 4 -10 8 -9 16 2 7 10 11 11 11 3 0 -7 7 -13 15 -13 8 0
15 5 15 10 0 6 -4 10 -10 10 -5 0 -10 5 -10 10 0 6 7 10 16 10 10 0 5 9 -16
26 -35 30 -34 39 3 25 24 -9 28 -7 41 17 13 26 13 28 -17 55 l-32 28 35 -17
c19 -9 38 -21 41 -27 4 -5 12 -7 17 -3 15 9 3 36 -13 30 -7 -3 -15 2 -19 11
-4 11 2 17 24 22 16 3 27 9 24 14 -3 5 -2 13 1 19 6 9 59 -21 78 -45 5 -5 5 0
2 13 -5 18 -2 22 14 22 20 0 20 1 -4 46 -27 50 -184 202 -194 187 -9 -13 -66
19 -66 37 0 8 4 18 8 21 5 3 -6 6 -22 7 -26 1 -30 -2 -21 -16z m135 -92 c3 -5
1 -10 -4 -10 -6 0 -11 5 -11 10 0 6 2 10 4 10 3 0 8 -4 11 -10z m0 -30 c-3 -5
-14 -10 -23 -10 -15 0 -15 2 -2 10 20 13 33 13 25 0z m121 -66 c18 -15 18 -15
-3 -5 -16 8 -22 8 -25 -1 -3 -7 -7 -6 -11 5 -8 22 12 22 39 1z m-243 -8 c4
-10 1 -13 -9 -9 -15 6 -19 23 -5 23 5 0 11 -7 14 -14z m83 -35 c0 -15 -3 -17
-18 -7 -17 10 -17 11 0 18 9 3 17 7 17 7 1 1 1 -7 1 -18z m204 -31 c0 -5 -4
-10 -10 -10 -5 0 -10 5 -10 10 0 6 5 10 10 10 6 0 10 -4 10 -10z m-365 -20
c10 -11 14 -20 9 -20 -5 0 -15 9 -22 20 -7 11 -11 20 -9 20 2 0 12 -9 22 -20z
m-75 -71 c0 -5 6 -7 13 -3 9 5 9 4 0 -6 -6 -7 -16 -9 -22 -6 -14 9 -14 26 -1
26 6 0 10 -5 10 -11z m45 -19 c3 -5 1 -10 -4 -10 -6 0 -11 5 -11 10 0 6 2 10
4 10 3 0 8 -4 11 -10z m224 -14 c9 -11 8 -15 -5 -20 -22 -9 -23 -8 -21 14 2
23 10 25 26 6z m-174 -15 c-3 -6 -11 -11 -16 -11 -5 0 -4 6 3 14 14 16 24 13
13 -3z m84 -34 c-2 -1 -13 -9 -24 -17 -19 -14 -19 -14 -6 3 7 9 18 17 24 17 6
0 8 -1 6 -3z m-119 -87 c0 -13 -20 -13 -40 0 -12 8 -9 10 13 10 15 0 27 -4 27
-10z m110 0 c0 -5 -2 -10 -4 -10 -3 0 -8 5 -11 10 -3 6 -1 10 4 10 6 0 11 -4
11 -10z m-180 -141 c0 -4 -6 -9 -13 -12 -8 -3 -14 0 -14 7 0 7 6 13 14 13 7 0
13 -4 13 -8z m-119 -102 c-10 -9 -11 -8 -5 6 3 10 9 15 12 12 3 -3 0 -11 -7
-18z m129 17 c0 -7 -91 -47 -96 -42 -2 3 8 10 24 17 15 8 34 17 42 22 18 9 30
11 30 3z m15 -44 c3 -5 2 -10 -4 -10 -5 0 -13 5 -16 10 -3 6 -2 10 4 10 5 0
13 -4 16 -10z m-35 -12 c0 -6 -3 -8 -6 -5 -4 3 -15 2 -25 -4 -17 -8 -27 0 -14
12 9 10 45 7 45 -3z m80 -18 c-8 -5 -17 -7 -19 -4 -3 3 1 9 9 14 8 5 17 7 19
4 3 -3 -1 -9 -9 -14z m50 0 c0 -5 -7 -7 -15 -4 -8 4 -15 8 -15 10 0 2 7 4 15
4 8 0 15 -4 15 -10z m-213 -30 c-1 -10 -3 -17 -6 -15 -2 3 -10 0 -18 -6 -19
-16 -16 -2 5 20 22 25 21 24 19 1z m178 10 c-3 -5 -11 -10 -16 -10 -6 0 -7 5
-4 10 3 6 11 10 16 10 6 0 7 -4 4 -10z m89 1 c3 -5 0 -14 -7 -19 -10 -8 -13
-6 -14 9 -2 19 11 26 21 10z m-144 -13 c0 -9 3 -8 10 2 7 12 9 10 8 -6 -2 -18
-5 -20 -20 -10 -20 12 -24 26 -8 26 6 0 10 -6 10 -12z m-133 -74 c-3 -3 -12
-4 -19 -1 -8 3 -5 6 6 6 11 1 17 -2 13 -5z m113 -13 c0 -6 -4 -12 -8 -15 -5
-3 -9 1 -9 9 0 8 4 15 9 15 4 0 8 -4 8 -9z m207 -21 c-4 -27 -17 -38 -17 -13
0 18 8 33 17 33 1 0 2 -9 0 -20z m-114 -14 c4 -10 0 -12 -15 -8 -15 4 -17 7
-6 13 17 11 15 11 21 -5z m-40 -101 c-24 -32 -38 -32 -17 0 9 14 20 25 26 25
5 0 1 -11 -9 -25z"/>
<path d="M2790 3095 c-7 -8 -8 -15 -2 -15 5 0 15 7 22 15 7 8 8 15 2 15 -5 0
-15 -7 -22 -15z"/>
<path d="M5620 3100 c0 -5 5 -10 11 -10 5 0 7 5 4 10 -3 6 -8 10 -11 10 -2 0
-4 -4 -4 -10z"/>
<path d="M528 3083 c6 -2 18 -2 25 0 6 3 1 5 -13 5 -14 0 -19 -2 -12 -5z"/>
<path d="M1201 3080 c-1 -18 18 -40 34 -40 5 0 3 6 -6 13 -9 7 -18 19 -22 27
-5 13 -6 13 -6 0z"/>
<path d="M4279 3047 c-14 -12 -18 -17 -10 -12 12 8 13 6 8 -7 -4 -12 -2 -18 7
-18 12 0 32 47 24 56 -2 2 -15 -7 -29 -19z"/>
<path d="M1290 3031 c0 -5 9 -11 21 -14 16 -4 18 -3 8 9 -13 16 -29 19 -29 5z"/>
<path d="M3287 3019 c4 -13 8 -18 11 -10 2 7 -1 18 -6 23 -8 8 -9 4 -5 -13z"/>
<path d="M1260 3010 c0 -19 3 -21 12 -12 9 9 9 15 0 24 -9 9 -12 7 -12 -12z"/>
<path d="M1297 2997 c-2 -7 -5 -16 -6 -22 -2 -12 37 -16 45 -4 2 4 -5 6 -16 4
-11 -2 -20 0 -20 5 0 5 8 10 18 12 15 3 16 4 0 10 -9 4 -18 1 -21 -5z"/>
<path d="M2910 2985 c-19 -8 -44 -12 -56 -10 -18 3 -21 -1 -18 -25 2 -16 -1
-32 -7 -36 -6 -3 -10 0 -8 7 5 37 0 42 -42 35 -23 -4 -53 -13 -68 -21 -15 -7
-56 -23 -91 -34 -65 -22 -120 -54 -109 -66 11 -10 49 -14 49 -4 0 5 -10 9 -22
10 -19 1 -18 2 6 10 17 4 32 6 35 4 2 -3 -1 -5 -9 -5 -9 0 -10 -3 -1 -14 12
-14 46 -11 69 7 8 6 12 6 12 -2 0 -6 5 -11 11 -11 5 0 8 4 5 9 -7 11 91 34
105 25 5 -3 12 2 15 10 3 9 14 16 24 16 11 0 21 4 25 10 3 5 12 7 19 4 17 -6
31 12 16 21 -25 15 -9 31 30 30 22 -1 38 1 35 3 -3 3 2 14 12 24 18 21 12 21
-37 3z m-180 -70 c-7 -9 -15 -13 -18 -10 -3 2 1 11 8 20 7 9 15 13 18 10 3 -2
-1 -11 -8 -20z"/>
<path d="M3971 2984 c0 -11 3 -14 6 -6 3 7 2 16 -1 19 -3 4 -6 -2 -5 -13z"/>
<path d="M5630 2993 c0 -5 12 -19 25 -32 18 -17 25 -19 25 -8 0 8 -11 22 -25
31 -14 9 -25 13 -25 9z"/>
<path d="M2970 2982 c0 -14 11 -21 26 -15 8 3 11 9 8 14 -7 11 -34 12 -34 1z"/>
<path d="M3392 2978 c-7 -7 -12 -16 -12 -21 0 -5 7 -1 16 8 9 9 14 18 12 20
-2 3 -10 -1 -16 -7z"/>
<path d="M5932 2960 c0 -14 2 -19 5 -12 2 6 2 18 0 25 -3 6 -5 1 -5 -13z"/>
<path d="M5751 2944 c0 -11 3 -14 6 -6 3 7 2 16 -1 19 -3 4 -6 -2 -5 -13z"/>
<path d="M1140 2941 c0 -5 7 -11 14 -14 10 -4 13 -1 9 9 -6 15 -23 19 -23 5z"/>
<path d="M2916 2936 c3 -9 14 -16 24 -16 22 0 35 16 21 24 -5 4 -11 0 -14 -6
-3 -10 -7 -10 -21 1 -14 12 -16 12 -10 -3z"/>
<path d="M3311 2924 c0 -11 3 -14 6 -6 3 7 2 16 -1 19 -3 4 -6 -2 -5 -13z"/>
<path d="M1181 2927 c2 -1 13 -9 24 -17 19 -14 19 -14 6 3 -7 9 -18 17 -24 17
-6 0 -8 -1 -6 -3z"/>
<path d="M5460 2894 c0 -8 5 -12 10 -9 6 4 8 11 5 16 -9 14 -15 11 -15 -7z"/>
<path d="M3322 2880 c0 -14 2 -19 5 -12 2 6 2 18 0 25 -3 6 -5 1 -5 -13z"/>
<path d="M3377 2893 c-4 -3 -7 -11 -7 -17 0 -6 5 -5 12 2 6 6 9 14 7 17 -3 3
-9 2 -12 -2z"/>
<path d="M1155 2880 c-3 -5 1 -10 10 -10 9 0 13 5 10 10 -3 6 -8 10 -10 10 -2
0 -7 -4 -10 -10z"/>
<path d="M1709 2867 c13 -15 28 -24 32 -21 10 6 0 34 -11 34 -5 0 -17 3 -27 7
-15 5 -13 1 6 -20z"/>
<path d="M5670 2870 c0 -5 5 -10 10 -10 6 0 10 5 10 10 0 6 -4 10 -10 10 -5 0
-10 -4 -10 -10z"/>
<path d="M5570 2860 c0 -5 9 -14 21 -20 19 -11 20 -10 9 9 -11 22 -30 29 -30
11z"/>
<path d="M3360 2844 c0 -8 5 -12 10 -9 6 4 8 11 5 16 -9 14 -15 11 -15 -7z"/>
<path d="M5790 2850 c0 -5 5 -10 11 -10 5 0 7 5 4 10 -3 6 -8 10 -11 10 -2 0
-4 -4 -4 -10z"/>
<path d="M2642 2823 c-23 -3 -32 -9 -28 -18 6 -15 -14 -25 -51 -25 -33 0 -25
9 10 12 15 1 27 6 27 11 0 14 -62 -1 -80 -18 -10 -10 -10 -15 -2 -15 7 0 12
-4 12 -10 0 -5 -10 -10 -23 -10 -13 0 -28 -5 -34 -11 -14 -14 -6 -39 13 -39 8
0 14 -4 14 -9 0 -5 17 -15 38 -21 20 -7 47 -19 60 -27 13 -8 30 -12 37 -9 8 3
15 0 17 -6 4 -12 18 -16 78 -22 19 -2 36 -8 37 -13 5 -15 83 -3 83 13 0 8 -4
14 -10 14 -5 0 -10 5 -10 11 0 6 7 8 18 5 15 -6 16 -6 1 9 -14 14 -103 50
-186 76 -18 5 -33 12 -33 14 0 2 29 1 65 -2 43 -3 65 -2 65 6 0 6 6 8 13 6 6
-3 28 -6 47 -8 19 -3 43 -8 53 -12 9 -4 31 -2 48 5 30 13 34 31 8 38 -11 3
-11 1 1 -8 12 -9 10 -10 -10 -5 -14 4 -32 14 -40 21 -13 13 -11 14 16 8 18 -3
34 -2 37 3 3 5 -2 10 -11 11 -93 10 -122 10 -117 2 3 -6 2 -10 -4 -10 -6 0 -8
-7 -5 -15 4 -8 1 -15 -6 -15 -6 0 -9 4 -6 9 4 5 -8 21 -25 35 -30 26 -44 28
-117 19z m18 -33 c8 -5 11 -10 5 -10 -5 0 -17 5 -25 10 -8 5 -10 10 -5 10 6 0
17 -5 25 -10z m199 -31 c-22 -14 -33 -10 -19 6 7 8 17 12 22 9 6 -4 5 -10 -3
-15z m-209 -49 c0 -5 -4 -10 -10 -10 -5 0 -10 5 -10 10 0 6 5 10 10 10 6 0 10
-4 10 -10z m100 -60 c13 -8 13 -10 -2 -10 -9 0 -20 5 -23 10 -8 13 5 13 25 0z
m45 -20 c-3 -5 -10 -10 -16 -10 -5 0 -9 5 -9 10 0 6 7 10 16 10 8 0 12 -4 9
-10z"/>
<path d="M2760 2822 c0 -12 19 -26 26 -19 2 2 -2 10 -11 17 -9 8 -15 8 -15 2z"/>
<path d="M4016 2815 c4 -8 10 -12 15 -9 11 6 2 24 -11 24 -5 0 -7 -7 -4 -15z"/>
<path d="M5626 2822 c-3 -6 -1 -14 5 -17 14 -9 20 -2 10 14 -6 8 -11 9 -15 3z"/>
<path d="M5480 2811 c0 -5 5 -13 10 -16 6 -3 10 -2 10 4 0 5 -4 13 -10 16 -5
3 -10 2 -10 -4z"/>
<path d="M1152 2778 c-7 -10 -5 -19 9 -37 13 -16 19 -19 19 -8 0 8 -6 17 -12
20 -7 2 -10 7 -7 11 4 4 16 -3 28 -15 21 -22 27 -16 15 15 -3 9 -11 13 -16 10
-6 -4 -14 -1 -18 5 -5 9 -9 9 -18 -1z"/>
<path d="M1590 2774 c0 -8 5 -12 10 -9 6 3 10 10 10 16 0 5 -4 9 -10 9 -5 0
-10 -7 -10 -16z"/>
<path d="M3340 2761 c11 -22 30 -37 30 -24 -1 11 -26 43 -34 43 -4 0 -2 -9 4
-19z"/>
<path d="M5730 2760 c0 -5 5 -10 11 -10 5 0 7 5 4 10 -3 6 -8 10 -11 10 -2 0
-4 -4 -4 -10z"/>
<path d="M1118 2743 c7 -3 16 -2 19 1 4 3 -2 6 -13 5 -11 0 -14 -3 -6 -6z"/>
<path d="M5552 2729 c2 -7 10 -15 17 -17 8 -3 12 1 9 9 -2 7 -10 15 -17 17 -8
3 -12 -1 -9 -9z"/>
<path d="M5757 2716 c-3 -8 -2 -18 3 -21 13 -8 24 15 12 27 -6 6 -11 4 -15 -6z"/>
<path d="M2405 2700 c3 -5 12 -10 19 -10 7 0 21 -10 32 -22 l19 -21 -32 18
c-32 19 -33 19 -47 0 -13 -18 -13 -21 1 -32 9 -7 13 -13 8 -13 -5 0 0 -7 11
-15 12 -10 14 -14 4 -13 -8 2 -23 11 -34 21 -13 11 -22 13 -27 6 -4 -7 -8 -5
-12 5 -4 9 -17 15 -29 15 -17 -1 -18 -2 -5 -6 26 -7 21 -23 -8 -23 -14 0 -25
-6 -25 -12 1 -15 77 -64 92 -60 6 2 8 -4 5 -13 -4 -8 -2 -15 3 -15 6 0 34 -14
63 -30 75 -44 89 -53 116 -72 13 -10 37 -18 52 -18 16 0 29 -5 29 -12 0 -7 7
-2 16 11 16 22 15 24 -10 47 -23 22 -26 23 -27 7 -1 -10 -1 -22 0 -26 1 -5 -3
-6 -9 -2 -5 3 -10 20 -10 36 0 18 -4 28 -10 24 -5 -3 -10 1 -10 9 0 9 -5 16
-10 16 -6 0 -16 5 -23 10 -7 6 -34 27 -62 46 -44 32 -46 35 -20 29 16 -3 54
-22 85 -41 30 -18 78 -41 105 -50 28 -9 56 -21 63 -27 8 -6 12 -6 12 2 0 7 5
9 10 6 6 -4 8 -11 5 -16 -4 -5 1 -9 9 -9 22 0 20 17 -4 32 -28 18 -25 25 10
20 18 -3 30 0 30 7 0 20 -29 24 -55 7 -30 -20 -35 -20 -35 -1 0 8 5 15 10 15
6 0 10 5 10 11 0 8 -4 8 -12 2 -9 -7 -24 -3 -47 14 -19 12 -27 23 -19 23 7 0
19 -5 26 -12 9 -9 12 -8 12 4 0 11 -27 29 -77 53 -43 20 -99 47 -124 61 -48
25 -85 32 -74 14z m106 -77 c13 -16 12 -17 -3 -4 -10 7 -18 15 -18 17 0 8 8 3
21 -13z m179 -107 c0 -2 -7 -7 -16 -10 -8 -3 -12 -2 -9 4 6 10 25 14 25 6z
m-180 -46 c0 -5 -7 -7 -15 -4 -8 4 -15 8 -15 10 0 2 7 4 15 4 8 0 15 -4 15
-10z m140 -61 c0 -5 -4 -9 -10 -9 -5 0 -10 7 -10 16 0 8 5 12 10 9 6 -3 10
-10 10 -16z"/>
<path d="M5590 2695 c0 -22 4 -30 15 -30 6 0 16 -4 23 -8 15 -10 16 7 2 34
-13 23 -40 26 -40 4z"/>
<path d="M2365 2679 c-12 -19 5 -23 22 -6 16 16 16 17 1 17 -9 0 -20 -5 -23
-11z"/>
<path d="M4895 2660 c-3 -5 -1 -10 4 -10 6 0 11 5 11 10 0 6 -2 10 -4 10 -3 0
-8 -4 -11 -10z"/>
<path d="M1019 2641 c-13 -11 -19 -20 -14 -20 14 0 50 28 43 34 -3 3 -16 -3
-29 -14z"/>
<path d="M5540 2646 c0 -9 5 -16 10 -16 6 0 10 4 10 9 0 6 -4 13 -10 16 -5 3
-10 -1 -10 -9z"/>
<path d="M1070 2643 c0 -9 48 -33 64 -33 6 0 -2 9 -19 20 -32 21 -45 25 -45
13z"/>
<path d="M5708 2630 c25 -23 42 -26 42 -6 0 7 -10 16 -22 20 -38 10 -43 7 -20
-14z"/>
<path d="M1036 2613 c-6 -14 -5 -15 5 -6 7 7 10 15 7 18 -3 3 -9 -2 -12 -12z"/>
<path d="M5480 2620 c0 -5 5 -10 11 -10 5 0 7 5 4 10 -3 6 -8 10 -11 10 -2 0
-4 -4 -4 -10z"/>
<path d="M2866 2606 c3 -9 11 -16 16 -16 13 0 5 23 -10 28 -7 2 -10 -2 -6 -12z"/>
<path d="M5650 2600 c30 -23 40 -25 40 -6 0 7 -10 16 -22 20 -39 10 -44 6 -18
-14z"/>
<path d="M377 2596 c-4 -10 -1 -13 9 -9 15 6 19 23 5 23 -5 0 -11 -7 -14 -14z"/>
<path d="M5550 2600 c0 -5 5 -10 10 -10 6 0 10 5 10 10 0 6 -4 10 -10 10 -5 0
-10 -4 -10 -10z"/>
<path d="M3340 2574 c0 -8 5 -12 10 -9 6 4 8 11 5 16 -9 14 -15 11 -15 -7z"/>
<path d="M5740 2575 c0 -8 7 -15 15 -15 9 0 12 6 9 15 -4 8 -10 15 -15 15 -5
0 -9 -7 -9 -15z"/>
<path d="M5780 2570 c6 -11 15 -18 21 -14 6 4 6 11 -2 20 -17 21 -31 17 -19
-6z"/>
<path d="M5840 2570 c-16 -10 -8 -23 15 -26 8 -1 15 4 15 11 0 19 -13 25 -30
15z"/>
<path d="M380 2560 c-8 -5 -11 -12 -8 -16 4 -3 14 1 23 10 18 17 9 21 -15 6z"/>
<path d="M5513 2553 c9 -9 20 -13 24 -9 4 4 1 11 -7 16 -25 16 -35 11 -17 -7z"/>
<path d="M350 2553 c0 -7 -6 -13 -14 -13 -17 0 -23 -62 -18 -185 3 -67 7 -83
18 -78 8 3 21 0 28 -7 12 -9 17 -7 25 9 6 11 11 27 11 36 0 12 5 15 18 10 14
-5 15 -4 5 6 -10 10 -16 10 -25 1 -18 -18 -28 -15 -28 8 0 13 -7 20 -19 20
-17 0 -18 3 -8 29 6 17 14 28 19 25 4 -3 5 2 2 11 -4 9 1 22 12 31 18 14 18
15 -2 5 -17 -8 -25 -7 -35 5 -11 14 -10 15 9 12 11 -1 22 2 23 7 1 6 9 16 18
23 13 11 12 11 -8 2 -19 -10 -26 -9 -39 4 -11 10 -12 16 -4 16 7 0 12 -5 12
-12 0 -9 3 -9 11 -1 8 8 8 16 0 30 -6 10 -11 12 -11 6z m10 -245 c0 -18 2 -20
10 -8 5 8 12 11 16 7 4 -4 2 -13 -5 -20 -10 -9 -15 -8 -27 7 -16 23 -18 36 -4
36 6 0 10 -10 10 -22z"/>
<path d="M2256 2546 c3 -8 0 -17 -6 -21 -8 -5 1 -20 26 -46 40 -41 27 -56 -16
-19 -50 43 -51 18 -1 -34 69 -74 65 -83 -6 -13 -33 33 -61 53 -66 48 -9 -9 30
-71 45 -71 4 0 8 -4 8 -8 0 -13 145 -162 157 -162 5 0 29 -14 52 -30 23 -17
46 -28 51 -25 6 4 13 0 16 -8 3 -8 13 -17 23 -20 14 -3 17 1 13 22 -6 30 -32
74 -40 67 -5 -6 -62 62 -62 75 0 11 -41 23 -67 20 -13 -1 -23 2 -23 7 0 6 10
8 23 5 21 -4 21 -3 -5 19 -15 13 -42 35 -60 50 -28 24 -30 27 -10 23 27 -5 33
-8 98 -57 53 -39 79 -47 87 -25 3 6 6 0 6 -15 1 -17 7 -28 15 -28 7 0 25 -9
40 -21 14 -11 30 -18 35 -15 5 3 11 0 14 -8 3 -7 17 -13 31 -13 31 0 35 12 5
14 -12 1 -28 11 -36 23 -8 11 -22 19 -31 18 -10 -2 -18 5 -20 17 -4 16 -2 17
10 7 8 -6 18 -9 22 -5 4 4 11 1 16 -7 6 -8 10 -10 10 -4 0 7 -12 20 -27 29
-16 10 -51 42 -78 70 -28 29 -61 55 -73 59 -12 4 -22 12 -22 17 0 5 -10 13
-23 18 -13 5 -41 21 -62 35 -42 29 -78 35 -69 12z m38 -22 c5 -12 2 -15 -10
-10 -8 3 -18 6 -20 6 -3 0 -2 5 1 10 9 15 22 12 29 -6z m41 -14 c3 -6 -1 -7
-9 -4 -18 7 -21 14 -7 14 6 0 13 -4 16 -10z m55 -204 c0 -3 -4 -8 -10 -11 -5
-3 -10 -1 -10 4 0 6 5 11 10 11 6 0 10 -2 10 -4z m0 -67 c0 -6 -4 -7 -10 -4
-5 3 -10 11 -10 16 0 6 5 7 10 4 6 -3 10 -11 10 -16z"/>
<path d="M3300 2545 c0 -8 4 -15 10 -15 5 0 7 7 4 15 -4 8 -8 15 -10 15 -2 0
-4 -7 -4 -15z"/>
<path d="M5580 2549 c0 -5 5 -7 10 -4 6 3 10 8 10 11 0 2 -4 4 -10 4 -5 0 -10
-5 -10 -11z"/>
<path d="M5725 2541 c-6 -11 9 -23 19 -14 9 9 7 23 -3 23 -6 0 -12 -4 -16 -9z"/>
<path d="M3350 2525 c0 -8 4 -15 10 -15 5 0 7 7 4 15 -4 8 -8 15 -10 15 -2 0
-4 -7 -4 -15z"/>
<path d="M5624 2525 c-18 -14 -18 -14 4 -15 15 0 26 -7 29 -20 6 -21 18 -26
28 -11 3 5 1 12 -5 16 -5 3 -10 15 -10 26 0 23 -19 25 -46 4z"/>
<path d="M5855 2490 c-3 -5 1 -10 9 -10 9 0 16 5 16 10 0 6 -4 10 -9 10 -6 0
-13 -4 -16 -10z"/>
<path d="M900 2479 c0 -5 5 -7 10 -4 6 3 10 8 10 11 0 2 -4 4 -10 4 -5 0 -10
-5 -10 -11z"/>
<path d="M930 2476 c0 -8 -9 -18 -20 -21 -26 -8 -26 -21 0 -21 10 0 17 2 15 5
-3 2 2 12 11 22 10 11 12 19 5 24 -6 3 -11 -1 -11 -9z"/>
<path d="M5960 2480 c0 -5 5 -10 11 -10 5 0 7 5 4 10 -3 6 -8 10 -11 10 -2 0
-4 -4 -4 -10z"/>
<path d="M2780 2470 c0 -5 5 -10 11 -10 5 0 7 5 4 10 -3 6 -8 10 -11 10 -2 0
-4 -4 -4 -10z"/>
<path d="M3271 2448 c-15 -43 -8 -45 11 -3 8 19 12 35 8 35 -5 0 -13 -14 -19
-32z"/>
<path d="M5690 2460 c0 -5 5 -10 10 -10 6 0 10 5 10 10 0 6 -4 10 -10 10 -5 0
-10 -4 -10 -10z"/>
<path d="M961 2443 c-2 -20 16 -24 30 -5 13 15 12 16 -3 4 -13 -10 -17 -10
-21 0 -4 9 -6 9 -6 1z"/>
<path d="M5560 2425 c0 -28 12 -32 30 -10 14 16 6 35 -16 35 -8 0 -14 -10 -14
-25z"/>
<path d="M6125 2441 c-3 -5 -1 -12 5 -16 5 -3 10 1 10 9 0 18 -6 21 -15 7z"/>
<path d="M3350 2425 c0 -9 5 -13 10 -10 6 3 10 -1 10 -10 0 -9 -5 -13 -10 -10
-8 5 -9 -16 -5 -67 4 -40 8 -94 9 -121 3 -41 16 -82 16 -47 0 7 7 22 17 32 15
17 15 18 0 18 -19 0 -19 1 -21 129 -1 66 -5 96 -13 98 -7 3 -13 -3 -13 -12z"/>
<path d="M5830 2431 c0 -5 7 -12 16 -15 22 -9 24 -8 24 9 0 8 -9 15 -20 15
-11 0 -20 -4 -20 -9z"/>
<path d="M3859 2418 c-22 -7 -41 -21 -52 -39 -9 -16 -24 -29 -33 -29 -12 0
-15 -6 -10 -23 4 -19 0 -27 -27 -40 -28 -14 -29 -16 -9 -16 12 -1 30 3 40 8 9
5 34 16 54 25 21 8 56 27 78 41 34 21 41 31 38 53 -3 31 -23 36 -79 20z m-59
-93 c0 -12 -19 -12 -23 0 -4 9 -1 12 9 8 7 -3 14 -7 14 -8z"/>
<path d="M5726 2423 c-4 -4 -19 -9 -34 -11 -15 -2 -31 -10 -35 -18 -4 -8 -16
-14 -26 -14 -23 0 -31 -9 -24 -26 4 -11 9 -12 19 -3 8 6 23 9 34 6 17 -4 20
-1 18 16 -2 16 2 21 20 20 40 -2 42 -3 42 -22 0 -13 -9 -21 -31 -26 -30 -7
-35 -28 -8 -32 25 -4 52 25 52 57 0 17 3 27 6 22 3 -5 21 -13 39 -17 25 -5 32
-3 32 9 0 10 -13 18 -37 22 -21 4 -43 10 -49 15 -6 5 -14 6 -18 2z"/>
<path d="M2168 2390 c12 -12 22 -26 22 -32 0 -6 -9 -3 -20 7 -33 30 -34 10 -3
-37 17 -24 32 -53 35 -65 5 -20 4 -21 -13 -12 -11 5 -17 14 -14 20 4 5 0 9 -7
9 -7 0 -22 19 -33 43 -14 29 -28 43 -44 45 -22 4 -23 1 -17 -35 6 -36 28 -98
47 -135 7 -13 5 -18 -6 -18 -8 0 -15 8 -15 18 0 9 -9 32 -20 50 -11 18 -20 43
-20 55 0 13 -6 31 -13 41 -12 17 -14 17 -20 3 -3 -9 -2 -19 4 -22 5 -4 7 -11
4 -16 -11 -17 -31 15 -27 44 4 24 1 28 -14 25 -14 -2 -19 -12 -20 -36 0 -18
-6 -38 -13 -45 -10 -9 -11 -9 -6 4 3 9 -3 23 -15 34 -17 15 -20 16 -20 3 0 -9
-8 -15 -17 -14 -15 1 -18 -7 -16 -51 1 -31 -2 -53 -8 -53 -6 0 -8 4 -4 9 3 5
1 20 -4 33 -5 13 -13 32 -17 43 -5 16 -9 9 -19 -30 l-13 -50 -1 53 c-2 82 -36
64 -40 -23 -5 -79 -6 -90 -16 -95 -4 -3 -7 28 -6 69 2 49 -1 71 -8 67 -7 -5
-8 -1 -4 10 4 12 2 15 -8 12 -8 -2 -17 -22 -20 -44 -6 -37 -6 -37 -8 -7 -1 33
-18 54 -25 31 -3 -7 -8 -31 -12 -53 l-8 -40 -4 33 c-2 21 -9 32 -19 32 -13 0
-13 3 -3 15 15 18 -1 20 -18 3 -9 -9 -12 -9 -12 1 0 20 -35 -29 -48 -66 -6
-17 -8 -41 -5 -51 3 -11 -2 -35 -10 -54 -17 -38 -21 -128 -7 -128 6 0 10 -5
10 -11 0 -5 -4 -7 -10 -4 -5 3 -10 1 -10 -4 0 -19 28 -12 35 9 7 22 20 26 30
10 3 -5 -1 -10 -10 -10 -9 0 -14 -4 -11 -9 3 -4 -3 -18 -13 -30 -18 -20 -20
-21 -24 -4 -4 17 -5 17 -6 1 0 -10 -6 -18 -12 -18 -5 0 -8 -4 -4 -9 6 -11 62
-8 57 3 -2 4 4 18 13 32 9 14 19 38 21 52 16 93 51 129 39 41 -6 -40 -4 -50 5
-44 9 5 11 4 6 -4 -4 -6 -12 -9 -17 -6 -12 8 -11 2 2 -32 6 -15 11 -54 10 -86
-2 -40 1 -57 9 -52 6 3 8 10 5 15 -3 5 -1 11 5 15 6 4 8 11 5 16 -4 5 -1 9 4
9 6 0 11 -11 11 -24 0 -34 17 -41 23 -10 5 27 -14 54 -39 54 -8 0 -14 5 -14
11 0 7 12 10 30 7 22 -3 30 -1 30 11 0 9 7 29 15 44 8 15 10 25 5 22 -6 -4
-10 -1 -10 4 0 6 7 11 15 11 8 0 15 -4 15 -9 0 -5 11 -12 25 -15 19 -5 24 -12
21 -29 -4 -30 13 -79 27 -70 6 3 7 1 3 -6 -4 -6 -4 -20 -1 -31 6 -18 8 -19 22
-4 9 9 18 30 20 47 6 59 9 247 3 249 -3 2 -2 19 1 38 6 31 7 32 8 7 0 -16 5
-26 9 -23 5 3 15 -20 22 -52 6 -31 16 -68 20 -82 5 -14 14 -53 21 -87 7 -35
19 -65 27 -68 12 -4 13 1 8 27 -3 18 -12 35 -18 39 -7 5 -9 11 -5 15 4 4 16
-1 26 -10 19 -18 20 -17 15 41 -3 32 -8 69 -11 83 -7 29 -10 70 -6 70 2 0 13
-21 25 -47 12 -27 32 -58 44 -71 12 -12 24 -38 27 -57 7 -40 34 -71 61 -71 28
1 30 39 5 96 -11 27 -18 54 -14 59 3 7 0 8 -9 5 -9 -3 -16 -2 -16 4 0 6 6 12
13 15 9 3 8 13 -6 39 -17 31 -15 68 3 68 7 0 33 -54 31 -65 -3 -14 34 -73 63
-97 17 -16 27 -28 22 -28 -5 0 1 -11 14 -25 19 -20 26 -23 38 -12 13 10 15 9
9 -7 -7 -18 7 -46 24 -46 5 0 9 7 9 16 0 8 -3 13 -7 11 -5 -3 -9 15 -9 40 -1
25 -6 48 -11 52 -5 3 -10 17 -11 31 0 14 -14 51 -31 82 -26 52 -27 57 -10 55
10 -2 22 -7 26 -12 5 -4 1 -5 -7 -1 -8 4 -6 0 4 -8 11 -9 17 -19 13 -22 -9
-10 150 -167 162 -160 6 4 11 0 11 -8 0 -10 9 -16 23 -16 13 0 29 -6 36 -12
11 -11 12 -9 2 8 -10 21 -52 40 -78 35 -19 -3 -16 16 4 23 10 4 20 1 25 -9 12
-21 27 -19 25 3 -1 14 -8 18 -29 17 -25 -2 -40 12 -42 39 -1 5 -9 10 -19 12
-24 3 -31 10 -18 19 6 3 11 2 11 -4 0 -6 7 -8 16 -4 10 4 17 -1 21 -15 5 -19
39 -40 49 -30 2 3 -10 20 -27 39 -17 19 -38 44 -46 56 -8 13 -20 20 -26 16 -6
-3 -7 -1 -3 5 3 6 -1 15 -10 20 -9 5 -15 12 -15 16 2 13 -32 56 -40 50 -5 -3
-8 0 -7 7 2 7 -6 17 -18 23 -11 6 -19 18 -17 26 3 9 -2 8 -12 -5 -16 -19 -16
-19 -10 7 6 23 0 33 -42 72 -26 25 -54 46 -62 46 -10 0 -8 -6 7 -20z m-55 -62
c6 -22 5 -22 -8 -4 -17 22 -20 40 -6 32 5 -3 11 -16 14 -28z m57 -128 c-27
-27 -34 -25 -14 5 9 14 20 22 25 20 4 -3 -1 -15 -11 -25z m73 12 c15 -16 15
-19 2 -19 -8 0 -13 3 -10 5 3 3 0 11 -6 19 -17 20 -5 16 14 -5z m-542 -78 c-6
-28 -9 -32 -10 -14 -1 30 11 79 16 64 2 -6 -1 -28 -6 -50z m-44 9 c-3 -3 -14
0 -24 7 -16 10 -16 11 0 6 11 -4 17 0 18 12 1 15 2 15 6 -1 3 -10 2 -21 0 -24z
m338 27 c-3 -5 -1 -10 5 -10 6 0 8 -5 4 -11 -4 -8 -9 -7 -15 2 -12 19 -11 29
2 29 5 0 7 -4 4 -10z m412 -62 c-3 -8 -6 -5 -6 6 -1 11 2 17 5 13 3 -3 4 -12
1 -19z m-637 -57 c0 -16 -6 -31 -13 -34 -14 -5 -16 30 -3 51 11 19 16 14 16
-17z m230 -1 c0 -5 -4 -10 -10 -10 -5 0 -10 5 -10 10 0 6 5 10 10 10 6 0 10
-4 10 -10z m-3 -65 c9 -25 -4 -29 -17 -6 -7 15 -7 21 0 21 6 0 13 -7 17 -15z
m143 -15 c0 -5 -2 -10 -4 -10 -3 0 -8 5 -11 10 -3 6 -1 10 4 10 6 0 11 -4 11
-10z"/>
<path d="M384 2385 c9 -7 16 -17 16 -22 0 -5 6 -10 14 -10 12 0 11 4 -2 22 -9
12 -23 22 -30 22 -12 0 -11 -3 2 -12z"/>
<path d="M5527 2384 c-11 -12 -8 -23 13 -44 24 -24 40 -26 40 -5 0 8 -7 15
-15 15 -9 0 -19 9 -23 20 -4 12 -11 18 -15 14z"/>
<path d="M5880 2366 c0 -2 7 -6 15 -10 8 -3 15 -1 15 4 0 6 -7 10 -15 10 -8 0
-15 -2 -15 -4z"/>
<path d="M3216 2323 c-6 -14 -5 -15 5 -6 7 7 10 15 7 18 -3 3 -9 -2 -12 -12z"/>
<path d="M3890 2320 c-10 -8 -35 -28 -54 -44 -21 -17 -36 -38 -36 -51 0 -14
-10 -26 -27 -34 -24 -11 -25 -14 -11 -22 28 -15 59 -1 122 55 46 41 59 59 61
83 1 26 -2 31 -18 30 -10 -1 -27 -8 -37 -17z"/>
<path d="M5810 2320 c0 -5 5 -10 10 -10 6 0 10 5 10 10 0 6 -4 10 -10 10 -5 0
-10 -4 -10 -10z"/>
<path d="M5770 2301 c0 -10 6 -21 14 -24 9 -4 13 0 11 11 -2 9 -4 20 -4 25 -2
16 -21 6 -21 -12z"/>
<path d="M416 2298 c3 -5 10 -6 15 -3 13 9 11 12 -6 12 -8 0 -12 -4 -9 -9z"/>
<path d="M929 2281 c-26 -25 -28 -30 -12 -33 24 -5 73 11 73 24 0 7 -5 7 -12
1 -11 -8 -21 -9 -44 -4 -3 0 4 10 17 21 13 10 21 19 16 20 -4 0 -21 -13 -38
-29z"/>
<path d="M2623 2291 c1 -11 6 -17 14 -14 10 4 11 9 2 19 -15 19 -18 18 -16 -5z"/>
<path d="M3195 2279 c-4 -6 -5 -12 -2 -15 2 -3 7 2 10 11 7 17 1 20 -8 4z"/>
<path d="M5844 2277 c-8 -21 10 -74 22 -67 11 6 6 61 -6 74 -6 6 -12 3 -16 -7z"/>
<path d="M3921 2230 c-28 -28 -51 -57 -51 -64 0 -7 -9 -21 -20 -31 -14 -13
-18 -27 -15 -51 4 -32 -2 -39 -28 -35 -5 1 -6 -8 -2 -19 5 -14 2 -20 -9 -20
-9 0 -16 -4 -16 -10 0 -17 10 -11 40 21 15 17 33 28 38 25 6 -4 14 -27 18 -51
5 -35 2 -51 -12 -73 -23 -33 -55 -114 -49 -121 8 -8 33 32 39 63 3 16 18 41
34 55 41 40 150 220 152 250 0 11 -4 11 -18 -2 -29 -26 -36 -20 -13 10 12 14
19 28 16 31 -6 6 -75 -60 -75 -72 0 -8 -39 -46 -47 -46 -2 0 15 24 37 54 48
64 65 110 45 126 -10 8 -25 -1 -64 -40z"/>
<path d="M5739 2267 c18 -18 13 -26 -24 -33 -19 -3 -35 -10 -35 -16 0 -5 5 -6
11 -3 6 4 5 -2 -2 -13 -7 -12 -17 -18 -22 -15 -5 3 -7 -3 -5 -12 1 -10 9 -20
17 -23 8 -3 11 0 7 6 -4 6 2 8 14 5 10 -3 22 -14 25 -24 8 -24 16 -24 39 2 14
16 16 27 8 43 -5 11 -7 35 -5 52 4 26 1 32 -18 37 -16 4 -19 3 -10 -6z"/>
<path d="M333 2218 c5 -24 13 -51 18 -60 5 -10 6 -24 3 -32 -3 -8 0 -17 7 -22
8 -4 10 -3 5 4 -4 7 -2 12 3 12 6 0 11 -11 11 -25 0 -14 5 -25 11 -25 5 0 7
-5 3 -12 -4 -6 -3 -8 4 -5 13 9 5 41 -21 85 -10 17 -20 48 -22 67 -4 37 -11
55 -24 55 -5 0 -4 -19 2 -42z"/>
<path d="M368 2238 c14 -14 16 -32 2 -23 -6 4 -7 -1 -3 -11 4 -11 8 -13 11 -6
2 7 8 9 14 6 6 -4 6 1 -1 13 -6 11 -7 23 -4 27 3 3 -2 6 -12 6 -15 0 -16 -3
-7 -12z"/>
<path d="M5985 2241 c-9 -15 36 -25 49 -11 8 10 7 12 -6 7 -10 -4 -18 -2 -18
3 0 13 -17 13 -25 1z"/>
<path d="M3171 2204 c0 -11 3 -14 6 -6 3 7 2 16 -1 19 -3 4 -6 -2 -5 -13z"/>
<path d="M5615 2210 c-3 -5 1 -10 9 -10 9 0 16 5 16 10 0 6 -4 10 -9 10 -6 0
-13 -4 -16 -10z"/>
<path d="M5791 2204 c0 -11 3 -14 6 -6 3 7 2 16 -1 19 -3 4 -6 -2 -5 -13z"/>
<path d="M5581 2184 c0 -11 3 -14 6 -6 3 7 2 16 -1 19 -3 4 -6 -2 -5 -13z"/>
<path d="M6066 2184 c-5 -14 -4 -15 9 -4 17 14 19 20 6 20 -5 0 -12 -7 -15
-16z"/>
<path d="M3395 2180 c-3 -5 -1 -10 4 -10 6 0 11 5 11 10 0 6 -2 10 -4 10 -3 0
-8 -4 -11 -10z"/>
<path d="M5832 2170 c0 -14 2 -19 5 -12 2 6 2 18 0 25 -3 6 -5 1 -5 -13z"/>
<path d="M1023 2140 c0 -16 2 -30 4 -30 13 0 43 22 43 32 0 6 -3 8 -7 5 -3 -4
-14 0 -23 8 -15 14 -17 12 -17 -15z"/>
<path d="M5492 2140 c0 -14 2 -19 5 -12 2 6 2 18 0 25 -3 6 -5 1 -5 -13z"/>
<path d="M5620 2149 c0 -5 5 -7 10 -4 6 3 10 8 10 11 0 2 -4 4 -10 4 -5 0 -10
-5 -10 -11z"/>
<path d="M5870 2149 c0 -5 5 -7 10 -4 12 8 13 -8 1 -20 -5 -6 -12 -26 -15 -45
l-6 -35 18 36 c9 20 23 34 30 31 17 -5 15 14 -4 32 -18 18 -34 21 -34 5z"/>
<path d="M5940 2134 c0 -14 -9 -39 -20 -54 -14 -20 -19 -37 -14 -54 4 -17 2
-26 -5 -26 -15 0 -57 -71 -53 -90 2 -12 -1 -11 -11 2 -13 17 -16 16 -43 -7
-16 -14 -32 -25 -36 -25 -16 0 -7 30 12 40 29 15 26 42 -3 35 -15 -4 -28 -1
-36 9 -20 24 -5 33 49 28 40 -4 51 -1 56 12 3 9 12 16 19 16 8 0 17 5 21 12 5
7 2 9 -8 5 -11 -4 -18 1 -22 16 -5 20 -6 20 -24 4 -28 -26 -52 -22 -52 9 0 26
0 26 -26 9 -14 -9 -28 -14 -32 -11 -3 3 -15 -1 -28 -9 -17 -11 -23 -11 -27 -2
-6 18 3 37 19 37 8 0 14 4 14 9 0 15 -24 19 -37 5 -7 -7 -22 -10 -33 -7 -11 3
-20 0 -20 -6 0 -6 -7 -11 -15 -11 -8 0 -15 9 -15 19 0 24 -16 36 -23 18 -6
-15 15 -47 32 -47 6 0 11 -4 11 -10 0 -5 5 -10 11 -10 5 0 7 5 4 10 -3 6 1 10
9 10 9 0 16 -2 16 -4 0 -11 -47 -53 -72 -64 -20 -8 -28 -19 -28 -36 0 -32 17
-42 25 -15 4 11 25 39 47 61 32 32 42 37 54 27 19 -16 18 -29 -3 -30 -14 0
-13 -3 5 -11 12 -6 22 -17 22 -25 0 -16 -17 -18 -22 -2 -5 14 -68 2 -68 -12 0
-6 5 -7 12 -3 6 4 17 -1 24 -10 10 -14 16 -15 33 -6 14 7 21 7 21 0 0 -5 7
-10 15 -10 8 0 15 -7 15 -15 0 -8 -6 -15 -14 -15 -12 0 -26 -20 -26 -36 0 -8
44 18 52 30 9 14 20 2 23 -26 4 -38 5 -39 15 -33 6 4 8 11 5 16 -4 5 -1 9 4 9
15 0 14 -17 -1 -29 -54 -43 -78 -69 -80 -86 -2 -11 2 -20 7 -20 6 0 10 10 10
23 -1 17 4 22 17 19 9 -3 22 1 29 9 6 8 17 14 24 14 14 0 65 56 65 71 0 6 12
21 28 34 22 19 25 27 16 41 -9 15 -5 25 20 52 17 18 31 43 31 55 0 12 4 28 8
34 13 20 18 83 7 83 -6 0 -10 -12 -10 -26z"/>
<path d="M417 2131 c-4 -17 -3 -21 5 -13 5 5 8 16 6 23 -3 8 -7 3 -11 -10z"/>
<path d="M3734 2135 c-10 -8 -14 -15 -8 -15 6 0 17 7 24 15 16 19 9 19 -16 0z"/>
<path d="M3397 2134 c7 -3 9 -13 6 -22 -4 -14 -3 -14 5 -2 12 16 7 30 -11 29
-9 0 -9 -2 0 -5z"/>
<path d="M4026 2105 c-14 -21 -14 -24 -1 -19 8 4 15 2 15 -4 0 -5 -7 -12 -15
-16 -8 -3 -15 -12 -15 -21 0 -8 -5 -15 -11 -15 -8 0 -8 -5 1 -15 7 -9 8 -15 2
-15 -15 0 -48 -62 -44 -82 2 -10 7 -18 12 -18 11 0 50 41 50 52 0 4 5 8 11 8
6 0 8 -7 5 -15 -3 -9 -8 -49 -12 -89 -6 -69 -5 -74 15 -81 12 -3 19 -11 16
-16 -4 -5 -2 -9 3 -9 11 0 6 -59 -8 -95 -8 -21 -7 -25 10 -25 11 0 20 -5 20
-11 0 -6 -9 -9 -20 -6 -16 4 -20 0 -20 -19 0 -13 5 -24 10 -24 6 0 10 -7 10
-15 0 -17 26 -20 35 -5 4 6 1 17 -5 25 -12 15 -3 21 23 16 5 -1 6 3 2 9 -3 5
-1 10 4 10 6 0 11 15 11 33 0 18 5 38 12 45 15 15 48 16 48 2 0 -5 -5 -10 -10
-10 -6 0 -5 -8 2 -20 11 -17 11 -22 0 -29 -7 -4 -14 -20 -16 -35 -2 -16 -9
-32 -17 -37 -13 -8 -6 -13 14 -10 4 0 7 -6 7 -14 0 -8 -4 -15 -9 -15 -7 0 -6
-58 1 -66 2 -1 16 0 31 3 22 4 27 10 24 24 -7 26 29 25 43 0 13 -26 13 -31 -5
-31 -8 0 -15 -5 -15 -12 0 -6 3 -8 7 -5 3 4 12 -2 20 -12 16 -24 51 -23 59 1
10 32 26 19 23 -19 -1 -21 1 -53 6 -71 6 -28 12 -33 33 -30 14 2 27 -3 29 -9
3 -7 -1 -13 -7 -13 -7 0 -10 -7 -7 -15 4 -8 2 -17 -3 -20 -6 -4 -10 1 -10 9 0
9 -7 16 -15 16 -9 0 -12 -6 -8 -17 9 -27 37 -50 52 -45 10 3 12 -1 8 -17 -3
-11 -2 -21 3 -21 4 0 8 -11 8 -25 0 -31 -6 -32 -18 -2 -10 22 -10 22 -7 -3 1
-14 8 -25 17 -25 21 0 33 71 20 120 -6 22 -13 65 -15 95 -2 30 -6 75 -9 100
-18 142 -18 150 -7 150 13 0 57 -93 52 -113 0 -4 6 -21 15 -38 8 -17 11 -28 5
-25 -18 12 -12 -13 8 -33 11 -11 17 -21 15 -24 -2 -2 2 -10 11 -17 13 -11 14
-10 9 5 -5 13 -3 16 7 13 8 -3 14 -11 14 -19 0 -15 14 -29 29 -29 16 0 -2 84
-22 99 -26 22 -33 46 -22 76 11 30 26 32 35 5 3 -11 11 -20 16 -20 16 0 69
-43 69 -56 0 -7 9 -10 23 -7 16 3 18 2 8 -5 -8 -6 -9 -12 -3 -16 6 -3 13 -2
17 4 7 11 -12 87 -23 94 -4 2 -9 18 -10 35 -2 29 -2 29 30 20 18 -5 35 -9 37
-9 2 0 1 -6 -2 -14 -6 -16 16 -40 27 -29 4 4 9 -3 13 -15 3 -12 12 -22 19 -22
8 0 14 -6 14 -12 0 -19 68 -70 75 -57 4 6 -3 21 -15 34 -12 13 -19 28 -16 34
8 12 -41 121 -54 121 -5 0 -12 11 -16 25 -3 14 -9 25 -13 25 -4 0 -12 13 -18
29 -10 27 -9 29 13 27 15 0 22 -6 19 -13 -2 -7 0 -13 5 -13 6 0 27 -16 49 -35
21 -19 48 -35 59 -35 12 0 24 -4 27 -10 8 -12 45 -13 45 -1 0 5 -13 23 -30 41
-22 24 -28 38 -24 56 5 19 3 23 -9 18 -16 -6 -42 28 -30 40 4 3 -3 16 -14 29
-11 12 -28 35 -38 50 l-18 28 29 -7 c16 -4 36 -12 44 -19 8 -6 31 -18 50 -25
19 -8 44 -22 54 -32 11 -10 23 -18 28 -18 4 0 8 -6 8 -14 0 -16 93 -30 98 -15
2 6 15 3 28 -6 24 -15 44 -13 44 5 0 5 -14 17 -30 25 -17 9 -35 27 -40 41 -5
13 -22 29 -36 35 -15 5 -43 24 -63 41 -19 17 -54 39 -78 50 -26 11 -41 24 -37
30 4 6 3 8 -4 4 -6 -3 -17 0 -25 8 -8 8 -17 13 -19 10 -3 -2 -13 5 -23 16 -10
11 -24 20 -32 20 -8 0 -11 5 -7 12 4 6 3 8 -3 5 -6 -4 -30 0 -53 8 -61 22 -81
19 -50 -5 18 -14 20 -20 9 -20 -8 0 -20 5 -27 12 -7 7 -12 9 -12 6 0 -4 21
-27 46 -51 26 -24 45 -49 43 -56 -3 -8 -11 -5 -26 9 -13 11 -26 21 -30 21 -5
1 -27 14 -50 30 -23 16 -44 29 -47 29 -13 0 -5 -58 9 -64 18 -6 20 -32 3 -42
-6 -4 -16 -1 -22 7 -6 8 -22 23 -35 34 l-24 20 6 -26 c7 -29 -10 -43 -37 -33
-8 3 -17 0 -21 -6 -3 -6 -1 -9 7 -8 7 2 14 -7 16 -19 3 -17 0 -21 -12 -17 -23
9 -19 -13 4 -26 16 -9 18 -15 10 -30 -7 -12 -7 -21 0 -25 5 -3 10 -17 10 -29
0 -13 8 -43 19 -67 19 -45 28 -145 12 -135 -4 3 -18 38 -31 78 -12 40 -24 80
-28 88 -3 8 -6 20 -6 25 -3 21 -31 101 -44 125 -12 22 -12 18 -8 -42 3 -39 1
-70 -5 -73 -5 -4 -7 -10 -4 -15 3 -4 2 -16 -2 -27 -6 -16 -8 -15 -14 7 -12 44
-10 82 4 74 6 -4 8 -3 4 1 -12 13 -57 17 -57 5 0 -5 -3 -10 -7 -10 -5 0 -9 28
-11 61 -3 75 -11 91 -28 53 -7 -16 -13 -23 -13 -16 -1 7 -5 10 -11 7 -6 -4
-10 11 -10 39 0 39 -4 47 -27 58 -16 8 -29 23 -31 36 -2 12 -8 20 -13 17 -5
-4 -9 3 -9 13 0 15 -5 19 -20 15 -17 -5 -20 0 -20 31 0 39 -15 48 -25 15 -4
-13 -12 -18 -22 -15 -8 3 -18 6 -22 6 -4 0 -6 15 -4 33 2 17 0 26 -3 20 -8
-18 -27 -16 -20 2 9 24 -10 17 -28 -10z m44 -225 c0 -5 -8 -10 -17 -10 -15 0
-16 2 -3 10 19 12 20 12 20 0z m755 -10 c3 -5 1 -10 -4 -10 -6 0 -11 5 -11 10
0 6 2 10 4 10 3 0 8 -4 11 -10z m115 -20 c0 -5 -4 -10 -10 -10 -5 0 -10 5 -10
10 0 6 5 10 10 10 6 0 10 -4 10 -10z m-395 -45 c6 -30 6 -30 -10 4 -17 38 -19
49 -6 36 5 -6 12 -23 16 -40z m-446 -102 c1 -12 -3 -24 -8 -27 -5 -4 -9 15 -8
41 0 33 3 41 8 28 4 -11 8 -30 8 -42z m238 -5 c-3 -7 -5 -2 -5 12 0 14 2 19 5
13 2 -7 2 -19 0 -25z m-96 -45 c-12 -20 -14 -14 -5 12 4 9 9 14 11 11 3 -2 0
-13 -6 -23z m399 -40 c0 -27 -18 -11 -34 30 l-16 42 25 -30 c13 -16 24 -36 25
-42z m-390 7 c0 -5 -2 -10 -4 -10 -3 0 -8 5 -11 10 -3 6 -1 10 4 10 6 0 11 -4
11 -10z m200 -32 c0 -6 -6 -5 -15 2 -8 7 -15 14 -15 16 0 2 7 1 15 -2 8 -4 15
-11 15 -16z m-110 -28 c0 -13 -1 -13 -10 0 -5 8 -10 22 -10 30 0 13 1 13 10 0
5 -8 10 -22 10 -30z m15 -77 l-7 -28 -9 24 c-7 17 -6 27 3 32 18 11 21 4 13
-28z m283 -38 c-3 -3 -9 2 -12 12 -6 14 -5 15 5 6 7 -7 10 -15 7 -18z"/>
<path d="M5471 2108 c0 -10 -6 -18 -13 -18 -9 0 -9 -3 0 -12 16 -16 25 -5 19
24 -3 14 -5 16 -6 6z"/>
<path d="M5970 2092 c0 -20 45 -46 61 -36 11 7 -31 54 -48 54 -7 0 -13 -8 -13
-18z"/>
<path d="M3394 2065 c-9 -36 25 -157 43 -151 10 4 12 -1 7 -19 -9 -38 3 -76
22 -68 13 5 14 3 6 -13 -8 -15 -3 -35 21 -89 47 -102 78 -158 84 -151 3 3 12
-2 20 -12 8 -9 11 -11 7 -3 -5 11 -1 13 19 9 15 -3 24 -1 21 3 -3 5 -11 9 -19
9 -27 0 -25 19 2 35 21 11 23 15 8 13 -14 -2 -20 3 -20 16 0 18 -32 38 -47 29
-12 -6 -9 12 3 24 8 8 6 20 -6 42 -9 17 -19 30 -23 27 -4 -2 -8 7 -8 20 -1 14
-14 43 -28 64 -15 22 -23 40 -20 40 4 0 2 6 -4 13 -13 16 -18 59 -9 74 5 8 -1
15 -16 19 -19 4 -25 12 -24 32 0 50 -3 62 -18 62 -8 0 -17 -11 -21 -25z m66
-79 c0 -2 -9 -6 -20 -9 -11 -3 -18 -1 -14 4 5 9 34 13 34 5z m45 -216 c3 -5 1
-10 -4 -10 -6 0 -11 5 -11 10 0 6 2 10 4 10 3 0 8 -4 11 -10z m35 -36 c0 -3
-7 -12 -15 -20 -13 -14 -15 -13 -15 5 0 12 6 21 15 21 8 0 15 -3 15 -6z m13
-45 c-24 -48 -28 -33 -8 29 5 16 10 20 15 12 4 -7 1 -25 -7 -41z m47 -44 c-9
-11 -10 -15 -1 -15 8 0 7 -5 -3 -15 -20 -20 -36 -19 -36 3 0 9 10 22 23 28 31
16 31 16 17 -1z"/>
<path d="M3570 1619 c0 -5 5 -7 10 -4 6 3 10 8 10 11 0 2 -4 4 -10 4 -5 0 -10
-5 -10 -11z"/>
<path d="M6090 2045 c-8 -9 -8 -15 -2 -15 12 0 26 19 19 26 -2 2 -10 -2 -17
-11z"/>
<path d="M400 2038 c0 -4 5 -18 11 -32 12 -24 29 -27 29 -4 0 6 -3 8 -7 4 -4
-3 -13 4 -20 16 -7 13 -12 20 -13 16z"/>
<path d="M6090 2010 c0 -5 5 -10 10 -10 6 0 10 5 10 10 0 6 -4 10 -10 10 -5 0
-10 -4 -10 -10z"/>
<path d="M5475 2000 c-3 -5 -2 -10 4 -10 5 0 13 5 16 10 3 6 2 10 -4 10 -5 0
-13 -4 -16 -10z"/>
<path d="M1110 1984 c0 -8 -4 -12 -10 -9 -6 3 -7 -1 -4 -9 8 -20 6 -20 33 3
18 16 19 20 5 25 -22 9 -24 8 -24 -10z"/>
<path d="M5960 1970 c0 -19 3 -21 12 -12 9 9 9 15 0 24 -9 9 -12 7 -12 -12z"/>
<path d="M437 1973 c-10 -9 -9 -23 1 -23 5 0 9 7 9 15 0 17 -1 18 -10 8z"/>
<path d="M457 1922 c3 -12 9 -25 14 -28 14 -8 11 10 -6 32 -13 18 -14 18 -8
-4z"/>
<path d="M3825 1921 c-6 -11 9 -23 19 -14 9 9 7 23 -3 23 -6 0 -12 -4 -16 -9z"/>
<path d="M5939 1917 c-7 -54 -2 -71 24 -74 15 -2 27 1 27 7 0 5 -7 10 -16 10
-9 0 -14 6 -11 13 3 7 -1 21 -9 32 -8 10 -14 16 -15 12z"/>
<path d="M6030 1911 c0 -6 5 -13 10 -16 6 -3 10 1 10 9 0 9 -4 16 -10 16 -5 0
-10 -4 -10 -9z"/>
<path d="M6120 1910 c0 -5 5 -10 11 -10 5 0 7 5 4 10 -3 6 -8 10 -11 10 -2 0
-4 -4 -4 -10z"/>
<path d="M2016 1885 c4 -8 8 -15 10 -15 2 0 4 7 4 15 0 8 -4 15 -10 15 -5 0
-7 -7 -4 -15z"/>
<path d="M5550 1889 c0 -5 5 -7 10 -4 6 3 10 8 10 11 0 2 -4 4 -10 4 -5 0 -10
-5 -10 -11z"/>
<path d="M1376 1874 c-4 -9 -4 -19 -1 -22 2 -3 7 3 11 12 4 9 4 19 1 22 -2 3
-7 -3 -11 -12z"/>
<path d="M5636 1871 c-4 -5 -2 -12 3 -16 6 -3 2 -24 -10 -53 l-20 -47 25 30
c18 22 24 38 20 60 -6 34 -10 40 -18 26z"/>
<path d="M3930 1851 c0 -11 -6 -26 -12 -33 -14 -14 -18 -78 -6 -78 9 0 21 40
15 47 -3 3 3 20 13 38 18 31 17 45 -2 45 -4 0 -8 -9 -8 -19z"/>
<path d="M5700 1855 c0 -12 -5 -26 -11 -32 -6 -6 -7 -13 -2 -15 4 -3 16 3 25
13 14 15 14 20 3 36 -14 17 -14 17 -15 -2z"/>
<path d="M6065 1860 c-3 -5 -1 -10 4 -10 6 0 11 5 11 10 0 6 -2 10 -4 10 -3 0
-8 -4 -11 -10z"/>
<path d="M5467 1854 c-8 -8 1 -24 14 -24 5 0 9 7 9 15 0 15 -12 20 -23 9z"/>
<path d="M5887 1843 c-10 -9 -9 -23 2 -23 5 0 11 7 15 15 5 15 -5 20 -17 8z"/>
<path d="M5981 1814 c0 -11 3 -14 6 -6 3 7 2 16 -1 19 -3 4 -6 -2 -5 -13z"/>
<path d="M5516 1794 c-7 -17 22 -46 37 -37 7 4 8 0 4 -10 -4 -10 -10 -24 -14
-33 -5 -14 -3 -15 16 -5 18 10 21 19 19 55 -3 39 -5 43 -30 43 -15 0 -29 -6
-32 -13z"/>
<path d="M2904 1779 c-18 -20 -18 -21 0 -31 15 -8 16 -12 5 -20 -11 -8 -11 -9
1 -5 8 2 15 9 15 15 0 5 3 14 8 18 11 11 9 26 -3 19 -5 -3 -10 -2 -10 4 0 5 6
12 13 14 7 3 7 6 1 6 -6 1 -19 -8 -30 -20z m16 -19 c0 -5 -2 -10 -4 -10 -3 0
-8 5 -11 10 -3 6 -1 10 4 10 6 0 11 -4 11 -10z"/>
<path d="M5890 1785 c0 -23 -32 -63 -47 -58 -6 2 -14 -5 -18 -17 -7 -24 -32
-22 -27 2 1 9 -6 18 -15 22 -10 3 -24 9 -30 12 -8 3 -13 -1 -13 -10 0 -9 5
-16 11 -16 5 0 7 5 3 12 -4 7 -3 8 5 4 9 -6 7 -16 -6 -39 -22 -37 -43 -46 -43
-18 0 12 -2 21 -5 21 -12 0 -85 -43 -85 -50 0 -4 -11 -11 -24 -14 -15 -4 -29
-18 -36 -38 -14 -36 -19 -88 -8 -88 3 0 4 -9 1 -19 -3 -13 -10 -18 -21 -13
-15 5 -15 3 -4 -10 11 -14 10 -17 -6 -22 -21 -7 -36 -42 -21 -52 12 -7 12 -34
0 -34 -5 0 -19 16 -31 35 -12 19 -25 35 -30 35 -13 0 -22 -34 -11 -38 14 -5
15 -42 2 -42 -6 0 -13 5 -16 11 -5 7 -13 5 -24 -5 -10 -9 -20 -13 -24 -10 -3
3 -11 3 -17 -1 -8 -5 -7 -11 2 -22 10 -13 8 -19 -13 -37 -26 -22 -63 -86 -51
-86 15 1 56 39 49 46 -12 12 14 36 28 24 8 -7 21 0 44 22 17 17 34 28 38 24 4
-3 1 -12 -5 -18 -18 -18 -14 -27 10 -20 14 3 19 2 14 -6 -4 -7 -1 -12 6 -13 7
0 2 -5 -11 -10 -17 -7 -27 -6 -32 2 -4 6 -12 8 -18 5 -16 -10 -14 -26 3 -26 8
0 16 -6 19 -12 3 -10 9 -10 26 0 24 14 41 9 41 -14 0 -8 3 -14 8 -15 4 0 21
-2 39 -5 24 -3 35 1 43 15 5 11 20 22 32 24 18 3 17 5 -7 6 -28 1 -28 2 -12
18 13 13 19 14 29 5 20 -20 76 -15 83 8 4 11 10 18 15 15 5 -3 11 -1 15 5 7
12 1 12 -49 1 -44 -11 -66 -5 -66 15 0 16 9 18 29 5 9 -6 22 -5 35 1 48 25 57
28 77 28 15 0 19 4 15 16 -3 9 -6 20 -6 25 0 6 -10 3 -22 -5 -32 -23 -39 -20
-23 11 17 32 12 43 -18 42 -12 0 -17 -3 -10 -5 14 -6 -16 -64 -34 -64 -7 0
-16 -8 -22 -17 -8 -16 -10 -14 -16 9 -4 15 -2 35 4 45 10 17 10 16 11 -4 0
-13 5 -23 10 -23 6 0 10 6 9 13 -1 6 1 20 6 31 5 12 3 21 -6 27 -11 7 -12 12
-1 29 16 26 15 40 -1 40 -17 0 -63 -48 -54 -56 9 -9 -19 -34 -38 -34 -14 0
-14 2 1 24 8 14 18 44 20 68 6 47 11 58 25 58 6 0 7 -9 3 -22 -4 -13 -9 -30
-11 -38 -3 -9 4 -6 15 7 11 12 22 19 26 16 3 -4 6 4 6 16 0 21 1 21 16 6 15
-15 17 -14 28 6 6 12 18 26 26 30 24 12 54 22 63 20 7 -1 50 65 53 82 1 4 2
12 3 17 0 6 7 10 15 10 8 0 17 11 20 25 4 14 10 24 15 21 9 -6 49 20 41 27 -3
2 -15 8 -27 11 -18 6 -23 3 -23 -9z m-183 -143 c-12 -3 -16 -9 -12 -23 4 -10
2 -19 -3 -19 -11 0 -24 39 -17 51 3 4 15 4 28 1 18 -5 19 -7 4 -10z m90 -14
c-3 -8 -6 -5 -6 6 -1 11 2 17 5 13 3 -3 4 -12 1 -19z m-137 -30 c0 -12 -28 -9
-35 2 -4 6 -4 18 -1 27 6 14 8 14 21 -3 8 -10 15 -22 15 -26z m-40 -227 c0 -5
-7 -16 -15 -25 -18 -18 -19 -30 -3 -56 10 -15 10 -22 0 -32 -7 -7 -17 -14 -22
-14 -23 -3 -24 -5 -10 -14 13 -8 12 -10 -3 -10 -10 0 -16 -4 -13 -9 3 -5 -3
-11 -14 -14 -17 -4 -18 -3 -8 16 7 12 11 25 10 29 -1 4 7 10 18 13 21 7 28 35
9 35 -5 0 -7 5 -4 10 7 11 -9 13 -42 4 -13 -4 -23 -14 -23 -23 0 -13 -2 -13
-9 -2 -5 7 -4 25 2 41 10 25 14 27 49 22 34 -4 40 -2 45 17 5 20 33 30 33 12z"/>
<path d="M6050 1771 c0 -12 5 -21 10 -21 6 0 10 6 10 14 0 8 -4 18 -10 21 -5
3 -10 -3 -10 -14z"/>
<path d="M4008 1747 c-21 -18 -25 -26 -16 -35 9 -9 9 -12 0 -12 -7 0 -12 -9
-12 -20 0 -22 28 -28 34 -7 7 26 23 97 22 97 -1 0 -13 -11 -28 -23z"/>
<path d="M5610 1733 c-31 -21 -47 -43 -49 -65 -1 -3 17 3 38 15 26 14 41 31
44 47 3 14 5 25 4 26 -1 0 -18 -10 -37 -23z"/>
<path d="M2860 1725 c-7 -9 -11 -18 -8 -20 3 -3 11 1 18 10 7 9 11 18 8 20 -3
3 -11 -1 -18 -10z"/>
<path d="M5450 1701 c0 -5 3 -17 6 -26 6 -14 8 -14 25 1 26 23 24 34 -6 34
-14 0 -25 -4 -25 -9z"/>
<path d="M2839 1665 c-18 -19 -35 -33 -37 -30 -3 3 5 17 19 31 l24 26 -27 -12
c-15 -7 -28 -22 -30 -34 -2 -15 -9 -20 -25 -18 -14 2 -27 -5 -35 -18 -7 -12
-37 -35 -65 -51 -29 -17 -62 -42 -73 -56 -11 -14 -20 -23 -20 -19 0 3 -18 -6
-40 -20 -31 -21 -38 -30 -29 -40 7 -8 22 -11 40 -7 18 3 29 1 29 -6 0 -16 -66
-13 -80 4 -14 17 -35 21 -25 5 5 -9 -15 -15 -38 -11 -4 1 -41 -14 -82 -34 -41
-19 -81 -35 -88 -35 -8 0 -17 -3 -21 -7 -4 -5 -12 -9 -17 -9 -5 -1 -10 -2 -11
-4 -2 -1 -12 -3 -23 -5 -11 -2 -34 -6 -51 -10 -18 -3 -47 -19 -65 -35 -19 -16
-38 -30 -43 -30 -5 0 3 9 18 21 14 11 26 25 26 30 0 20 -26 7 -70 -33 -24 -24
-32 -29 -16 -11 l28 31 -38 -3 c-22 -2 -61 -9 -89 -15 -27 -6 -63 -8 -78 -4
-18 4 -41 -1 -67 -15 -22 -11 -42 -16 -45 -11 -3 5 5 10 17 12 13 3 2 5 -24 5
-40 0 -48 -3 -51 -21 -4 -20 -4 -20 -6 2 -1 25 -11 28 -30 10 -11 -11 -12 -10
-6 1 6 11 4 13 -11 7 -10 -5 -28 -11 -39 -13 l-20 -5 20 16 c19 15 19 16 -10
17 -16 1 -64 1 -105 1 -46 0 -65 3 -50 7 24 7 23 8 -11 14 -20 4 -47 3 -60 -2
-23 -8 -56 9 -42 23 12 12 -28 18 -57 7 -19 -6 -39 -7 -53 -1 -12 5 -16 9 -9
9 6 1 12 6 12 12 0 5 -5 7 -12 3 -8 -5 -9 -2 -5 9 3 10 2 17 -3 17 -10 0 -12
-6 -14 -39 -1 -8 -7 -16 -15 -19 -12 -4 -11 9 6 54 4 12 -27 24 -62 24 -17 0
-17 -2 -5 -10 11 -7 12 -10 2 -10 -8 0 -16 8 -19 19 -2 10 -20 23 -38 28 -32
10 -35 9 -45 -16 l-10 -26 5 26 c4 24 -24 62 -43 57 -4 -1 -17 3 -28 10 -12 6
-25 8 -29 4 -5 -4 -5 -2 -1 5 8 15 -50 57 -69 49 -8 -3 -15 -1 -15 4 0 20 -36
10 -38 -10 -4 -45 -6 -50 -19 -50 -20 0 -28 -30 -12 -41 11 -7 11 -9 1 -9 -7
0 -21 -7 -29 -16 -13 -13 -14 -17 -3 -24 7 -5 13 -22 13 -39 0 -17 5 -31 11
-31 6 0 5 -5 -2 -12 -9 -9 -8 -16 5 -30 15 -17 15 -20 3 -28 -13 -8 -12 -10 3
-10 9 0 16 -6 15 -12 -2 -7 7 -14 20 -16 15 -2 22 -9 18 -17 -5 -15 58 -50 74
-40 6 3 10 1 10 -4 0 -6 8 -11 18 -11 10 0 23 -5 30 -12 6 -6 26 -13 44 -14
18 -1 56 -6 83 -10 28 -5 169 -8 315 -8 237 0 283 3 440 27 231 36 422 72 490
91 30 9 63 18 73 21 28 7 39 16 33 31 -3 8 -2 13 2 12 15 -3 72 29 65 37 -5 4
0 5 11 1 14 -5 17 -2 12 9 -3 10 3 17 20 21 14 4 23 9 20 11 -11 11 26 35 44
30 11 -3 18 -1 14 4 -3 5 1 9 9 9 19 0 38 23 40 49 0 11 4 18 8 15 12 -7 50
39 44 54 -3 10 0 12 10 8 9 -3 15 0 15 9 0 8 3 14 8 14 26 -4 41 4 47 29 7 25
8 25 15 7 8 -18 9 -18 9 -1 1 12 6 16 17 12 13 -5 15 -2 11 14 -3 11 -2 18 2
16 4 -3 30 17 59 44 28 28 47 50 42 50 -5 0 -24 -16 -41 -35z m-1824 -315 c-3
-5 -11 -10 -16 -10 -6 0 -7 5 -4 10 3 6 11 10 16 10 6 0 7 -4 4 -10z m325 -80
c-20 -13 -33 -13 -25 0 3 6 14 10 23 10 15 0 15 -2 2 -10z m600 -21 c-7 -11
-14 -18 -17 -15 -3 3 0 12 7 21 18 21 23 19 10 -6z m405 -9 c3 -5 -1 -10 -10
-10 -9 0 -13 5 -10 10 3 6 8 10 10 10 2 0 7 -4 10 -10z"/>
<path d="M5879 1698 c-1 -2 -2 -15 -3 -29 -2 -23 1 -25 15 -16 13 8 15 15 8
29 -9 16 -17 22 -20 16z"/>
<path d="M5410 1651 c0 -5 4 -13 10 -16 5 -3 1 -24 -12 -50 -12 -24 -25 -42
-30 -39 -4 3 -8 0 -8 -6 0 -6 -5 -8 -11 -4 -7 4 -10 1 -7 -7 3 -8 10 -14 16
-14 5 0 14 -3 18 -7 13 -14 22 -8 28 18 4 15 13 32 20 39 16 16 7 86 -12 93
-6 2 -12 -1 -12 -7z"/>
<path d="M3499 1623 c-13 -16 -12 -17 4 -4 16 13 21 21 13 21 -2 0 -10 -8 -17
-17z"/>
<path d="M3977 1633 c-10 -9 -9 -23 2 -23 5 0 11 7 15 15 5 15 -5 20 -17 8z"/>
<path d="M5512 1606 c-15 -7 -21 -17 -18 -28 2 -11 -1 -18 -10 -18 -8 0 -14
-8 -14 -18 0 -18 18 -42 31 -42 10 0 40 80 34 91 -4 5 -1 9 4 9 6 0 11 5 11
10 0 12 -7 11 -38 -4z"/>
<path d="M5850 1594 c0 -8 5 -12 10 -9 6 3 10 10 10 16 0 5 -4 9 -10 9 -5 0
-10 -7 -10 -16z"/>
<path d="M5889 1600 c-20 -13 -5 -22 21 -12 18 7 20 10 8 14 -8 4 -21 2 -29
-2z"/>
<path d="M3660 1566 c0 -9 5 -16 10 -16 6 0 10 4 10 9 0 6 -4 13 -10 16 -5 3
-10 -1 -10 -9z"/>
<path d="M5792 1564 c-12 -8 -22 -24 -22 -35 0 -19 1 -19 30 3 46 34 39 65 -8
32z"/>
<path d="M3520 1546 c0 -2 9 -6 20 -9 11 -3 18 -1 14 4 -5 9 -34 13 -34 5z"/>
<path d="M3600 1541 l-24 -7 22 -22 c12 -12 21 -25 21 -29 -3 -21 3 -33 17
-33 9 0 14 -6 11 -13 -3 -7 1 -21 9 -31 10 -14 10 -25 3 -40 -9 -19 -9 -19 4
-3 8 9 17 17 20 17 6 0 21 -51 18 -63 -1 -5 3 -5 9 -2 7 4 10 0 8 -11 -2 -12
5 -23 19 -29 22 -9 37 -38 33 -65 -1 -8 1 -12 6 -8 4 4 13 3 21 -3 7 -6 22 -9
33 -6 23 6 24 6 8 -27 -9 -22 -8 -29 7 -46 10 -11 25 -20 34 -20 9 0 25 -14
36 -30 21 -32 41 -41 31 -14 -3 9 -6 21 -6 28 0 7 -12 27 -27 43 -16 17 -36
43 -46 57 -10 15 -22 24 -28 21 -5 -4 -9 -2 -9 4 0 5 7 11 15 13 14 3 14 5 0
26 -9 12 -24 22 -33 22 -19 0 -62 42 -62 60 0 7 8 10 20 7 11 -3 23 0 27 5 3
7 1 8 -6 4 -6 -4 -14 0 -17 9 -4 9 -13 14 -20 11 -7 -3 -16 -1 -19 4 -4 6 -2
10 4 10 17 0 2 25 -22 35 -17 8 -21 17 -19 44 2 26 -1 32 -13 28 -8 -4 -14 -1
-12 6 1 7 -4 11 -12 9 -12 -3 -12 0 -1 12 10 13 10 16 -4 16 -9 0 -16 5 -16
10 0 11 -4 11 -40 1z"/>
<path d="M3530 1516 c0 -2 9 -6 20 -9 11 -3 18 -1 14 4 -5 9 -34 13 -34 5z"/>
<path d="M5287 1514 c-9 -9 4 -34 17 -34 7 0 12 -10 11 -22 -1 -12 7 -32 17
-43 16 -17 20 -18 28 -5 13 21 12 60 -1 60 -6 0 -9 6 -6 14 4 9 0 12 -12 9
-10 -2 -25 2 -33 11 -9 8 -18 13 -21 10z"/>
<path d="M5320 1510 c0 -5 5 -10 10 -10 6 0 10 5 10 10 0 6 -4 10 -10 10 -5 0
-10 -4 -10 -10z"/>
<path d="M5700 1501 c0 -12 -5 -31 -11 -43 -12 -23 -2 -39 12 -18 17 27 22 61
10 73 -8 8 -11 5 -11 -12z"/>
<path d="M5807 1513 c-4 -3 -7 -11 -7 -17 0 -6 5 -5 12 2 6 6 9 14 7 17 -3 3
-9 2 -12 -2z"/>
<path d="M5480 1464 c0 -31 23 -28 28 4 2 15 -2 22 -12 22 -11 0 -16 -9 -16
-26z"/>
<path d="M5753 1477 c-18 -6 -33 -16 -33 -23 0 -17 14 -18 40 -4 15 8 21 6 28
-6 11 -20 42 -12 42 11 0 9 -4 13 -10 10 -5 -3 -10 -2 -10 3 0 16 -23 19 -57
9z"/>
<path d="M5926 1481 c-4 -7 -5 -15 -2 -18 9 -9 19 4 14 18 -4 11 -6 11 -12 0z"/>
<path d="M3580 1430 c-8 -5 -11 -12 -7 -16 4 -4 13 -2 19 4 15 15 7 24 -12 12z"/>
<path d="M4157 1423 c-4 -3 -7 -11 -7 -17 0 -6 5 -5 12 2 6 6 9 14 7 17 -3 3
-9 2 -12 -2z"/>
<path d="M3591 1384 c0 -11 3 -14 6 -6 3 7 2 16 -1 19 -3 4 -6 -2 -5 -13z"/>
<path d="M4261 1389 c-1 -9 8 -24 19 -34 17 -16 20 -16 20 -2 0 8 8 18 18 20
9 3 3 5 -15 6 -17 0 -34 7 -36 14 -4 8 -6 6 -6 -4z"/>
<path d="M5830 1379 c0 -5 5 -7 10 -4 6 3 10 8 10 11 0 2 -4 4 -10 4 -5 0 -10
-5 -10 -11z"/>
<path d="M4680 1345 c0 -8 4 -15 10 -15 5 0 7 7 4 15 -4 8 -8 15 -10 15 -2 0
-4 -7 -4 -15z"/>
<path d="M1173 1330 c1 -11 2 -20 3 -20 11 0 34 14 34 21 0 4 -7 5 -17 2 -11
-4 -14 -3 -9 5 4 7 3 12 -3 12 -5 0 -9 -9 -8 -20z"/>
<path d="M4885 1340 c-3 -5 -1 -10 4 -10 6 0 11 5 11 10 0 6 -2 10 -4 10 -3 0
-8 -4 -11 -10z"/>
<path d="M655 1330 c3 -5 8 -10 11 -10 2 0 4 5 4 10 0 6 -5 10 -11 10 -5 0 -7
-4 -4 -10z"/>
<path d="M3627 1319 c4 -13 8 -18 11 -10 2 7 -1 18 -6 23 -8 8 -9 4 -5 -13z"/>
<path d="M4265 1320 c3 -5 11 -10 16 -10 6 0 7 5 4 10 -3 6 -11 10 -16 10 -6
0 -7 -4 -4 -10z"/>
<path d="M5297 1323 c-4 -3 -7 -11 -7 -17 0 -6 5 -5 12 2 6 6 9 14 7 17 -3 3
-9 2 -12 -2z"/>
<path d="M3795 1310 c3 -5 8 -10 11 -10 2 0 4 5 4 10 0 6 -5 10 -11 10 -5 0
-7 -4 -4 -10z"/>
<path d="M5773 1308 c-10 -13 -9 -45 1 -56 3 -3 6 5 6 17 0 12 7 24 15 27 8 4
15 10 15 15 0 13 -26 11 -37 -3z"/>
<path d="M3830 1306 c0 -2 7 -9 15 -16 13 -11 14 -10 9 4 -5 14 -24 23 -24 12z"/>
<path d="M1288 1293 c7 -3 16 -2 19 1 4 3 -2 6 -13 5 -11 0 -14 -3 -6 -6z"/>
<path d="M5839 1284 c-12 -14 -11 -16 5 -13 11 2 21 10 24 17 5 17 -13 15 -29
-4z"/>
<path d="M5275 1280 c-3 -5 -1 -10 4 -10 6 0 11 5 11 10 0 6 -2 10 -4 10 -3 0
-8 -4 -11 -10z"/>
<path d="M3640 1264 c0 -8 5 -12 10 -9 6 3 10 10 10 16 0 5 -4 9 -10 9 -5 0
-10 -7 -10 -16z"/>
<path d="M3906 1267 c3 -10 9 -15 12 -12 3 3 0 11 -7 18 -10 9 -11 8 -5 -6z"/>
<path d="M4272 1244 c-7 -8 -8 -14 -3 -14 10 0 25 19 20 25 -2 1 -10 -3 -17
-11z"/>
<path d="M4560 1248 c0 -7 5 -20 10 -28 8 -12 10 -11 10 7 0 12 -4 25 -10 28
-5 3 -10 0 -10 -7z"/>
<path d="M5856 1224 c-10 -25 1 -29 14 -5 6 12 7 21 1 21 -5 0 -12 -7 -15 -16z"/>
<path d="M5370 1215 c0 -9 5 -15 11 -13 6 2 11 8 11 13 0 5 -5 11 -11 13 -6 2
-11 -4 -11 -13z"/>
<path d="M5230 1209 c0 -5 5 -7 10 -4 6 3 10 8 10 11 0 2 -4 4 -10 4 -5 0 -10
-5 -10 -11z"/>
<path d="M3693 1203 c-7 -2 -9 -11 -6 -19 3 -7 10 -11 17 -7 6 4 4 -2 -4 -12
-9 -11 -10 -16 -2 -11 6 4 12 3 12 -3 0 -5 -5 -12 -10 -14 -6 -3 -5 -4 2 -3
16 3 22 40 11 59 -4 8 -13 12 -20 10z"/>
<path d="M5635 1200 c-3 -6 4 -14 16 -18 l22 -9 -23 -21 c-23 -21 -50 -20 -50
4 0 11 -5 11 -25 2 -18 -8 -24 -17 -19 -30 3 -12 1 -16 -8 -13 -7 3 -20 0 -28
-5 -13 -9 -13 -11 -1 -19 17 -11 60 16 61 37 0 8 6 12 13 9 6 -2 11 -12 11
-21 -2 -18 11 -22 21 -6 4 6 9 8 13 6 4 -2 21 7 37 20 17 13 24 24 17 24 -7 0
-10 5 -7 10 8 13 -13 40 -31 40 -7 0 -16 -5 -19 -10z"/>
<path d="M3895 1190 c-3 -5 -2 -10 4 -10 5 0 13 5 16 10 3 6 2 10 -4 10 -5 0
-13 -4 -16 -10z"/>
<path d="M5310 1190 c0 -13 18 -22 24 -11 3 5 -1 11 -9 15 -8 3 -15 1 -15 -4z"/>
<path d="M3797 1174 c6 -15 23 -19 23 -5 0 5 -7 11 -14 14 -10 4 -13 1 -9 -9z"/>
<path d="M5792 1173 c1 -10 -2 -25 -7 -33 -8 -13 -7 -13 8 -1 19 15 23 51 6
51 -5 0 -9 -8 -7 -17z"/>
<path d="M3741 1162 c-1 -13 -6 -32 -11 -43 -12 -21 2 -26 18 -6 7 9 8 23 3
43 -8 25 -9 26 -10 6z"/>
<path d="M5210 1170 c0 -5 5 -10 10 -10 6 0 10 5 10 10 0 6 -4 10 -10 10 -5 0
-10 -4 -10 -10z"/>
<path d="M5415 1144 c-30 -32 -30 -35 -6 -56 18 -15 21 -15 33 -1 10 13 10 17
1 20 -21 7 -15 33 7 33 11 0 20 7 20 15 0 24 -29 18 -55 -11z"/>
<path d="M5476 1139 c-8 -12 -12 -27 -10 -34 3 -7 -6 -22 -21 -33 -15 -12 -21
-23 -15 -27 14 -9 57 44 64 79 4 20 10 26 21 22 8 -3 15 -1 15 4 0 18 -39 10
-54 -11z"/>
<path d="M5175 1140 c3 -5 1 -10 -5 -10 -6 0 -9 -3 -6 -8 2 -4 -2 -22 -10 -41
-10 -23 -19 -31 -30 -27 -8 3 -21 0 -28 -6 -11 -10 -11 -15 0 -26 18 -18 49 2
69 45 8 17 20 33 26 35 14 5 2 48 -12 48 -6 0 -7 -4 -4 -10z"/>
<path d="M3780 1102 c0 -15 -5 -33 -11 -39 -8 -8 -5 -17 10 -32 12 -12 26 -21
33 -21 6 0 8 -3 5 -7 -11 -11 14 -32 31 -26 12 3 14 2 4 -4 -21 -16 -4 -38 94
-123 93 -81 171 -140 159 -120 -3 6 4 10 17 10 18 0 20 -2 8 -10 -8 -5 -11
-12 -7 -16 4 -4 20 8 36 27 l29 34 -26 28 c-25 27 -40 63 -20 51 6 -4 5 2 -1
15 -7 11 -18 21 -26 21 -7 0 -16 14 -20 30 -4 17 -11 30 -16 30 -6 0 -5 -8 1
-20 7 -13 7 -20 1 -20 -17 0 -26 51 -10 61 7 4 10 11 6 15 -3 4 -13 1 -22 -6
-13 -11 -14 -10 -9 4 3 9 1 16 -6 16 -6 0 -9 4 -6 9 4 5 -2 7 -12 5 -12 -4
-21 4 -29 25 -15 41 -30 39 -35 -4 -4 -31 -1 -35 25 -41 19 -4 27 -10 23 -20
-3 -9 -1 -12 4 -9 6 3 10 1 10 -4 0 -6 8 -11 18 -11 12 0 13 -3 5 -8 -9 -5 2
-22 34 -56 34 -34 42 -47 28 -44 -16 2 -19 -2 -17 -19 3 -18 -1 -21 -13 -17
-9 4 -12 10 -7 13 11 7 -1 46 -15 46 -14 0 -73 52 -73 64 0 17 -40 33 -65 27
-19 -5 -22 -3 -18 13 3 13 10 18 21 14 10 -4 6 3 -8 15 -20 16 -26 18 -28 6
-5 -19 -22 -8 -22 14 0 10 -11 29 -24 43 -13 14 -27 35 -30 47 -10 31 -26 27
-26 -6z"/>
<path d="M5325 1103 c-16 -15 -29 -32 -27 -40 2 -7 -2 -22 -8 -33 -9 -17 -8
-20 14 -18 37 3 71 32 62 53 -5 14 -9 16 -18 7 -15 -15 -38 -16 -38 -2 0 6 9
10 20 10 11 0 20 6 20 13 0 6 9 1 20 -13 10 -14 21 -22 25 -19 8 8 -5 39 -16
39 -5 0 -9 7 -9 15 0 21 -11 18 -45 -12z"/>
<path d="M3940 1111 c0 -5 5 -13 10 -16 6 -3 10 -2 10 4 0 5 -4 13 -10 16 -5
3 -10 2 -10 -4z"/>
<path d="M5196 1086 c-18 -29 -18 -29 4 -23 17 4 24 -1 34 -24 12 -28 13 -29
28 -12 20 23 12 43 -17 43 -17 0 -25 6 -27 22 -3 21 -4 21 -22 -6z"/>
<path d="M3745 1091 c-3 -5 -1 -12 5 -16 5 -3 10 1 10 9 0 18 -6 21 -15 7z"/>
<path d="M5715 1090 c-3 -5 -1 -10 4 -10 6 0 11 5 11 10 0 6 -2 10 -4 10 -3 0
-8 -4 -11 -10z"/>
<path d="M5744 1078 l-19 -23 23 19 c12 11 22 21 22 23 0 8 -8 2 -26 -19z"/>
<path d="M3990 1081 c0 -19 12 -41 20 -36 10 6 1 45 -11 45 -5 0 -9 -4 -9 -9z"/>
<path d="M5565 1069 c-11 -17 1 -21 15 -4 8 9 8 15 2 15 -6 0 -14 -5 -17 -11z"/>
<path d="M5530 1020 c0 -5 5 -10 11 -10 6 0 9 -7 5 -15 -4 -10 1 -15 14 -15
14 0 18 5 13 17 -5 12 -3 14 8 9 8 -4 5 0 -5 8 -22 18 -46 21 -46 6z"/>
<path d="M5140 1009 c0 -5 5 -7 10 -4 6 3 10 8 10 11 0 2 -4 4 -10 4 -5 0 -10
-5 -10 -11z"/>
<path d="M5350 1009 c0 -5 5 -7 10 -4 6 3 10 8 10 11 0 2 -4 4 -10 4 -5 0 -10
-5 -10 -11z"/>
<path d="M5426 1004 c-5 -14 -4 -15 9 -4 9 8 15 9 15 2 0 -6 -8 -15 -17 -21
-10 -5 -14 -13 -10 -17 5 -5 11 -4 15 2 9 12 52 16 52 4 0 -4 -6 -11 -12 -13
-8 -3 -6 -6 5 -6 9 -1 17 3 17 8 0 5 3 17 7 26 5 14 2 16 -17 10 -15 -5 -20
-4 -16 4 4 6 3 11 -3 11 -5 0 -16 3 -24 6 -8 3 -17 -2 -21 -12z"/>
<path d="M5676 1012 c-2 -4 -1 -14 5 -22 7 -12 9 -10 9 8 0 23 -5 28 -14 14z"/>
<path d="M5740 1012 c0 -5 7 -9 15 -9 8 0 12 4 9 9 -3 4 -9 8 -15 8 -5 0 -9
-4 -9 -8z"/>
<path d="M5250 981 c0 -5 5 -13 10 -16 6 -3 10 -2 10 4 0 5 -4 13 -10 16 -5 3
-10 2 -10 -4z"/>
<path d="M5393 961 c-15 -24 7 -47 34 -35 16 7 15 8 -5 12 -17 3 -21 8 -17 23
8 24 3 24 -12 0z"/>
<path d="M5620 960 c-13 -13 -32 -18 -66 -17 -30 1 -49 -3 -52 -11 -2 -7 -20
-30 -40 -51 -31 -32 -39 -37 -49 -26 -8 9 -9 16 -3 20 6 3 10 0 10 -7 1 -7 9
-3 21 11 20 25 19 39 -2 25 -7 -4 -24 -9 -38 -10 -13 -2 -29 -8 -34 -13 -6 -6
-18 -11 -27 -11 -9 0 -36 -18 -60 -39 -25 -22 -48 -37 -52 -34 -5 2 -11 -3
-14 -11 -3 -9 -11 -13 -16 -10 -6 4 -5 10 3 15 10 6 8 9 -9 9 -19 0 -22 -4
-17 -22 6 -16 4 -20 -8 -15 -8 3 -20 0 -26 -6 -9 -9 -11 -8 -5 7 6 17 5 17
-17 5 -22 -12 -32 -14 -81 -22 -10 -1 -26 -9 -36 -18 -15 -12 -20 -13 -30 -3
-7 7 -12 20 -12 29 0 9 -5 13 -10 10 -7 -4 -7 -12 -1 -23 8 -14 2 -21 -32 -37
-23 -11 -41 -25 -40 -30 0 -6 -9 -18 -22 -28 -23 -17 -24 -16 -20 3 2 11 0 18
-5 15 -5 -3 -11 -1 -14 4 -4 5 -2 12 4 16 14 9 12 35 -3 35 -7 0 -19 -9 -27
-19 -14 -20 -36 -19 -24 1 4 6 1 9 -7 6 -8 -3 -14 -17 -14 -33 0 -16 -5 -30
-12 -32 -7 -3 -9 3 -6 17 5 19 3 20 -23 14 -16 -4 -41 -18 -56 -32 -22 -20
-28 -22 -28 -10 0 9 7 24 16 32 8 9 13 20 9 26 -3 5 10 16 30 24 30 13 34 18
23 29 -11 12 -15 12 -26 -4 -19 -28 -80 -51 -102 -39 -9 5 -20 6 -24 3 -3 -3
-6 2 -6 12 0 15 -3 16 -12 7 -14 -14 -42 -16 -33 -2 3 6 1 10 -5 10 -7 0 -9
-7 -6 -16 5 -13 2 -15 -16 -9 -39 12 -89 13 -85 1 5 -15 106 -25 111 -11 2 5
5 4 5 -2 1 -7 8 -13 16 -13 8 0 15 -5 15 -11 0 -10 -16 -9 -87 8 -13 3 -23 0
-23 -6 0 -6 4 -11 8 -11 11 0 35 -51 27 -58 -3 -3 -5 0 -5 6 0 6 -11 24 -26
41 -21 26 -29 29 -50 21 -14 -6 -28 -9 -32 -9 -4 1 -9 0 -12 -1 -17 -6 -40 -7
-40 -2 0 4 7 16 15 26 12 16 17 17 30 6 14 -12 18 -11 25 0 15 25 -10 56 -52
64 -40 8 -66 27 -73 53 -7 31 -23 53 -36 53 -5 0 -2 -14 7 -31 16 -33 9 -33
-28 -1 -10 8 -18 11 -18 5 0 -5 11 -19 25 -31 14 -12 25 -29 25 -39 0 -9 -3
-13 -7 -10 -3 4 -17 -2 -29 -14 l-23 -21 27 -34 c15 -19 32 -34 38 -34 6 0 23
-11 37 -24 14 -13 28 -22 31 -19 3 3 16 -8 30 -24 14 -17 47 -38 73 -48 26
-10 80 -35 118 -56 39 -21 86 -41 104 -44 19 -3 41 -9 50 -14 43 -22 285 -42
349 -29 32 6 198 74 217 88 6 5 29 14 53 21 23 6 42 16 42 21 0 4 7 8 15 8 8
0 15 3 15 8 0 4 14 13 31 21 16 7 44 26 61 42 17 15 35 26 40 23 4 -3 8 0 8 5
0 6 7 11 16 11 14 0 14 3 4 16 -11 13 -10 16 8 21 12 3 22 9 22 14 0 5 11 9
25 9 17 0 23 4 19 14 -3 8 0 17 7 22 8 4 10 3 5 -4 -5 -8 -1 -10 9 -6 9 4 14
13 11 20 -3 7 -1 16 4 19 16 10 11 25 -7 25 -15 0 -14 2 3 15 16 13 16 14 2 9
-26 -9 -22 13 8 43 14 14 23 31 20 38 -3 8 3 16 12 18 9 2 -1 2 -22 -1 -34 -4
-38 -2 -25 9 8 8 27 20 43 27 16 7 26 16 22 19 -14 14 -38 11 -56 -7z m8 -83
c-16 -15 -58 -20 -58 -6 0 5 5 10 10 10 6 1 14 2 19 3 5 0 13 4 17 8 4 4 11 5
15 2 5 -3 3 -11 -3 -17z m-248 -17 c0 -5 -15 -17 -32 -25 l-33 -16 28 25 c31
28 37 31 37 16z m-1108 -109 c24 -11 51 -22 61 -25 9 -3 17 -10 17 -15 0 -12
-64 5 -68 19 -2 6 -12 10 -22 10 -9 0 -23 7 -30 15 -16 20 -9 19 42 -4z m698
-51 c0 -5 -5 -10 -11 -10 -5 0 -7 5 -4 10 3 6 8 10 11 10 2 0 4 -4 4 -10z
m-335 -20 c-3 -5 -15 -10 -25 -10 -13 0 -20 -9 -23 -27 -4 -27 -4 -28 -12 -5
-5 14 -13 21 -21 18 -8 -3 -14 1 -14 9 0 12 19 18 83 23 10 1 15 -2 12 -8z
m290 -10 c-3 -5 -11 -10 -16 -10 -6 0 -7 5 -4 10 3 6 11 10 16 10 6 0 7 -4 4
-10z m-365 -34 c0 -2 -7 -9 -15 -16 -12 -10 -15 -10 -15 4 0 9 7 16 15 16 8 0
15 -2 15 -4z"/>
<path d="M4100 951 c0 -6 4 -13 10 -16 6 -3 7 1 4 9 -7 18 -14 21 -14 7z"/>
<path d="M4905 950 c-3 -5 -2 -10 4 -10 5 0 13 5 16 10 3 6 2 10 -4 10 -5 0
-13 -4 -16 -10z"/>
<path d="M5025 949 c-4 -6 -5 -12 -2 -15 2 -3 7 2 10 11 7 17 1 20 -8 4z"/>
<path d="M5087 954 c-8 -8 1 -24 14 -24 5 0 9 7 9 15 0 15 -12 20 -23 9z"/>
<path d="M5300 951 c0 -4 -10 -7 -22 -8 -24 -2 -39 -20 -31 -40 3 -7 0 -13 -6
-13 -5 0 -19 -9 -30 -21 -24 -26 -45 -16 -36 18 4 17 2 23 -6 18 -6 -4 -15 -2
-19 5 -9 15 -28 1 -48 -37 -17 -31 -15 -33 19 -21 22 8 34 7 42 -1 6 -6 19
-11 29 -11 25 0 78 40 78 58 0 8 6 12 14 9 8 -3 17 1 20 9 3 8 15 14 27 14 28
0 19 25 -9 26 -12 1 -22 -2 -22 -5z"/>
<path d="M4160 915 c0 -8 4 -15 10 -15 5 0 7 7 4 15 -4 8 -8 15 -10 15 -2 0
-4 -7 -4 -15z"/>
<path d="M5345 920 c-12 -4 -27 -15 -34 -23 -11 -14 -9 -15 18 -7 38 11 51 19
51 31 0 11 -8 11 -35 -1z"/>
<path d="M5190 899 c0 -5 5 -7 10 -4 6 3 10 8 10 11 0 2 -4 4 -10 4 -5 0 -10
-5 -10 -11z"/>
<path d="M5019 871 c-16 -16 -29 -35 -28 -43 0 -10 2 -10 6 0 2 6 9 12 15 12
10 0 58 46 58 56 0 13 -25 0 -51 -25z"/>
<path d="M4327 850 c3 -11 9 -20 14 -20 11 0 11 3 3 24 -9 23 -23 20 -17 -4z"/>
<path d="M4915 840 c3 -5 10 -10 16 -10 5 0 9 5 9 10 0 6 -7 10 -16 10 -8 0
-12 -4 -9 -10z"/>
<path d="M4250 820 c0 -5 5 -10 10 -10 6 0 10 5 10 10 0 6 -4 10 -10 10 -5 0
-10 -4 -10 -10z"/>
<path d="M4860 819 c0 -5 5 -7 10 -4 6 3 10 8 10 11 0 2 -4 4 -10 4 -5 0 -10
-5 -10 -11z"/>
<path d="M5120 810 c-14 -11 -33 -20 -42 -20 -10 0 -18 -7 -18 -15 0 -13 6
-12 40 5 22 11 40 18 40 14 0 -4 7 -1 15 6 14 12 12 30 -3 30 -4 0 -18 -9 -32
-20z"/>
<path d="M4955 799 c-10 -15 3 -25 16 -12 7 7 7 13 1 17 -6 3 -14 1 -17 -5z"/>
<path d="M4363 774 c-4 -12 -7 -13 -14 -3 -4 8 -11 10 -15 6 -4 -4 -1 -14 8
-23 14 -14 17 -14 32 1 9 9 16 21 16 26 0 15 -20 10 -27 -7z"/>
<path d="M4893 768 c-6 -7 -13 -22 -17 -33 -5 -15 0 -12 19 9 14 16 25 31 25
33 0 8 -18 2 -27 -9z"/>
<path d="M4422 749 c2 -7 10 -15 17 -17 8 -3 12 1 9 9 -2 7 -10 15 -17 17 -8
3 -12 -1 -9 -9z"/>
<path d="M4617 740 c3 -11 7 -20 9 -20 2 0 4 9 4 20 0 11 -4 20 -9 20 -5 0 -7
-9 -4 -20z"/>
<path d="M4728 753 c7 -3 16 -2 19 1 4 3 -2 6 -13 5 -11 0 -14 -3 -6 -6z"/>
<path d="M4985 749 c-4 -6 -5 -12 -2 -15 2 -3 7 2 10 11 7 17 1 20 -8 4z"/>
</g>
</svg>
