<?xml version="1.0" standalone="no"?>
<!DOCTYPE svg PUBLIC "-//W3C//DTD SVG 20010904//EN"
 "http://www.w3.org/TR/2001/REC-SVG-20010904/DTD/svg10.dtd">
<svg version="1.0" xmlns="http://www.w3.org/2000/svg"
 width="225.000000pt" height="225.000000pt" viewBox="0 0 225.000000 225.000000"
 preserveAspectRatio="xMidYMid meet">

<g transform="translate(0.000000,225.000000) scale(0.100000,-0.100000)"
fill="#000000" stroke="none">
<path d="M1008 1822 c-9 -10 -6 -12 15 -8 15 2 32 8 38 12 8 5 9 3 4 -6 -6
-10 -1 -12 19 -8 20 4 26 2 24 -11 -2 -12 6 -17 31 -19 30 -3 62 -22 61 -37
-1 -20 2 -25 16 -25 8 0 13 -4 9 -9 -3 -5 5 -11 17 -13 12 -2 31 -17 43 -34
46 -71 46 -72 39 -44 -8 32 -59 96 -74 92 -6 -1 -9 1 -6 6 8 13 -78 90 -119
108 -42 17 -101 15 -117 -4z m129 -28 c-3 -3 -12 -4 -19 -1 -8 3 -5 6 6 6 11
1 17 -2 13 -5z"/>
<path d="M1480 1703 c-19 -10 -36 -21 -38 -25 -2 -4 -22 -8 -43 -8 -46 0 -44
-15 4 -28 18 -5 31 -14 30 -21 -2 -6 9 -11 24 -11 14 0 35 -7 45 -17 17 -15
23 -10 19 19 0 4 8 6 19 5 14 -1 16 -5 9 -13 -7 -8 -6 -14 1 -19 14 -9 52 4
45 16 -3 5 0 6 8 4 17 -7 82 37 82 55 0 8 -6 15 -13 15 -7 0 -16 5 -20 10 -25
35 -116 45 -172 18z"/>
<path d="M1698 1683 c7 -3 16 -2 19 1 4 3 -2 6 -13 5 -11 0 -14 -3 -6 -6z"/>
<path d="M1784 1651 c6 -50 -3 -57 -89 -71 -88 -14 -121 -33 -48 -27 50 4 52
3 51 -20 -2 -13 -7 -22 -14 -19 -7 3 -20 -2 -31 -9 -10 -8 -27 -15 -38 -15
-15 0 -17 -2 -7 -9 11 -6 9 -9 -6 -13 -35 -10 -125 2 -137 18 -6 8 -18 16 -27
17 -9 2 -23 8 -31 15 -21 18 -41 -10 -33 -48 3 -17 4 -30 1 -30 -2 0 -21 16
-42 36 -21 20 -47 40 -58 46 -11 6 -4 -4 15 -21 l35 -31 -69 36 c-51 27 -71
33 -76 23 -5 -6 -21 -50 -36 -96 l-29 -83 -33 37 c-21 24 -31 30 -27 18 4 -11
8 -24 10 -30 13 -44 18 -55 26 -55 5 0 9 -7 9 -15 0 -18 11 -19 44 -4 21 10
38 7 101 -15 41 -15 80 -24 86 -20 6 4 22 30 34 59 37 83 93 100 225 69 94
-22 273 -136 348 -221 19 -23 22 -24 22 -7 0 16 2 17 10 4 8 -12 10 -10 10 8
0 13 -4 20 -10 17 -5 -3 -10 -1 -10 5 0 7 6 10 13 7 8 -3 20 -1 28 4 8 5 9 9
3 9 -7 0 -9 15 -6 43 21 155 -14 237 -166 400 -37 40 -54 36 -48 -12z m123
-221 c3 -11 9 -20 13 -20 13 0 18 -38 7 -49 -8 -8 -7 -11 3 -11 11 0 11 -3 2
-12 -13 -13 -25 -6 -27 20 -1 9 -8 30 -14 47 -10 23 -14 26 -21 15 -8 -12 -10
-10 -10 8 0 29 40 31 47 2z"/>
<path d="M820 1615 c-10 -12 -10 -15 1 -16 8 0 -4 -9 -26 -18 -22 -11 -48 -32
-58 -50 l-18 -31 24 0 c15 0 31 9 40 24 9 12 32 31 51 40 40 19 40 19 26 47
-13 23 -23 24 -40 4z"/>
<path d="M1350 1601 c0 -12 6 -21 15 -21 8 0 15 4 15 9 0 5 -7 14 -15 21 -13
10 -15 9 -15 -9z"/>
<path d="M1480 1560 c0 -5 5 -10 11 -10 5 0 7 5 4 10 -3 6 -8 10 -11 10 -2 0
-4 -4 -4 -10z"/>
<path d="M1385 1549 c-6 -8 73 -4 82 5 3 3 -13 5 -36 4 -23 0 -44 -4 -46 -9z"/>
<path d="M346 1515 c-11 -9 -14 -15 -7 -15 7 0 19 7 27 15 20 19 5 19 -20 0z"/>
<path d="M260 1489 c0 -5 5 -7 10 -4 6 3 10 8 10 11 0 2 -4 4 -10 4 -5 0 -10
-5 -10 -11z"/>
<path d="M205 1399 c-28 -57 -35 -83 -35 -131 0 -49 4 -63 25 -86 14 -15 25
-34 26 -42 0 -8 9 -28 20 -45 10 -16 23 -39 28 -50 l10 -20 1 20 c0 18 2 17
13 -5 7 -14 10 -27 6 -30 -9 -6 12 -92 24 -101 4 -3 7 -10 6 -15 -4 -22 2 -44
17 -58 8 -9 13 -20 9 -25 -3 -6 2 -27 11 -48 9 -21 16 -47 15 -59 -3 -32 44
-80 97 -101 40 -15 75 -18 227 -17 223 2 266 14 213 63 l-21 21 49 52 c27 29
56 64 65 78 l16 24 28 -44 c30 -49 93 -115 101 -107 3 3 -10 19 -28 36 -18 18
-25 29 -15 25 20 -7 23 11 4 23 -7 4 -18 22 -25 38 l-13 30 18 -23 c15 -18 21
-20 31 -10 9 9 12 4 12 -25 0 -20 3 -36 8 -36 4 1 18 1 31 0 20 -1 23 -5 19
-31 -3 -16 0 -30 5 -30 5 0 3 -7 -4 -17 -13 -15 -12 -15 7 -3 18 11 24 9 48
-13 17 -16 34 -23 43 -20 11 5 14 3 9 -6 -5 -8 -18 -10 -32 -7 -39 10 -27 -9
21 -34 46 -24 51 -45 9 -37 -68 13 41 -57 121 -78 69 -18 255 -20 318 -4 44
11 94 45 84 56 -4 3 -30 -1 -58 -11 -70 -22 -165 -33 -155 -18 4 7 14 12 21
12 8 0 12 6 9 14 -3 8 3 16 15 19 23 6 29 -8 9 -16 -8 -3 -8 -6 -2 -6 6 -1 19
9 30 21 l19 21 -37 -6 c-27 -4 -38 -2 -38 7 0 7 -11 25 -24 41 -19 22 -29 26
-51 21 -17 -4 -24 -3 -20 4 3 5 0 10 -9 10 -8 0 -16 -6 -19 -12 -2 -7 -8 -10
-12 -5 -5 4 0 13 10 21 16 12 13 15 -37 35 -31 14 -58 32 -64 45 -7 15 -17 20
-36 18 -20 -2 -32 4 -44 24 -17 25 -18 25 -31 8 -7 -10 -14 -15 -14 -11 -1 4
-2 11 -3 16 -2 16 -50 70 -62 71 -12 0 -60 48 -57 58 1 4 -7 15 -18 25 -18 17
-20 17 -26 1 -3 -9 -1 -26 6 -37 9 -14 10 -22 2 -30 -8 -8 -11 -5 -11 9 0 10
-7 28 -15 38 -13 17 -12 21 3 32 9 7 14 16 10 20 -4 4 -15 1 -23 -6 -14 -12
-14 -10 -5 16 11 28 11 28 -10 9 -20 -18 -21 -18 -14 0 5 13 4 16 -4 11 -7 -4
-12 -14 -12 -22 0 -8 -5 -14 -11 -14 -7 0 -8 7 -4 18 8 19 9 27 7 60 -1 15
-10 26 -23 29 -18 5 -20 12 -17 48 1 24 0 41 -4 38 -5 -2 -8 -11 -8 -19 0 -12
-4 -11 -20 4 -21 20 -62 19 -87 -1 -10 -7 -12 -2 -9 23 3 25 -1 33 -18 40 -17
7 -18 9 -3 9 9 1 17 6 17 11 0 15 -40 12 -40 -2 -1 -7 -10 4 -21 25 -16 31
-24 37 -42 32 -17 -5 -19 -4 -7 4 8 5 11 14 6 18 -4 4 -14 0 -21 -11 -14 -18
-15 -18 -47 2 -41 26 -49 27 -59 10 -7 -10 -9 -9 -9 5 0 10 -5 15 -10 12 -6
-4 -17 -2 -25 5 -10 8 -24 8 -57 0 -47 -13 -48 -13 -49 -2 -1 4 -21 13 -46 20
-27 8 -43 18 -40 25 3 7 -5 12 -19 12 -13 0 -24 -3 -24 -7 0 -5 5 -8 10 -8 6
0 10 -4 10 -8 0 -4 -15 -8 -32 -8 -30 1 -33 -1 -30 -27 3 -20 -4 -35 -22 -52
-13 -12 -22 -26 -19 -29 4 -3 -3 -6 -13 -6 -11 0 -25 -5 -31 -11 -23 -23 -52
108 -32 151 32 71 43 90 51 90 4 0 8 7 8 15 0 33 -22 11 -55 -56z m155 -99 c0
-5 -5 -10 -11 -10 -5 0 -7 5 -4 10 3 6 8 10 11 10 2 0 4 -4 4 -10z m463 -150
c3 -13 0 -20 -8 -20 -8 0 -13 9 -12 20 1 11 4 20 8 20 4 0 9 -9 12 -20z m137
-41 c0 -6 -4 -7 -10 -4 -5 3 -10 11 -10 16 0 6 5 7 10 4 6 -3 10 -11 10 -16z
m-686 -24 c-4 -8 -8 -15 -10 -15 -2 0 -4 7 -4 15 0 8 4 15 10 15 5 0 7 -7 4
-15z m544 -118 c7 -5 12 -3 12 4 0 7 3 10 6 6 3 -3 3 -15 -1 -26 -8 -26 -42
-23 -48 5 -4 22 7 25 31 11z m52 -27 c0 -5 -4 -10 -10 -10 -5 0 -10 5 -10 10
0 6 5 10 10 10 6 0 10 -4 10 -10z m217 -58 c0 -9 -5 -25 -12 -35 -16 -23 -25
-3 -18 35 6 29 30 29 30 0z m13 -42 c0 -5 -4 -10 -10 -10 -5 0 -10 5 -10 10 0
6 5 10 10 10 6 0 10 -4 10 -10z m80 -6 c0 -2 -7 -4 -15 -4 -8 0 -15 4 -15 10
0 5 7 7 15 4 8 -4 15 -8 15 -10z m0 -24 c11 -7 12 -12 3 -21 -13 -13 -33 -4
-33 17 0 16 9 18 30 4z m45 -8 c-3 -3 -11 0 -18 7 -9 10 -8 11 6 5 10 -3 15
-9 12 -12z m15 -52 c0 -5 -2 -10 -4 -10 -3 0 -8 5 -11 10 -3 6 -1 10 4 10 6 0
11 -4 11 -10z m-7 -60 c3 -11 1 -18 -4 -14 -5 3 -9 12 -9 20 0 20 7 17 13 -6z
m32 -30 c3 -5 1 -10 -4 -10 -6 0 -11 5 -11 10 0 6 2 10 4 10 3 0 8 -4 11 -10z
m318 -129 c-10 -2 -23 -7 -29 -12 -19 -15 -25 4 -6 21 13 13 21 14 35 6 17
-11 17 -11 0 -15z m-156 13 c-3 -3 -12 -4 -19 -1 -8 3 -5 6 6 6 11 1 17 -2 13
-5z m-56 -34 c6 0 7 5 4 10 -3 6 1 10 9 10 9 0 14 -8 13 -20 -1 -11 -2 -20 -3
-20 -12 0 -64 24 -64 30 0 15 25 17 28 3 2 -7 8 -13 13 -13z m139 20 c0 -5 -2
-10 -4 -10 -3 0 -8 5 -11 10 -3 6 -1 10 4 10 6 0 11 -4 11 -10z m-65 -40 c-3
-5 -14 -10 -23 -9 -14 0 -13 2 3 9 27 11 27 11 20 0z"/>
<path d="M1033 1355 c6 -19 19 -43 29 -52 18 -16 19 -16 8 12 -26 74 -58 107
-37 40z"/>
<path d="M843 1283 c-18 -7 -16 -23 2 -23 8 0 15 7 15 15 0 8 -1 15 -2 14 -2
0 -9 -3 -15 -6z"/>
<path d="M814 1244 c3 -8 6 -21 6 -27 0 -7 4 -6 10 3 14 21 12 27 -6 34 -12 5
-15 2 -10 -10z"/>
<path d="M1604 1041 c4 -5 0 -11 -6 -14 -7 -3 3 -12 22 -20 35 -15 55 -14 44
4 -3 5 -10 6 -16 3 -7 -4 -8 -2 -4 4 3 6 -2 16 -13 21 -24 13 -34 14 -27 2z"/>
<path d="M246 1015 c4 -8 8 -15 10 -15 2 0 4 7 4 15 0 8 -4 15 -10 15 -5 0 -7
-7 -4 -15z"/>
<path d="M1500 1008 c0 -18 41 -68 56 -68 18 0 18 4 -1 39 -14 28 -55 49 -55
29z"/>
<path d="M1750 812 c0 -17 22 -62 31 -62 20 0 17 21 -6 46 -14 15 -25 22 -25
16z"/>
<path d="M1815 710 c-4 -6 1 -21 11 -33 16 -18 14 -18 -9 2 -15 14 -27 19 -27
12 0 -7 -4 -9 -10 -6 -5 3 -10 -1 -10 -9 0 -9 14 -22 30 -31 29 -15 31 -15 41
9 9 19 8 29 -4 46 -10 14 -17 18 -22 10z"/>
</g>
</svg>
