<?xml version="1.0" standalone="no"?>
<!DOCTYPE svg PUBLIC "-//W3C//DTD SVG 20010904//EN"
 "http://www.w3.org/TR/2001/REC-SVG-20010904/DTD/svg10.dtd">
<svg version="1.0" xmlns="http://www.w3.org/2000/svg"
 width="360.000000pt" height="229.000000pt" viewBox="0 0 360.000000 229.000000"
 preserveAspectRatio="xMidYMid meet">

<g transform="translate(0.000000,229.000000) scale(0.100000,-0.100000)"
fill="#000000" stroke="none">
<path d="M2600 1750 c0 -5 5 -10 11 -10 5 0 7 5 4 10 -3 6 -8 10 -11 10 -2 0
-4 -4 -4 -10z"/>
<path d="M2530 1685 c0 -8 2 -15 4 -15 2 0 6 7 10 15 3 8 1 15 -4 15 -6 0 -10
-7 -10 -15z"/>
<path d="M2380 1540 c-13 -8 -12 -10 3 -10 9 0 17 5 17 10 0 12 -1 12 -20 0z"/>
<path d="M2353 1485 c-3 -9 -3 -18 -1 -21 3 -3 8 4 11 16 6 23 -1 27 -10 5z"/>
<path d="M2272 1411 c-13 -3 -23 -9 -23 -13 1 -5 1 -15 1 -24 0 -14 2 -14 15
-1 8 9 20 17 26 19 22 7 4 24 -19 19z"/>
<path d="M2210 1335 c0 -8 5 -15 10 -15 6 0 10 7 10 15 0 8 -4 15 -10 15 -5 0
-10 -7 -10 -15z"/>
<path d="M2075 1300 c3 -5 8 -10 11 -10 2 0 4 5 4 10 0 6 -5 10 -11 10 -5 0
-7 -4 -4 -10z"/>
<path d="M2076 1222 c-3 -6 -1 -14 5 -17 14 -9 20 -2 10 14 -6 8 -11 9 -15 3z"/>
<path d="M1987 1193 c-4 -3 -7 -13 -7 -22 1 -13 3 -13 11 2 11 19 8 33 -4 20z"/>
<path d="M1966 1104 c-5 -14 -4 -15 9 -4 17 14 19 20 6 20 -5 0 -12 -7 -15
-16z"/>
<path d="M2425 1110 c4 -6 11 -8 16 -5 14 9 11 15 -7 15 -8 0 -12 -5 -9 -10z"/>
<path d="M985 849 c-8 -12 31 -57 41 -46 3 3 -3 18 -14 32 -13 17 -23 22 -27
14z"/>
<path d="M2644 688 l-19 -21 28 18 c28 18 33 25 19 25 -5 0 -17 -10 -28 -22z"/>
<path d="M2665 610 c-3 -5 -1 -10 4 -10 6 0 11 5 11 10 0 6 -2 10 -4 10 -3 0
-8 -4 -11 -10z"/>
<path d="M1351 491 c-7 -12 -10 -25 -7 -29 3 -3 6 1 6 8 0 7 3 10 6 7 4 -4 2
-12 -3 -19 -6 -7 -13 -34 -17 -59 -6 -44 -5 -47 28 -72 19 -15 45 -27 58 -26
13 0 41 -4 63 -9 50 -13 163 -33 190 -34 11 0 62 2 114 5 114 8 148 27 48 27
-75 0 -220 26 -225 41 -2 5 -8 7 -12 4 -5 -3 -23 13 -41 35 -17 21 -36 37 -42
33 -5 -3 -6 3 -2 16 5 17 2 21 -17 21 -13 0 -32 7 -42 15 -11 8 -28 15 -39 15
-10 0 -27 10 -37 22 l-17 22 -12 -23z"/>
</g>
</svg>
