<?xml version="1.0" standalone="no"?>
<!DOCTYPE svg PUBLIC "-//W3C//DTD SVG 20010904//EN"
 "http://www.w3.org/TR/2001/REC-SVG-20010904/DTD/svg10.dtd">
<svg version="1.0" xmlns="http://www.w3.org/2000/svg"
 width="550.000000pt" height="496.000000pt" viewBox="0 0 550.000000 496.000000"
 preserveAspectRatio="xMidYMid meet">

<g transform="translate(0.000000,496.000000) scale(0.100000,-0.100000)"
fill="#000000" stroke="none">
<path d="M2672 4821 c2 -9 -4 -16 -12 -16 -19 0 -74 -84 -100 -152 -42 -111
-51 -365 -15 -435 7 -16 19 -54 26 -86 15 -74 48 -149 104 -233 25 -38 45 -71
45 -74 0 -15 63 -95 116 -149 83 -82 162 -136 294 -200 155 -75 198 -100 221
-131 11 -14 42 -39 67 -56 l47 -31 -57 55 c-32 31 -58 58 -58 62 0 3 12 33 26
68 24 56 27 75 27 192 1 140 -12 218 -62 385 -87 285 -106 341 -153 436 -52
107 -146 233 -179 241 -11 3 -19 10 -19 15 0 6 -7 8 -15 4 -8 -3 -15 -1 -15 5
0 6 -4 7 -10 4 -5 -3 -10 1 -10 10 0 25 -69 89 -83 77 -8 -7 -18 -6 -31 4 -10
7 -22 11 -27 9 -4 -3 -10 -1 -14 5 -13 21 -24 10 -15 -15 12 -31 -2 -32 -25
-2 -21 28 -77 34 -73 8z"/>
<path d="M1460 3794 c0 -3 4 -14 10 -24 8 -16 5 -19 -20 -25 -17 -4 -30 -11
-30 -16 0 -5 -7 -17 -15 -26 -8 -10 -15 -20 -16 -23 0 -3 -4 -21 -8 -41 l-8
-35 43 11 c53 13 52 12 59 61 9 57 12 64 35 64 27 0 25 10 -7 37 -25 22 -43
29 -43 17z"/>
<path d="M2012 3685 c-90 -17 -190 -49 -257 -83 -96 -48 -209 -162 -263 -267
l-20 -40 36 -32 c24 -21 43 -31 54 -27 13 4 16 1 12 -10 -4 -11 4 -17 30 -21
20 -4 44 -4 53 0 31 13 84 9 103 -8 11 -9 32 -14 53 -13 19 2 51 -3 71 -9 53
-18 106 -27 106 -18 0 4 54 8 120 8 66 0 120 3 120 7 0 13 38 9 43 -4 4 -9 8
-10 14 -2 4 5 17 11 28 11 11 0 38 3 60 7 40 7 129 15 215 20 25 2 65 6 90 9
25 4 90 9 145 11 55 3 102 5 105 6 3 0 -2 5 -10 10 -8 5 -35 10 -60 11 l-45 2
48 6 48 6 -108 107 c-59 59 -121 118 -138 131 -66 53 -194 123 -309 168 -67
27 -241 34 -344 14z"/>
<path d="M1490 3637 c-20 -15 -64 -86 -58 -92 3 -3 18 7 35 23 54 48 74 109
23 69z"/>
<path d="M3630 3400 c8 -6 73 -44 144 -84 72 -40 132 -78 134 -84 2 -6 -9 -15
-25 -19 -36 -10 -243 -10 -310 0 -43 6 -53 5 -53 -7 0 -8 -14 -17 -31 -21 -21
-5 -29 -11 -25 -22 3 -8 6 -17 6 -19 0 -3 37 -3 83 0 45 3 136 8 202 11 66 3
129 7 140 8 16 2 22 -6 29 -45 8 -43 13 -49 50 -63 39 -16 40 -17 21 -32 -19
-14 -17 -15 20 -9 22 3 58 15 80 26 l40 20 -35 -2 c-43 -3 -60 7 -60 34 0 18
-2 19 -17 7 -15 -12 -16 -12 -10 4 4 11 3 16 -3 12 -6 -3 -13 2 -16 12 -3 10
-10 26 -16 37 -12 22 11 44 24 23 5 -7 8 -8 8 -1 0 23 -52 57 -210 136 -166
83 -198 98 -170 78z"/>
<path d="M2942 3249 c5 -17 48 -25 48 -10 0 6 -4 11 -9 11 -5 0 -17 3 -27 7
-12 4 -15 2 -12 -8z"/>
<path d="M3200 3190 c0 -5 24 -10 53 -9 38 0 47 3 32 9 -28 12 -85 12 -85 0z"/>
<path d="M2415 3156 c-68 -22 -215 -91 -225 -106 -3 -4 -18 -14 -35 -23 -33
-17 -90 -76 -81 -84 3 -3 12 0 21 7 8 7 47 14 87 16 39 1 74 8 78 14 4 7 39 9
107 4 100 -6 102 -5 118 20 9 13 30 28 47 31 19 5 26 10 19 14 -11 7 -4 11
107 57 23 10 42 21 42 26 0 4 7 8 15 8 36 0 10 18 -42 29 -85 17 -179 12 -258
-13z"/>
<path d="M3917 3054 c-13 -14 5 -24 41 -24 l37 1 -34 14 c-39 17 -36 17 -44 9z"/>
<path d="M2945 2994 c-44 -23 -105 -55 -135 -72 -30 -18 -61 -32 -69 -32 -8 0
-46 -15 -85 -34 -78 -38 -297 -138 -335 -153 -23 -9 -22 -11 46 -79 39 -38 95
-105 125 -149 71 -103 140 -246 132 -271 -4 -14 -3 -15 4 -5 15 21 37 -81 23
-107 -8 -15 -8 -21 2 -25 6 -2 12 -17 13 -33 1 -29 14 -230 15 -242 1 -4 1 -9
-1 -12 -1 -3 -2 -59 -4 -125 -1 -66 -6 -126 -10 -134 -6 -10 -5 -12 2 -7 8 5
12 0 12 -13 0 -11 -4 -23 -10 -26 -5 -3 -10 -16 -10 -28 1 -12 -2 -37 -6 -56
-5 -27 -4 -32 7 -25 9 5 8 -1 -3 -19 -10 -14 -18 -33 -18 -42 0 -9 -6 -37 -14
-63 -8 -26 -19 -78 -24 -116 -7 -43 -17 -73 -26 -78 -8 -5 -13 -15 -9 -24 15
-38 -239 -342 -347 -415 -50 -34 -70 -52 -70 -64 0 -6 3 -6 8 1 10 16 55 39
70 36 6 -2 12 1 12 6 0 5 24 19 53 33 28 13 54 26 57 29 3 3 25 21 50 40 24
19 53 43 63 53 10 10 29 22 43 27 33 13 120 13 143 0 10 -5 45 -14 77 -19 32
-6 68 -12 79 -14 63 -14 148 -18 400 -22 178 -2 322 -9 395 -19 147 -20 157
-20 177 4 22 26 37 26 30 0 -7 -29 41 -41 59 -15 11 15 18 16 36 7 13 -6 17
-11 10 -11 -7 -1 -11 -5 -8 -10 3 -4 41 0 83 10 43 10 95 19 116 19 30 0 37 4
37 19 0 10 7 21 14 24 10 4 13 1 10 -7 -7 -18 23 -28 47 -16 11 6 24 8 29 5
17 -10 31 5 21 23 -11 22 -3 42 16 42 11 0 14 -7 9 -25 -8 -32 -3 -31 28 2 26
28 26 46 0 36 -12 -4 -15 -1 -12 13 2 10 10 18 16 16 10 -2 14 11 11 34 0 4 5
11 13 16 9 6 6 7 -9 3 -16 -4 -23 -1 -28 14 -6 21 -38 36 -54 27 -5 -4 -12 3
-16 14 -3 11 -11 20 -16 20 -5 0 -8 5 -7 11 2 6 -3 14 -9 16 -16 6 -17 -11 -3
-38 8 -13 7 -25 0 -39 -8 -16 -8 -24 4 -35 13 -14 17 -13 34 6 17 18 23 19 41
7 24 -15 28 -48 6 -48 -8 0 -15 9 -15 20 0 26 -17 26 -25 0 -7 -22 -18 -21
-91 5 -34 12 -36 14 -13 15 28 0 42 20 33 45 -8 19 -36 35 -63 35 -10 0 -40 9
-66 20 -41 17 -46 23 -43 47 2 15 -2 28 -9 30 -8 3 -13 -4 -13 -16 0 -14 -6
-21 -20 -21 -11 0 -20 5 -20 10 0 6 -28 10 -63 10 -53 0 -64 3 -76 22 l-14 22
-18 -23 c-15 -18 -26 -22 -54 -19 -19 2 -35 0 -35 -5 0 -5 -6 -7 -14 -4 -7 3
-18 1 -24 -5 -7 -7 -17 -6 -31 2 -20 10 -66 7 -116 -8 -18 -5 -18 -6 5 -13 14
-4 41 -7 61 -8 23 -1 39 -7 43 -16 9 -24 39 -19 31 5 -6 18 -2 20 34 20 23 0
41 -4 41 -10 0 -5 -11 -10 -25 -10 -27 0 -32 -9 -14 -27 15 -15 6 -28 -30 -46
-41 -20 -83 -11 -103 22 -16 29 -69 48 -102 35 -9 -3 -16 -1 -16 5 0 6 5 11
10 11 26 0 5 30 -34 48 -41 20 -65 55 -45 68 17 10 9 24 -13 24 -36 0 -80 42
-94 88 -7 24 -8 44 -3 48 5 3 9 1 9 -4 0 -6 8 -13 17 -16 15 -6 14 -4 -2 14
-10 11 -25 18 -32 16 -7 -3 -13 1 -13 9 0 8 -4 15 -9 15 -5 0 -12 16 -15 35
-4 20 -16 51 -27 70 -15 25 -17 35 -8 35 10 0 10 3 1 12 -7 7 -12 20 -12 29 0
10 -9 24 -20 32 -11 8 -17 17 -13 21 4 3 -2 12 -12 19 -10 8 -16 20 -13 28 3
8 -2 19 -11 26 -14 10 -12 12 12 18 32 8 36 30 7 38 -12 3 -20 14 -20 27 0 12
-7 29 -16 37 -8 9 -13 24 -11 34 3 11 1 19 -5 19 -5 0 -7 8 -4 18 4 11 -2 23
-14 32 -15 11 -20 26 -20 57 0 30 -4 43 -14 43 -13 0 -22 32 -31 107 -1 15
-10 32 -20 39 -10 8 -15 20 -11 29 7 18 -7 49 -36 81 -17 19 -18 25 -7 42 11
17 11 25 0 45 -8 14 -10 34 -6 47 5 15 4 20 -4 16 -6 -4 -15 3 -20 16 -5 13
-16 30 -25 37 -20 17 -21 31 -1 31 19 0 19 10 0 24 -8 6 -16 29 -18 51 -3 44
-14 68 -27 60 -14 -8 -18 8 -9 30 9 18 9 18 5 -3 -2 -13 0 -20 6 -16 5 4 7 21
4 39 -4 22 -2 36 8 44 8 7 17 23 20 36 7 26 71 133 158 264 27 41 47 77 46 80
-2 3 -39 -12 -83 -35z m85 -1225 c0 -5 -4 -9 -10 -9 -5 0 -10 7 -10 16 0 8 5
12 10 9 6 -3 10 -10 10 -16z m0 -99 c0 -5 -2 -10 -4 -10 -3 0 -8 5 -11 10 -3
6 -1 10 4 10 6 0 11 -4 11 -10z m105 -200 c3 -5 1 -10 -4 -10 -6 0 -11 5 -11
10 0 6 2 10 4 10 3 0 8 -4 11 -10z m81 -224 c15 -16 19 -36 7 -36 -5 0 -13 11
-20 25 -13 28 -8 32 13 11z m24 -96 c0 -6 -9 -5 -20 2 -11 7 -20 16 -20 21 0
4 9 3 20 -3 11 -6 20 -15 20 -20z m45 -30 c4 -6 15 -8 26 -5 17 6 19 1 19 -35
0 -27 -4 -39 -11 -35 -6 4 -8 14 -5 22 9 22 -3 36 -20 22 -11 -9 -14 -8 -14 4
0 9 -8 21 -17 26 -17 10 -17 10 -1 11 9 0 20 -5 23 -10z m45 -105 c0 -8 -6
-15 -14 -15 -17 0 -28 14 -19 24 12 12 33 6 33 -9z m430 5 c0 -5 -4 -10 -9
-10 -6 0 -13 5 -16 10 -3 6 1 10 9 10 9 0 16 -4 16 -10z m80 -10 c0 -5 -6 -10
-14 -10 -8 0 -18 5 -21 10 -3 6 3 10 14 10 12 0 21 -4 21 -10z m-36 -38 c4 -2
3 -8 -4 -12 -15 -9 -71 10 -64 22 5 8 48 1 68 -10z m186 8 c0 -5 -13 -10 -30
-10 -16 0 -30 5 -30 10 0 6 14 10 30 10 17 0 30 -4 30 -10z m-607 -17 c-7 -2
-19 -2 -25 0 -7 3 -2 5 12 5 14 0 19 -2 13 -5z m57 -13 c0 -5 -2 -10 -4 -10
-3 0 -8 5 -11 10 -3 6 -1 10 4 10 6 0 11 -4 11 -10z m450 0 c0 -5 7 -10 15
-10 8 0 15 -4 15 -10 0 -13 -13 -13 -28 2 -8 8 -15 8 -26 -1 -9 -7 -21 -11
-28 -8 -8 4 -5 8 10 12 12 4 22 11 22 16 0 5 5 9 10 9 6 0 10 -4 10 -10z m220
-21 c0 -5 -7 -9 -15 -9 -10 0 -15 -10 -15 -29 0 -25 -3 -28 -25 -23 -26 5 -32
16 -15 27 19 12 10 35 -12 35 -15 0 -19 3 -11 8 16 10 93 3 93 -9z m-320 -20
c0 -5 -7 -9 -15 -9 -8 0 -15 -9 -15 -20 l0 -20 -20 20 c-26 26 -26 34 2 41 26
6 48 1 48 -12z m-270 -9 c0 -5 -7 -7 -15 -4 -8 4 -15 8 -15 10 0 2 7 4 15 4 8
0 15 -4 15 -10z m640 0 c0 -5 -4 -10 -9 -10 -6 0 -13 5 -16 10 -3 6 1 10 9 10
9 0 16 -4 16 -10z m-605 -10 c3 -5 -1 -10 -10 -10 -9 0 -13 5 -10 10 3 6 8 10
10 10 2 0 7 -4 10 -10z m125 0 c0 -5 -5 -10 -11 -10 -5 0 -7 5 -4 10 3 6 8 10
11 10 2 0 4 -4 4 -10z m130 -10 c0 -5 -5 -10 -11 -10 -5 0 -7 5 -4 10 3 6 8
10 11 10 2 0 4 -4 4 -10z m-96 -41 c-3 -5 -10 -7 -15 -3 -5 3 -7 10 -3 15 3 5
10 7 15 3 5 -3 7 -10 3 -15z"/>
<path d="M3856 3024 c-6 -15 -4 -15 11 -3 10 7 20 15 22 16 2 2 -3 3 -11 3 -9
0 -19 -7 -22 -16z"/>
<path d="M1886 2938 c3 -4 16 -8 29 -8 13 0 25 -6 28 -12 3 -10 10 -8 23 6 19
18 18 18 -5 11 -13 -4 -21 -3 -18 2 3 5 -9 9 -28 9 -19 0 -31 -4 -29 -8z"/>
<path d="M2440 2820 c-52 -27 -92 -49 -89 -49 13 -2 162 68 177 83 22 22 21
21 -88 -34z"/>
<path d="M3650 2326 c0 -2 7 -9 15 -16 9 -7 15 -8 15 -2 0 5 -7 12 -15 16 -8
3 -15 4 -15 2z"/>
<path d="M3700 2130 c0 -6 7 -10 15 -10 8 0 15 2 15 4 0 2 -7 6 -15 10 -8 3
-15 1 -15 -4z"/>
<path d="M3992 2100 c0 -14 2 -19 5 -12 2 6 2 18 0 25 -3 6 -5 1 -5 -13z"/>
<path d="M3620 2090 c0 -5 5 -10 10 -10 6 0 10 5 10 10 0 6 -4 10 -10 10 -5 0
-10 -4 -10 -10z"/>
<path d="M3690 2025 c0 -8 2 -15 4 -15 2 0 6 7 10 15 3 8 1 15 -4 15 -6 0 -10
-7 -10 -15z"/>
<path d="M2990 2005 c0 -8 4 -15 10 -15 5 0 7 7 4 15 -4 8 -8 15 -10 15 -2 0
-4 -7 -4 -15z"/>
<path d="M3880 2010 c0 -5 5 -10 11 -10 5 0 7 5 4 10 -3 6 -8 10 -11 10 -2 0
-4 -4 -4 -10z"/>
<path d="M3740 1980 c0 -5 5 -10 10 -10 6 0 10 5 10 10 0 6 -4 10 -10 10 -5 0
-10 -4 -10 -10z"/>
<path d="M3010 1966 c0 -8 5 -18 10 -21 6 -3 10 1 10 9 0 8 -4 18 -10 21 -5 3
-10 -1 -10 -9z"/>
<path d="M3812 1971 c2 -7 7 -12 11 -12 12 1 9 15 -3 20 -7 2 -11 -2 -8 -8z"/>
<path d="M3632 1949 c-7 -11 -11 -23 -9 -25 7 -7 29 24 25 36 -2 6 -9 1 -16
-11z"/>
<path d="M3991 1934 c0 -11 3 -14 6 -6 3 7 2 16 -1 19 -3 4 -6 -2 -5 -13z"/>
<path d="M3730 1920 c0 -11 5 -20 10 -20 6 0 10 9 10 20 0 11 -4 20 -10 20 -5
0 -10 -9 -10 -20z"/>
<path d="M3875 1911 c-9 -16 12 -22 39 -11 14 5 26 12 26 15 0 9 -59 5 -65 -4z"/>
<path d="M4002 1880 c0 -14 2 -19 5 -12 2 6 2 18 0 25 -3 6 -5 1 -5 -13z"/>
<path d="M3921 1874 c0 -11 3 -14 6 -6 3 7 2 16 -1 19 -3 4 -6 -2 -5 -13z"/>
<path d="M3030 1861 c0 -26 15 -35 17 -11 1 11 -2 22 -8 25 -5 4 -9 -3 -9 -14z"/>
<path d="M3761 1834 c0 -11 3 -14 6 -6 3 7 2 16 -1 19 -3 4 -6 -2 -5 -13z"/>
<path d="M4090 1829 c0 -5 5 -7 10 -4 6 3 10 8 10 11 0 2 -4 4 -10 4 -5 0 -10
-5 -10 -11z"/>
<path d="M3626 1794 c-4 -13 -11 -24 -17 -24 -6 0 -7 -4 -4 -10 3 -5 11 -10
16 -10 6 0 8 4 5 8 -3 5 3 18 14 30 15 16 16 21 5 25 -8 4 -15 -4 -19 -19z"/>
<path d="M3876 1805 c-3 -9 -6 -22 -5 -28 0 -7 5 -1 10 12 5 13 8 26 5 28 -2
2 -6 -3 -10 -12z"/>
<path d="M3944 1809 c-3 -6 -1 -16 5 -22 8 -8 11 -5 11 11 0 24 -5 28 -16 11z"/>
<path d="M4115 1791 c-3 -5 -1 -12 5 -16 5 -3 10 1 10 9 0 18 -6 21 -15 7z"/>
<path d="M3715 1780 c-3 -5 -1 -10 4 -10 6 0 11 5 11 10 0 6 -2 10 -4 10 -3 0
-8 -4 -11 -10z"/>
<path d="M3792 1778 c-14 -14 -16 -28 -3 -28 9 0 24 30 18 36 -2 2 -9 -2 -15
-8z"/>
<path d="M3906 1763 c-6 -14 -5 -15 5 -6 7 7 10 15 7 18 -3 3 -9 -2 -12 -12z"/>
<path d="M3988 1763 c-13 -3 -18 -14 -17 -36 2 -30 2 -31 6 -4 3 19 10 27 24
27 10 0 19 5 19 10 0 10 -3 11 -32 3z"/>
<path d="M3695 1750 c-3 -5 -1 -10 4 -10 6 0 11 5 11 10 0 6 -2 10 -4 10 -3 0
-8 -4 -11 -10z"/>
<path d="M3835 1749 c-4 -6 -5 -12 -2 -15 2 -3 7 2 10 11 7 17 1 20 -8 4z"/>
<path d="M4110 1749 c0 -5 5 -7 10 -4 6 3 10 8 10 11 0 2 -4 4 -10 4 -5 0 -10
-5 -10 -11z"/>
<path d="M3326 1723 c-6 -14 -5 -15 5 -6 7 7 10 15 7 18 -3 3 -9 -2 -12 -12z"/>
<path d="M3920 1729 c0 -5 5 -7 10 -4 6 3 10 8 10 11 0 2 -4 4 -10 4 -5 0 -10
-5 -10 -11z"/>
<path d="M3705 1720 c-3 -5 -2 -10 4 -10 5 0 13 5 16 10 3 6 2 10 -4 10 -5 0
-13 -4 -16 -10z"/>
<path d="M3777 1713 c4 -10 15 -29 25 -42 14 -18 18 -20 18 -7 0 9 -4 16 -10
16 -5 0 -12 11 -16 25 -3 14 -10 25 -15 25 -5 0 -5 -8 -2 -17z"/>
<path d="M3480 1701 c0 -5 5 -13 10 -16 6 -3 10 -2 10 4 0 5 -4 13 -10 16 -5
3 -10 2 -10 -4z"/>
<path d="M3130 1689 c0 -5 5 -7 10 -4 6 3 10 8 10 11 0 2 -4 4 -10 4 -5 0 -10
-5 -10 -11z"/>
<path d="M3935 1690 c-3 -5 -1 -10 4 -10 6 0 11 5 11 10 0 6 -2 10 -4 10 -3 0
-8 -4 -11 -10z"/>
<path d="M3695 1681 c-3 -5 -1 -12 4 -15 5 -3 11 1 15 9 6 16 -9 21 -19 6z"/>
<path d="M3671 1634 c0 -11 3 -14 6 -6 3 7 2 16 -1 19 -3 4 -6 -2 -5 -13z"/>
<path d="M4152 1630 c0 -14 2 -19 5 -12 2 6 2 18 0 25 -3 6 -5 1 -5 -13z"/>
<path d="M3790 1630 c0 -5 5 -10 11 -10 5 0 7 5 4 10 -3 6 -8 10 -11 10 -2 0
-4 -4 -4 -10z"/>
<path d="M3535 1600 c-26 -28 -15 -31 12 -3 12 13 19 23 14 23 -4 0 -16 -9
-26 -20z"/>
<path d="M3630 1605 c0 -8 2 -15 4 -15 2 0 6 7 10 15 3 8 1 15 -4 15 -6 0 -10
-7 -10 -15z"/>
<path d="M3115 1601 c-3 -5 -1 -12 5 -16 5 -3 10 1 10 9 0 18 -6 21 -15 7z"/>
<path d="M3761 1601 c-10 -7 -11 -12 -1 -27 8 -14 10 -14 7 -3 -3 9 0 22 6 28
13 13 7 14 -12 2z"/>
<path d="M3930 1591 c0 -17 18 -21 24 -6 3 9 0 15 -9 15 -8 0 -15 -4 -15 -9z"/>
<path d="M4015 1590 c3 -5 8 -10 11 -10 2 0 4 5 4 10 0 6 -5 10 -11 10 -5 0
-7 -4 -4 -10z"/>
<path d="M3480 1560 c0 -5 5 -10 10 -10 6 0 10 5 10 10 0 6 -4 10 -10 10 -5 0
-10 -4 -10 -10z"/>
<path d="M3836 1545 c4 -8 8 -15 10 -15 2 0 4 7 4 15 0 8 -4 15 -10 15 -5 0
-7 -7 -4 -15z"/>
<path d="M4033 1542 c-3 -12 -10 -22 -15 -22 -5 0 -6 -4 -3 -10 3 -5 10 -10
15 -10 10 0 23 50 15 58 -3 3 -8 -4 -12 -16z"/>
<path d="M3880 1535 c0 -8 2 -15 4 -15 2 0 6 7 10 15 3 8 1 15 -4 15 -6 0 -10
-7 -10 -15z"/>
<path d="M3750 1525 c-7 -9 -8 -15 -2 -15 5 0 12 7 16 15 3 8 4 15 2 15 -2 0
-9 -7 -16 -15z"/>
<path d="M3965 1529 c-10 -14 -1 -21 19 -13 9 3 13 10 10 15 -7 12 -21 11 -29
-2z"/>
<path d="M3166 1516 c3 -9 11 -16 16 -16 13 0 5 23 -10 28 -7 2 -10 -2 -6 -12z"/>
<path d="M3690 1520 c-8 -5 -28 -10 -45 -11 -27 -2 -28 -2 -5 -6 14 -3 31 -10
38 -15 8 -7 12 -7 12 2 0 7 8 19 18 26 20 15 5 19 -18 4z"/>
<path d="M3905 1520 c-3 -5 -1 -10 4 -10 6 0 11 5 11 10 0 6 -2 10 -4 10 -3 0
-8 -4 -11 -10z"/>
<path d="M3707 1493 c-4 -3 -7 -13 -7 -22 1 -13 3 -13 11 2 11 19 8 33 -4 20z"/>
<path d="M4272 1480 c0 -14 2 -19 5 -12 2 6 2 18 0 25 -3 6 -5 1 -5 -13z"/>
<path d="M3742 1470 c0 -14 2 -19 5 -12 2 6 2 18 0 25 -3 6 -5 1 -5 -13z"/>
<path d="M3760 1480 c0 -5 5 -10 11 -10 5 0 7 5 4 10 -3 6 -8 10 -11 10 -2 0
-4 -4 -4 -10z"/>
<path d="M3820 1459 c0 -11 5 -17 10 -14 6 3 10 13 10 21 0 8 -4 14 -10 14 -5
0 -10 -9 -10 -21z"/>
<path d="M3930 1461 c0 -12 5 -21 10 -21 6 0 10 6 10 14 0 8 -4 18 -10 21 -5
3 -10 -3 -10 -14z"/>
<path d="M3441 1454 c0 -11 3 -14 6 -6 3 7 2 16 -1 19 -3 4 -6 -2 -5 -13z"/>
<path d="M3500 1454 c0 -8 5 -12 10 -9 6 4 8 11 5 16 -9 14 -15 11 -15 -7z"/>
<path d="M3970 1450 c0 -5 5 -10 10 -10 6 0 10 5 10 10 0 6 -4 10 -10 10 -5 0
-10 -4 -10 -10z"/>
<path d="M3650 1430 c0 -5 5 -10 10 -10 6 0 10 5 10 10 0 6 -4 10 -10 10 -5 0
-10 -4 -10 -10z"/>
<path d="M4030 1430 c0 -5 5 -10 10 -10 6 0 10 5 10 10 0 6 -4 10 -10 10 -5 0
-10 -4 -10 -10z"/>
<path d="M3720 1420 c0 -5 5 -10 10 -10 6 0 10 5 10 10 0 6 -4 10 -10 10 -5 0
-10 -4 -10 -10z"/>
<path d="M3220 1410 c0 -5 5 -10 11 -10 5 0 7 5 4 10 -3 6 -8 10 -11 10 -2 0
-4 -4 -4 -10z"/>
<path d="M3751 1415 c1 -19 18 -51 18 -35 0 8 -4 22 -9 30 -5 8 -9 11 -9 5z"/>
<path d="M3690 1400 c-8 -5 -12 -11 -9 -14 2 -3 11 -1 19 4 8 5 12 11 9 14 -2
3 -11 1 -19 -4z"/>
<path d="M3200 1373 c0 -2 6 -11 14 -18 12 -12 15 -12 19 -1 3 8 -2 16 -14 19
-10 3 -19 3 -19 0z"/>
<path d="M4020 1370 c0 -5 5 -10 11 -10 5 0 7 5 4 10 -3 6 -8 10 -11 10 -2 0
-4 -4 -4 -10z"/>
<path d="M3860 1350 c0 -5 5 -10 10 -10 6 0 10 5 10 10 0 6 -4 10 -10 10 -5 0
-10 -4 -10 -10z"/>
<path d="M3688 1343 c7 -3 16 -2 19 1 4 3 -2 6 -13 5 -11 0 -14 -3 -6 -6z"/>
<path d="M3730 1326 c0 -9 5 -16 10 -16 6 0 10 4 10 9 0 6 -4 13 -10 16 -5 3
-10 -1 -10 -9z"/>
<path d="M3665 1311 c-8 -26 4 -51 22 -44 11 5 12 8 2 14 -10 6 -10 11 -1 22
10 12 9 16 -2 20 -9 4 -17 -1 -21 -12z"/>
<path d="M3242 1299 c2 -7 10 -15 17 -17 8 -3 12 1 9 9 -2 7 -10 15 -17 17 -8
3 -12 -1 -9 -9z"/>
<path d="M3940 1290 c0 -5 5 -10 10 -10 6 0 10 5 10 10 0 6 -4 10 -10 10 -5 0
-10 -4 -10 -10z"/>
<path d="M3340 1280 c0 -5 5 -10 11 -10 5 0 7 5 4 10 -3 6 -8 10 -11 10 -2 0
-4 -4 -4 -10z"/>
<path d="M3840 1260 c0 -5 5 -10 10 -10 6 0 10 5 10 10 0 6 -4 10 -10 10 -5 0
-10 -4 -10 -10z"/>
<path d="M3602 1240 c0 -14 2 -19 5 -12 2 6 2 18 0 25 -3 6 -5 1 -5 -13z"/>
<path d="M3990 1245 c7 -8 16 -15 21 -15 5 0 9 7 9 15 0 9 -9 15 -21 15 -18 0
-19 -2 -9 -15z"/>
<path d="M3804 1236 c-8 -22 3 -33 18 -18 9 9 9 15 0 24 -9 9 -13 7 -18 -6z"/>
<path d="M3650 1220 c0 -5 7 -10 16 -10 8 0 12 5 9 10 -3 6 -10 10 -16 10 -5
0 -9 -4 -9 -10z"/>
<path d="M3585 1200 c-3 -5 -1 -10 4 -10 6 0 11 5 11 10 0 6 -2 10 -4 10 -3 0
-8 -4 -11 -10z"/>
<path d="M4156 1187 c3 -10 9 -15 12 -12 3 3 0 11 -7 18 -10 9 -11 8 -5 -6z"/>
<path d="M3737 1176 c-6 -15 1 -26 15 -26 4 0 8 9 8 20 0 23 -15 27 -23 6z"/>
<path d="M3920 1169 c0 -11 5 -17 10 -14 6 3 10 13 10 21 0 8 -4 14 -10 14 -5
0 -10 -9 -10 -21z"/>
<path d="M3318 1173 c7 -3 16 -2 19 1 4 3 -2 6 -13 5 -11 0 -14 -3 -6 -6z"/>
<path d="M3840 1161 c0 -12 5 -21 10 -21 6 0 10 6 10 14 0 8 -4 18 -10 21 -5
3 -10 -3 -10 -14z"/>
<path d="M4050 1158 c0 -18 18 -34 28 -24 3 4 -2 14 -11 23 -16 16 -17 16 -17
1z"/>
<path d="M4200 1160 c0 -5 7 -10 16 -10 8 0 12 5 9 10 -3 6 -10 10 -16 10 -5
0 -9 -4 -9 -10z"/>
<path d="M3550 1135 c0 -13 4 -14 23 -4 33 17 33 19 4 19 -18 0 -27 -5 -27
-15z"/>
<path d="M3485 1130 c-3 -5 -1 -10 4 -10 6 0 11 5 11 10 0 6 -2 10 -4 10 -3 0
-8 -4 -11 -10z"/>
<path d="M3900 1131 c0 -3 7 -15 15 -25 13 -17 15 -18 15 -3 0 20 36 23 43 5
4 -10 8 -9 16 2 17 23 14 25 -39 26 -28 1 -50 -2 -50 -5z"/>
<path d="M3787 1123 c-10 -9 -9 -23 2 -23 5 0 11 7 15 15 5 15 -5 20 -17 8z"/>
<path d="M4260 1120 c0 -5 5 -10 11 -10 5 0 7 5 4 10 -3 6 -8 10 -11 10 -2 0
-4 -4 -4 -10z"/>
<path d="M3600 1115 c0 -15 34 -55 46 -55 20 0 17 37 -3 44 -10 3 -24 9 -30
12 -7 3 -13 3 -13 -1z"/>
<path d="M3695 1098 c9 -28 32 -54 41 -45 3 3 0 20 -7 36 -16 37 -44 43 -34 9z"/>
<path d="M3360 1091 c0 -16 30 -35 41 -24 6 6 1 13 -16 21 -14 6 -25 8 -25 3z"/>
<path d="M3849 1089 c-12 -8 -12 -10 1 -19 17 -11 32 -8 37 7 5 15 -21 23 -38
12z"/>
<path d="M3550 1080 c0 -5 11 -10 25 -10 14 0 25 5 25 10 0 6 -11 10 -25 10
-14 0 -25 -4 -25 -10z"/>
<path d="M4052 1078 c6 -18 28 -21 28 -4 0 9 -7 16 -16 16 -9 0 -14 -5 -12
-12z"/>
<path d="M4196 1045 c-18 -13 -18 -15 -2 -21 21 -8 44 12 31 25 -6 6 -17 4
-29 -4z"/>
<path d="M4253 1019 c14 -8 22 -8 30 0 8 8 3 11 -18 11 -26 -1 -28 -2 -12 -11z"/>
<path d="M3560 960 c0 -5 12 -10 26 -10 14 0 23 4 19 10 -3 6 -15 10 -26 10
-10 0 -19 -4 -19 -10z"/>
<path d="M4240 966 c0 -2 7 -6 15 -10 8 -3 15 -1 15 4 0 6 -7 10 -15 10 -8 0
-15 -2 -15 -4z"/>
<path d="M4400 951 c0 -6 5 -13 10 -16 6 -3 10 1 10 9 0 9 -4 16 -10 16 -5 0
-10 -4 -10 -9z"/>
<path d="M4321 934 c0 -11 3 -14 6 -6 3 7 2 16 -1 19 -3 4 -6 -2 -5 -13z"/>
<path d="M4370 890 c0 -5 5 -10 10 -10 6 0 10 5 10 10 0 6 -4 10 -10 10 -5 0
-10 -4 -10 -10z"/>
<path d="M4400 860 c0 -14 -7 -20 -22 -20 -34 0 -12 -12 27 -16 29 -2 34 0 25
11 -6 7 -8 20 -4 29 4 11 1 16 -10 16 -9 0 -16 -8 -16 -20z"/>
<path d="M4349 784 c-11 -14 -10 -15 11 -12 13 1 25 9 28 16 5 17 -23 15 -39
-4z"/>
</g>
</svg>
