<?xml version="1.0" standalone="no"?>
<!DOCTYPE svg PUBLIC "-//W3C//DTD SVG 20010904//EN"
 "http://www.w3.org/TR/2001/REC-SVG-20010904/DTD/svg10.dtd">
<svg version="1.0" xmlns="http://www.w3.org/2000/svg"
 width="1196.000000pt" height="1200.000000pt" viewBox="0 0 1196.000000 1200.000000"
 preserveAspectRatio="xMidYMid meet">

<g transform="translate(0.000000,1200.000000) scale(0.100000,-0.100000)"
fill="#000000" stroke="none">
<path d="M2975 11050 c-3 -5 -1 -10 4 -10 6 0 11 5 11 10 0 6 -2 10 -4 10 -3
0 -8 -4 -11 -10z"/>
<path d="M3295 10999 c-4 -6 -5 -12 -2 -15 2 -3 7 2 10 11 7 17 1 20 -8 4z"/>
<path d="M2845 10980 c-3 -6 1 -7 9 -4 18 7 21 14 7 14 -6 0 -13 -4 -16 -10z"/>
<path d="M3000 10969 c0 -5 5 -7 10 -4 6 3 10 8 10 11 0 2 -4 4 -10 4 -5 0
-10 -5 -10 -11z"/>
<path d="M2940 10959 c0 -5 10 -9 22 -9 12 0 18 3 14 7 -10 11 -36 12 -36 2z"/>
<path d="M3206 10938 c3 -5 10 -6 15 -3 13 9 11 12 -6 12 -8 0 -12 -4 -9 -9z"/>
<path d="M2785 10930 c-3 -5 1 -10 10 -10 9 0 13 5 10 10 -3 6 -8 10 -10 10
-2 0 -7 -4 -10 -10z"/>
<path d="M3505 10920 c3 -5 8 -10 11 -10 2 0 4 5 4 10 0 6 -5 10 -11 10 -5 0
-7 -4 -4 -10z"/>
<path d="M2792 10898 c3 -7 11 -13 19 -13 8 -1 13 -7 11 -14 -1 -7 2 -10 8 -6
13 8 5 22 -22 36 -16 9 -19 8 -16 -3z"/>
<path d="M2867 10903 c-3 -5 -1 -17 3 -27 6 -17 7 -18 13 -3 3 9 2 17 -4 17
-6 0 -7 5 -4 10 3 6 4 10 1 10 -3 0 -7 -3 -9 -7z"/>
<path d="M2895 10900 c4 -6 11 -8 16 -5 14 9 11 15 -7 15 -8 0 -12 -5 -9 -10z"/>
<path d="M3085 10890 c3 -5 8 -10 11 -10 2 0 4 5 4 10 0 6 -5 10 -11 10 -5 0
-7 -4 -4 -10z"/>
<path d="M3176 10887 c3 -10 9 -15 12 -12 3 3 0 11 -7 18 -10 9 -11 8 -5 -6z"/>
<path d="M2760 10880 c0 -5 5 -10 10 -10 6 0 10 5 10 10 0 6 -4 10 -10 10 -5
0 -10 -4 -10 -10z"/>
<path d="M2900 10870 c0 -5 5 -10 11 -10 5 0 7 5 4 10 -3 6 -8 10 -11 10 -2 0
-4 -4 -4 -10z"/>
<path d="M2731 10848 c-1 -11 -11 -18 -33 -20 -28 -3 -30 -4 -11 -9 26 -8 58
12 50 32 -4 11 -6 10 -6 -3z"/>
<path d="M2854 10839 c-3 -6 2 -18 12 -27 17 -16 17 -16 3 2 -13 18 -12 19 5
13 16 -6 17 -5 6 8 -15 18 -17 18 -26 4z"/>
<path d="M2997 10821 c3 -12 9 -21 14 -21 14 0 11 16 -5 29 -12 10 -13 8 -9
-8z"/>
<path d="M2751 10821 c-1 -8 -8 -19 -18 -26 -10 -7 -13 -17 -8 -25 6 -9 11 -6
21 11 11 21 13 22 19 7 4 -10 4 -25 1 -34 -3 -8 -2 -12 4 -9 6 3 10 1 10 -4 0
-6 5 -11 11 -11 7 0 8 7 3 18 -4 9 -7 31 -6 47 0 25 -1 27 -8 10 -8 -19 -8
-19 -18 5 -6 14 -11 19 -11 11z"/>
<path d="M3380 10815 c0 -8 4 -15 10 -15 5 0 7 7 4 15 -4 8 -8 15 -10 15 -2 0
-4 -7 -4 -15z"/>
<path d="M3239 10811 c8 -5 9 -10 2 -12 -6 -2 -8 -14 -4 -27 5 -20 10 -22 37
-16 27 6 29 5 17 -10 -7 -8 -17 -13 -22 -10 -5 3 -9 0 -9 -5 0 -6 6 -11 14
-11 8 0 16 -6 19 -12 2 -7 8 -9 13 -5 5 4 2 12 -6 17 -13 9 -8 14 11 12 4 -1
6 10 5 23 -1 18 -7 25 -21 25 -12 0 -26 -5 -31 -10 -7 -7 -11 -6 -11 4 0 8 5
12 10 9 6 -4 8 1 4 11 -4 10 -7 20 -7 22 0 2 -8 4 -17 4 -14 0 -15 -2 -4 -9z"/>
<path d="M3276 10811 c-4 -5 -2 -12 3 -15 5 -4 12 -2 15 3 4 5 2 12 -3 15 -5
4 -12 2 -15 -3z"/>
<path d="M3316 10805 c-3 -8 -1 -15 4 -15 6 0 10 7 10 15 0 8 -2 15 -4 15 -2
0 -6 -7 -10 -15z"/>
<path d="M3340 10800 c0 -12 7 -20 18 -20 14 0 15 2 2 10 -10 6 -11 10 -2 10
6 0 12 5 12 10 0 6 -7 10 -15 10 -8 0 -15 -9 -15 -20z"/>
<path d="M3475 10810 c3 -5 8 -10 11 -10 2 0 4 5 4 10 0 6 -5 10 -11 10 -5 0
-7 -4 -4 -10z"/>
<path d="M2844 10787 c1 -13 9 -23 19 -25 16 -3 17 -1 8 17 -16 30 -28 34 -27
8z"/>
<path d="M2630 10785 c0 -5 5 -17 10 -25 5 -8 10 -10 10 -5 0 6 -5 17 -10 25
-5 8 -10 11 -10 5z"/>
<path d="M3470 10781 c0 -6 -7 -8 -15 -5 -9 4 -15 0 -15 -10 0 -19 9 -20 33
-2 12 9 14 16 8 21 -6 3 -11 2 -11 -4z"/>
<path d="M3510 10778 c0 -9 -6 -18 -12 -21 -7 -2 -11 -7 -8 -10 3 -3 13 0 22
7 11 8 14 17 7 27 -7 12 -9 11 -9 -3z"/>
<path d="M2665 10744 c2 -46 11 -53 13 -9 1 19 -2 36 -6 39 -4 2 -7 -11 -7
-30z"/>
<path d="M2970 10763 c5 -2 8 -9 4 -14 -3 -5 0 -9 6 -9 15 0 7 23 -8 26 -7 1
-8 0 -2 -3z"/>
<path d="M3161 10761 c-1 -7 -7 -11 -16 -8 -24 10 -24 -6 -1 -36 l23 -28 -4
33 -4 33 18 -27 c19 -29 39 -38 30 -14 -4 11 -1 13 10 9 11 -4 14 -3 9 6 -4 6
-16 9 -27 6 -15 -5 -17 -3 -12 11 4 11 3 15 -4 11 -6 -4 -14 -1 -16 5 -4 10
-6 10 -6 -1z"/>
<path d="M3205 10760 c3 -5 11 -10 16 -10 6 0 7 5 4 10 -3 6 -11 10 -16 10 -6
0 -7 -4 -4 -10z"/>
<path d="M3340 10763 c8 -3 20 -10 27 -15 7 -6 14 -5 19 3 4 8 3 9 -4 5 -7 -4
-12 -2 -12 3 0 6 -10 11 -22 10 -15 0 -18 -2 -8 -6z"/>
<path d="M2615 10750 c3 -5 8 -10 11 -10 2 0 4 5 4 10 0 6 -5 10 -11 10 -5 0
-7 -4 -4 -10z"/>
<path d="M2937 10743 c5 -12 3 -14 -8 -8 -12 8 -12 6 0 -8 7 -9 17 -15 21 -12
10 6 1 45 -11 45 -5 0 -5 -7 -2 -17z"/>
<path d="M2691 10744 c1 -21 16 -47 21 -38 4 5 0 18 -8 29 -8 10 -14 15 -13 9z"/>
<path d="M3452 10741 c-11 -6 -10 -10 4 -15 9 -3 19 -4 22 -1 3 3 -1 5 -9 5
-11 0 -11 2 1 10 8 5 11 10 5 10 -5 0 -16 -4 -23 -9z"/>
<path d="M2853 10711 c2 -22 6 -27 17 -21 8 4 22 5 30 3 13 -4 13 -3 0 6 -8 5
-18 7 -22 5 -4 -3 -8 2 -8 10 0 8 -4 17 -10 21 -5 3 -8 -7 -7 -24z"/>
<path d="M2888 10733 c7 -3 16 -2 19 1 4 3 -2 6 -13 5 -11 0 -14 -3 -6 -6z"/>
<path d="M3015 10730 c-3 -5 -1 -10 4 -10 6 0 11 5 11 10 0 6 -2 10 -4 10 -3
0 -8 -4 -11 -10z"/>
<path d="M3100 10720 c0 -5 8 -14 18 -19 14 -9 14 -10 2 -11 -9 0 -21 5 -27
11 -8 8 -13 7 -18 -2 -5 -8 -4 -10 4 -5 6 4 14 1 17 -7 3 -9 14 -12 31 -9 l26
5 -21 17 c-12 10 -18 20 -15 24 4 3 1 6 -5 6 -7 0 -12 -4 -12 -10z"/>
<path d="M3365 10720 c3 -5 -1 -10 -9 -10 -9 0 -16 -7 -16 -16 0 -13 3 -14 13
-5 8 6 17 8 20 4 4 -3 7 3 7 15 0 12 -5 22 -11 22 -5 0 -7 -4 -4 -10z"/>
<path d="M2525 10700 c3 -5 8 -10 11 -10 2 0 4 5 4 10 0 6 -5 10 -11 10 -5 0
-7 -4 -4 -10z"/>
<path d="M2922 10690 c0 -14 2 -19 5 -12 2 6 2 18 0 25 -3 6 -5 1 -5 -13z"/>
<path d="M3028 10703 c6 -2 12 -9 12 -14 0 -6 -4 -8 -9 -5 -11 7 -8 -21 4 -31
4 -4 5 -3 2 4 -4 6 -2 13 5 15 15 5 3 38 -14 37 -10 0 -10 -2 0 -6z"/>
<path d="M3626 10698 c3 -5 10 -6 15 -3 13 9 11 12 -6 12 -8 0 -12 -4 -9 -9z"/>
<path d="M3500 10684 c0 -8 5 -12 10 -9 6 4 8 11 5 16 -9 14 -15 11 -15 -7z"/>
<path d="M2660 10680 c-8 -5 -11 -12 -7 -16 4 -4 13 -2 19 4 15 15 7 24 -12
12z"/>
<path d="M3220 10676 c0 -8 4 -17 9 -20 5 -4 7 3 4 14 -6 23 -13 26 -13 6z"/>
<path d="M3300 10680 c-9 -6 -10 -10 -3 -10 6 0 15 5 18 10 8 12 4 12 -15 0z"/>
<path d="M3610 10681 c0 -6 4 -13 10 -16 6 -3 7 1 4 9 -7 18 -14 21 -14 7z"/>
<path d="M2586 10664 c-3 -8 -11 -12 -17 -8 -8 4 -9 3 -5 -4 9 -15 36 -4 36
14 0 19 -6 18 -14 -2z"/>
<path d="M2970 10671 c0 -10 30 -24 37 -17 3 2 -5 9 -16 16 -12 6 -21 7 -21 1z"/>
<path d="M3138 10663 c6 -2 18 -2 25 0 6 3 1 5 -13 5 -14 0 -19 -2 -12 -5z"/>
<path d="M2627 10640 c3 -11 9 -20 14 -20 5 0 9 9 9 20 0 11 -6 20 -14 20 -9
0 -12 -7 -9 -20z"/>
<path d="M2853 10646 c5 -16 24 -18 30 -4 3 9 -3 14 -14 14 -11 0 -18 -5 -16
-10z"/>
<path d="M2660 10644 c0 -2 9 -8 20 -14 15 -8 18 -8 14 3 -4 11 -34 21 -34 11z"/>
<path d="M2710 10634 c0 -23 39 -74 56 -74 23 0 16 20 -11 30 -22 8 -30 26
-26 53 0 4 -3 7 -9 7 -5 0 -10 -7 -10 -16z"/>
<path d="M2967 10630 c3 -11 8 -20 12 -20 4 0 7 9 8 20 1 11 -4 20 -12 20 -8
0 -11 -7 -8 -20z"/>
<path d="M3270 10638 c0 -11 12 -10 30 2 12 7 10 9 -8 7 -12 0 -22 -5 -22 -9z"/>
<path d="M3605 10640 c3 -5 8 -10 11 -10 2 0 4 5 4 10 0 6 -5 10 -11 10 -5 0
-7 -4 -4 -10z"/>
<path d="M2480 10631 c0 -5 7 -11 15 -15 9 -3 15 0 15 9 0 8 -7 15 -15 15 -8
0 -15 -4 -15 -9z"/>
<path d="M2774 10624 c3 -8 6 -20 6 -25 0 -6 5 -7 10 -4 15 10 12 32 -6 39
-12 5 -15 2 -10 -10z"/>
<path d="M3151 10631 c-8 -6 -9 -11 -3 -15 6 -3 14 -1 17 5 9 14 2 20 -14 10z"/>
<path d="M2528 10623 c7 -3 16 -2 19 1 4 3 -2 6 -13 5 -11 0 -14 -3 -6 -6z"/>
<path d="M2570 10615 c0 -8 5 -15 10 -15 6 0 10 7 10 15 0 8 -4 15 -10 15 -5
0 -10 -7 -10 -15z"/>
<path d="M2647 10614 c-9 -10 12 -46 24 -39 5 4 9 1 9 -6 0 -7 3 -9 7 -5 10
10 13 37 3 31 -4 -3 -10 2 -14 10 -6 16 -18 19 -29 9z"/>
<path d="M2809 10593 c-17 -20 -18 -23 -3 -10 26 21 34 22 34 1 0 -14 5 -13
37 6 22 13 32 16 24 6 -10 -12 -8 -18 14 -32 18 -12 23 -20 16 -27 -16 -16
-13 -23 9 -24 11 -1 20 3 20 8 0 6 -5 7 -12 3 -8 -5 -9 -2 -5 9 4 10 -1 22
-11 29 -10 7 -18 22 -18 33 1 14 -5 19 -19 17 -11 -2 -21 -8 -23 -12 -2 -5
-10 -6 -18 -3 -7 3 -11 9 -8 14 12 20 -14 7 -37 -18z"/>
<path d="M2943 10612 c-10 -6 -10 -12 3 -28 8 -10 13 -14 10 -7 -4 6 0 14 6
16 10 4 10 6 0 6 -7 1 -10 6 -7 11 7 12 4 12 -12 2z"/>
<path d="M3013 10611 c10 -4 18 -10 18 -14 -2 -14 14 -11 17 3 2 11 -6 16 -25
17 -21 1 -23 0 -10 -6z"/>
<path d="M3110 10600 c0 -5 5 -10 10 -10 6 0 10 5 10 10 0 6 -4 10 -10 10 -5
0 -10 -4 -10 -10z"/>
<path d="M2511 10584 c0 -11 3 -14 6 -6 3 7 2 16 -1 19 -3 4 -6 -2 -5 -13z"/>
<path d="M2530 10590 c0 -5 4 -10 9 -10 6 0 13 5 16 10 3 6 -1 10 -9 10 -9 0
-16 -4 -16 -10z"/>
<path d="M2620 10586 c0 -9 5 -16 10 -16 6 0 10 4 10 9 0 6 -4 13 -10 16 -5 3
-10 -1 -10 -9z"/>
<path d="M3420 10585 c0 -8 2 -15 4 -15 2 0 6 7 10 15 3 8 1 15 -4 15 -6 0
-10 -7 -10 -15z"/>
<path d="M3575 10590 c3 -5 8 -10 11 -10 2 0 4 5 4 10 0 6 -5 10 -11 10 -5 0
-7 -4 -4 -10z"/>
<path d="M2575 10580 c3 -5 8 -10 11 -10 2 0 4 5 4 10 0 6 -5 10 -11 10 -5 0
-7 -4 -4 -10z"/>
<path d="M2975 10570 c3 -5 8 -10 11 -10 2 0 4 5 4 10 0 6 -5 10 -11 10 -5 0
-7 -4 -4 -10z"/>
<path d="M3045 10569 c-19 -9 -19 -9 2 -5 12 2 24 -1 26 -8 2 -6 7 -8 11 -5
13 12 -19 27 -39 18z"/>
<path d="M3096 10568 c3 -4 12 -8 20 -8 8 0 14 4 14 8 0 4 -9 8 -19 8 -11 0
-17 -4 -15 -8z"/>
<path d="M3152 10558 c-18 -11 -32 -25 -32 -31 0 -7 5 -5 10 3 8 12 12 13 19
2 7 -11 9 -10 15 3 3 9 11 13 17 9 7 -4 9 -3 5 4 -3 5 -1 12 6 14 7 3 8 7 2
10 -5 4 -24 -3 -42 -14z"/>
<path d="M3257 10569 c7 -7 15 -10 18 -7 3 3 -2 9 -12 12 -14 6 -15 5 -6 -5z"/>
<path d="M3545 10571 c-3 -5 -2 -12 3 -15 5 -3 9 1 9 9 0 17 -3 19 -12 6z"/>
<path d="M2525 10550 c-16 -18 -21 -65 -6 -56 5 3 7 16 4 29 -4 18 -3 20 7 7
10 -13 11 -13 6 2 -3 10 -1 20 4 23 6 4 10 1 10 -5 0 -6 5 -8 10 -5 15 9 12
22 -5 22 -8 0 -22 -8 -30 -17z"/>
<path d="M2700 10555 c-18 -21 -2 -35 33 -28 29 6 39 26 10 21 -10 -2 -17 3
-15 10 3 17 -13 15 -28 -3z m20 -15 c0 -5 -5 -10 -11 -10 -5 0 -7 5 -4 10 3 6
8 10 11 10 2 0 4 -4 4 -10z"/>
<path d="M2846 10548 c-11 -15 -15 -17 -12 -6 3 12 1 15 -10 11 -11 -4 -12 -9
-3 -19 18 -22 36 -17 41 11 6 31 5 31 -16 3z"/>
<path d="M3220 10553 c14 -22 30 -22 30 -1 0 6 -3 8 -7 5 -3 -4 -13 -1 -21 6
-13 11 -14 9 -2 -10z"/>
<path d="M2875 10550 c-3 -5 -1 -10 5 -10 7 0 8 -6 0 -19 -14 -28 -13 -35 4
-18 8 8 14 24 13 36 -1 22 -12 28 -22 11z"/>
<path d="M2375 10540 c-3 -5 -1 -10 4 -10 6 0 11 5 11 10 0 6 -2 10 -4 10 -3
0 -8 -4 -11 -10z"/>
<path d="M2583 10535 c0 -21 20 -25 42 -8 12 9 14 13 5 10 -8 -2 -22 -1 -31 4
-11 5 -16 3 -16 -6z"/>
<path d="M2663 10538 c4 -10 2 -18 -4 -18 -6 0 -8 -7 -5 -16 4 -10 -1 -22 -11
-31 -10 -8 -12 -12 -5 -8 7 4 12 0 12 -9 0 -21 -5 -20 -30 6 -11 12 -22 19
-25 16 -6 -6 25 -41 56 -65 13 -11 15 -9 11 16 -2 16 1 46 8 66 10 29 10 39 0
48 -10 9 -12 8 -7 -5z"/>
<path d="M2775 10540 c-3 -6 0 -10 7 -10 10 0 9 -3 -2 -11 -12 -8 -10 -9 9 -4
16 5 21 4 17 -4 -4 -6 -3 -11 3 -11 6 0 8 -7 5 -15 -4 -8 -10 -13 -14 -10 -11
7 -35 -24 -25 -33 4 -4 10 -1 12 6 3 6 9 10 14 6 5 -3 14 7 21 21 10 23 9 29
-15 50 -15 14 -29 21 -32 15z"/>
<path d="M3200 10535 c0 -8 4 -15 10 -15 5 0 7 7 4 15 -4 8 -8 15 -10 15 -2 0
-4 -7 -4 -15z"/>
<path d="M3085 10529 c-6 -8 -4 -10 4 -4 9 5 12 0 9 -16 -2 -16 -9 -23 -20
-21 -10 2 -18 -2 -18 -8 0 -5 14 -10 30 -10 28 0 30 2 24 28 -8 35 -20 47 -29
31z"/>
<path d="M3355 10529 c-4 -6 -5 -12 -2 -15 2 -3 7 2 10 11 7 17 1 20 -8 4z"/>
<path d="M3460 10529 c0 -5 5 -7 10 -4 6 3 10 8 10 11 0 2 -4 4 -10 4 -5 0
-10 -5 -10 -11z"/>
<path d="M3658 10523 c-16 -8 -28 -19 -27 -26 0 -9 2 -9 6 1 2 6 11 12 20 12
8 0 21 7 29 15 19 18 8 18 -28 -2z"/>
<path d="M2562 10505 c0 -16 2 -22 5 -12 2 9 2 23 0 30 -3 6 -5 -1 -5 -18z"/>
<path d="M2630 10511 c0 -6 4 -13 10 -16 6 -3 7 1 4 9 -7 18 -14 21 -14 7z"/>
<path d="M2726 10511 c-4 -7 -5 -15 -2 -18 9 -9 19 4 14 18 -4 11 -6 11 -12 0z"/>
<path d="M3265 10510 c-4 -6 -11 -8 -16 -5 -5 3 -6 -1 -2 -11 5 -15 7 -15 15
0 5 9 14 13 20 10 7 -4 8 -2 4 4 -9 15 -13 15 -21 2z"/>
<path d="M2388 10491 c4 -11 7 -12 10 -2 3 9 7 8 16 -4 10 -15 12 -14 12 4 0
15 -6 20 -22 19 -15 -2 -20 -7 -16 -17z"/>
<path d="M2687 10491 c-3 -13 -1 -18 9 -14 7 2 10 11 7 19 -7 19 -10 18 -16
-5z"/>
<path d="M2757 10489 c4 -13 8 -18 11 -10 2 7 -1 18 -6 23 -8 8 -9 4 -5 -13z"/>
<path d="M3191 10496 c-6 -7 -8 -15 -5 -18 7 -8 44 2 44 12 0 15 -28 19 -39 6z"/>
<path d="M2281 10484 c0 -11 3 -14 6 -6 3 7 2 16 -1 19 -3 4 -6 -2 -5 -13z"/>
<path d="M2445 10490 c-3 -5 -1 -10 4 -10 6 0 11 5 11 10 0 6 -2 10 -4 10 -3
0 -8 -4 -11 -10z"/>
<path d="M3357 10493 c-4 -3 -7 -11 -7 -17 0 -6 5 -5 12 2 6 6 9 14 7 17 -3 3
-9 2 -12 -2z"/>
<path d="M3395 10490 c-3 -6 1 -7 9 -4 18 7 21 14 7 14 -6 0 -13 -4 -16 -10z"/>
<path d="M2961 10473 c-6 -10 -11 -13 -11 -5 0 7 -5 10 -10 7 -13 -8 -3 -25
13 -25 24 0 43 18 30 31 -8 8 -14 6 -22 -8z"/>
<path d="M3020 10480 c-25 -6 -25 -6 -3 -12 13 -3 26 -2 29 4 9 14 2 16 -26 8z"/>
<path d="M3145 10480 c3 -5 8 -10 11 -10 2 0 4 5 4 10 0 6 -5 10 -11 10 -5 0
-7 -4 -4 -10z"/>
<path d="M3270 10480 c0 -5 5 -10 10 -10 6 0 10 5 10 10 0 6 -4 10 -10 10 -5
0 -10 -4 -10 -10z"/>
<path d="M3560 10479 c0 -5 5 -7 10 -4 6 3 10 8 10 11 0 2 -4 4 -10 4 -5 0
-10 -5 -10 -11z"/>
<path d="M2837 10467 c-3 -8 1 -14 8 -14 7 0 11 6 8 14 -3 7 -6 13 -8 13 -2 0
-5 -6 -8 -13z"/>
<path d="M3830 10469 c0 -5 5 -7 10 -4 6 3 10 8 10 11 0 2 -4 4 -10 4 -5 0
-10 -5 -10 -11z"/>
<path d="M3490 10461 c0 -5 5 -13 10 -16 6 -3 10 -2 10 4 0 5 -4 13 -10 16 -5
3 -10 2 -10 -4z"/>
<path d="M2366 10445 c4 -8 11 -15 16 -15 6 0 5 6 -2 15 -7 8 -14 15 -16 15
-2 0 -1 -7 2 -15z"/>
<path d="M2670 10445 c0 -8 5 -15 10 -15 6 0 10 7 10 15 0 8 -4 15 -10 15 -5
0 -10 -7 -10 -15z"/>
<path d="M2870 10456 c0 -9 30 -14 35 -6 4 6 -3 10 -14 10 -12 0 -21 -2 -21
-4z"/>
<path d="M3146 10445 c-3 -9 -11 -13 -17 -9 -8 4 -9 3 -5 -5 4 -6 2 -20 -4
-29 -7 -9 1 -2 18 16 17 20 32 29 35 23 4 -7 5 -7 3 1 -4 19 -23 21 -30 3z"/>
<path d="M3241 10444 c0 -11 3 -14 6 -6 3 7 2 16 -1 19 -3 4 -6 -2 -5 -13z"/>
<path d="M3306 10445 c4 -8 16 -14 28 -14 16 1 17 2 4 6 -10 2 -18 9 -18 14 0
5 -4 9 -10 9 -5 0 -7 -7 -4 -15z"/>
<path d="M2275 10440 c-3 -5 -1 -10 4 -10 6 0 11 5 11 10 0 6 -2 10 -4 10 -3
0 -8 -4 -11 -10z"/>
<path d="M3387 10434 c6 -15 23 -19 23 -5 0 5 -7 11 -14 14 -10 4 -13 1 -9 -9z"/>
<path d="M2562 10420 c0 -14 2 -19 5 -12 2 6 2 18 0 25 -3 6 -5 1 -5 -13z"/>
<path d="M3275 10430 c-3 -5 -2 -10 4 -10 5 0 13 5 16 10 3 6 2 10 -4 10 -5 0
-13 -4 -16 -10z"/>
<path d="M2305 10420 c3 -5 8 -10 11 -10 2 0 4 5 4 10 0 6 -5 10 -11 10 -5 0
-7 -4 -4 -10z"/>
<path d="M2713 10404 c-13 -28 -6 -31 14 -6 8 9 12 11 8 5 -7 -15 4 -17 25 -3
17 10 11 19 -16 24 -13 3 -23 -4 -31 -20z"/>
<path d="M2785 10420 c4 -6 11 -8 16 -5 14 9 11 15 -7 15 -8 0 -12 -5 -9 -10z"/>
<path d="M2885 10419 c-4 -6 -5 -12 -2 -15 2 -3 7 2 10 11 7 17 1 20 -8 4z"/>
<path d="M3420 10412 c-7 -7 -19 -11 -29 -7 -12 5 -13 4 -4 -6 10 -10 9 -15
-5 -25 -24 -19 -50 -17 -56 4 -2 9 -4 4 -3 -13 2 -27 -1 -30 -28 -28 -25 2
-27 0 -12 -8 10 -6 26 -8 35 -4 9 3 17 5 17 3 1 -2 19 12 42 30 22 17 44 32
48 32 4 0 18 9 31 19 l24 19 -24 -2 c-13 0 -29 -7 -36 -14z"/>
<path d="M2251 10395 c-1 -25 3 -31 20 -31 19 0 19 1 2 14 -10 7 -17 15 -15
18 2 2 1 10 -1 17 -3 6 -6 -2 -6 -18z"/>
<path d="M2370 10411 c0 -10 19 -25 25 -20 1 2 -3 10 -11 17 -8 7 -14 8 -14 3z"/>
<path d="M2681 10404 c0 -11 3 -14 6 -6 3 7 2 16 -1 19 -3 4 -6 -2 -5 -13z"/>
<path d="M3317 10409 c7 -7 15 -10 18 -7 3 3 -2 9 -12 12 -14 6 -15 5 -6 -5z"/>
<path d="M3350 10410 c0 -5 5 -10 10 -10 6 0 10 5 10 10 0 6 -4 10 -10 10 -5
0 -10 -4 -10 -10z"/>
<path d="M2286 10395 c4 -8 10 -12 15 -9 11 6 2 24 -11 24 -5 0 -7 -7 -4 -15z"/>
<path d="M2485 10400 c3 -5 10 -10 16 -10 5 0 9 5 9 10 0 6 -7 10 -16 10 -8 0
-12 -4 -9 -10z"/>
<path d="M2620 10405 c0 -12 24 -55 31 -55 18 0 20 23 3 41 -16 17 -34 25 -34
14z m34 -31 c3 -8 2 -12 -4 -9 -6 3 -10 10 -10 16 0 14 7 11 14 -7z"/>
<path d="M2825 10399 c4 -5 1 -16 -5 -24 -7 -8 -8 -15 -4 -15 5 0 15 9 21 19
10 16 9 20 -3 25 -9 3 -12 2 -9 -5z"/>
<path d="M2905 10400 c3 -5 1 -10 -5 -10 -6 0 -8 -5 -4 -11 4 -8 9 -7 15 2 12
19 11 29 -2 29 -5 0 -7 -4 -4 -10z"/>
<path d="M3790 10393 c0 -15 -2 -16 -10 -3 -8 13 -11 13 -19 1 -6 -10 -19 -12
-41 -7 -26 5 -30 3 -21 -7 6 -8 26 -12 51 -10 22 2 40 -2 40 -7 0 -6 -8 -10
-17 -10 -12 0 -9 -5 11 -15 34 -18 36 -18 36 -5 0 6 -8 10 -17 11 -10 0 -13 3
-6 5 7 3 9 13 6 21 -5 12 -2 15 10 10 9 -3 17 -2 17 3 0 6 -7 10 -16 10 -8 0
-12 5 -9 10 3 6 1 10 -4 10 -6 0 -11 -8 -11 -17z"/>
<path d="M3868 10403 c7 -3 16 -2 19 1 4 3 -2 6 -13 5 -11 0 -14 -3 -6 -6z"/>
<path d="M2181 10384 c0 -11 3 -14 6 -6 3 7 2 16 -1 19 -3 4 -6 -2 -5 -13z"/>
<path d="M2210 10390 c-8 -5 -12 -11 -9 -14 2 -3 11 -1 19 4 8 5 12 11 9 14
-2 3 -11 1 -19 -4z"/>
<path d="M2969 10398 c-5 -17 -4 -48 3 -48 4 0 8 11 8 25 0 20 -7 34 -11 23z"/>
<path d="M3160 10385 c7 -9 15 -13 17 -11 7 7 -7 26 -19 26 -6 0 -6 -6 2 -15z"/>
<path d="M3253 10385 c-10 -10 -9 -16 1 -24 10 -9 15 -7 19 9 6 25 -4 32 -20
15z"/>
<path d="M3290 10391 c0 -5 -3 -16 -6 -24 -3 -8 2 -17 12 -21 14 -5 15 -4 5 8
-8 10 -9 16 -1 21 13 8 13 25 0 25 -5 0 -10 -4 -10 -9z"/>
<path d="M2339 10378 c7 -10 11 -25 7 -33 -7 -19 -2 -19 13 -2 8 11 6 18 -11
33 -18 15 -20 16 -9 2z"/>
<path d="M4156 10378 c3 -5 10 -6 15 -3 13 9 11 12 -6 12 -8 0 -12 -4 -9 -9z"/>
<path d="M2385 10360 c10 -11 20 -20 23 -20 3 0 -3 9 -13 20 -10 11 -20 20
-23 20 -3 0 3 -9 13 -20z"/>
<path d="M2461 10371 c-8 -5 -9 -11 -3 -15 5 -3 12 1 16 9 6 17 6 18 -13 6z"/>
<path d="M3095 10370 c-3 -6 1 -7 9 -4 18 7 21 14 7 14 -6 0 -13 -4 -16 -10z"/>
<path d="M3430 10370 c0 -5 4 -10 9 -10 6 0 13 5 16 10 3 6 -1 10 -9 10 -9 0
-16 -4 -16 -10z"/>
<path d="M2582 10361 c-10 -6 -10 -10 3 -21 13 -11 14 -10 9 5 -6 14 -4 16 6
10 9 -5 11 -4 6 3 -8 14 -7 14 -24 3z"/>
<path d="M2761 10354 c0 -11 3 -14 6 -6 3 7 2 16 -1 19 -3 4 -6 -2 -5 -13z"/>
<path d="M2870 10359 c-13 -9 -13 -10 1 -6 9 3 23 0 30 -6 11 -10 11 -9 0 6
-7 9 -14 17 -15 17 0 0 -8 -5 -16 -11z"/>
<path d="M4240 10360 c8 -5 20 -10 25 -10 6 0 3 5 -5 10 -8 5 -19 10 -25 10
-5 0 -3 -5 5 -10z"/>
<path d="M2190 10331 c0 -11 4 -22 9 -25 4 -3 6 6 3 19 -5 30 -12 33 -12 6z"/>
<path d="M2421 10332 c-7 -14 -6 -18 8 -18 9 0 18 8 18 18 1 10 -2 18 -7 18
-5 0 -14 -8 -19 -18z"/>
<path d="M3461 10323 c-1 -18 4 -33 9 -33 12 0 12 17 0 45 -7 17 -9 15 -9 -12z"/>
<path d="M3696 10335 c-3 -8 -1 -15 4 -15 6 0 10 4 10 9 0 5 8 12 18 14 13 4
12 5 -4 6 -12 0 -24 -6 -28 -14z"/>
<path d="M2681 10324 c0 -11 3 -14 6 -6 3 7 2 16 -1 19 -3 4 -6 -2 -5 -13z"/>
<path d="M3227 10324 c3 -8 9 -14 13 -14 4 0 8 -11 8 -25 0 -13 -4 -22 -9 -19
-5 3 -9 -1 -9 -8 0 -10 -2 -10 -9 0 -6 10 -10 7 -13 -11 -4 -23 -3 -24 15 -14
11 7 31 22 45 35 14 12 29 22 34 22 5 0 6 5 3 10 -9 15 -25 12 -25 -6 0 -8 -4
-13 -10 -9 -5 3 -7 11 -5 18 3 7 -6 17 -19 23 -20 9 -23 9 -19 -2z"/>
<path d="M4138 10333 c7 -3 16 -2 19 1 4 3 -2 6 -13 5 -11 0 -14 -3 -6 -6z"/>
<path d="M5643 10317 c-13 -13 -23 -27 -23 -32 0 -5 5 -4 12 3 18 18 23 15 38
-23 15 -38 34 -43 65 -19 14 11 16 18 8 21 -7 3 -13 13 -13 23 0 16 -39 51
-57 49 -4 0 -18 -10 -30 -22z"/>
<path d="M2290 10320 c0 -5 6 -9 13 -7 6 1 11 -4 9 -11 -1 -8 2 -11 8 -7 8 5
7 11 -1 21 -13 16 -29 18 -29 4z"/>
<path d="M2502 10312 c10 -12 10 -14 1 -8 -8 4 -13 1 -13 -8 0 -20 14 -20 30
-1 14 17 8 28 -16 31 -13 2 -13 0 -2 -14z"/>
<path d="M2857 10309 c4 -13 8 -18 11 -10 2 7 -1 18 -6 23 -8 8 -9 4 -5 -13z"/>
<path d="M2935 10320 c3 -5 8 -10 11 -10 2 0 4 5 4 10 0 6 -5 10 -11 10 -5 0
-7 -4 -4 -10z"/>
<path d="M3734 10315 c11 -8 14 -15 8 -15 -7 0 -12 -7 -12 -15 0 -8 6 -15 13
-15 8 0 7 -4 -3 -10 -12 -8 -10 -9 8 -7 32 5 51 25 33 36 -11 7 -11 9 0 14 11
4 11 6 1 6 -7 1 -10 6 -7 11 4 6 -7 10 -27 10 -31 -1 -32 -1 -14 -15z"/>
<path d="M4292 10322 c-8 -6 1 -9 23 -9 22 0 31 3 23 9 -7 4 -17 8 -23 8 -5 0
-16 -4 -23 -8z"/>
<path d="M4376 10301 c10 -10 23 -16 27 -14 5 3 0 11 -10 19 -27 20 -39 17
-17 -5z"/>
<path d="M2180 10290 c6 -11 13 -20 16 -20 2 0 0 9 -6 20 -6 11 -13 20 -16 20
-2 0 0 -9 6 -20z"/>
<path d="M2787 10299 c7 -7 15 -10 18 -7 3 3 -2 9 -12 12 -14 6 -15 5 -6 -5z"/>
<path d="M3977 10303 c-4 -3 -7 -13 -6 -22 0 -12 3 -11 9 4 9 19 9 19 16 -2 7
-24 28 -31 39 -13 3 6 1 10 -6 10 -7 0 -20 7 -29 15 -9 8 -20 12 -23 8z"/>
<path d="M2220 10289 c0 -5 5 -7 10 -4 6 3 10 8 10 11 0 2 -4 4 -10 4 -5 0
-10 -5 -10 -11z"/>
<path d="M2666 10291 c-3 -5 0 -14 7 -19 10 -8 13 -6 14 9 2 19 -11 26 -21 10z"/>
<path d="M2090 10279 c0 -5 5 -7 10 -4 6 3 10 8 10 11 0 2 -4 4 -10 4 -5 0
-10 -5 -10 -11z"/>
<path d="M2247 10260 c5 -19 3 -22 -10 -17 -24 9 -11 -15 21 -38 15 -10 22
-13 16 -5 -6 8 -11 26 -12 39 0 13 -5 28 -11 34 -7 7 -8 2 -4 -13z"/>
<path d="M2313 10265 c0 -8 4 -15 9 -15 4 0 8 4 8 9 0 6 -4 12 -8 15 -5 3 -9
-1 -9 -9z"/>
<path d="M2427 10273 c-4 -3 -7 -11 -7 -17 0 -6 5 -4 10 4 7 11 10 11 10 2 0
-7 5 -10 10 -7 6 4 8 11 5 16 -7 11 -19 12 -28 2z"/>
<path d="M2630 10275 c0 -2 10 -10 23 -16 20 -11 21 -11 8 4 -13 16 -31 23
-31 12z"/>
<path d="M3677 10271 c-10 -4 -19 -11 -19 -16 0 -6 -4 -9 -10 -7 -5 1 -6 -2
-3 -8 5 -8 13 -6 24 4 10 9 23 16 29 16 7 0 12 5 12 10 0 11 -7 12 -33 1z"/>
<path d="M4046 10264 c-9 -22 3 -32 14 -14 12 19 12 30 1 30 -5 0 -12 -7 -15
-16z"/>
<path d="M2102 10254 c-9 -7 -14 -16 -9 -20 4 -4 7 -2 7 6 0 9 3 10 13 2 9 -8
16 -6 24 7 9 14 8 18 -3 18 -8 0 -22 -6 -32 -13z"/>
<path d="M2165 10260 c3 -5 8 -10 11 -10 2 0 4 5 4 10 0 6 -5 10 -11 10 -5 0
-7 -4 -4 -10z"/>
<path d="M2280 10259 c0 -9 3 -19 8 -23 4 -4 7 -13 7 -19 0 -7 9 -13 20 -16
19 -3 19 -2 4 15 -9 11 -21 28 -27 39 -9 15 -11 16 -12 4z"/>
<path d="M2340 10265 c0 -5 4 -17 10 -25 6 -9 5 -17 -3 -22 -8 -5 -3 -8 11 -8
19 0 21 3 13 18 -20 33 -31 47 -31 37z"/>
<path d="M2389 10270 c0 -3 -2 -13 -4 -22 -2 -10 1 -20 6 -24 14 -8 23 26 10
39 -6 6 -11 9 -12 7z"/>
<path d="M3876 10258 c3 -4 18 -5 35 -1 16 3 29 2 28 -3 -3 -18 1 -34 10 -34
4 0 6 11 3 25 -4 22 -9 25 -42 23 -21 -2 -36 -6 -34 -10z"/>
<path d="M3125 10250 c-3 -5 -1 -10 4 -10 6 0 11 5 11 10 0 6 -2 10 -4 10 -3
0 -8 -4 -11 -10z"/>
<path d="M3173 10243 c0 -15 19 -12 24 3 2 6 -3 11 -10 11 -8 0 -14 -6 -14
-14z"/>
<path d="M3836 10247 c3 -10 9 -15 12 -12 3 3 0 11 -7 18 -10 9 -11 8 -5 -6z"/>
<path d="M3975 10250 c-18 -7 -18 -9 9 -19 16 -7 38 -11 49 -9 16 3 14 5 -10
19 -18 11 -35 14 -48 9z"/>
<path d="M5773 10254 c7 -12 -25 -46 -39 -43 -5 2 -22 -4 -37 -11 -24 -12 -30
-12 -38 1 -5 8 -9 22 -9 32 0 9 -4 17 -10 17 -5 0 -10 -4 -10 -10 0 -5 -7 -10
-15 -10 -8 0 -15 -7 -15 -16 0 -11 6 -15 19 -11 15 3 17 0 13 -16 -3 -14 -1
-18 6 -13 7 4 12 3 12 -3 0 -5 -9 -13 -20 -16 -26 -8 -59 -40 -90 -85 l-23
-35 29 28 c17 15 33 24 37 20 12 -11 8 -23 -8 -23 -9 0 -19 -8 -22 -17 -4 -10
-17 -33 -30 -52 -22 -32 -23 -33 -24 -10 -1 17 -3 19 -6 6 -2 -9 -26 -39 -51
-65 -26 -27 -55 -59 -65 -73 -26 -34 -59 -99 -50 -99 4 0 -6 -14 -23 -32 -16
-17 -22 -28 -14 -24 8 4 7 1 -4 -8 -10 -8 -24 -26 -31 -38 -6 -13 -16 -22 -22
-21 -6 1 -19 -7 -29 -19 -11 -12 -13 -18 -5 -13 10 5 12 4 7 -3 -4 -7 -14 -12
-22 -12 -8 0 -24 -16 -35 -35 -12 -19 -25 -35 -29 -35 -7 0 -21 -37 -25 -65
-5 -30 -26 -65 -36 -59 -8 4 -8 9 -1 13 6 4 7 12 3 20 -5 8 -13 -3 -23 -34
-15 -45 -15 -45 3 -29 11 10 22 14 26 10 4 -4 3 -10 -3 -14 -6 -4 -38 -45 -72
-91 -64 -87 -68 -98 -64 -204 2 -35 1 -36 -18 -25 -20 13 -28 38 -12 38 16 0
6 43 -11 49 -15 6 -14 11 8 52 13 26 38 61 56 78 17 18 29 35 26 38 -6 5 -52
-43 -69 -72 -4 -7 -21 -27 -38 -45 -22 -23 -29 -38 -24 -53 5 -16 3 -19 -11
-13 -10 3 -24 1 -31 -5 -11 -9 -14 -7 -14 7 0 11 -12 37 -26 59 -14 22 -23 32
-20 22 4 -11 -2 -31 -13 -45 -17 -25 -17 -28 -2 -44 9 -9 30 -20 46 -24 17 -4
32 -10 35 -14 5 -6 174 -80 183 -80 3 0 30 49 60 108 85 167 286 459 423 613
25 29 42 55 38 62 -4 7 -4 9 1 5 11 -11 36 12 28 25 -3 5 -1 7 5 3 6 -3 23 5
39 19 39 34 42 37 96 73 26 18 47 38 47 43 0 6 4 8 8 5 11 -6 82 52 82 66 0 6
11 26 25 44 14 18 25 36 25 41 0 4 -5 1 -10 -7 -5 -8 -10 -10 -11 -5 -4 46
-18 65 -48 65 -8 0 -11 3 -7 8 8 7 11 8 49 12 12 1 16 4 10 7 -7 2 -13 10 -13
17 0 7 -16 28 -37 47 -20 18 -33 29 -30 23z m8 -89 c-1 -10 -5 -11 -37 -14 -9
0 -14 -7 -11 -14 7 -19 -3 -32 -43 -54 -24 -13 -40 -33 -50 -60 -16 -42 -39
-74 -79 -108 l-24 -20 11 20 c6 11 19 29 29 40 32 36 49 59 36 51 -30 -17 -9
16 47 74 33 34 57 66 54 71 -5 8 17 14 39 10 4 0 7 4 7 10 0 6 5 9 11 7 6 -2
10 -8 10 -13z m-86 -5 c8 -13 -5 -13 -25 0 -13 8 -13 10 2 10 9 0 20 -4 23
-10z m117 -37 c-6 -2 -10 -8 -8 -12 3 -4 -1 -8 -9 -8 -11 0 -12 4 -4 14 6 7
17 13 23 12 7 0 6 -2 -2 -6z m-58 -88 c-7 -16 -24 -21 -24 -6 0 8 7 13 27 20
1 1 0 -6 -3 -14z m36 -8 c0 -2 -10 -12 -22 -23 l-23 -19 19 23 c18 21 26 27
26 19z m-120 -56 c0 -14 -133 -141 -147 -141 -7 0 -13 -5 -13 -12 0 -6 -3 -9
-6 -5 -5 5 153 166 164 167 1 0 2 -4 2 -9z m-234 -110 c-1 -22 -7 -31 -23 -34
l-21 -4 21 33 c12 19 22 34 23 34 1 0 1 -13 0 -29z m32 -78 c-39 -43 -61 -81
-55 -98 4 -9 -9 -27 -33 -48 -39 -33 -74 -78 -104 -134 -8 -16 -15 -22 -16
-14 0 8 26 52 58 98 31 46 66 100 78 119 20 34 83 104 93 104 3 0 -7 -12 -21
-27z m-110 -13 c-7 -11 -16 -20 -21 -20 -4 0 -3 9 3 20 6 11 15 20 20 20 6 0
5 -9 -2 -20z m-164 -225 c-4 -8 -10 -15 -15 -15 -4 0 -6 7 -3 15 4 8 10 15 15
15 4 0 6 -7 3 -15z m-44 -118 c-14 -28 -37 -68 -52 -89 -25 -32 -58 -105 -57
-125 0 -4 -4 -9 -10 -11 -15 -5 12 80 37 115 11 15 36 61 56 102 42 82 62 90
26 8z m94 28 c-4 -8 -11 -15 -16 -15 -6 0 -5 6 2 15 7 8 14 15 16 15 2 0 1 -7
-2 -15z m-51 -70 c-3 -9 -8 -14 -10 -11 -3 3 -2 9 2 15 9 16 15 13 8 -4z m-62
-111 c-11 -15 -21 -24 -21 -20 0 10 34 55 39 51 2 -2 -6 -16 -18 -31z m-60
-97 c-10 -9 -11 -8 -5 6 3 10 9 15 12 12 3 -3 0 -11 -7 -18z m-55 -39 c-9 -13
-22 -35 -29 -50 -11 -28 -27 -38 -27 -17 0 14 19 50 38 72 22 25 37 21 18 -5z"/>
<path d="M2597 10243 c-4 -3 -7 -11 -7 -17 0 -6 5 -5 12 2 6 6 9 14 7 17 -3 3
-9 2 -12 -2z"/>
<path d="M2680 10236 c0 -9 -4 -14 -10 -11 -5 3 -10 1 -10 -4 0 -6 5 -11 10
-11 13 0 25 28 16 37 -3 4 -6 -1 -6 -11z"/>
<path d="M3690 10237 c0 -7 5 -18 10 -25 7 -9 7 -9 -2 -2 -15 12 -45 13 -52 1
-4 -5 4 -7 16 -3 17 4 20 2 15 -11 -4 -10 -2 -17 3 -17 6 0 10 5 10 11 0 5 4
8 9 5 4 -3 19 6 31 19 20 21 21 25 6 25 -9 0 -15 -4 -11 -9 3 -5 1 -12 -5 -16
-5 -3 -10 3 -10 14 0 12 -4 21 -10 21 -5 0 -10 -6 -10 -13z"/>
<path d="M3046 10222 c-3 -5 1 -9 9 -9 8 0 12 4 9 9 -3 4 -7 8 -9 8 -2 0 -6
-4 -9 -8z"/>
<path d="M3081 10227 c2 -2 13 -9 23 -17 13 -10 17 -10 12 -2 -9 14 3 16 24 2
10 -6 11 -10 3 -10 -7 0 -13 -10 -13 -21 0 -16 -5 -20 -19 -16 -14 3 -17 0
-13 -16 4 -14 1 -18 -9 -15 -8 3 -13 12 -11 22 2 9 -2 16 -8 16 -5 0 -9 -3 -9
-7 1 -5 1 -17 0 -28 -2 -19 -3 -18 -11 3 -5 12 -14 22 -19 22 -5 0 -7 -10 -4
-22 4 -18 2 -20 -6 -8 -5 8 -13 11 -17 7 -21 -20 50 -38 94 -23 13 4 21 13 19
20 -6 16 25 17 36 2 6 -7 7 -5 4 5 -7 23 37 61 52 46 6 -6 11 -8 11 -4 0 16
-54 40 -96 43 -25 1 -44 2 -43 1z"/>
<path d="M2604 10208 c-5 -8 -2 -9 9 -5 11 4 17 1 17 -7 0 -17 35 -48 44 -39
4 4 11 1 16 -7 7 -11 10 -12 10 -2 0 8 5 10 13 6 7 -4 9 -3 4 2 -5 5 -14 9
-20 9 -7 0 -11 7 -11 16 1 9 -4 16 -11 16 -7 0 -10 -8 -7 -21 5 -18 4 -18 -10
-5 -9 7 -14 16 -12 18 5 6 -16 31 -27 31 -4 0 -11 -5 -15 -12z"/>
<path d="M2796 10207 c3 -10 9 -15 12 -12 3 3 0 11 -7 18 -10 9 -11 8 -5 -6z"/>
<path d="M2135 10199 c-4 -6 -5 -12 -2 -15 2 -3 7 2 10 11 7 17 1 20 -8 4z"/>
<path d="M2710 10201 c0 -6 4 -13 10 -16 6 -3 7 1 4 9 -7 18 -14 21 -14 7z"/>
<path d="M3077 10203 c-4 -3 -7 -11 -7 -17 0 -6 5 -5 12 2 6 6 9 14 7 17 -3 3
-9 2 -12 -2z"/>
<path d="M2340 10181 c0 -10 26 -9 36 2 4 4 -2 7 -14 7 -12 0 -22 -4 -22 -9z"/>
<path d="M2596 10170 c-18 -18 -18 -19 3 -13 12 3 21 12 21 19 0 17 -1 17 -24
-6z"/>
<path d="M2279 10163 c-12 -16 -12 -17 2 -6 9 7 19 10 22 6 4 -3 7 -1 7 5 0
17 -16 15 -31 -5z"/>
<path d="M5560 10173 c0 -6 -30 -48 -66 -93 -37 -46 -61 -81 -53 -78 29 9 137
163 125 176 -3 3 -6 1 -6 -5z"/>
<path d="M2133 10146 c7 -17 5 -17 -10 -5 -10 7 -15 9 -11 5 4 -5 -2 -17 -14
-27 -17 -15 -19 -23 -11 -41 8 -19 10 -20 16 -4 4 10 3 15 -3 11 -6 -3 -10 -2
-10 4 0 6 16 18 35 27 20 9 38 22 42 28 3 6 3 8 -2 4 -4 -4 -15 -2 -23 5 -13
10 -15 9 -9 -7z"/>
<path d="M2196 10141 c-4 -7 -5 -15 -2 -18 9 -9 19 4 14 18 -4 11 -6 11 -12 0z"/>
<path d="M2454 10142 c4 -7 2 -19 -4 -27 -7 -9 -8 -15 -2 -15 16 0 24 32 11
44 -9 8 -10 8 -5 -2z"/>
<path d="M2553 10135 c0 -8 4 -12 9 -9 5 3 6 10 3 15 -9 13 -12 11 -12 -6z"/>
<path d="M2616 10135 c4 -8 8 -15 10 -15 2 0 4 7 4 15 0 8 -4 15 -10 15 -5 0
-7 -7 -4 -15z"/>
<path d="M2641 10139 c0 -8 4 -23 8 -33 7 -19 8 -19 13 2 4 12 0 26 -8 33 -11
9 -14 8 -13 -2z"/>
<path d="M5850 10134 c0 -8 5 -12 10 -9 6 4 8 11 5 16 -9 14 -15 11 -15 -7z"/>
<path d="M2589 10133 c-5 -33 -3 -61 4 -56 4 3 6 12 2 21 -3 8 -1 19 6 22 8 6
8 9 0 14 -6 4 -12 4 -12 -1z"/>
<path d="M2260 10121 c0 -5 5 -13 10 -16 6 -3 10 -2 10 4 0 5 -4 13 -10 16 -5
3 -10 2 -10 -4z"/>
<path d="M2220 10106 c0 -8 4 -17 9 -20 5 -4 7 3 4 14 -6 23 -13 26 -13 6z"/>
<path d="M2296 10107 c3 -10 9 -15 12 -12 3 3 0 11 -7 18 -10 9 -11 8 -5 -6z"/>
<path d="M3225 10105 c-16 -49 -16 -51 0 -31 8 11 15 15 15 8 0 -6 7 -9 15 -5
10 3 15 0 13 -8 -2 -8 3 -13 10 -11 6 1 12 -2 12 -8 0 -5 -4 -10 -10 -10 -5 0
-9 -10 -9 -22 1 -17 2 -19 6 -5 2 9 9 17 14 17 5 0 9 11 9 25 0 14 -5 25 -12
25 -6 0 -8 3 -5 7 11 10 -13 33 -35 33 -10 0 -21 -7 -23 -15z"/>
<path d="M2618 10103 c7 -3 16 -2 19 1 4 3 -2 6 -13 5 -11 0 -14 -3 -6 -6z"/>
<path d="M2124 10089 c-3 -6 -1 -16 5 -22 8 -8 11 -5 11 11 0 24 -5 28 -16 11z"/>
<path d="M2535 10089 c-4 -6 -4 -13 -1 -16 3 -4 6 -1 6 6 0 7 5 9 12 5 7 -4 8
-3 4 4 -9 15 -13 15 -21 1z"/>
<path d="M2994 10092 c-16 -11 -27 -75 -11 -66 8 5 7 2 -2 -9 -14 -18 -37 -24
-26 -8 3 5 0 13 -6 17 -8 5 -9 3 -4 -6 6 -10 4 -12 -8 -7 -25 9 -20 -5 8 -25
23 -18 24 -17 79 39 30 31 53 60 50 65 -6 10 -65 10 -80 0z m3 -34 c-3 -8 -6
-5 -6 6 -1 11 2 17 5 13 3 -3 4 -12 1 -19z"/>
<path d="M2265 10079 c-11 -16 -1 -19 13 -3 7 8 8 14 3 14 -5 0 -13 -5 -16
-11z"/>
<path d="M2890 10080 c0 -5 5 -10 11 -10 5 0 7 5 4 10 -3 6 -8 10 -11 10 -2 0
-4 -4 -4 -10z"/>
<path d="M2066 10067 c3 -10 9 -15 12 -12 3 3 0 11 -7 18 -10 9 -11 8 -5 -6z"/>
<path d="M2725 10071 c4 -8 2 -17 -6 -22 -9 -6 -10 -9 -2 -9 19 0 27 21 13 33
-10 9 -11 9 -5 -2z"/>
<path d="M2160 10060 c-12 -7 -10 -9 8 -7 12 0 22 5 22 9 0 11 -12 10 -30 -2z"/>
<path d="M2940 10061 c0 -6 4 -13 10 -16 6 -3 7 1 4 9 -7 18 -14 21 -14 7z"/>
<path d="M2572 10040 c0 -14 2 -19 5 -12 2 6 2 18 0 25 -3 6 -5 1 -5 -13z"/>
<path d="M3225 10050 c-4 -6 1 -7 11 -3 12 4 15 3 10 -5 -4 -7 -2 -12 3 -12 6
0 11 7 11 15 0 17 -25 20 -35 5z"/>
<path d="M2665 10040 c-3 -5 1 -10 9 -10 9 0 16 5 16 10 0 6 -4 10 -9 10 -6 0
-13 -4 -16 -10z"/>
<path d="M2811 10034 c14 -17 32 -19 27 -2 -2 6 -12 12 -22 14 -14 2 -15 0 -5
-12z"/>
<path d="M2313 10027 c0 -8 6 -14 14 -14 9 0 10 4 2 14 -6 7 -12 13 -14 13 -1
0 -2 -6 -2 -13z"/>
<path d="M2038 10013 c7 -3 16 -2 19 1 4 3 -2 6 -13 5 -11 0 -14 -3 -6 -6z"/>
<path d="M2087 9999 c4 -15 8 -17 14 -8 8 14 3 29 -11 29 -4 0 -6 -9 -3 -21z"/>
<path d="M3240 10009 c0 -5 5 -7 10 -4 6 3 10 8 10 11 0 2 -4 4 -10 4 -5 0
-10 -5 -10 -11z"/>
<path d="M2000 9999 c0 -5 5 -7 10 -4 6 3 10 8 10 11 0 2 -4 4 -10 4 -5 0 -10
-5 -10 -11z"/>
<path d="M2130 10001 c0 -5 5 -13 10 -16 6 -3 10 -2 10 4 0 5 -4 13 -10 16 -5
3 -10 2 -10 -4z"/>
<path d="M2841 9994 c0 -11 3 -14 6 -6 3 7 2 16 -1 19 -3 4 -6 -2 -5 -13z"/>
<path d="M2860 10002 c0 -6 6 -12 13 -15 9 -3 9 -7 -2 -20 -11 -14 -11 -21 3
-42 11 -16 22 -22 33 -18 13 5 15 2 10 -11 -4 -11 -3 -15 4 -11 6 4 8 13 5 20
-2 7 4 21 15 31 10 9 19 21 19 25 0 11 -60 42 -68 35 -3 -3 -11 -1 -19 5 -8 8
-13 8 -13 1z m73 -49 c-3 -7 -11 -13 -18 -13 -7 0 -18 6 -24 13 -8 11 -5 14
18 14 20 0 28 -4 24 -14z"/>
<path d="M2987 9968 c-15 -16 -24 -34 -21 -40 4 -6 2 -8 -4 -4 -6 3 -14 1 -18
-5 -4 -7 -3 -9 4 -5 6 3 13 2 17 -3 3 -5 -3 -15 -12 -21 -17 -11 -17 -11 0 -6
9 3 17 1 17 -4 0 -6 4 -10 10 -10 5 0 7 8 4 18 -5 14 -4 14 4 2 6 -8 9 -17 6
-21 -2 -4 6 -10 18 -13 13 -2 6 -4 -14 -2 -44 2 -49 -9 -13 -26 27 -12 35 -31
10 -22 -8 4 -15 1 -15 -5 0 -6 8 -11 18 -12 11 -1 9 -4 -8 -9 -17 -5 -19 -8
-7 -9 9 -1 17 -6 17 -12 0 -6 10 -9 23 -7 24 3 36 43 18 61 -7 7 -7 16 0 29 7
13 6 30 -2 56 -6 20 -13 43 -15 50 -2 6 -8 12 -14 12 -6 0 -8 -5 -4 -12 5 -7
3 -8 -5 -4 -9 6 -8 13 5 27 28 31 11 29 -19 -3z m28 -56 c-7 -8 -35 7 -35 18
0 6 7 6 20 -2 10 -7 17 -14 15 -16z"/>
<path d="M2495 9979 c-4 -6 -5 -12 -2 -15 2 -3 7 2 10 11 7 17 1 20 -8 4z"/>
<path d="M2174 9962 c3 -5 0 -13 -6 -15 -9 -4 -10 -6 -1 -6 17 -1 25 16 12 25
-7 4 -9 3 -5 -4z"/>
<path d="M2446 9961 c-3 -5 1 -11 9 -14 9 -4 12 -1 8 9 -6 16 -10 17 -17 5z"/>
<path d="M2826 9958 c5 -7 2 -9 -8 -5 -15 5 -16 2 -9 -32 1 -2 7 2 15 8 11 9
17 6 30 -14 9 -14 12 -25 6 -25 -5 0 -10 5 -10 11 0 6 -9 9 -20 6 -13 -3 -28
2 -39 14 -14 15 -18 16 -18 4 0 -8 8 -17 18 -20 9 -3 20 -13 23 -21 3 -8 2
-12 -3 -9 -5 3 -12 1 -16 -5 -11 -18 -32 -11 -39 12 -5 21 -7 22 -22 6 -25
-25 -8 -38 52 -38 58 0 59 1 44 31 -6 10 -7 19 -2 19 5 0 13 -9 18 -20 8 -18
11 -19 28 -7 18 13 17 15 -10 55 -16 23 -33 41 -37 42 -5 0 -5 -5 -1 -12z
m-84 -90 c-7 -7 -12 -8 -12 -2 0 14 12 26 19 19 2 -3 -1 -11 -7 -17z"/>
<path d="M2125 9949 c-4 -5 -4 -13 -1 -16 3 -4 6 0 6 8 0 11 2 11 10 -1 6 -9
10 -10 10 -3 0 17 -17 25 -25 12z"/>
<path d="M2350 9956 c0 -2 7 -7 16 -10 8 -3 12 -2 9 4 -6 10 -25 14 -25 6z"/>
<path d="M2060 9920 c0 -5 5 -10 11 -10 5 0 7 5 4 10 -3 6 -8 10 -11 10 -2 0
-4 -4 -4 -10z"/>
<path d="M2271 9914 c0 -11 3 -14 6 -6 3 7 2 16 -1 19 -3 4 -6 -2 -5 -13z"/>
<path d="M2094 9904 c3 -8 6 -18 6 -20 0 -3 5 -2 10 1 15 9 12 22 -6 29 -12 5
-15 2 -10 -10z"/>
<path d="M2225 9911 c-3 -5 -2 -12 3 -15 5 -3 9 1 9 9 0 17 -3 19 -12 6z"/>
<path d="M2650 9891 c0 -5 5 -13 10 -16 6 -3 10 -2 10 4 0 5 -4 13 -10 16 -5
3 -10 2 -10 -4z"/>
<path d="M3205 9890 c4 -6 11 -8 16 -5 14 9 11 15 -7 15 -8 0 -12 -5 -9 -10z"/>
<path d="M2183 9878 c3 -9 1 -19 -6 -21 -8 -3 -5 -7 6 -12 26 -11 31 1 12 27
-10 13 -15 16 -12 6z"/>
<path d="M2360 9878 c0 -4 9 -8 20 -8 11 0 20 4 20 8 0 4 -9 8 -20 8 -11 0
-20 -4 -20 -8z"/>
<path d="M2477 9883 c-10 -9 -9 -23 2 -23 5 0 11 7 15 15 5 15 -5 20 -17 8z"/>
<path d="M2770 9880 c0 -5 5 -10 11 -10 5 0 7 5 4 10 -3 6 -8 10 -11 10 -2 0
-4 -4 -4 -10z"/>
<path d="M2000 9871 c0 -10 19 -25 25 -20 1 2 -3 10 -11 17 -8 7 -14 8 -14 3z"/>
<path d="M2036 9867 c3 -10 9 -15 12 -12 3 3 0 11 -7 18 -10 9 -11 8 -5 -6z"/>
<path d="M2680 9865 c-10 -13 -9 -15 9 -15 11 0 21 4 21 9 0 18 -18 21 -30 6z"/>
<path d="M2245 9860 c3 -5 8 -10 11 -10 2 0 4 5 4 10 0 6 -5 10 -11 10 -5 0
-7 -4 -4 -10z"/>
<path d="M2530 9859 c0 -5 17 -9 37 -9 43 0 41 6 -4 13 -18 3 -33 1 -33 -4z"/>
<path d="M3060 9830 c0 -23 5 -40 11 -40 6 0 8 7 5 16 -3 8 -2 12 4 9 6 -3 10
-3 10 2 0 4 11 13 25 20 14 6 23 7 19 2 -4 -8 25 -14 49 -10 11 2 8 -14 -5
-27 -9 -9 -8 -12 4 -12 49 0 18 48 -43 67 -72 21 -79 19 -79 -27z m40 26 c0
-3 -4 -8 -10 -11 -5 -3 -10 -1 -10 4 0 6 5 11 10 11 6 0 10 -2 10 -4z"/>
<path d="M2623 9853 c9 -2 23 -2 30 0 6 3 -1 5 -18 5 -16 0 -22 -2 -12 -5z"/>
<path d="M2875 9850 c-3 -6 1 -7 9 -4 18 7 21 14 7 14 -6 0 -13 -4 -16 -10z"/>
<path d="M2423 9835 c0 -8 4 -15 9 -15 4 0 8 7 8 15 0 8 -4 15 -8 15 -5 0 -9
-7 -9 -15z"/>
<path d="M5299 9817 c-49 -66 -69 -98 -69 -112 0 -8 -4 -15 -10 -15 -5 0 -10
-4 -10 -10 0 -23 20 -8 31 24 7 19 16 33 21 30 4 -3 11 3 15 13 4 10 18 35 31
56 31 47 24 58 -9 14z"/>
<path d="M2280 9825 c0 -8 5 -15 10 -15 6 0 10 7 10 15 0 8 -4 15 -10 15 -5 0
-10 -7 -10 -15z"/>
<path d="M2510 9814 c0 -16 -4 -23 -12 -18 -7 4 -8 3 -4 -4 11 -17 39 -15 33
2 -3 8 -1 16 5 18 6 2 8 10 4 16 -12 20 -26 13 -26 -14z"/>
<path d="M2340 9820 c0 -6 7 -10 15 -10 8 0 15 2 15 4 0 2 -7 6 -15 10 -8 3
-15 1 -15 -4z"/>
<path d="M2578 9823 c7 -3 16 -2 19 1 4 3 -2 6 -13 5 -11 0 -14 -3 -6 -6z"/>
<path d="M2618 9823 c18 -7 15 -21 -8 -28 -11 -4 -18 -10 -15 -14 7 -12 55
-11 55 1 0 5 -4 6 -10 3 -16 -10 -12 7 7 27 15 17 15 18 -13 17 -16 0 -23 -3
-16 -6z"/>
<path d="M2681 9799 c-12 -27 -11 -32 4 -43 18 -13 12 -42 -6 -30 -5 3 -7 10
-4 15 4 5 1 9 -4 9 -16 0 -7 -41 12 -55 9 -7 17 -15 17 -19 0 -4 -12 2 -26 13
-32 25 -44 26 -44 5 0 -8 4 -12 10 -9 5 3 7 0 4 -8 -3 -8 3 -20 12 -28 12 -9
15 -10 10 -1 -4 7 -2 12 4 12 7 0 9 -7 6 -16 -3 -9 -6 -17 -6 -20 0 -2 -7 -1
-15 2 -8 4 -15 12 -15 19 0 11 -6 10 -30 -1 -38 -20 -43 -29 -29 -52 21 -33
55 -24 95 24 19 24 39 42 43 40 13 -8 74 61 66 74 -4 6 7 31 25 56 l31 44 -73
0 c-72 0 -73 0 -87 -31z m45 9 c4 -7 3 -8 -4 -4 -14 8 -15 -3 -3 -23 7 -11 10
-10 18 4 6 10 13 13 17 7 3 -5 -1 -12 -9 -16 -9 -3 -12 -12 -9 -23 5 -17 5
-17 -6 -1 -6 9 -17 15 -25 12 -18 -7 -18 -4 -5 30 11 29 15 31 26 14z m74 2
c0 -5 -5 -10 -11 -10 -5 0 -7 5 -4 10 3 6 8 10 11 10 2 0 4 -4 4 -10z m-46
-94 c24 9 19 -9 -9 -36 -14 -13 -25 -19 -25 -13 0 6 6 13 13 16 10 4 10 7 0
18 -10 10 -13 10 -13 0 0 -7 -4 -10 -10 -6 -5 3 -7 12 -3 21 4 10 9 12 18 4 7
-6 20 -8 29 -4z m-146 -117 c-3 -8 -7 -3 -11 10 -4 17 -3 21 5 13 5 -5 8 -16
6 -23z m32 10 c0 -5 5 -7 12 -3 7 4 8 3 4 -4 -10 -17 -33 -15 -33 3 0 8 4 15
9 15 4 0 8 -5 8 -11z"/>
<path d="M3215 9820 c3 -5 8 -10 11 -10 2 0 4 5 4 10 0 6 -5 10 -11 10 -5 0
-7 -4 -4 -10z"/>
<path d="M2110 9809 c0 -5 5 -7 10 -4 6 3 10 8 10 11 0 2 -4 4 -10 4 -5 0 -10
-5 -10 -11z"/>
<path d="M3136 9811 c-3 -5 1 -11 9 -14 9 -4 12 -1 8 9 -6 16 -10 17 -17 5z"/>
<path d="M2410 9800 c0 -5 -7 -10 -16 -10 -8 0 -12 -4 -9 -10 10 -16 23 -12
35 10 7 14 7 20 0 20 -5 0 -10 -4 -10 -10z"/>
<path d="M2240 9784 c0 -8 5 -12 10 -9 6 4 8 11 5 16 -9 14 -15 11 -15 -7z"/>
<path d="M2276 9788 c3 -4 9 -8 15 -8 5 0 9 4 9 8 0 5 -7 9 -15 9 -8 0 -12 -4
-9 -9z"/>
<path d="M2355 9790 c3 -5 8 -10 11 -10 2 0 4 5 4 10 0 6 -5 10 -11 10 -5 0
-7 -4 -4 -10z"/>
<path d="M2940 9789 c0 -5 5 -7 10 -4 6 3 10 8 10 11 0 2 -4 4 -10 4 -5 0 -10
-5 -10 -11z"/>
<path d="M2050 9776 c0 -8 -6 -16 -12 -19 -7 -2 -9 -8 -5 -13 4 -5 11 -4 15 2
4 6 12 13 19 15 8 3 7 8 -3 17 -11 10 -14 10 -14 -2z"/>
<path d="M2464 9758 c-3 -4 5 -5 17 -3 18 4 20 1 14 -22 -5 -20 -3 -24 9 -20
9 4 16 2 16 -3 0 -18 30 -10 31 8 0 10 3 12 6 5 6 -17 20 -16 26 1 3 8 -2 13
-16 13 -30 0 -58 13 -51 24 3 5 -7 8 -21 7 -15 -2 -29 -6 -31 -10z m71 -27 c3
-6 -3 -9 -14 -8 -11 0 -17 5 -15 9 7 11 22 10 29 -1z"/>
<path d="M2578 9758 c12 -6 22 -17 22 -25 0 -7 5 -13 10 -13 20 0 10 38 -12
44 -35 9 -46 6 -20 -6z"/>
<path d="M2250 9751 c0 -6 4 -13 10 -16 6 -3 7 1 4 9 -7 18 -14 21 -14 7z"/>
<path d="M2390 9750 c13 -9 13 -11 0 -19 -8 -6 -12 -12 -9 -15 3 -3 14 0 24 8
20 15 13 36 -13 36 -15 0 -15 -2 -2 -10z"/>
<path d="M2630 9750 c0 -5 5 -10 11 -10 5 0 7 5 4 10 -3 6 -8 10 -11 10 -2 0
-4 -4 -4 -10z"/>
<path d="M2797 9745 c-4 -8 -2 -17 3 -20 6 -4 10 3 10 14 0 25 -6 27 -13 6z"/>
<path d="M1906 9723 c-6 -14 -5 -15 5 -6 7 7 10 15 7 18 -3 3 -9 -2 -12 -12z"/>
<path d="M2441 9737 c2 -1 13 -9 24 -17 19 -14 19 -14 6 3 -7 9 -18 17 -24 17
-6 0 -8 -1 -6 -3z"/>
<path d="M2987 9734 c-14 -14 5 -24 25 -13 12 7 18 7 14 1 -3 -6 -3 -12 1 -15
5 -2 2 -2 -4 -1 -7 2 -13 -1 -13 -7 0 -6 -4 -7 -10 -4 -11 7 -12 -2 -2 -28 7
-16 9 -16 30 -2 14 11 22 26 22 46 0 25 -4 29 -28 29 -16 0 -32 -3 -35 -6z
m43 -48 c0 -3 -4 -8 -10 -11 -5 -3 -10 -1 -10 4 0 6 5 11 10 11 6 0 10 -2 10
-4z"/>
<path d="M2125 9720 c3 -5 8 -10 11 -10 2 0 4 5 4 10 0 6 -5 10 -11 10 -5 0
-7 -4 -4 -10z"/>
<path d="M1978 9713 c7 -3 16 -2 19 1 4 3 -2 6 -13 5 -11 0 -14 -3 -6 -6z"/>
<path d="M2356 9707 c3 -10 9 -15 12 -12 3 3 0 11 -7 18 -10 9 -11 8 -5 -6z"/>
<path d="M1920 9699 c0 -5 5 -7 10 -4 6 3 10 8 10 11 0 2 -4 4 -10 4 -5 0 -10
-5 -10 -11z"/>
<path d="M2598 9703 c7 -3 16 -2 19 1 4 3 -2 6 -13 5 -11 0 -14 -3 -6 -6z"/>
<path d="M2087 9694 c-8 -8 3 -34 14 -34 11 0 12 27 0 34 -4 3 -11 3 -14 0z"/>
<path d="M2247 9682 c-15 -17 -14 -18 11 -19 15 -1 21 1 15 4 -7 2 -13 9 -13
14 0 6 5 7 12 3 7 -4 8 -3 4 4 -9 15 -10 15 -29 -6z"/>
<path d="M2493 9683 c0 -17 14 -17 20 0 3 7 6 5 6 -6 1 -9 -4 -26 -11 -37 -10
-15 -9 -24 1 -44 8 -14 19 -23 24 -19 6 3 7 1 3 -5 -8 -13 12 -16 31 -4 8 5 7
12 -4 27 -10 14 -17 16 -20 8 -3 -10 -8 -9 -20 2 -8 8 -12 21 -10 28 4 9 6 9
6 0 1 -7 6 -13 12 -13 8 0 9 4 0 13 -12 16 -5 27 18 27 12 0 13 -2 3 -9 -10
-6 -10 -10 1 -20 12 -10 14 -6 13 25 -1 35 -3 37 -37 38 -23 1 -36 -3 -36 -11z"/>
<path d="M1936 9675 c-3 -9 -6 -22 -5 -28 0 -7 5 -1 10 12 5 13 8 26 5 28 -2
2 -6 -3 -10 -12z"/>
<path d="M2120 9679 c0 -5 5 -7 10 -4 6 3 10 8 10 11 0 2 -4 4 -10 4 -5 0 -10
-5 -10 -11z"/>
<path d="M2290 9675 c0 -9 5 -15 11 -13 6 2 11 8 11 13 0 5 -5 11 -11 13 -6 2
-11 -4 -11 -13z"/>
<path d="M2430 9677 c0 -8 7 -17 15 -21 8 -3 15 -2 15 3 0 5 -7 14 -15 21 -12
10 -15 10 -15 -3z"/>
<path d="M2586 9674 c-4 -9 -4 -19 -1 -22 3 -3 5 0 5 6 0 6 9 9 20 7 24 -5 27
10 4 19 -21 8 -21 8 -28 -10z"/>
<path d="M2130 9660 c-13 -8 -12 -10 3 -10 9 0 17 5 17 10 0 12 -1 12 -20 0z"/>
<path d="M2800 9660 c0 -5 5 -10 11 -10 5 0 7 5 4 10 -3 6 -8 10 -11 10 -2 0
-4 -4 -4 -10z"/>
<path d="M2074 9642 c0 -10 6 -19 13 -19 8 0 9 6 2 19 -5 10 -11 18 -12 18 -2
0 -3 -8 -3 -18z"/>
<path d="M3037 9646 c-4 -10 -5 -21 -2 -24 9 -9 17 6 13 25 -3 17 -4 17 -11
-1z"/>
<path d="M2156 9640 c-17 -6 -18 -7 -3 -13 9 -3 19 -2 23 4 9 15 2 18 -20 9z"/>
<path d="M2440 9629 c0 -5 -3 -8 -7 -6 -5 3 -17 -7 -27 -22 -20 -26 -20 -26 0
-8 22 18 36 14 27 -9 -4 -10 0 -12 11 -8 18 7 22 24 6 24 -5 0 -10 5 -10 10 0
15 27 12 27 -2 0 -7 4 -22 8 -33 5 -14 4 -16 -2 -7 -8 10 -12 10 -23 -3 -12
-15 -10 -16 23 -13 21 2 37 8 36 13 0 6 -6 9 -12 7 -7 -2 -9 0 -5 4 10 9 -23
64 -39 64 -7 0 -13 -5 -13 -11z"/>
<path d="M2320 9620 c8 -5 11 -10 7 -10 -13 0 24 -34 39 -36 7 -1 10 4 7 12
-3 8 -11 14 -19 14 -8 0 -14 7 -14 15 0 8 -8 15 -17 15 -15 0 -16 -2 -3 -10z"/>
<path d="M2738 9613 c7 -3 16 -2 19 1 4 3 -2 6 -13 5 -11 0 -14 -3 -6 -6z"/>
<path d="M2287 9603 c-12 -11 -8 -31 7 -36 8 -3 17 0 20 8 3 9 0 12 -10 8 -10
-4 -12 0 -8 11 6 17 2 21 -9 9z"/>
<path d="M5103 9578 c-22 -24 -47 -68 -41 -72 2 -2 17 19 35 45 35 54 36 60 6
27z"/>
<path d="M1938 9584 c6 -3 12 -12 12 -20 0 -8 5 -14 11 -14 5 0 7 5 3 12 -5 8
-1 9 12 4 12 -5 15 -4 9 2 -5 5 -21 12 -35 16 -14 3 -19 3 -12 0z"/>
<path d="M2051 9567 c2 -2 11 -8 20 -15 12 -9 16 -9 16 1 0 7 -9 14 -20 14
-11 1 -18 1 -16 0z"/>
<path d="M2324 9554 c3 -8 2 -13 -3 -9 -5 3 -12 -1 -14 -7 -4 -10 -6 -9 -6 1
-1 11 -4 11 -17 0 -13 -10 -17 -10 -26 2 -8 12 -9 12 -5 -1 3 -11 16 -15 46
-14 23 1 44 4 47 6 7 8 -7 38 -18 38 -6 0 -7 -7 -4 -16z"/>
<path d="M2655 9561 c-3 -5 -1 -12 5 -16 5 -3 10 1 10 9 0 18 -6 21 -15 7z"/>
<path d="M2366 9548 c3 -4 12 -8 20 -8 8 0 14 4 14 8 0 4 -9 8 -19 8 -11 0
-17 -4 -15 -8z"/>
<path d="M2538 9548 c-38 -10 -47 -21 -28 -33 6 -4 8 -11 5 -16 -4 -5 -1 -9 5
-9 6 0 8 -5 5 -10 -4 -6 -1 -19 6 -28 10 -12 7 -11 -9 3 -14 11 -21 26 -19 37
3 10 1 18 -4 18 -5 0 -9 6 -9 14 0 10 -7 12 -21 9 -19 -5 -20 -8 -7 -17 8 -6
13 -17 11 -23 -3 -7 0 -13 7 -13 7 0 8 -6 1 -19 -13 -23 -51 -35 -51 -15 0 8
-4 14 -10 14 -5 0 -9 -6 -7 -12 1 -7 -3 -12 -10 -11 -7 2 -10 -3 -7 -11 5 -13
-18 -33 -40 -35 -13 -1 -16 -30 -4 -37 5 -3 12 3 15 15 3 12 8 21 12 21 4 0
16 8 27 18 10 9 28 18 39 20 18 2 19 1 3 -11 -20 -16 -12 -32 21 -42 18 -6 29
-1 52 25 16 17 29 35 29 41 0 24 19 5 28 -28 10 -37 10 -37 11 -7 1 16 -4 35
-10 41 -8 8 0 25 26 62 l37 51 -34 -1 c-18 -1 -50 -6 -70 -11z m-35 -118 c3
-11 1 -17 -4 -14 -6 3 -17 0 -25 -7 -12 -10 -13 -9 -7 7 5 15 21 33 29 34 1 0
4 -9 7 -20z"/>
<path d="M2220 9535 c0 -8 4 -15 10 -15 5 0 7 7 4 15 -4 8 -8 15 -10 15 -2 0
-4 -7 -4 -15z"/>
<path d="M1876 9527 c3 -10 9 -15 12 -12 3 3 0 11 -7 18 -10 9 -11 8 -5 -6z"/>
<path d="M1950 9536 c0 -2 7 -7 16 -10 8 -3 12 -2 9 4 -6 10 -25 14 -25 6z"/>
<path d="M2416 9505 c4 -8 8 -15 10 -15 2 0 4 7 4 15 0 8 -4 15 -10 15 -5 0
-7 -7 -4 -15z"/>
<path d="M1983 9495 c0 -8 4 -12 9 -9 4 3 8 9 8 15 0 5 -4 9 -8 9 -5 0 -9 -7
-9 -15z"/>
<path d="M1953 9471 c0 -11 5 -18 9 -15 4 3 5 11 1 19 -7 21 -12 19 -10 -4z"/>
<path d="M2365 9450 c-3 -5 -1 -10 4 -10 6 0 11 5 11 10 0 6 -2 10 -4 10 -3 0
-8 -4 -11 -10z"/>
<path d="M1771 9424 c0 -11 3 -14 6 -6 3 7 2 16 -1 19 -3 4 -6 -2 -5 -13z"/>
<path d="M1897 9419 c7 -7 15 -10 18 -7 3 3 -2 9 -12 12 -14 6 -15 5 -6 -5z"/>
<path d="M2190 9426 c0 -2 7 -7 16 -10 8 -3 12 -2 9 4 -6 10 -25 14 -25 6z"/>
<path d="M2280 9376 c0 -13 -5 -26 -10 -28 -7 -2 -4 -11 5 -23 16 -20 16 -20
10 3 -5 16 -2 22 10 22 11 0 14 -7 10 -27 -4 -23 -4 -25 4 -8 15 32 13 55 -4
49 -11 -4 -13 -2 -9 9 3 8 1 18 -5 22 -7 4 -11 -4 -11 -19z"/>
<path d="M2530 9389 c0 -5 5 -7 10 -4 6 3 10 8 10 11 0 2 -4 4 -10 4 -5 0 -10
-5 -10 -11z"/>
<path d="M2397 9384 c-7 -7 17 -34 31 -34 16 0 22 -28 7 -34 -10 -3 -12 0 -8
11 4 10 2 14 -7 11 -20 -6 -22 -21 -5 -43 13 -17 16 -18 24 -5 5 8 19 26 31
40 l21 25 -23 8 c-13 5 -31 13 -40 18 -21 11 -23 11 -31 3z"/>
<path d="M2196 9353 c-6 -14 -5 -15 5 -6 7 7 10 15 7 18 -3 3 -9 -2 -12 -12z"/>
<path d="M2576 9357 c3 -10 9 -15 12 -12 3 3 0 11 -7 18 -10 9 -11 8 -5 -6z"/>
<path d="M1865 9349 c-4 -6 -5 -12 -2 -15 2 -3 7 2 10 11 7 17 1 20 -8 4z"/>
<path d="M2382 9353 c-6 -3 -10 -9 -6 -14 3 -5 -5 -9 -18 -9 -17 0 -19 -3 -9
-9 9 -6 10 -11 2 -15 -6 -4 -15 -4 -21 -1 -5 3 -10 2 -10 -3 0 -4 18 -20 41
-35 34 -22 43 -25 54 -13 11 11 10 16 -8 32 -12 10 -26 17 -31 16 -5 -2 -1 9
8 23 19 29 18 35 -2 28z"/>
<path d="M2215 9340 c-3 -5 -1 -10 4 -10 6 0 11 5 11 10 0 6 -2 10 -4 10 -3 0
-8 -4 -11 -10z"/>
<path d="M1794 9302 c4 -3 14 -7 22 -8 9 -1 13 0 10 4 -4 3 -14 7 -22 8 -9 1
-13 0 -10 -4z"/>
<path d="M2210 9288 c0 -12 3 -18 7 -14 11 10 12 36 2 36 -5 0 -9 -10 -9 -22z"/>
<path d="M2240 9298 c0 -6 3 -8 7 -5 3 4 12 -1 19 -11 12 -15 13 -15 14 -1 0
9 -7 20 -16 23 -22 8 -24 8 -24 -6z"/>
<path d="M1860 9264 c0 -8 5 -12 10 -9 6 4 8 11 5 16 -9 14 -15 11 -15 -7z"/>
<path d="M2177 9266 c-7 -18 18 -42 28 -26 4 6 1 9 -7 8 -8 -2 -12 4 -10 15 3
21 -4 23 -11 3z"/>
<path d="M2303 9273 c-7 -3 -13 -11 -13 -19 0 -12 4 -12 21 -3 12 6 19 7 16 2
-3 -4 1 -13 8 -20 11 -10 15 -10 18 0 3 7 6 4 6 -5 1 -10 -4 -18 -10 -18 -7 0
-18 8 -26 18 -13 15 -13 15 -7 -8 6 -24 6 -24 -10 -5 -13 18 -15 18 -16 3 0
-12 -5 -15 -16 -11 -12 4 -15 2 -12 -8 7 -22 92 -22 118 1 19 17 19 19 4 34
-23 23 -67 44 -81 39z"/>
<path d="M2237 9240 c-8 -11 -16 -17 -19 -14 -3 3 -9 0 -14 -7 -4 -8 -3 -10 4
-5 14 8 15 -3 3 -22 -7 -11 -9 -11 -14 2 -4 9 -12 16 -19 16 -9 0 -8 -3 2 -10
13 -9 7 -14 -12 -11 -5 0 -8 -3 -8 -9 0 -12 47 -12 75 0 11 5 14 9 8 9 -7 1
-13 8 -13 17 0 8 5 12 10 9 6 -3 10 3 10 14 0 10 6 22 13 24 9 4 9 6 0 6 -6 1
-18 -8 -26 -19z"/>
<path d="M5655 9220 c-3 -5 -13 -6 -22 -3 -10 4 -14 2 -11 -7 7 -23 46 -31 63
-14 8 9 13 20 10 25 -8 12 -32 12 -40 -1z"/>
<path d="M1960 9210 c-9 -6 -10 -10 -3 -10 6 0 15 5 18 10 8 12 4 12 -15 0z"/>
<path d="M5718 9198 c-26 -31 -24 -68 2 -61 11 3 20 1 20 -5 0 -6 -10 -12 -22
-14 -44 -6 -71 -107 -48 -178 7 -21 8 -19 9 17 1 34 4 41 17 36 9 -3 12 -9 6
-15 -6 -6 -6 -26 0 -54 7 -30 6 -54 0 -72 -6 -15 -11 -34 -11 -42 0 -8 -2 -35
-4 -60 -2 -25 3 -74 10 -110 8 -36 16 -83 19 -105 3 -22 10 -53 16 -69 9 -23
9 -31 -3 -40 -17 -13 -21 -126 -4 -138 6 -5 5 -11 -5 -17 -14 -10 -4 -41 46
-132 14 -27 23 -163 11 -175 -5 -6 -9 54 -7 127 0 16 -12 38 -33 60 -38 38
-57 84 -57 138 0 20 -5 43 -10 51 -16 25 -12 -59 5 -118 9 -29 25 -68 36 -87
11 -19 17 -40 13 -46 -4 -8 -3 -9 4 -5 8 5 13 -4 14 -28 1 -20 3 -48 5 -63 1
-16 7 -68 12 -116 5 -49 12 -91 15 -95 3 -3 7 35 7 84 l2 89 12 -90 c21 -148
31 -192 49 -220 10 -15 15 -29 12 -33 -3 -3 -6 0 -6 7 0 23 -45 8 -48 -16 -3
-21 0 -23 50 -23 75 0 128 36 203 137 39 53 72 86 98 98 39 19 62 40 30 28
-46 -18 -143 -81 -143 -94 0 -5 -8 -9 -19 -9 -12 0 -23 12 -31 33 -7 17 -16
41 -20 52 -5 11 -16 54 -26 95 -9 41 -21 80 -26 87 -6 7 -10 35 -10 64 1 28
-3 61 -8 75 -5 13 -10 39 -12 58 -1 19 -6 32 -10 30 -4 -3 -8 24 -8 60 0 36
-4 67 -9 70 -5 4 -7 -14 -4 -39 2 -24 0 -52 -6 -62 -8 -15 -10 -10 -11 22 0
22 -5 58 -10 80 -26 114 -43 343 -29 405 4 19 9 73 10 120 2 47 7 90 11 96 16
22 7 176 -12 199 -17 21 -25 12 -10 -12 10 -15 8 -28 -8 -63 -15 -33 -17 -47
-9 -52 9 -6 9 -8 0 -8 -13 0 -11 -31 4 -69 9 -22 10 -49 4 -128 -3 -47 -21 -5
-21 49 0 25 -5 48 -11 50 -10 3 -15 81 -10 148 1 14 0 37 -3 53 -3 19 0 27 10
27 8 0 14 5 14 10 0 6 10 15 23 20 19 7 16 9 -18 9 -30 1 -45 -5 -57 -21z m-4
-174 c3 -8 2 -12 -4 -9 -6 3 -10 10 -10 16 0 14 7 11 14 -7z m23 -302 c8 -5 9
-12 2 -22 -8 -13 -10 -13 -19 0 -18 27 -9 39 17 22z m-10 -129 c-3 -10 -5 -4
-5 12 0 17 2 24 5 18 2 -7 2 -21 0 -30z m68 -355 c3 -18 11 -45 16 -60 6 -14
9 -37 7 -50 -3 -17 -10 -4 -26 46 -24 74 -27 96 -13 96 5 0 12 -15 16 -32z
m85 -56 c5 -20 9 -59 9 -87 l-1 -50 -9 50 c-4 28 -12 66 -18 85 -14 43 -14 53
-1 45 5 -3 14 -22 20 -43z m-19 -192 c7 -5 9 -15 5 -26 -6 -16 -11 -11 -26 26
-11 25 -19 54 -19 65 0 11 6 2 14 -19 7 -21 19 -42 26 -46z m51 -25 c3 -13 2
-22 -2 -20 -4 3 -10 16 -12 30 -3 13 -2 22 2 20 4 -3 10 -16 12 -30z m-95 -7
c-3 -8 -6 -5 -6 6 -1 11 2 17 5 13 3 -3 4 -12 1 -19z m22 -93 c1 -27 40 -104
41 -80 0 6 6 1 13 -10 15 -26 17 -149 1 -127 -5 7 -9 30 -7 50 2 27 -4 43 -27
69 -17 18 -30 37 -31 41 -8 114 -8 125 0 107 5 -11 10 -33 10 -50z m56 28 c1
-16 6 -41 10 -58 7 -27 6 -28 -8 -15 -16 16 -20 35 -18 84 1 36 13 27 16 -11z
m79 -178 c5 -22 4 -26 -4 -15 -5 8 -10 24 -10 34 0 26 6 18 14 -19z m-114 -20
c0 -5 -5 -3 -10 5 -5 8 -10 20 -10 25 0 6 5 3 10 -5 5 -8 10 -19 10 -25z"/>
<path d="M2005 9200 c-3 -5 -1 -10 4 -10 6 0 11 5 11 10 0 6 -2 10 -4 10 -3 0
-8 -4 -11 -10z"/>
<path d="M2060 9194 c0 -6 7 -19 15 -30 8 -10 14 -14 14 -9 0 6 -6 19 -14 29
-8 11 -15 15 -15 10z"/>
<path d="M2120 9185 c-11 -13 -10 -14 5 -9 13 5 16 4 11 -4 -4 -7 -2 -12 3
-12 13 0 14 10 2 28 -6 10 -10 10 -21 -3z"/>
<path d="M5580 9190 c0 -5 5 -10 11 -10 5 0 7 5 4 10 -3 6 -8 10 -11 10 -2 0
-4 -4 -4 -10z"/>
<path d="M1950 9167 c0 -9 5 -17 10 -17 6 0 10 -6 10 -14 0 -8 5 -18 12 -22 7
-4 8 -3 4 5 -4 6 -2 19 6 28 11 14 11 16 -1 8 -9 -5 -19 -2 -28 10 -12 17 -13
17 -13 2z"/>
<path d="M2025 9160 c-3 -5 -2 -10 4 -10 5 0 13 5 16 10 3 6 2 10 -4 10 -5 0
-13 -4 -16 -10z"/>
<path d="M2277 9163 c-13 -12 -7 -33 8 -33 8 0 15 5 15 11 0 5 4 8 10 4 19
-12 -1 -35 -26 -29 -22 6 -24 3 -25 -27 -1 -19 0 -38 1 -44 1 -5 -2 -7 -6 -3
-11 11 -34 -11 -28 -27 3 -7 -3 -16 -15 -20 -12 -3 -21 -10 -21 -15 0 -20 -30
3 -31 24 -1 17 -2 17 -6 3 -2 -9 -9 -15 -14 -12 -5 3 -6 -1 -3 -10 4 -9 9 -14
11 -11 3 3 13 -5 23 -16 l17 -22 7 22 c4 12 11 22 16 22 6 0 5 -11 0 -26 -18
-46 -10 -50 16 -6 14 23 22 47 19 52 -3 6 1 13 10 16 14 6 62 73 94 132 11 21
10 22 -27 22 -21 0 -42 -3 -45 -7z"/>
<path d="M5618 9148 c4 -15 2 -19 -7 -13 -10 6 -11 3 -2 -14 13 -23 31 -28 31
-9 0 9 3 9 11 1 12 -12 39 -7 39 7 0 7 -65 50 -75 50 -2 0 -1 -10 3 -22z"/>
<path d="M2220 9150 c0 -5 5 -10 10 -10 6 0 10 -8 11 -17 0 -15 2 -15 9 2 13
30 12 35 -10 35 -11 0 -20 -4 -20 -10z"/>
<path d="M5760 9150 c0 -5 9 -10 21 -10 11 0 17 5 14 10 -3 6 -13 10 -21 10
-8 0 -14 -4 -14 -10z"/>
<path d="M2040 9140 c-8 -5 -12 -12 -9 -15 4 -3 12 1 19 10 14 17 11 19 -10 5z"/>
<path d="M2170 9134 c0 -10 6 -14 15 -10 8 3 15 1 15 -3 0 -5 -5 -11 -11 -13
-8 -3 -7 -7 2 -15 11 -9 14 -5 16 23 3 28 0 34 -17 34 -12 0 -20 -7 -20 -16z"/>
<path d="M2125 9130 c4 -6 11 -8 16 -5 14 9 11 15 -7 15 -8 0 -12 -5 -9 -10z"/>
<path d="M2227 9071 c5 -20 -10 -23 -35 -7 -11 7 -11 4 0 -13 16 -27 23 -26
42 1 20 28 20 38 2 38 -9 0 -12 -7 -9 -19z"/>
<path d="M5621 8988 c5 -40 10 -93 12 -118 3 -25 4 3 3 62 -1 59 -6 112 -12
118 -7 7 -8 -12 -3 -62z"/>
<path d="M2180 9010 c0 -5 5 -10 10 -10 6 0 10 5 10 10 0 6 -4 10 -10 10 -5 0
-10 -4 -10 -10z"/>
<path d="M2118 8963 c6 -2 10 -9 6 -14 -3 -5 0 -9 5 -9 6 0 11 -5 11 -11 0 -6
-9 -8 -22 -4 -16 4 -19 3 -9 -3 9 -7 10 -12 2 -16 -6 -4 -11 -12 -11 -18 0 -6
11 -3 25 6 13 9 31 16 40 16 8 0 15 4 15 9 0 12 -50 51 -64 50 -7 0 -6 -3 2
-6z"/>
<path d="M1796 8945 c-9 -26 -7 -32 5 -12 6 10 9 21 6 23 -2 3 -7 -2 -11 -11z"/>
<path d="M2143 8884 c-35 -18 -43 -38 -17 -48 25 -10 41 -6 22 5 -22 12 -23
29 -2 29 9 0 12 -5 8 -12 -4 -7 -3 -8 4 -4 15 9 35 46 25 46 -4 0 -23 -8 -40
-16z"/>
<path d="M2070 8880 c0 -5 5 -10 10 -10 6 0 10 5 10 10 0 6 -4 10 -10 10 -5 0
-10 -4 -10 -10z"/>
<path d="M5680 8870 c0 -5 5 -10 11 -10 5 0 7 5 4 10 -3 6 -8 10 -11 10 -2 0
-4 -4 -4 -10z"/>
<path d="M2045 8841 c-3 -5 0 -13 6 -17 7 -4 9 -3 5 4 -3 5 0 13 6 15 9 4 10
6 1 6 -6 1 -14 -3 -18 -8z"/>
<path d="M2117 8799 c7 -7 15 -10 18 -7 3 3 -2 9 -12 12 -14 6 -15 5 -6 -5z"/>
<path d="M1977 8784 c-9 -10 2 -24 18 -24 9 0 12 6 9 15 -6 16 -17 19 -27 9z"/>
<path d="M2097 8771 c-3 -11 -1 -23 3 -26 14 -8 22 13 12 31 -8 14 -10 14 -15
-5z"/>
<path d="M1737 8763 c-10 -10 -8 -23 4 -23 5 0 8 4 5 9 -4 5 0 12 6 14 7 3 8
6 2 6 -6 1 -14 -2 -17 -6z"/>
<path d="M2043 8763 c-7 -2 -13 -9 -13 -15 0 -7 5 -6 14 1 12 10 13 8 8 -11
-5 -21 -4 -22 11 -9 15 12 17 11 17 -3 0 -9 -4 -16 -10 -16 -5 0 -10 -7 -10
-15 0 -21 13 -19 28 5 10 17 9 25 -4 45 -17 26 -20 27 -41 18z"/>
<path d="M1920 8750 c-9 -6 -10 -10 -3 -10 6 0 15 5 18 10 8 12 4 12 -15 0z"/>
<path d="M1960 8750 c0 -5 5 -10 10 -10 6 0 10 5 10 10 0 6 -4 10 -10 10 -5 0
-10 -4 -10 -10z"/>
<path d="M1995 8740 c3 -5 1 -10 -6 -10 -8 0 -5 -7 6 -20 9 -10 15 -26 12 -35
-7 -16 2 -19 27 -9 22 8 20 24 -9 57 -23 26 -43 37 -30 17z"/>
<path d="M1851 8723 c-7 -8 -11 -16 -8 -19 2 -2 10 2 17 11 17 20 9 27 -9 8z"/>
<path d="M1875 8709 c-4 -6 -4 -13 -1 -16 3 -4 6 -1 6 6 0 8 7 10 21 6 15 -5
19 -4 15 4 -9 14 -33 14 -41 0z"/>
<path d="M1935 8713 c6 -4 10 -14 11 -20 3 -38 5 -43 18 -43 7 0 19 7 26 15
15 18 -2 38 -40 49 -14 4 -20 4 -15 -1z"/>
<path d="M1893 8654 c-1 -34 9 -42 36 -25 9 6 11 18 7 35 -4 15 -11 24 -16 21
-6 -4 -8 -12 -4 -18 3 -7 -1 -4 -8 5 -13 15 -14 13 -15 -18z"/>
<path d="M5827 8669 c4 -13 8 -18 11 -10 2 7 -1 18 -6 23 -8 8 -9 4 -5 -13z"/>
<path d="M2024 8650 c-12 -5 -25 -13 -28 -19 -4 -6 -13 -8 -21 -4 -8 3 -15 0
-15 -6 0 -6 9 -11 20 -11 17 0 19 -3 8 -19 -7 -11 -14 -18 -18 -16 -3 1 -12
-4 -20 -13 -13 -14 -12 -15 2 -10 10 4 19 1 22 -8 3 -8 2 -12 -3 -9 -15 8 -25
-15 -12 -28 16 -16 14 -23 -16 -36 -21 -10 -28 -9 -35 1 -7 10 -9 10 -5 -2 5
-21 38 -20 64 3 19 17 21 23 10 35 -10 13 -9 15 4 10 11 -4 20 1 27 17 9 20 8
22 -10 17 -14 -3 -19 -1 -14 6 4 7 13 12 21 12 8 0 17 5 21 12 4 7 3 8 -4 4
-7 -4 -12 -3 -12 3 0 5 -3 18 -7 28 -6 15 -4 16 9 5 13 -10 18 -8 32 13 17 26
14 29 -20 15z"/>
<path d="M5653 8610 c4 -30 9 -85 13 -123 3 -37 10 -69 14 -72 13 -8 21 42 10
70 -6 15 -8 31 -5 36 3 5 1 26 -4 46 -6 21 -12 48 -14 60 -7 49 -19 34 -14
-17z"/>
<path d="M1860 8630 c0 -5 -6 -7 -14 -4 -8 3 -17 1 -21 -5 -4 -7 5 -11 24 -11
21 0 31 5 31 15 0 8 -4 15 -10 15 -5 0 -10 -4 -10 -10z"/>
<path d="M5810 8631 c0 -5 5 -13 10 -16 6 -3 10 -2 10 4 0 5 -4 13 -10 16 -5
3 -10 2 -10 -4z"/>
<path d="M1866 8591 c-4 -5 3 -7 13 -4 15 4 19 0 16 -14 -2 -10 -4 -22 -4 -26
-1 -5 -5 -5 -11 -2 -5 3 -7 0 -5 -7 3 -8 20 -14 38 -15 19 0 23 1 10 4 -19 4
-21 9 -18 39 4 28 2 34 -14 34 -11 0 -22 -4 -25 -9z"/>
<path d="M1841 8574 c0 -11 3 -14 6 -6 3 7 2 16 -1 19 -3 4 -6 -2 -5 -13z"/>
<path d="M1790 8541 c0 -6 4 -13 10 -16 6 -3 7 1 4 9 -7 18 -14 21 -14 7z"/>
<path d="M1729 8523 c-8 -9 -9 -14 -2 -10 6 4 13 1 16 -5 3 -7 4 -3 4 10 -1
26 -1 26 -18 5z"/>
<path d="M1860 8516 c0 -9 -7 -13 -20 -11 -27 5 -35 -12 -9 -20 14 -5 25 -2
30 6 10 15 12 39 4 39 -3 0 -5 -6 -5 -14z"/>
<path d="M1925 8500 c-3 -5 -1 -10 4 -10 6 0 11 5 11 10 0 6 -2 10 -4 10 -3 0
-8 -4 -11 -10z"/>
<path d="M1877 8430 c-6 -23 -3 -24 25 -9 17 9 18 13 7 20 -21 13 -26 11 -32
-11z"/>
<path d="M1950 8429 c0 -5 5 -7 10 -4 6 3 10 8 10 11 0 2 -4 4 -10 4 -5 0 -10
-5 -10 -11z"/>
<path d="M5631 8324 c0 -11 3 -14 6 -6 3 7 2 16 -1 19 -3 4 -6 -2 -5 -13z"/>
<path d="M5741 7914 c0 -11 3 -14 6 -6 3 7 2 16 -1 19 -3 4 -6 -2 -5 -13z"/>
<path d="M5772 7640 c0 -14 2 -19 5 -12 2 6 2 18 0 25 -3 6 -5 1 -5 -13z"/>
<path d="M7705 4733 c7 -20 20 -42 29 -48 8 -7 13 -15 10 -18 -4 -3 5 -20 20
-37 14 -17 26 -39 26 -48 0 -10 18 -44 40 -77 22 -33 40 -63 40 -68 0 -4 17
-32 37 -63 38 -58 67 -76 151 -95 95 -21 165 22 178 109 19 122 -5 183 -92
240 -60 40 -214 100 -214 84 0 -4 -40 -7 -90 -8 -68 0 -91 3 -95 14 -3 7 -3
18 0 23 4 5 0 6 -8 3 -8 -3 -17 2 -20 10 -13 34 -24 14 -12 -21z"/>
<path d="M7820 4760 c0 -5 8 -10 18 -10 9 0 28 -3 42 -5 22 -5 21 -3 -5 9 -36
18 -55 20 -55 6z"/>
<path d="M7269 4413 c-19 -3 -32 -17 -52 -57 -15 -30 -25 -61 -21 -70 3 -9 2
-22 -4 -29 -5 -6 -12 -41 -15 -77 -3 -36 -8 -75 -11 -87 -3 -13 -1 -23 4 -23
5 0 10 8 12 18 2 9 4 -22 4 -69 -1 -106 14 -143 56 -137 25 4 27 2 22 -16 -6
-17 -4 -19 7 -10 9 8 21 8 34 3 19 -9 18 -9 -2 -5 -20 4 -21 2 -12 -16 9 -17
13 -18 20 -7 8 12 11 12 19 -1 6 -10 10 -11 10 -2 0 6 7 12 16 12 9 0 12 -5 8
-12 -4 -6 -3 -8 3 -5 6 4 34 3 62 -3 67 -12 112 6 135 55 17 34 16 38 -5 93
-12 31 -22 71 -23 89 -2 28 -20 55 -80 123 -7 8 -26 39 -42 67 -16 29 -33 53
-37 53 -5 0 -5 5 -1 11 5 8 1 8 -14 0 -17 -9 -22 -8 -27 9 -3 11 -15 25 -26
30 -17 10 -18 13 -4 34 14 20 11 38 -4 35 -3 -1 -18 -4 -32 -6z m4 -377 c3 -8
-1 -17 -10 -20 -20 -8 -27 -1 -20 19 8 19 23 20 30 1z"/>
<path d="M4480 2440 c0 -5 7 -10 15 -10 8 0 15 5 15 10 0 6 -7 10 -15 10 -8 0
-15 -4 -15 -10z"/>
<path d="M4255 2430 c-3 -5 -1 -10 4 -10 6 0 11 5 11 10 0 6 -2 10 -4 10 -3 0
-8 -4 -11 -10z"/>
<path d="M9038 2428 c-7 -4 -25 -9 -40 -13 -15 -3 -32 -15 -38 -26 -10 -17 -8
-21 9 -26 14 -3 21 -13 21 -28 0 -13 11 -30 26 -40 30 -20 43 -13 23 12 -13
17 -13 17 7 1 11 -10 25 -18 30 -18 5 0 34 -16 63 -35 30 -20 57 -34 62 -33
12 5 -30 89 -55 109 -21 18 -21 18 -1 20 11 1 25 2 30 4 6 1 16 3 24 3 11 2
11 5 1 17 -6 8 -9 19 -5 26 5 8 1 9 -13 5 -11 -4 -23 -2 -27 4 -8 13 -46 33
-44 23 4 -24 -2 -43 -12 -37 -6 3 -9 14 -6 23 4 17 -29 23 -55 9z m27 -38 c-3
-5 -10 -10 -16 -10 -5 0 -9 5 -9 10 0 6 7 10 16 10 8 0 12 -4 9 -10z"/>
<path d="M9226 2374 c-9 -22 3 -32 14 -14 12 19 12 30 1 30 -5 0 -12 -7 -15
-16z"/>
<path d="M9320 2315 c0 -14 4 -25 9 -25 12 0 23 29 15 41 -10 18 -24 9 -24
-16z"/>
<path d="M4653 2293 c-7 -2 -13 -9 -13 -14 0 -14 26 -10 40 6 10 12 10 15 -1
14 -8 0 -20 -3 -26 -6z"/>
<path d="M4712 2278 c6 -18 28 -21 28 -4 0 9 -7 16 -16 16 -9 0 -14 -5 -12
-12z"/>
<path d="M9421 2266 c-9 -10 -8 -15 4 -20 9 -3 14 -2 10 3 -3 5 0 11 7 13 8 3
9 6 1 11 -6 4 -16 1 -22 -7z"/>
<path d="M9270 2256 c0 -7 16 -30 35 -50 29 -31 35 -34 35 -18 0 21 -23 46
-33 35 -4 -3 -7 3 -7 14 0 12 -7 23 -15 27 -9 3 -15 0 -15 -8z"/>
<path d="M9555 2239 c-8 -25 7 -44 29 -36 21 8 21 43 0 51 -22 8 -22 8 -29
-15z"/>
<path d="M9206 2210 c-11 -3 -15 -9 -10 -13 10 -6 42 9 34 16 -3 3 -14 1 -24
-3z"/>
<path d="M4535 2190 c3 -5 12 -7 20 -3 21 7 19 13 -6 13 -11 0 -18 -4 -14 -10z"/>
<path d="M4606 2161 c14 -13 62 -22 68 -12 3 5 -8 11 -25 15 -44 8 -55 8 -43
-3z"/>
<path d="M9145 2143 c5 -15 8 -57 8 -92 0 -55 -4 -66 -24 -82 -13 -10 -21 -20
-18 -23 8 -8 49 5 44 14 -5 8 52 34 68 31 4 0 7 4 7 10 0 6 8 9 19 6 10 -2 18
1 17 7 0 6 3 12 7 13 4 1 14 9 23 17 8 8 21 13 29 10 8 -4 22 -3 31 0 15 6 14
9 -5 30 -13 13 -21 32 -20 42 5 26 -9 44 -32 44 -11 0 -17 -5 -14 -10 4 -6 12
-7 18 -3 7 4 6 0 -2 -10 -7 -9 -11 -26 -8 -37 6 -23 -5 -26 -25 -7 -7 6 -39
25 -72 40 l-59 28 8 -28z m45 -123 c0 -5 -5 -10 -11 -10 -5 0 -7 5 -4 10 3 6
8 10 11 10 2 0 4 -4 4 -10z"/>
<path d="M9350 2150 c0 -5 9 -10 20 -10 11 0 20 5 20 10 0 6 -9 10 -20 10 -11
0 -20 -4 -20 -10z"/>
<path d="M9405 2134 l-20 -15 20 -15 c18 -13 20 -13 23 0 2 9 2 22 0 30 -3 13
-6 13 -23 0z"/>
<path d="M4790 2120 c-12 -8 -11 -10 8 -10 12 0 22 5 22 10 0 13 -11 13 -30 0z"/>
<path d="M9340 2116 c0 -7 6 -19 14 -25 18 -15 30 11 13 28 -15 15 -27 14 -27
-3z"/>
<path d="M9478 2113 c7 -3 16 -2 19 1 4 3 -2 6 -13 5 -11 0 -14 -3 -6 -6z"/>
<path d="M4510 2070 c-12 -8 -12 -10 5 -10 11 0 27 5 35 10 12 8 12 10 -5 10
-11 0 -27 -5 -35 -10z"/>
<path d="M4218 2063 c7 -3 16 -2 19 1 4 3 -2 6 -13 5 -11 0 -14 -3 -6 -6z"/>
<path d="M9242 1978 c-20 -20 -14 -40 11 -36 14 2 22 10 22 22 0 24 -16 31
-33 14z"/>
<path d="M9565 1980 c-3 -5 -1 -10 4 -10 6 0 11 5 11 10 0 6 -2 10 -4 10 -3 0
-8 -4 -11 -10z"/>
<path d="M9054 1805 c3 -8 1 -15 -3 -15 -5 0 -12 6 -14 13 -3 6 -6 2 -6 -10
-1 -26 2 -27 30 -13 23 13 25 40 3 40 -10 0 -14 -6 -10 -15z"/>
<path d="M8564 1265 c-10 -8 -14 -15 -7 -15 19 0 43 11 43 21 0 13 -14 11 -36
-6z"/>
<path d="M8428 1243 c7 -3 16 -2 19 1 4 3 -2 6 -13 5 -11 0 -14 -3 -6 -6z"/>
<path d="M7992 1073 c-19 -8 -4 -22 18 -16 11 3 17 9 14 14 -6 10 -12 10 -32
2z"/>
<path d="M7730 1026 c0 -2 9 -6 20 -9 11 -3 18 -1 14 4 -5 9 -34 13 -34 5z"/>
</g>
</svg>
