<?xml version="1.0" standalone="no"?>
<!DOCTYPE svg PUBLIC "-//W3C//DTD SVG 20010904//EN"
 "http://www.w3.org/TR/2001/REC-SVG-20010904/DTD/svg10.dtd">
<svg version="1.0" xmlns="http://www.w3.org/2000/svg"
 width="259.000000pt" height="195.000000pt" viewBox="0 0 259.000000 195.000000"
 preserveAspectRatio="xMidYMid meet">

<g transform="translate(0.000000,195.000000) scale(0.100000,-0.100000)"
fill="#000000" stroke="none">
<path d="M2 1905 c1 -36 5 -45 19 -45 10 0 21 -5 24 -10 4 -7 -2 -9 -19 -4
-24 6 -26 4 -26 -27 0 -39 8 -53 32 -62 12 -4 15 -2 11 9 -3 7 -1 14 5 14 11
0 11 -18 -1 -37 -4 -6 -3 -14 3 -18 6 -3 13 1 16 10 5 13 9 14 15 4 14 -23 23
0 9 25 -11 22 -51 42 -72 38 -5 -1 -8 3 -8 8 0 13 6 13 31 0 18 -10 24 -4 21
22 -1 3 5 9 14 12 12 4 12 2 4 -14 -13 -24 -13 -40 0 -20 7 12 12 12 22 2 14
-14 32 -16 24 -3 -3 5 4 11 15 14 12 3 18 10 14 16 -3 6 -1 11 4 11 6 0 11
-10 11 -21 0 -18 4 -21 28 -16 15 3 35 9 45 12 10 4 17 3 17 -4 0 -6 -7 -11
-15 -11 -8 0 -15 -6 -15 -12 0 -9 -4 -8 -11 2 -9 13 -10 13 -6 0 2 -8 13 -15
25 -14 12 0 19 -3 16 -8 -3 -4 -12 -8 -20 -8 -8 0 -13 -4 -10 -9 6 -10 52 -8
63 3 3 3 2 6 -4 6 -6 0 -9 12 -7 26 3 33 14 44 15 16 1 -12 3 -26 4 -32 1 -5
3 -14 4 -20 0 -5 8 -10 16 -10 13 0 14 4 5 20 -8 16 -8 18 4 14 8 -3 13 -14
11 -25 -3 -14 3 -20 23 -25 15 -3 42 -12 60 -20 18 -8 39 -14 46 -14 7 0 21
-8 30 -19 16 -17 16 -19 -5 -24 -23 -6 -64 15 -52 26 3 4 2 7 -3 7 -16 0 -37
-41 -26 -52 6 -6 12 -6 16 1 4 6 12 11 18 11 6 0 8 -3 5 -7 -4 -3 -2 -12 5
-20 6 -7 8 -16 4 -20 -3 -3 -6 -1 -6 5 0 7 -11 12 -24 12 -29 0 -47 37 -25 51
11 7 10 9 -4 9 -10 0 -15 5 -12 10 3 6 1 10 -4 10 -6 0 -11 -4 -11 -8 0 -5 -7
-17 -15 -28 -11 -14 -14 -15 -9 -3 4 13 -4 20 -30 29 -31 10 -34 13 -24 30 15
23 5 35 -19 25 -26 -11 -64 -6 -93 13 -14 9 -31 15 -39 14 -7 -2 -10 1 -6 7 3
6 16 12 28 12 16 1 17 3 5 6 -9 2 -28 -2 -41 -9 -35 -19 -20 -51 31 -66 22 -7
43 -19 46 -28 3 -9 13 -14 21 -11 8 4 12 1 9 -6 -2 -7 4 -13 16 -14 13 -1 18
3 14 10 -3 7 0 5 8 -4 7 -9 21 -15 31 -13 9 1 15 -2 11 -7 -4 -8 8 -13 27 -11
4 1 9 -8 12 -18 6 -25 2 -25 -34 1 -16 11 -33 18 -37 15 -5 -3 -36 8 -68 23
-59 28 -60 28 -61 7 -1 -11 1 -16 4 -9 3 10 9 10 26 0 12 -7 25 -16 28 -20 3
-5 8 -8 10 -6 10 7 50 -11 45 -20 -7 -10 31 -27 53 -22 7 1 10 -2 6 -8 -3 -6
-18 -8 -33 -5 -31 8 -54 23 -48 33 3 4 -5 8 -16 8 -12 1 -49 11 -82 22 -34 10
-80 23 -103 29 -40 9 -43 8 -43 -12 0 -15 3 -17 9 -8 6 10 10 10 20 -2 7 -8
20 -12 28 -9 12 5 15 2 10 -10 -3 -9 -2 -19 3 -22 6 -4 10 1 10 9 0 21 27 20
38 0 6 -11 17 -15 29 -12 11 3 28 -1 39 -9 16 -12 17 -15 4 -23 -12 -8 -11
-10 6 -10 28 0 36 10 22 29 -6 9 1 4 16 -11 15 -16 33 -28 40 -28 8 0 19 -7
26 -15 7 -8 16 -12 22 -9 5 3 4 12 -3 20 -18 21 13 18 56 -6 37 -21 70 -27 60
-11 -3 5 -1 12 4 15 4 3 8 -2 8 -12 0 -42 3 -48 13 -32 8 13 10 12 10 -3 0
-15 7 -17 46 -14 25 2 48 -1 51 -6 3 -6 1 -7 -5 -3 -7 4 -14 -3 -18 -19 -5
-22 -11 -25 -52 -25 -36 0 -43 3 -34 12 19 19 14 28 -13 28 -14 0 -25 5 -25
10 0 6 -4 10 -9 10 -6 0 -8 -10 -6 -22 3 -12 0 -27 -5 -33 -5 -6 -5 -17 -1
-24 6 -10 10 -9 14 3 11 27 28 18 21 -10 -6 -22 -4 -25 12 -22 11 2 18 11 18
20 -1 14 3 15 23 7 13 -5 35 -9 48 -9 13 0 26 -3 28 -7 3 -5 1 -51 -4 -103 -9
-88 -17 -202 -19 -242 0 -14 -9 -18 -37 -18 -28 0 -34 3 -23 10 19 12 8 13
-23 1 -24 -9 -25 -8 -25 35 -1 47 -1 47 68 46 17 -1 12 3 -16 11 l-41 12 4 55
c3 36 10 60 21 69 12 10 14 15 5 18 -7 3 -13 14 -13 24 0 13 4 18 12 13 6 -4
8 -3 5 3 -4 6 -18 8 -32 5 -19 -3 -23 -8 -15 -17 5 -6 7 -15 3 -18 -3 -4 -1
-7 5 -7 7 0 12 -7 12 -15 0 -13 -12 -14 -67 -10 -38 3 -78 5 -91 5 -14 0 -21
4 -16 11 4 8 25 9 59 5 41 -5 56 -2 66 10 10 13 10 17 -1 24 -9 6 -17 4 -22
-3 -4 -7 -6 -3 -5 10 0 12 5 19 10 16 5 -3 13 0 17 8 7 10 11 10 24 0 12 -10
16 -10 16 -2 0 7 5 9 12 5 7 -5 8 -3 4 5 -5 7 -11 10 -14 7 -3 -3 -13 1 -23
10 -10 9 -25 14 -33 11 -9 -4 -13 -1 -10 7 3 7 -8 19 -23 27 -15 8 -30 16 -33
19 -6 6 -60 27 -102 40 -21 6 -26 5 -21 -6 6 -16 -13 -19 -23 -3 -3 6 -18 8
-33 5 -14 -3 -20 -3 -13 0 6 3 9 11 5 17 -4 6 0 8 9 5 8 -4 20 -3 26 1 6 4
-16 7 -49 8 -48 1 -58 -1 -50 -11 6 -7 8 -16 4 -19 -3 -4 5 -8 18 -9 27 -2 51
-5 59 -8 3 -1 12 -3 20 -5 8 -1 36 -14 62 -27 l47 -24 -38 1 c-22 0 -37 3 -35
6 2 3 -8 11 -22 17 -19 9 -34 9 -64 -2 -34 -11 -41 -11 -51 0 -6 8 -8 14 -3
14 5 0 1 7 -10 15 -10 7 -16 20 -14 27 3 7 -2 19 -9 27 -12 12 -11 16 12 31
25 17 25 18 6 23 -12 3 -19 1 -16 -3 3 -5 -3 -14 -15 -20 -17 -9 -20 -20 -19
-84 1 -49 5 -73 12 -72 7 0 12 -3 12 -9 0 -5 -5 -9 -12 -9 -10 1 -12 -109 -13
-487 0 -384 3 -489 13 -489 8 0 8 -3 2 -8 -6 -4 -12 -42 -13 -85 -2 -61 0 -77
10 -71 10 6 11 4 0 -7 -6 -7 -12 -36 -12 -64 l0 -51 35 0 c38 1 44 9 18 25
-17 10 -17 10 0 11 10 0 34 12 53 26 25 20 41 25 61 20 16 -3 38 -9 50 -11 27
-6 29 6 7 40 -9 14 -15 25 -13 25 2 0 36 3 74 6 65 6 69 5 50 -10 -11 -8 -16
-16 -11 -16 6 0 1 -6 -9 -14 -23 -16 -41 -10 -25 9 8 9 4 12 -16 9 -36 -4 -40
-11 -20 -33 16 -17 15 -19 -14 -33 -26 -13 -29 -17 -16 -27 16 -13 60 -5 51 9
-3 5 6 20 20 34 23 23 37 23 16 0 -5 -5 -12 -20 -16 -32 -6 -21 -5 -23 13 -13
12 6 32 11 46 11 14 0 26 5 26 11 0 20 23 3 25 -19 2 -29 10 -36 32 -28 17 7
17 8 1 17 -28 15 -21 34 12 36 27 2 29 0 20 -17 -8 -16 -8 -20 4 -20 8 0 18 5
21 11 4 6 13 8 19 6 7 -3 18 4 24 14 11 16 9 19 -8 19 -11 0 -23 6 -26 14 -3
9 -12 12 -21 9 -12 -5 -14 -3 -8 7 6 10 4 12 -11 6 -15 -6 -17 -5 -7 5 21 21
15 26 -27 26 -22 0 -40 -4 -40 -10 0 -5 -7 -4 -16 4 -14 11 -14 13 1 22 10 5
33 7 51 4 19 -3 32 -2 30 2 -3 4 0 8 7 9 7 0 48 4 92 8 55 4 84 11 93 22 11
14 12 14 12 0 0 -14 17 -16 130 -15 72 1 130 4 130 8 0 9 34 7 41 -3 9 -14
200 -13 234 2 l30 13 -25 7 c-23 7 -9 16 15 10 6 -2 28 -4 50 -6 156 -12 185
-17 185 -33 0 -4 16 -5 36 -3 28 3 35 1 29 -8 -6 -10 5 -11 56 -6 35 4 70 13
78 19 12 10 14 9 8 -5 -5 -13 1 -19 26 -23 52 -10 142 -2 139 13 -2 14 24 17
32 3 4 -5 0 -12 -6 -14 -7 -3 -4 -6 8 -6 16 -1 20 5 18 29 -1 17 2 30 6 30 5
0 15 3 23 6 11 4 13 -1 10 -20 -3 -14 -10 -23 -15 -20 -6 4 -8 -2 -6 -12 3
-20 70 -40 76 -23 8 20 23 8 17 -13 -5 -18 -4 -20 4 -8 12 17 97 24 107 9 3
-5 2 -9 -3 -8 -4 1 -15 0 -23 -1 -8 -2 5 -6 30 -9 25 -4 63 -2 85 3 22 5 52 8
68 7 15 -1 27 3 27 9 0 5 -13 11 -30 11 -16 1 -44 2 -61 3 -17 0 -34 -5 -38
-13 -6 -10 -9 -10 -15 4 -11 29 -13 29 123 21 47 -2 88 -9 95 -16 8 -10 5 -11
-17 -8 -15 3 -30 1 -33 -3 -3 -5 3 -9 13 -10 10 0 40 -3 67 -5 43 -5 48 -4 42
12 -5 14 -4 15 9 4 8 -7 24 -10 35 -7 11 3 18 2 16 -2 -9 -13 9 -29 39 -33 17
-3 24 -3 18 -1 -7 3 -13 11 -13 18 0 7 -8 16 -17 19 -10 2 3 3 30 2 40 -2 47
0 47 16 0 19 -15 24 -25 8 -3 -5 -12 -10 -18 -10 -7 1 -2 9 10 19 l23 19 -24
-2 c-13 0 -22 -5 -19 -9 3 -5 -10 -7 -28 -4 -29 3 -34 7 -34 30 1 21 -4 27
-20 27 -12 0 -26 -5 -32 -11 -8 -8 -19 -4 -40 16 -15 15 -22 24 -14 20 11 -6
13 -2 7 18 -5 20 -1 29 16 41 18 13 19 16 5 16 -14 0 -15 4 -7 25 5 14 7 25 4
25 -4 0 -1 7 6 15 9 11 10 18 1 29 -6 7 -9 28 -7 47 3 19 5 37 5 41 1 3 9 9
19 11 16 4 16 5 0 6 -10 0 -18 8 -18 16 0 18 36 20 43 3 3 -8 6 -6 6 5 1 9 -4
17 -11 17 -19 0 5 18 27 20 41 4 56 0 49 -12 -6 -9 -3 -9 9 0 9 8 21 11 26 7
7 -3 8 0 5 9 -3 8 -12 12 -20 9 -9 -3 -14 2 -14 13 0 16 -2 17 -10 4 -9 -13
-10 -13 -10 0 -1 12 -3 11 -11 -2 -12 -21 -39 -24 -39 -5 0 8 -10 13 -21 13
-17 -1 -22 6 -25 34 -2 27 -1 30 6 15 5 -11 9 -15 9 -8 1 6 11 13 24 15 12 2
22 9 22 16 0 6 -4 11 -10 10 -5 -2 -9 -6 -7 -10 2 -9 -13 -9 -46 0 l-23 7 21
23 c12 13 28 21 35 18 7 -2 15 4 18 15 4 16 2 19 -11 13 -9 -3 -24 -7 -32 -8
-9 -1 -21 -6 -28 -10 -18 -11 -27 1 -14 17 7 8 8 17 4 21 -4 4 0 13 8 19 23
18 57 62 41 52 -8 -4 -16 -2 -21 6 -7 10 -11 10 -24 -1 -9 -7 -19 -10 -23 -6
-3 3 -1 6 5 6 7 0 12 5 12 11 0 5 -4 8 -9 5 -5 -4 -8 2 -7 11 2 10 15 24 29
31 15 7 27 17 27 23 0 11 -3 11 -33 0 -20 -8 -27 -6 -31 5 -10 26 -7 40 5 24
9 -12 9 -11 4 5 -4 11 -9 43 -11 70 -2 28 -1 42 2 32 5 -16 9 -14 30 14 16 21
24 27 24 17 0 -9 5 -20 12 -24 7 -4 8 -3 4 4 -4 7 -2 12 3 12 6 0 11 7 11 15
0 14 33 38 42 30 3 -3 5 1 5 9 0 8 -6 12 -15 8 -10 -3 -13 -1 -8 6 7 12 -43
-11 -53 -25 -3 -4 -17 -17 -30 -28 -20 -17 -23 -17 -18 -3 3 9 0 19 -7 21 -7
3 -16 18 -19 33 -7 37 20 124 38 124 8 0 15 6 15 13 0 18 -45 59 -54 50 -4 -4
-5 -1 -2 7 8 21 -69 68 -101 62 -19 -4 -22 -7 -11 -14 9 -6 1 -8 -22 -6 -19 1
-40 10 -47 18 -11 13 -12 13 -13 -2 0 -21 -55 -26 -63 -5 -4 10 -6 10 -6 0 -1
-21 -21 -15 -21 6 0 15 8 18 47 18 27 0 49 5 51 12 2 6 8 9 12 6 5 -3 6 -13 3
-22 -4 -11 -3 -14 5 -9 7 4 12 2 12 -3 0 -7 7 -7 20 1 20 13 20 13 -8 25 -16
7 -32 21 -35 33 -3 11 -1 18 4 14 5 -3 9 2 9 10 0 10 -9 16 -21 16 -16 0 -20
5 -16 20 5 18 0 20 -36 19 l-42 -2 35 -7 35 -7 -37 -2 c-21 0 -38 -5 -38 -11
0 -5 -5 -10 -12 -10 -6 0 -19 -7 -28 -15 -22 -20 -80 0 -80 28 0 14 -5 18 -20
14 -11 -3 -22 -1 -25 3 -3 5 -24 11 -47 15 -24 4 -49 15 -56 24 -7 9 -11 11
-8 4 3 -6 -15 -1 -41 12 -29 14 -52 20 -57 14 -6 -5 -15 -9 -20 -9 -6 0 -4 5
4 10 25 17 -16 41 -59 35 -22 -2 -45 2 -58 10 -17 11 -40 13 -97 9 -62 -6 -77
-4 -91 10 -18 17 -80 23 -70 6 3 -6 0 -13 -8 -16 -9 -3 -14 -16 -12 -29 1 -17
-4 -26 -16 -30 -27 -9 -23 -25 5 -25 13 0 27 -6 30 -12 3 -9 9 -8 20 5 14 18
15 18 25 -1 9 -18 8 -19 -12 -15 -22 5 -22 5 -2 -11 20 -17 19 -17 -4 -6 -19
10 -25 9 -32 -1 -7 -12 -9 -12 -9 0 0 10 -10 12 -37 7 -21 -4 -51 -8 -67 -10
-16 -3 -39 -16 -51 -32 -22 -28 -24 -35 -12 -64 28 -66 28 -70 1 -70 -14 0
-22 4 -19 10 3 6 0 10 -8 10 -17 0 -20 48 -5 68 7 8 7 12 -2 12 -10 0 -11 16
-7 64 5 54 3 69 -12 87 l-18 23 -126 -51 c-114 -46 -126 -49 -134 -33 -14 30
-82 100 -97 100 -8 0 -18 14 -22 33 -6 28 -8 29 -15 12 -4 -11 -8 -14 -8 -7
-1 6 -9 12 -19 12 -11 0 -18 8 -19 21 -2 17 1 19 10 10 6 -6 15 -11 20 -11 6
0 -8 14 -29 31 -31 25 -46 30 -71 26 -18 -3 -35 -1 -39 4 -3 5 -10 7 -15 3 -5
-3 -16 0 -25 6 -12 11 -12 14 1 24 12 9 1 12 -48 13 -82 4 -89 0 -77 -33 8
-19 7 -31 0 -38 -7 -7 -10 -6 -10 3 0 7 -4 9 -10 6 -5 -3 -12 7 -16 22 -9 42
-12 50 -13 32 -1 -9 -8 -19 -16 -23 -8 -3 -14 -2 -14 2 4 26 -4 32 -46 32 -37
0 -43 -3 -38 -16 5 -14 3 -15 -16 -5 -12 7 -27 9 -33 5 -6 -4 -9 -3 -6 2 4 5
-16 10 -43 11 l-49 2 2 -44z m208 25 c0 -5 -5 -10 -11 -10 -5 0 -7 5 -4 10 3
6 8 10 11 10 2 0 4 -4 4 -10z m-20 -29 c0 -5 -9 -7 -20 -4 -11 3 -20 7 -20 9
0 2 9 4 20 4 11 0 20 -4 20 -9z m-150 -21 c0 -5 -2 -10 -4 -10 -3 0 -8 5 -11
10 -3 6 -1 10 4 10 6 0 11 -4 11 -10z m513 -4 c8 3 17 1 20 -3 8 -12 -69 -11
-80 1 -5 5 -3 6 5 2 7 -4 12 -2 12 5 0 9 3 9 14 0 7 -6 20 -9 29 -5z m-63 -67
c0 -6 -4 -7 -10 -4 -5 3 -10 11 -10 16 0 6 5 7 10 4 6 -3 10 -11 10 -16z m25
-39 c-3 -5 5 -16 17 -24 12 -9 17 -16 11 -16 -7 0 -15 5 -18 10 -3 6 -16 10
-28 10 -20 1 -20 2 -4 11 9 6 14 15 11 21 -4 7 -2 8 5 4 6 -4 9 -11 6 -16z
m992 -11 c-14 -8 -22 -8 -30 0 -8 8 -3 11 19 11 25 -1 27 -2 11 -11z m-1331
-20 c3 -5 1 -9 -5 -9 -17 0 -41 12 -41 20 0 10 38 1 46 -11z m1224 17 c0 -2
-7 -7 -16 -10 -8 -3 -12 -2 -9 4 6 10 25 14 25 6z m45 -6 c-3 -5 -12 -7 -20
-3 -21 7 -19 13 6 13 11 0 18 -4 14 -10z m-92 -24 c3 -8 0 -17 -8 -19 -17 -7
-25 1 -18 19 7 18 19 18 26 0z m242 -6 c3 -5 -3 -10 -14 -10 -12 0 -21 -5 -21
-12 0 -6 -3 -9 -6 -5 -4 3 -4 13 -1 22 7 17 33 20 42 5z m-1345 -4 c0 -2 -7
-7 -16 -10 -8 -3 -12 -2 -9 4 6 10 25 14 25 6z m360 -6 c0 -5 -4 -10 -9 -10
-6 0 -13 5 -16 10 -3 6 1 10 9 10 9 0 16 -4 16 -10z m665 0 c-3 -5 -12 -10
-18 -10 -7 0 -6 4 3 10 19 12 23 12 15 0z m210 0 c-3 -5 -11 -10 -16 -10 -6 0
-7 5 -4 10 3 6 11 10 16 10 6 0 7 -4 4 -10z m225 -14 c0 -2 -7 -7 -16 -10 -8
-3 -12 -2 -9 4 6 10 25 14 25 6z m-1060 -26 c-7 -5 -2 -13 15 -24 15 -10 25
-20 22 -22 -3 -3 -20 6 -40 19 -30 20 -33 25 -18 34 9 6 20 8 25 6 4 -3 3 -9
-4 -13z m70 5 c0 -9 -9 -15 -22 -15 -21 0 -21 0 -2 15 24 18 24 18 24 0z m290
0 c-14 -8 -29 -14 -35 -14 -5 0 1 6 15 14 14 8 30 14 35 14 6 0 -1 -6 -15 -14z
m400 11 c0 -2 -7 -6 -15 -10 -8 -3 -15 -1 -15 4 0 6 7 10 15 10 8 0 15 -2 15
-4z m-875 -16 c3 -5 1 -10 -4 -10 -6 0 -11 5 -11 10 0 6 2 10 4 10 3 0 8 -4
11 -10z m1000 -1 c4 -6 1 -10 -6 -8 -27 3 -40 -1 -34 -11 3 -5 18 -11 33 -11
27 -1 27 -1 -3 -8 -20 -5 -36 -3 -46 6 -8 7 -22 13 -30 14 -8 0 4 6 26 14 52
17 53 17 60 4z m29 -4 c-4 -8 -8 -15 -10 -15 -2 0 -4 7 -4 15 0 8 4 15 10 15
5 0 7 -7 4 -15z m83 -1 c-3 -3 -12 -4 -19 -1 -8 3 -5 6 6 6 11 1 17 -2 13 -5z
m-690 -10 c-3 -3 -12 -4 -19 -1 -8 3 -5 6 6 6 11 1 17 -2 13 -5z m58 -16 c-1
-13 -3 -26 -4 -30 0 -5 -29 -8 -63 -7 l-63 1 60 28 c74 35 73 35 70 8z m-635
2 c0 -5 -5 -10 -11 -10 -5 0 -7 5 -4 10 3 6 8 10 11 10 2 0 4 -4 4 -10z m1344
-5 c25 -19 16 -19 -20 0 -16 8 -22 15 -14 15 8 -1 24 -7 34 -15z m-374 -12 c8
-4 18 -5 23 -5 12 3 8 -16 -5 -22 -7 -3 1 -4 17 -1 17 2 24 2 17 -1 -6 -3 -10
-10 -7 -15 7 -10 -24 0 -42 14 -9 6 -13 5 -13 -4 0 -9 -3 -10 -11 -2 -7 7 -21
8 -44 0 -24 -7 -44 -7 -67 1 -32 11 -32 11 12 7 33 -4 39 -2 25 4 -16 8 -8 10
35 12 l55 3 -50 4 c-35 3 -44 6 -31 11 20 8 58 5 86 -6z m-463 1 c-3 -3 -12
-4 -19 -1 -8 3 -5 6 6 6 11 1 17 -2 13 -5z m1196 -1 c-7 -2 -19 -2 -25 0 -7 3
-2 5 12 5 14 0 19 -2 13 -5z m-367 -16 c4 -4 -20 -7 -54 -7 -34 0 -62 3 -62 8
0 9 107 9 116 -1z m179 3 c-3 -5 -18 -9 -33 -9 l-27 1 30 8 c17 4 31 8 33 9 2
0 0 -3 -3 -9z m-1221 -25 c27 -8 16 -14 -16 -8 -15 3 -29 11 -32 19 -4 10 -1
11 12 5 9 -5 26 -12 36 -16z m1396 21 c0 -3 -4 -8 -10 -11 -5 -3 -10 -1 -10 4
0 6 5 11 10 11 6 0 10 -2 10 -4z m58 -21 c-3 -3 -9 2 -12 12 -6 14 -5 15 5 6
7 -7 10 -15 7 -18z m-1091 -1 c-3 -3 -12 -4 -19 -1 -8 3 -5 6 6 6 11 1 17 -2
13 -5z m403 -27 c0 -5 -4 -5 -10 -2 -5 3 -10 14 -10 23 0 15 2 15 10 2 5 -8
10 -19 10 -23z m100 14 c15 -29 12 -41 -11 -41 -19 0 -19 -1 -4 -16 13 -14 14
-19 3 -25 -7 -5 -16 -9 -19 -9 -5 0 -5 60 -1 98 3 18 20 15 32 -7z m330 -3 c0
-4 -51 -7 -112 -6 -112 2 -112 2 -33 7 117 9 145 8 145 -1z m90 2 c10 -6 3 -8
-23 -7 -20 1 -37 5 -37 10 0 10 42 9 60 -3z m-1384 -16 c-3 -9 -6 -24 -6 -35
0 -24 -38 -26 -47 -3 -3 9 -13 14 -24 11 -11 -3 -17 -1 -13 4 3 5 20 9 39 9
35 0 55 14 33 23 -8 3 -5 6 6 6 13 1 16 -4 12 -15z m116 6 c17 0 0 -13 -21
-17 -10 -1 -18 4 -18 13 0 9 6 13 14 9 8 -3 20 -5 25 -5z m268 1 l-75 -6 47
-9 c26 -4 55 -6 63 -2 11 4 15 -1 15 -19 l0 -25 -106 1 c-80 1 -109 5 -120 17
-13 12 -13 16 -2 23 20 13 72 11 87 -3 10 -11 11 -10 6 4 -4 9 -21 19 -38 21
-18 2 20 4 83 4 102 -1 107 -1 40 -6z m410 -1 c10 -6 -11 -9 -65 -8 -56 1 -71
3 -50 8 45 11 98 11 115 0z m263 3 c-7 -2 -21 -2 -30 0 -10 3 -4 5 12 5 17 0
24 -2 18 -5z m302 -13 c3 -5 -1 -10 -10 -10 -9 0 -13 5 -10 10 3 6 8 10 10 10
2 0 7 -4 10 -10z m188 3 c-7 -2 -19 -2 -25 0 -7 3 -2 5 12 5 14 0 19 -2 13 -5z
m-257 -51 c5 -26 7 -65 6 -87 -2 -39 13 -250 24 -347 6 -45 4 -48 -18 -49 -20
-1 -20 -2 -3 -6 11 -3 24 -9 30 -14 5 -5 17 -9 27 -9 10 0 18 -4 18 -9 0 -4
-8 -8 -17 -8 -65 0 -83 -4 -83 -18 0 -18 -31 -20 -47 -4 -6 6 -29 10 -51 7
-27 -2 -38 0 -35 8 2 7 -1 15 -8 20 -8 4 -10 3 -5 -4 5 -8 -1 -12 -18 -12 -13
0 -37 -5 -52 -10 -21 -8 -29 -8 -36 2 -6 11 -8 11 -8 0 0 -7 -5 -10 -11 -7 -7
5 -3 16 12 31 21 23 22 27 16 209 -3 113 -1 187 4 191 6 3 6 11 -1 19 -7 8 -9
18 -6 24 3 5 0 12 -6 15 -7 3 5 3 26 -1 28 -4 37 -3 32 6 -4 6 -17 11 -29 12
-49 1 25 19 89 22 35 1 64 5 64 10 0 4 -3 6 -7 6 -5 -1 -45 -1 -90 0 -80 1
-83 2 -83 24 0 23 1 24 129 25 l129 2 8 -48z m-1096 12 c0 -8 -4 -14 -10 -14
-5 0 -10 9 -10 21 0 11 5 17 10 14 6 -3 10 -13 10 -21z m643 -1 c23 -18 25
-23 14 -35 -17 -17 -11 -38 11 -39 12 0 11 -3 -6 -12 -18 -8 -25 -8 -32 2 -10
17 -103 33 -150 26 -27 -4 -30 -3 -15 4 11 5 40 10 63 10 30 1 42 5 39 14 -2
6 -12 11 -21 9 -10 -2 -24 5 -32 15 -13 17 -15 17 -29 -2 -14 -17 -17 -18 -25
-5 -7 10 -10 11 -10 3 0 -7 -7 -13 -16 -13 -25 0 -10 25 17 28 13 2 29 8 34
14 18 18 129 5 158 -19z m837 -3 c0 -5 -5 -10 -11 -10 -5 0 -7 5 -4 10 3 6 8
10 11 10 2 0 4 -4 4 -10z m-1270 -32 c0 16 27 3 35 -15 3 -9 1 -20 -6 -23 -8
-6 -8 -9 0 -14 6 -4 9 -11 6 -16 -3 -5 -7 -92 -10 -194 -2 -101 -5 -188 -6
-193 -4 -24 3 -42 19 -47 9 -3 4 -3 -13 0 -91 15 -115 16 -115 6 0 -6 -10 -14
-22 -17 -15 -6 -26 -1 -41 16 -14 18 -17 19 -13 6 4 -12 2 -17 -6 -14 -7 2
-13 13 -13 25 0 12 -10 29 -22 37 -27 19 -30 11 -7 -13 20 -19 1 -30 -21 -12
-15 12 -18 80 -3 80 4 0 8 7 8 15 0 8 -4 15 -10 15 -5 0 -10 16 -10 35 0 19 3
35 8 35 4 0 6 35 4 78 -4 89 8 135 34 125 10 -3 15 -2 12 3 -3 5 1 15 8 22 13
12 14 9 8 -15 l-7 -28 22 27 c20 24 27 27 77 25 30 -2 57 0 60 4 8 13 -33 29
-75 29 -23 0 -41 5 -41 10 0 7 20 10 50 9 27 -2 53 0 56 4 4 4 13 2 21 -4 9
-8 13 -8 13 -1z m-163 -23 c-7 -7 -16 -10 -22 -5 -13 10 -45 9 -39 -2 3 -4 13
-8 22 -9 9 0 4 -5 -12 -10 -17 -4 -32 -6 -35 -4 -2 3 2 5 10 5 10 1 9 5 -5 15
-17 13 -17 14 10 20 16 4 34 8 39 9 6 2 18 1 27 -2 13 -3 14 -7 5 -17z m1323
14 c0 -6 -7 -9 -15 -6 -8 4 -17 2 -21 -4 -11 -19 5 -22 30 -5 31 20 59 21 32
1 -10 -7 -15 -18 -12 -23 3 -6 -12 -7 -39 -4 -42 4 -60 -7 -35 -23 6 -3 10 -2
10 3 0 13 57 2 57 -11 0 -7 8 -83 18 -170 9 -88 14 -165 11 -173 -3 -8 -1 -14
4 -14 6 0 10 -6 10 -13 0 -7 9 -18 20 -25 11 -7 20 -16 20 -20 0 -6 -59 -6
-115 0 -6 1 -23 -2 -38 -6 -27 -6 -35 2 -18 20 8 8 16 70 11 84 -8 21 -6 90 2
90 7 0 6 5 -1 14 -7 8 -11 20 -10 28 1 7 -1 20 -4 28 -8 19 -16 173 -9 166 5
-6 32 40 32 54 0 5 -10 11 -22 13 -13 2 1 5 30 6 32 0 52 -3 52 -10z m160 1
c0 -5 -5 -10 -11 -10 -5 0 -7 5 -4 10 3 6 8 10 11 10 2 0 4 -4 4 -10z m-2126
-46 c22 -8 20 -27 -5 -42 -13 -8 -18 -19 -14 -31 3 -11 -2 -24 -12 -32 -16
-13 -17 -12 -4 4 17 21 4 22 -20 1 -13 -12 -19 -12 -25 -3 -4 8 -3 10 4 5 16
-10 15 7 0 23 -11 11 -9 12 11 6 15 -5 26 -3 32 6 13 21 11 27 -11 34 -29 9
-25 28 5 23 13 -3 22 -1 19 3 -6 11 -1 11 20 3z m986 2 c0 -11 -19 -15 -25 -6
-3 5 1 10 9 10 9 0 16 -2 16 -4z m200 -17 c0 -5 10 -7 23 -5 64 13 87 15 87 6
0 -6 -6 -10 -14 -10 -8 0 -16 -6 -19 -12 -9 -28 6 -393 17 -403 6 -6 20 -15
31 -20 18 -7 18 -9 3 -12 -10 -3 -18 -9 -18 -14 0 -12 -57 -12 -65 1 -4 6 -15
6 -31 0 -17 -7 -23 -7 -19 0 4 6 -14 10 -47 10 -57 1 -163 22 -154 31 5 5 21
320 19 391 0 17 4 25 12 22 7 -3 15 2 19 11 3 9 10 14 15 11 5 -3 18 -3 30 2
26 9 111 3 111 -9z m915 11 c4 -7 -3 -8 -22 -4 -38 9 -42 14 -10 14 14 0 29
-5 32 -10z m-1968 -35 c17 0 29 -3 27 -7 -3 -4 3 -11 12 -16 14 -8 14 -10 -5
-15 -11 -3 -24 -1 -27 4 -3 5 -16 6 -29 3 -13 -3 -32 -1 -42 5 -14 8 -15 11
-3 11 11 0 10 4 -5 16 -19 15 -18 15 10 8 17 -5 44 -8 62 -9z m1955 -30 c2 3
4 -11 4 -30 -1 -36 -5 -39 -44 -29 -21 6 -21 7 -5 20 17 13 17 14 1 8 -10 -3
-18 -1 -18 5 0 6 7 11 16 11 12 0 15 6 11 21 -5 19 -4 20 12 5 10 -9 20 -14
23 -11z m33 15 c3 -5 1 -10 -4 -10 -6 0 -11 5 -11 10 0 6 2 10 4 10 3 0 8 -4
11 -10z m-2215 -34 c0 -3 -4 -8 -10 -11 -5 -3 -10 -1 -10 4 0 6 5 11 10 11 6
0 10 -2 10 -4z m-33 -48 c-3 -8 -6 -5 -6 6 -1 11 2 17 5 13 3 -3 4 -12 1 -19z
m2260 6 c-3 -3 -12 -4 -19 -1 -8 3 -5 6 6 6 11 1 17 -2 13 -5z m-2057 -24 c0
-5 -4 -10 -9 -10 -6 0 -13 5 -16 10 -3 6 1 10 9 10 9 0 16 -4 16 -10z m118
-20 c13 0 22 -6 22 -15 0 -11 -11 -15 -40 -15 -22 0 -40 5 -40 10 0 6 -8 10
-17 10 -16 0 -16 2 -3 10 8 6 24 8 35 5 11 -2 30 -5 43 -5z m57 -28 c-3 -3
-11 0 -18 7 -9 10 -8 11 6 5 10 -3 15 -9 12 -12z m-358 -24 c-3 -7 -5 -2 -5
12 0 14 2 19 5 13 2 -7 2 -19 0 -25z m287 -10 c-5 -8 0 -9 16 -5 16 4 20 3 12
-5 -5 -5 -20 -7 -32 -3 -18 6 -20 9 -9 16 19 12 22 11 13 -3z m49 -75 c-13 -2
-33 -2 -45 0 -13 2 -3 4 22 4 25 0 35 -2 23 -4z m54 -105 c-3 -8 -6 -5 -6 6
-1 11 2 17 5 13 3 -3 4 -12 1 -19z m73 2 c0 -6 -11 -8 -27 -4 -40 10 -41 14
-5 14 18 0 32 -5 32 -10z m-120 -14 c0 -3 -4 -8 -10 -11 -5 -3 -10 -1 -10 4 0
6 5 11 10 11 6 0 10 -2 10 -4z m150 -6 c0 -5 -5 -10 -11 -10 -5 0 -7 5 -4 10
3 6 8 10 11 10 2 0 4 -4 4 -10z m573 -27 c-7 -2 -19 -2 -25 0 -7 3 -2 5 12 5
14 0 19 -2 13 -5z m521 -29 c9 -3 13 -10 10 -15 -3 -5 -10 -7 -15 -4 -5 4 -9
1 -9 -4 0 -6 7 -11 15 -11 8 0 19 -9 25 -20 9 -16 8 -22 -5 -26 -14 -6 -13 -8
5 -21 28 -20 25 -33 -7 -33 -24 0 -25 -1 -10 -12 12 -9 19 -33 22 -83 3 -38 8
-92 11 -118 4 -29 2 -53 -5 -61 -7 -8 -10 -19 -9 -26 2 -7 -7 -13 -19 -15 -24
-2 -31 9 -13 20 6 3 10 12 10 18 0 8 -3 9 -8 1 -4 -6 -15 -13 -24 -17 -16 -6
-18 2 -19 66 -1 65 -2 68 -9 28 -3 -24 -6 -55 -5 -70 1 -23 -3 -27 -25 -29
-25 -2 -28 2 -33 35 -2 21 -5 59 -6 86 -2 45 -1 47 27 47 15 0 34 -6 41 -12
10 -11 11 -7 7 17 -4 17 -3 24 0 18 8 -18 23 -16 20 2 -4 25 -12 26 -31 5 -22
-24 -55 -26 -55 -4 0 11 6 14 20 9 11 -4 20 -2 20 4 0 10 -17 15 -47 14 -7 -1
-13 4 -13 9 0 6 21 8 49 6 l49 -3 7 39 c3 22 2 42 -2 45 -4 3 -8 32 -8 64 0
57 5 64 39 51z m216 -12 c0 9 3 10 8 2 11 -17 35 -22 55 -12 13 6 17 5 17 -7
0 -14 2 -14 13 -3 9 9 40 12 103 11 140 -3 154 -5 154 -25 0 -14 -8 -18 -37
-18 -24 0 -33 -3 -25 -9 7 -4 24 -6 38 -3 14 2 24 0 24 -7 0 -6 7 -11 15 -11
15 0 21 -25 8 -33 -12 -7 -55 12 -50 20 3 5 -6 8 -19 8 -17 0 -24 -6 -24 -20
-1 -18 -2 -17 -14 5 l-14 24 -5 -24 -4 -25 -8 23 c-7 20 -13 22 -91 22 -46 0
-84 -4 -84 -9 0 -16 -32 -22 -48 -9 -11 9 -14 9 -9 1 4 -6 3 -14 -2 -17 -5 -3
-11 4 -14 16 -6 20 -8 19 -38 -15 -31 -35 -69 -49 -69 -26 0 6 9 9 20 6 13 -3
20 0 20 9 0 17 -5 17 -31 4 -32 -18 -22 -47 14 -41 5 1 6 -2 3 -7 -2 -4 -21
-6 -41 -4 -32 4 -34 6 -18 18 11 8 13 13 6 14 -7 0 -13 8 -13 18 0 19 4 20 95
25 10 1 28 10 38 20 13 13 29 18 53 15 20 -2 30 0 25 5 -5 5 -27 8 -48 6 -37
-4 -38 -3 -38 27 0 27 3 31 18 23 12 -7 17 -6 17 3z m-1430 -22 c0 -5 -5 -10
-11 -10 -5 0 -7 5 -4 10 3 6 8 10 11 10 2 0 4 -4 4 -10z m325 -12 c-5 -12 -28
-15 -113 -15 -72 0 -97 2 -77 8 26 7 23 8 -17 6 -27 -1 -48 1 -48 5 0 5 36 8
80 8 52 0 80 -4 80 -11 0 -8 5 -7 15 1 9 7 18 10 21 7 3 -3 17 -2 32 3 32 8
34 7 27 -12z m205 10 c0 -9 4 -8 10 2 8 12 10 11 10 -7 0 -19 -5 -22 -34 -21
-27 1 -32 5 -28 20 5 20 42 25 42 6z m524 -7 c10 -37 1 -76 -19 -79 -11 -2
-24 -9 -30 -14 -7 -7 -1 -9 18 -6 18 4 27 1 27 -8 0 -8 4 -14 10 -14 15 0 8
-262 -7 -268 -9 -2 -13 8 -14 30 l-1 33 -9 -32 c-8 -29 -14 -33 -44 -33 l-35
0 0 85 c0 82 3 91 33 86 6 -1 11 18 5 19 -2 1 -33 3 -70 6 -53 5 -68 3 -68 -8
0 -10 -3 -9 -10 2 -6 10 -10 11 -10 3 0 -19 -67 -17 -74 3 -5 13 2 15 42 14
74 -3 92 -1 92 10 0 6 -7 10 -15 10 -8 0 -15 4 -15 10 0 11 53 40 74 40 9 0
14 8 13 20 -1 11 -5 20 -10 20 -4 0 -5 5 -2 10 3 6 16 10 28 10 17 0 19 -2 7
-10 -8 -5 -12 -11 -9 -15 3 -3 14 4 24 15 18 20 18 20 -31 20 -76 0 -85 2 -80
17 3 7 0 14 -7 14 -13 1 124 23 160 25 13 1 24 -5 27 -15z m-994 -6 c0 -10
-10 -15 -26 -15 -22 0 -25 2 -14 15 7 8 19 15 26 15 8 0 14 -7 14 -15z m1045
-23 c-6 -6 -35 18 -35 29 0 5 9 1 20 -8 11 -9 17 -19 15 -21z m211 23 c-5 -15
8 -19 47 -16 9 1 17 -3 17 -10 0 -7 -11 -10 -30 -7 -30 5 -41 -6 -17 -15 6 -3
-5 -6 -25 -6 -37 -1 -37 0 -27 26 9 24 25 42 38 43 2 0 1 -7 -3 -15z m-571
-23 c-6 -7 -45 9 -45 18 0 4 11 3 24 -3 14 -7 23 -13 21 -15z m30 10 c-3 -3
-11 0 -18 7 -9 10 -8 11 6 5 10 -3 15 -9 12 -12z m-802 -32 c3 -11 1 -20 -4
-20 -5 0 -9 9 -9 20 0 11 2 20 4 20 2 0 6 -9 9 -20z m297 6 c0 -6 5 -5 12 2
14 14 52 16 43 2 -3 -5 1 -10 10 -10 26 0 8 -18 -25 -25 -21 -5 -35 -2 -46 9
-8 9 -25 16 -37 16 -12 0 -55 2 -94 4 -54 2 -73 0 -73 -9 0 -16 -27 -27 -35
-15 -4 6 0 10 7 11 10 0 10 2 1 6 -7 2 -13 9 -13 14 0 6 50 9 125 7 72 -1 125
-7 125 -12z m295 -8 c14 -12 25 -25 25 -29 0 -7 -63 -4 -106 6 -29 6 -34 -2
-22 -37 9 -25 12 -28 20 -14 10 18 53 22 63 6 21 -34 14 -180 -9 -180 -8 0
-11 -14 -10 -40 1 -28 -3 -43 -15 -49 -15 -9 -15 -10 1 -16 30 -12 8 -27 -29
-20 -24 4 -33 3 -28 -4 4 -7 -7 -11 -31 -11 -43 0 -42 -7 1 -13 26 -4 30 -8
27 -33 -4 -39 -10 -43 -65 -48 l-48 -5 1 52 c1 29 1 57 0 62 -1 6 -1 31 0 58
1 40 -1 47 -18 47 -11 0 -25 -7 -32 -15 -8 -10 -17 -12 -29 -5 -15 8 -17 5
-16 -21 1 -18 -3 -29 -12 -29 -12 0 -17 13 -14 33 1 4 1 19 1 32 0 14 0 36 0
49 0 17 -7 26 -23 29 -16 3 -13 5 13 8 19 1 -5 6 -55 9 l-90 7 98 -1 97 -1 0
27 c0 16 -3 27 -7 26 -13 -4 -53 26 -53 39 0 14 -66 19 -72 5 -1 -4 -19 -18
-40 -30 -27 -17 -35 -27 -31 -42 3 -11 1 -20 -4 -20 -5 0 -9 -9 -9 -19 0 -11
4 -17 9 -14 5 3 26 7 46 9 20 1 28 1 19 -2 -10 -3 -18 -14 -18 -25 0 -20 -24
-26 -35 -9 -3 6 -1 10 6 10 7 0 9 3 6 7 -4 3 -15 -1 -25 -10 -16 -15 -24 -15
-62 -4 l-44 13 3 58 c1 32 7 69 11 82 8 21 12 22 38 13 16 -5 35 -9 42 -7 7 2
17 -8 21 -22 4 -14 7 -19 8 -12 1 7 13 17 27 22 14 6 23 14 19 19 -7 12 15 26
24 15 8 -12 34 -11 43 1 5 6 21 -5 41 -27 l33 -37 11 29 c13 34 24 37 47 14
19 -18 21 -77 5 -140 -13 -49 -6 -66 16 -43 9 9 15 38 16 79 3 71 11 90 40 90
23 0 25 16 4 24 -26 10 -16 26 15 26 18 0 33 6 36 15 4 8 12 15 20 15 8 0 14
5 14 10 0 18 60 10 85 -12z m268 15 c-7 -2 -19 -2 -25 0 -7 3 -2 5 12 5 14 0
19 -2 13 -5z m-825 -28 c-3 -3 -9 2 -12 12 -6 14 -5 15 5 6 7 -7 10 -15 7 -18z
m760 -11 c-7 -15 -14 -21 -16 -15 -2 6 -13 11 -25 11 -18 0 -19 -2 -7 -10 12
-8 11 -10 -7 -10 -25 0 -26 1 -17 24 3 8 12 12 19 10 7 -3 16 -1 20 5 3 6 15
11 25 11 17 0 18 -3 8 -26z m55 11 c7 2 28 0 47 -4 23 -6 27 -9 13 -10 -12 -1
-24 -7 -27 -13 -5 -10 -7 -10 -12 -1 -3 8 -15 11 -29 7 -21 -5 -23 -3 -18 17
4 13 8 18 10 12 3 -7 10 -10 16 -8z m90 8 c-7 -2 -19 -2 -25 0 -7 3 -2 5 12 5
14 0 19 -2 13 -5z m233 -13 c12 0 12 -2 2 -14 -14 -15 -28 -3 -27 24 0 10 2
11 6 3 2 -7 11 -13 19 -13z m459 -30 c24 9 31 7 48 -11 13 -13 22 -17 26 -10
4 6 29 12 56 13 l50 3 13 -144 c12 -140 11 -171 -8 -141 -7 10 -10 11 -10 3 0
-7 -3 -12 -7 -12 -19 3 -33 -2 -33 -12 0 -6 9 -8 20 -4 11 4 20 2 20 -4 0 -6
-15 -14 -32 -19 -21 -6 -32 -14 -29 -23 2 -8 3 -23 3 -34 -1 -10 3 -25 9 -31
7 -8 7 -14 -1 -19 -5 -3 -10 1 -10 9 0 8 -5 18 -12 22 -8 5 -9 2 -5 -9 3 -10
2 -17 -3 -17 -6 0 -10 7 -10 15 0 24 -32 33 -113 32 -51 -1 -77 2 -77 9 0 29
13 74 22 74 5 0 7 -4 3 -9 -3 -5 -1 -12 5 -16 5 -3 10 -15 10 -26 0 -10 5 -19
11 -19 5 0 7 5 4 11 -11 16 4 59 20 59 8 0 15 5 15 10 0 6 5 10 10 10 16 0 11
-27 -6 -34 -35 -14 -6 -14 41 -1 42 11 45 13 20 14 l-30 1 3 67 c2 48 8 72 20
81 13 10 4 12 -51 12 l-67 0 6 -70 c5 -47 3 -70 -4 -70 -6 0 -17 -3 -26 -6
-13 -5 -15 -1 -9 26 4 24 3 31 -5 26 -7 -4 -12 -14 -12 -22 0 -8 -7 -14 -16
-14 -14 0 -14 -2 1 -16 31 -32 -7 -52 -40 -21 -11 10 -10 15 2 30 10 10 12 17
5 17 -7 0 -12 9 -12 19 0 11 -4 22 -10 26 -5 3 -9 -5 -8 -17 2 -52 -2 -68 -19
-69 -15 0 -15 -2 2 -9 34 -13 42 -32 37 -88 -4 -49 -6 -52 -25 -46 -12 4 -23
10 -25 15 -2 4 -16 6 -32 3 -15 -4 -36 -1 -47 6 -15 10 -13 11 15 6 19 -3 32
-1 32 5 0 6 -4 8 -9 5 -20 -13 -61 62 -53 97 2 13 14 17 43 17 23 0 38 4 34
10 -3 5 -13 6 -23 3 -15 -6 -15 -5 -3 10 7 9 10 17 6 17 -4 0 -13 -7 -20 -17
-7 -9 -19 -14 -29 -10 -24 9 -22 146 3 148 13 1 12 2 -2 6 -14 4 -17 11 -13
29 4 14 2 24 -4 24 -5 0 -10 5 -10 11 0 6 7 9 15 6 8 -4 17 -2 20 3 4 6 17 8
31 5 13 -3 35 -7 49 -10 24 -5 35 -30 16 -37 -4 -1 -2 -21 4 -43 13 -39 13
-38 14 46 1 70 4 88 17 93 21 8 44 -11 45 -38 0 -11 3 -15 6 -8 2 6 11 12 19
12 8 0 14 4 14 10 0 5 11 12 25 16 15 4 22 11 18 18 -4 6 -1 6 9 -2 12 -9 23
-10 43 -2z m-785 -10 c-8 -5 -19 -10 -25 -10 -5 0 -3 5 5 10 8 5 20 10 25 10
6 0 3 -5 -5 -10z m-110 -56 c0 -23 5 -46 10 -49 6 -3 10 0 11 7 0 10 2 10 6 1
2 -7 16 -13 30 -13 l25 0 -3 -122 c-2 -68 -8 -131 -14 -140 -12 -22 -45 -24
-45 -3 0 8 6 15 13 15 22 0 -17 20 -40 20 -18 0 -23 6 -23 25 0 27 17 34 26
10 11 -27 25 -16 20 16 -3 24 -1 29 10 25 8 -3 14 -1 14 4 0 6 -4 10 -10 10
-5 0 -10 6 -10 14 0 9 -7 12 -21 9 -14 -4 -17 -9 -10 -16 14 -14 14 -37 1 -37
-5 0 -10 7 -10 15 0 8 -8 15 -18 15 -15 0 -19 -8 -19 -46 0 -25 -5 -49 -12
-53 -7 -4 -9 -15 -5 -26 6 -14 4 -16 -6 -10 -10 6 -11 2 -7 -18 6 -22 4 -24
-13 -20 -15 4 -20 14 -20 37 0 18 -3 36 -7 40 -5 4 -9 31 -10 59 -1 40 3 56
19 71 16 15 17 20 6 27 -7 5 -9 9 -4 9 5 0 3 7 -5 16 -10 13 -10 17 2 25 9 6
10 12 4 17 -7 5 -7 18 2 42 12 36 17 33 13 -9 -1 -14 2 -21 9 -17 6 4 11 18
11 32 0 17 5 24 20 24 14 0 20 7 20 24 0 19 4 23 20 19 16 -4 20 -14 20 -49z
m-1065 36 c-3 -5 -10 -10 -16 -10 -5 0 -9 5 -9 10 0 6 7 10 16 10 8 0 12 -4 9
-10z m57 -22 c-8 -8 -9 -4 -5 13 4 13 8 18 11 10 2 -7 -1 -18 -6 -23z m1075
26 c-3 -3 -12 -4 -19 -1 -8 3 -5 6 6 6 11 1 17 -2 13 -5z m381 -11 c-10 -2
-26 -2 -35 0 -10 3 -2 5 17 5 19 0 27 -2 18 -5z m235 -10 c-7 -2 -19 -2 -25 0
-7 3 -2 5 12 5 14 0 19 -2 13 -5z m-1735 -10 c-16 -2 -40 -2 -55 0 -16 2 -3 4
27 4 30 0 43 -2 28 -4z m1165 0 c-7 -2 -19 -2 -25 0 -7 3 -2 5 12 5 14 0 19
-2 13 -5z m-625 -30 c-15 -2 -42 -2 -60 0 -18 2 -6 4 27 4 33 0 48 -2 33 -4z
m1799 -9 c-3 -3 -12 -4 -19 -1 -8 3 -5 6 6 6 11 1 17 -2 13 -5z m-1847 -94 c0
-5 -5 -10 -11 -10 -5 0 -7 5 -4 10 3 6 8 10 11 10 2 0 4 -4 4 -10z m35 -10
c-3 -5 -12 -10 -18 -10 -7 0 -6 4 3 10 19 12 23 12 15 0z m-145 -10 c8 -5 10
-10 4 -10 -7 0 -14 -9 -17 -20 -3 -11 -12 -20 -21 -20 -9 0 -13 6 -10 14 3 9
-3 17 -15 21 -12 3 -19 11 -16 16 8 12 56 11 75 -1z m60 -36 c0 -3 -5 -2 -11
2 -8 4 -9 -4 -4 -27 4 -23 3 -29 -3 -20 -8 11 -11 10 -15 -5 -2 -10 -4 6 -5
37 0 56 0 57 19 38 10 -10 19 -22 19 -25z m1520 7 c0 -27 -10 -31 -29 -13 -24
23 -16 55 10 41 10 -5 19 -18 19 -28z m-1424 -12 c3 -6 0 -15 -7 -20 -12 -7
-12 -9 0 -9 10 0 11 -3 2 -13 -6 -8 -8 -17 -4 -20 3 -4 -10 -7 -30 -7 -36 0
-37 1 -33 33 3 17 5 35 5 40 1 11 59 8 67 -4z m114 -12 c0 -1 -9 -10 -20 -20
-19 -16 -20 -16 -20 3 0 13 7 20 20 20 11 0 20 -1 20 -3z m-279 -25 c-7 -2
-18 1 -23 6 -8 8 -4 9 13 5 13 -4 18 -8 10 -11z m213 -27 c-7 -17 -7 -17 -29
-9 -13 5 -14 8 -3 15 21 14 38 10 32 -6z m836 -11 c0 -8 -11 -14 -27 -15 l-28
-1 30 -8 30 -8 -27 -1 c-16 0 -28 -5 -28 -10 0 -5 8 -7 19 -4 20 5 34 -18 25
-41 -7 -18 -72 -17 -79 2 -4 10 3 12 25 8 17 -2 30 0 30 5 0 5 -13 9 -29 9
-27 0 -30 4 -34 38 -3 32 -4 31 -5 -13 -1 -27 -7 -57 -13 -65 -7 -11 -9 -6 -7
22 1 20 -1 40 -5 44 -4 4 -7 18 -7 30 0 19 6 23 38 26 56 5 92 -3 92 -18z m74
9 c-5 -17 -5 -17 9 0 15 18 33 24 23 8 -4 -5 -2 -21 3 -35 8 -20 7 -24 -4 -19
-8 3 -15 9 -15 14 0 5 -4 9 -9 9 -5 0 -7 -9 -4 -20 3 -11 1 -20 -5 -20 -12 0
-24 29 -16 41 3 5 -2 9 -10 9 -9 0 -16 7 -16 15 0 9 9 15 25 15 19 0 23 -4 19
-17z m-1127 -9 c-3 -3 -12 -4 -19 -1 -8 3 -5 6 6 6 11 1 17 -2 13 -5z m1193
-4 c0 -5 -4 -10 -10 -10 -5 0 -10 5 -10 10 0 6 5 10 10 10 6 0 10 -4 10 -10z
m-1078 -12 c-20 -20 -14 -27 26 -31 l37 -4 -42 -1 c-40 -2 -43 0 -43 23 0 17
6 25 17 25 13 0 14 -3 5 -12z m151 -3 c-3 -9 -8 -14 -10 -11 -3 3 -2 9 2 15 9
16 15 13 8 -4z m-286 -10 c0 -9 -6 -14 -14 -11 -7 3 -13 1 -13 -4 0 -6 -4 -10
-9 -10 -5 0 -7 9 -4 20 6 23 40 27 40 5z m67 -49 c3 -24 1 -36 -8 -36 -8 0
-13 18 -14 53 -2 59 14 47 22 -17z m426 42 c0 -9 4 -8 10 2 8 12 10 11 10 -7
0 -16 -6 -23 -19 -23 -22 0 -35 15 -26 30 9 14 25 12 25 -2z m208 -32 c0 -18
-6 -24 -19 -23 -18 1 -26 27 -12 40 14 15 31 6 31 -17z m-478 -29 c0 -22 -3
-28 -9 -18 -7 11 -9 11 -14 0 -3 -8 -6 -2 -6 14 -1 21 -6 27 -23 28 -18 1 -17
3 7 8 40 10 45 6 45 -32z m-577 13 c-5 -20 -33 -29 -33 -10 0 6 -8 11 -17 11
-14 1 15 12 49 18 3 0 4 -8 1 -19z m2004 -12 c-3 -8 -6 -5 -6 6 -1 11 2 17 5
13 3 -3 4 -12 1 -19z m-467 8 c0 -3 -4 -8 -10 -11 -5 -3 -10 -1 -10 4 0 6 5
11 10 11 6 0 10 -2 10 -4z m-1580 -16 c0 -5 -8 -10 -17 -10 -15 0 -16 2 -3 10
19 12 20 12 20 0z m572 3 c4 -2 2 -10 -5 -17 -6 -8 -16 -11 -22 -8 -18 11 -45
12 -45 2 0 -6 -7 -10 -15 -10 -13 0 -14 4 -5 20 8 14 20 19 48 18 20 0 40 -3
44 -5z m585 1 c-3 -3 -12 -4 -19 -1 -8 3 -5 6 6 6 11 1 17 -2 13 -5z m714 -14
c5 0 9 -5 9 -11 0 -5 -4 -8 -9 -4 -5 3 -12 1 -16 -5 -8 -13 -35 -13 -35 0 0 6
8 10 18 10 15 0 15 2 2 11 -12 9 -12 10 3 5 10 -3 23 -6 28 -6z m-1830 -13
c-1 -12 -15 -9 -19 4 -3 6 1 10 8 8 6 -3 11 -8 11 -12z m799 -1 c0 -19 -67
-26 -88 -8 -15 11 -11 12 31 7 30 -4 47 -2 47 4 0 6 2 11 5 11 3 0 5 -6 5 -14z
m180 4 c13 -8 13 -10 -2 -10 -9 0 -20 5 -23 10 -8 13 5 13 25 0z m135 0 c-3
-5 -10 -10 -16 -10 -5 0 -9 5 -9 10 0 6 7 10 16 10 8 0 12 -4 9 -10z m297 -12
c-6 -6 -16 -7 -22 -3 -9 6 -9 9 1 16 17 10 34 0 21 -13z m178 12 c0 -13 -11
-13 -30 0 -12 8 -11 10 8 10 12 0 22 -4 22 -10z m-283 -6 c-3 -3 -12 -4 -19
-1 -8 3 -5 6 6 6 11 1 17 -2 13 -5z m751 -19 c-3 -3 -9 2 -12 12 -6 14 -5 15
5 6 7 -7 10 -15 7 -18z m227 1 c12 -12 12 -15 -3 -18 -12 -4 -18 1 -19 13 -2
23 4 24 22 5z m-858 -9 c0 -9 -9 -12 -26 -8 l-26 5 25 7 c14 4 25 7 26 8 0 1
1 -5 1 -12z m167 1 c-3 -4 -12 -8 -20 -8 -8 0 -13 4 -10 8 3 5 12 9 20 9 8 0
13 -4 10 -9z m-1087 -4 c-3 -3 -12 -4 -19 -1 -8 3 -5 6 6 6 11 1 17 -2 13 -5z
m1863 2 c0 -11 -19 -15 -25 -6 -3 5 1 10 9 10 9 0 16 -2 16 -4z m-21 -25 c25
-7 25 -7 -12 -28 -36 -22 -36 -22 -59 -3 l-23 19 23 1 c12 0 22 5 22 10 0 11
13 11 49 1z m-2409 -5 c0 -3 -4 -8 -10 -11 -5 -3 -10 -1 -10 4 0 6 5 11 10 11
6 0 10 -2 10 -4z m117 -43 c-9 -2 -14 -9 -11 -15 4 -6 -2 -5 -15 1 -29 16 -26
21 12 20 17 -1 24 -3 14 -6z m50 1 c-3 -3 -12 -4 -19 -1 -8 3 -5 6 6 6 11 1
17 -2 13 -5z m1928 -4 c3 -5 1 -10 -4 -10 -6 0 -11 5 -11 10 0 6 2 10 4 10 3
0 8 -4 11 -10z m-1925 -26 c0 -2 -7 -4 -15 -4 -8 0 -15 4 -15 10 0 5 7 7 15 4
8 -4 15 -8 15 -10z m234 -19 c-4 -8 -12 -15 -20 -15 -20 0 -17 18 4 23 9 3 18
5 19 6 1 0 0 -6 -3 -14z m-404 -45 c0 -5 -5 -10 -11 -10 -5 0 -7 5 -4 10 3 6
8 10 11 10 2 0 4 -4 4 -10z"/>
<path d="M535 1520 c-3 -5 -1 -10 4 -10 6 0 11 5 11 10 0 6 -2 10 -4 10 -3 0
-8 -4 -11 -10z"/>
<path d="M1790 1491 c0 -10 56 -9 66 2 4 4 -9 7 -29 7 -20 0 -37 -4 -37 -9z"/>
<path d="M1670 1462 c-6 -2 -8 -8 -4 -13 3 -5 -7 -14 -21 -19 -31 -12 -29 -32
3 -37 14 -2 27 5 34 17 10 15 24 20 60 20 28 0 48 -5 51 -12 4 -10 6 -10 6 0
1 7 6 10 11 7 12 -8 13 5 1 24 -8 12 -114 22 -141 13z m0 -46 c0 -11 -19 -15
-25 -6 -3 5 1 10 9 10 9 0 16 -2 16 -4z"/>
<path d="M1835 1450 c3 -5 10 -10 16 -10 5 0 9 5 9 10 0 6 -7 10 -16 10 -8 0
-12 -4 -9 -10z"/>
<path d="M1846 1415 c4 -8 8 -15 10 -15 2 0 4 7 4 15 0 8 -4 15 -10 15 -5 0
-7 -7 -4 -15z"/>
<path d="M1755 1309 c-4 -5 8 -9 26 -9 35 0 35 8 1 15 -12 2 -24 0 -27 -6z"/>
<path d="M1678 1303 c12 -2 32 -2 45 0 12 2 2 4 -23 4 -25 0 -35 -2 -22 -4z"/>
<path d="M1691 1238 c1 -29 4 -64 8 -78 7 -24 7 -24 14 8 5 25 11 32 31 32 17
0 27 -8 34 -27 9 -24 11 -18 11 39 1 43 5 68 14 71 6 3 -16 6 -50 6 l-63 1 1
-52z"/>
<path d="M1708 1043 c6 -2 18 -2 25 0 6 3 1 5 -13 5 -14 0 -19 -2 -12 -5z"/>
<path d="M1778 1043 c7 -3 16 -2 19 1 4 3 -2 6 -13 5 -11 0 -14 -3 -6 -6z"/>
<path d="M1385 1470 c-3 -5 -1 -10 4 -10 6 0 11 5 11 10 0 6 -2 10 -4 10 -3 0
-8 -4 -11 -10z"/>
<path d="M969 1447 c5 -5 17 -5 28 2 16 9 15 10 -9 9 -16 -2 -24 -6 -19 -11z"/>
<path d="M973 1415 c0 -8 4 -15 9 -15 4 0 8 7 8 15 0 8 -4 15 -8 15 -5 0 -9
-7 -9 -15z"/>
<path d="M800 1313 c0 -11 138 -15 144 -5 3 5 -29 9 -69 10 -41 2 -75 -1 -75
-5z"/>
<path d="M810 1284 c13 -4 14 -25 11 -130 -2 -92 0 -125 8 -120 6 4 9 12 6 17
-4 5 -3 9 2 9 4 0 8 23 9 52 1 41 6 55 25 71 24 19 24 19 29 -4 l6 -24 7 25
c4 14 7 42 7 62 0 20 6 39 13 41 6 3 -22 5 -63 5 -41 0 -68 -2 -60 -4z"/>
<path d="M931 1163 c0 -31 2 -34 9 -18 12 28 12 55 0 55 -5 0 -10 -17 -9 -37z"/>
<path d="M927 1077 c-3 -8 -1 -20 4 -28 5 -9 9 -9 9 -2 0 6 3 18 6 27 3 9 2
16 -4 16 -5 0 -12 -6 -15 -13z"/>
<path d="M880 1046 c0 -2 7 -6 15 -10 8 -3 15 -1 15 4 0 6 -7 10 -15 10 -8 0
-15 -2 -15 -4z"/>
<path d="M1215 1383 c2 -10 4 -20 4 -23 2 -11 172 -3 183 8 9 9 6 12 -12 12
-14 0 -46 3 -71 6 -27 3 -56 1 -68 -5 -17 -10 -21 -9 -21 4 0 8 -4 15 -9 15
-5 0 -8 -8 -6 -17z"/>
<path d="M1250 1185 c0 -114 7 -145 25 -115 3 6 2 10 -2 10 -10 0 -10 65 1 96
8 27 52 38 61 15 10 -27 25 8 25 61 0 28 5 48 13 51 6 3 -18 6 -55 6 l-68 1 0
-125z"/>
<path d="M1428 953 c6 -2 18 -2 25 0 6 3 1 5 -13 5 -14 0 -19 -2 -12 -5z"/>
<path d="M255 1370 c-3 -5 1 -10 10 -10 9 0 13 5 10 10 -3 6 -8 10 -10 10 -2
0 -7 -4 -10 -10z"/>
<path d="M1398 737 c-72 -12 -76 -28 -6 -23 29 2 56 0 59 -6 3 -5 9 0 12 11 7
28 2 29 -65 18z"/>
<path d="M1218 693 c6 -2 18 -2 25 0 6 3 1 5 -13 5 -14 0 -19 -2 -12 -5z"/>
<path d="M1460 636 c0 -13 3 -31 6 -40 11 -29 24 -16 24 24 0 29 -4 40 -15 40
-9 0 -15 -9 -15 -24z"/>
<path d="M433 663 c9 -2 23 -2 30 0 6 3 -1 5 -18 5 -16 0 -22 -2 -12 -5z"/>
<path d="M690 619 c0 -16 4 -28 9 -25 8 5 3 56 -5 56 -2 0 -4 -14 -4 -31z"/>
<path d="M903 623 c-13 -35 -9 -43 21 -43 13 0 17 3 9 8 -6 4 -13 21 -15 37
l-3 30 -12 -32z"/>
<path d="M855 600 c3 -5 11 -10 16 -10 6 0 7 5 4 10 -3 6 -11 10 -16 10 -6 0
-7 -4 -4 -10z"/>
<path d="M875 530 c-20 -5 -24 -8 -10 -9 11 -1 31 -4 45 -7 18 -4 21 -3 11 4
-11 8 -11 10 0 15 21 8 -10 6 -46 -3z"/>
<path d="M898 493 c6 -2 18 -2 25 0 6 3 1 5 -13 5 -14 0 -19 -2 -12 -5z"/>
<path d="M1982 758 c2 -6 -5 -21 -16 -33 -16 -16 -26 -19 -40 -12 -16 8 -18 6
-13 -14 4 -13 7 -40 8 -59 1 -24 3 -28 6 -12 4 21 10 22 96 24 l92 2 -95 6
c-106 7 -103 12 11 15 73 2 99 8 99 23 0 4 -37 6 -82 4 -46 -2 -80 -1 -76 3 4
4 32 7 62 6 62 0 78 10 41 27 -14 7 -25 16 -25 22 0 5 -16 10 -36 10 -23 0
-34 -4 -32 -12z m51 -5 c-7 -2 -19 -2 -25 0 -7 3 -2 5 12 5 14 0 19 -2 13 -5z"/>
<path d="M1120 749 c0 -5 5 -7 10 -4 6 3 10 8 10 11 0 2 -4 4 -10 4 -5 0 -10
-5 -10 -11z"/>
<path d="M1083 557 c5 -15 37 -22 37 -9 0 5 -9 12 -21 15 -13 3 -19 1 -16 -6z"/>
<path d="M1273 1820 c-13 -5 -23 -11 -23 -12 0 -2 23 -3 50 -3 43 0 48 2 33
13 -19 14 -29 14 -60 2z"/>
<path d="M304 1719 c-4 -8 1 -9 16 -4 18 6 22 4 17 -8 -3 -8 0 -18 8 -20 8 -4
12 1 10 11 -2 9 -4 20 -4 25 -1 11 -39 8 -47 -4z"/>
<path d="M120 1716 c0 -2 7 -7 16 -10 8 -3 12 -2 9 4 -6 10 -25 14 -25 6z"/>
<path d="M40 1702 c0 -7 12 -17 26 -22 32 -13 77 -13 70 -1 -3 5 -15 7 -26 4
-13 -3 -22 1 -26 12 -5 13 -9 14 -15 3 -7 -11 -11 -10 -19 2 -7 10 -10 11 -10
2z"/>
<path d="M460 1680 c0 -5 7 -10 16 -10 8 0 12 5 9 10 -3 6 -10 10 -16 10 -5 0
-9 -4 -9 -10z"/>
<path d="M1808 1683 c7 -3 16 -2 19 1 4 3 -2 6 -13 5 -11 0 -14 -3 -6 -6z"/>
<path d="M11 1593 c10 -11 10 -14 2 -9 -8 4 -13 2 -13 -8 0 -21 17 -29 24 -11
3 8 13 15 21 15 15 0 15 2 1 15 -8 8 -22 15 -32 15 -14 0 -15 -2 -3 -17z"/>
<path d="M87 1566 c4 -19 -1 -25 -21 -30 -14 -3 -26 -11 -26 -16 0 -14 12 -12
34 5 15 11 22 12 27 3 5 -8 12 -7 24 5 9 10 14 18 11 18 -3 1 -10 2 -16 3 -5
0 -9 6 -7 11 1 6 11 9 21 7 11 -1 17 0 13 4 -3 4 -19 8 -35 10 -26 3 -29 1
-25 -20z"/>
<path d="M150 1530 c0 -5 5 -10 11 -10 5 0 7 5 4 10 -3 6 -8 10 -11 10 -2 0
-4 -4 -4 -10z"/>
<path d="M240 1529 c0 -5 5 -7 10 -4 6 3 10 8 10 11 0 2 -4 4 -10 4 -5 0 -10
-5 -10 -11z"/>
<path d="M336 1513 c-10 -10 4 -23 25 -23 19 0 19 -1 4 -17 -14 -14 -18 -14
-26 -2 -5 8 -9 10 -9 4 1 -5 7 -18 14 -28 12 -15 17 -16 34 -6 11 7 17 19 15
30 -6 20 -47 51 -57 42z"/>
<path d="M288 1503 c7 -3 16 -2 19 1 4 3 -2 6 -13 5 -11 0 -14 -3 -6 -6z"/>
<path d="M275 1470 c3 -5 13 -10 21 -10 8 0 12 5 9 10 -3 6 -13 10 -21 10 -8
0 -12 -4 -9 -10z"/>
<path d="M490 1454 c-10 -12 -8 -14 14 -14 28 0 35 14 12 23 -8 3 -20 -1 -26
-9z"/>
<path d="M86 1433 c-6 -14 -5 -15 5 -6 7 7 10 15 7 18 -3 3 -9 -2 -12 -12z"/>
<path d="M2375 1440 c-3 -5 1 -10 10 -10 9 0 13 5 10 10 -3 6 -8 10 -10 10 -2
0 -7 -4 -10 -10z"/>
<path d="M2467 1434 c-3 -3 -3 -12 0 -20 6 -17 39 -19 49 -3 11 18 -33 39 -49
23z"/>
<path d="M2540 1430 c0 -5 9 -10 21 -10 11 0 17 -4 14 -10 -3 -5 -17 -10 -31
-10 -13 0 -24 -4 -24 -10 0 -5 16 -10 35 -10 32 0 35 2 35 30 0 25 -4 30 -25
30 -14 0 -25 -4 -25 -10z"/>
<path d="M2551 1357 c-6 -8 -14 -29 -18 -47 -6 -30 -4 -33 15 -28 20 6 20 5 6
-17 -11 -16 -12 -25 -4 -30 22 -14 40 4 40 41 0 28 -3 35 -15 31 -8 -4 -17 -2
-20 3 -4 6 3 10 14 10 16 0 21 6 21 25 0 27 -21 33 -39 12z"/>
<path d="M2451 1333 c-13 -3 -30 -11 -38 -18 -16 -16 -46 -9 -36 9 3 6 2 7 -3
3 -5 -5 -9 -12 -9 -15 0 -4 -4 -13 -9 -21 -5 -8 -4 -16 4 -21 7 -4 9 -13 5
-20 -5 -9 -4 -11 3 -6 7 4 12 13 12 21 0 7 7 16 16 19 10 4 13 2 9 -7 -4 -6 4
0 17 16 13 15 29 27 35 27 7 0 15 5 18 10 3 6 5 9 3 9 -2 -1 -14 -4 -27 -6z"/>
<path d="M2450 1195 c-7 -9 -10 -18 -7 -21 3 -3 10 4 17 15 13 25 8 27 -10 6z"/>
<path d="M2473 1136 c-3 -5 -1 -6 5 -2 7 4 12 3 12 -3 0 -5 -6 -12 -12 -14 -8
-3 -8 -6 -2 -6 6 -1 19 8 29 18 16 19 16 20 -5 18 -12 -1 -24 -6 -27 -11z"/>
<path d="M2489 883 c0 -5 -2 -16 -4 -25 -2 -12 2 -15 13 -10 11 4 12 7 4 10
-10 3 -10 7 -1 18 8 10 8 14 0 14 -6 0 -11 -3 -12 -7z"/>
<path d="M2495 830 c-3 -5 -2 -10 4 -10 5 0 13 5 16 10 3 6 2 10 -4 10 -5 0
-13 -4 -16 -10z"/>
<path d="M2551 784 c0 -11 3 -14 6 -6 3 7 2 16 -1 19 -3 4 -6 -2 -5 -13z"/>
<path d="M2476 771 c-4 -5 3 -7 14 -4 23 6 26 13 6 13 -8 0 -17 -4 -20 -9z"/>
<path d="M2480 746 c0 -2 9 -6 20 -9 11 -3 18 -1 14 4 -5 9 -34 13 -34 5z"/>
<path d="M2535 720 c-3 -5 -2 -10 4 -10 5 0 13 5 16 10 3 6 2 10 -4 10 -5 0
-13 -4 -16 -10z"/>
<path d="M2460 650 c0 -5 5 -10 11 -10 5 0 7 5 4 10 -3 6 -8 10 -11 10 -2 0
-4 -4 -4 -10z"/>
<path d="M2448 593 c6 -2 18 -2 25 0 6 3 1 5 -13 5 -14 0 -19 -2 -12 -5z"/>
<path d="M2488 453 c7 -3 16 -2 19 1 4 3 -2 6 -13 5 -11 0 -14 -3 -6 -6z"/>
<path d="M2426 435 c-3 -8 -1 -15 4 -15 6 0 10 7 10 15 0 8 -2 15 -4 15 -2 0
-6 -7 -10 -15z"/>
<path d="M2540 440 c0 -5 5 -10 11 -10 5 0 7 5 4 10 -3 6 -8 10 -11 10 -2 0
-4 -4 -4 -10z"/>
<path d="M2480 420 c0 -5 -8 -7 -17 -4 -14 5 -15 4 -4 -4 15 -11 41 -5 41 9 0
5 -4 9 -10 9 -5 0 -10 -4 -10 -10z"/>
<path d="M2520 420 c0 -5 5 -10 11 -10 5 0 7 5 4 10 -3 6 -8 10 -11 10 -2 0
-4 -4 -4 -10z"/>
<path d="M2561 384 c6 -8 9 -17 5 -21 -3 -3 -6 -1 -6 5 0 6 -7 9 -15 6 -8 -4
-15 -10 -15 -16 0 -5 5 -6 10 -3 13 8 13 -1 -2 -28 l-12 -22 -6 24 c-3 14 -12
26 -20 29 -13 3 -13 2 0 -7 8 -5 11 -13 7 -17 -4 -4 -2 -13 5 -21 9 -11 7 -15
-11 -20 -15 -4 -19 -8 -11 -13 7 -4 26 6 46 26 18 19 37 34 42 34 5 0 9 12 8
27 -1 17 -7 27 -19 29 -15 2 -16 0 -6 -12z"/>
<path d="M2461 351 c-10 -6 -9 -10 5 -15 20 -8 25 -4 16 11 -4 7 -13 9 -21 4z"/>
<path d="M2412 343 c-6 -2 -10 -9 -7 -13 7 -11 35 -2 35 11 0 10 -8 10 -28 2z"/>
<path d="M1298 274 c6 -3 9 -10 6 -16 -4 -6 -1 -9 5 -7 19 7 14 24 -6 26 -10
2 -12 0 -5 -3z"/>
<path d="M610 259 c-12 -8 -9 -9 13 -5 15 4 27 3 27 -2 0 -5 7 -9 16 -9 14 0
14 2 -2 14 -21 16 -34 16 -54 2z"/>
<path d="M1230 260 c0 -5 9 -10 20 -10 11 0 20 5 20 10 0 6 -9 10 -20 10 -11
0 -20 -4 -20 -10z"/>
<path d="M483 253 c9 -2 23 -2 30 0 6 3 -1 5 -18 5 -16 0 -22 -2 -12 -5z"/>
<path d="M558 253 c7 -3 16 -2 19 1 4 3 -2 6 -13 5 -11 0 -14 -3 -6 -6z"/>
<path d="M815 240 c6 -17 2 -20 -29 -20 -19 0 -38 -4 -41 -10 -3 -5 -12 -10
-18 -10 -7 0 -6 4 3 10 12 8 10 10 -10 11 l-25 1 25 7 c14 4 20 10 14 14 -14
8 -56 -21 -49 -34 4 -5 0 -9 -8 -9 -8 0 -20 -7 -27 -15 -10 -12 -10 -15 2 -15
8 0 19 5 24 10 7 7 11 6 11 -6 0 -8 -11 -20 -24 -25 -31 -11 -29 -29 3 -29 16
0 23 4 18 12 -5 8 0 9 14 6 12 -4 22 -3 22 2 0 13 32 21 44 11 7 -6 18 -4 30
5 11 8 30 14 43 14 13 0 23 4 23 8 0 5 -25 8 -55 7 -58 -2 -76 10 -25 17 16 2
32 0 34 -6 3 -6 8 -1 11 12 4 12 11 22 16 22 5 0 6 7 3 15 -9 24 -37 19 -29
-5z m-80 -68 c-3 -3 -11 0 -18 7 -9 10 -8 11 6 5 10 -3 15 -9 12 -12z"/>
<path d="M872 240 c-7 -19 -6 -26 5 -28 11 -3 11 -7 2 -18 -9 -11 -8 -14 4
-14 17 0 40 24 30 33 -3 4 2 9 11 13 16 6 13 24 -5 24 -6 0 -7 -4 -4 -10 3 -5
2 -10 -4 -10 -5 0 -14 8 -20 18 -9 15 -11 14 -19 -8z"/>
<path d="M1393 243 c9 -2 23 -2 30 0 6 3 -1 5 -18 5 -16 0 -22 -2 -12 -5z"/>
<path d="M486 226 c3 -7 22 -23 43 -37 21 -13 36 -30 34 -36 -8 -19 25 -27 55
-14 19 9 22 15 13 20 -10 6 -6 15 14 35 l27 27 -28 -7 c-19 -5 -25 -4 -20 5
15 23 -29 10 -51 -16 -13 -14 -23 -21 -23 -16 0 6 -15 20 -34 31 -21 12 -33
15 -30 8z"/>
<path d="M1328 233 c6 -2 18 -2 25 0 6 3 1 5 -13 5 -14 0 -19 -2 -12 -5z"/>
<path d="M1810 220 c0 -5 4 -10 9 -10 6 0 13 5 16 10 3 6 -1 10 -9 10 -9 0
-16 -4 -16 -10z"/>
<path d="M935 189 c-27 -17 -28 -19 -8 -19 12 0 27 9 33 20 13 24 13 24 -25
-1z"/>
<path d="M2197 203 c-3 -5 6 -9 19 -9 13 -1 24 2 24 7 0 11 -37 12 -43 2z"/>
<path d="M2350 190 c20 -13 33 -13 25 0 -3 6 -14 10 -23 10 -15 0 -15 -2 -2
-10z"/>
<path d="M2406 192 c-3 -5 8 -6 25 -4 16 2 29 6 29 8 0 8 -49 4 -54 -4z"/>
<path d="M1463 155 c4 -9 7 -19 7 -21 0 -2 9 -4 21 -4 23 0 17 15 -13 31 -18
10 -20 9 -15 -6z"/>
<path d="M480 100 c0 -5 5 -10 10 -10 6 0 10 5 10 10 0 6 -4 10 -10 10 -5 0
-10 -4 -10 -10z"/>
<path d="M2210 20 c0 -5 7 -10 16 -10 8 0 12 5 9 10 -3 6 -10 10 -16 10 -5 0
-9 -4 -9 -10z"/>
</g>
</svg>
