<?xml version="1.0" standalone="no"?>
<!DOCTYPE svg PUBLIC "-//W3C//DTD SVG 20010904//EN"
 "http://www.w3.org/TR/2001/REC-SVG-20010904/DTD/svg10.dtd">
<svg version="1.0" xmlns="http://www.w3.org/2000/svg"
 width="720.000000pt" height="392.000000pt" viewBox="0 0 720.000000 392.000000"
 preserveAspectRatio="xMidYMid meet">

<g transform="translate(0.000000,392.000000) scale(0.100000,-0.100000)"
fill="#000000" stroke="none">
<path d="M1 2283 c0 -901 3 -1632 6 -1625 2 6 16 12 29 12 13 0 33 9 44 20 11
11 22 20 25 20 6 0 -1 -68 -11 -97 -11 -37 28 -29 50 10 10 17 33 47 49 65 27
28 35 31 67 26 50 -9 53 -13 36 -40 -9 -13 -16 -32 -16 -44 0 -29 41 -26 69 6
15 17 29 24 42 21 34 -9 89 12 89 33 0 17 26 40 44 40 4 0 -1 -17 -9 -37 -9
-21 -13 -48 -10 -60 3 -13 -3 -37 -15 -58 -15 -26 -20 -52 -19 -91 1 -30 4
-54 6 -54 17 0 42 24 47 45 6 23 11 25 43 23 35 -3 37 -2 39 30 1 28 -1 32
-17 27 -14 -5 -22 0 -29 20 -17 46 -16 50 57 128 31 34 42 31 57 -13 7 -21 22
-40 38 -48 l28 -13 -26 -24 c-28 -26 -27 -55 1 -55 21 0 75 54 75 74 0 9 -7
16 -15 16 -8 0 -15 7 -15 16 0 9 -5 12 -12 8 -7 -4 -3 3 9 16 l21 23 34 -27
c19 -14 39 -26 45 -26 6 0 21 -10 35 -22 30 -28 93 -36 102 -13 3 8 11 15 19
15 7 0 19 6 25 12 7 7 27 11 46 10 26 -3 36 2 50 22 23 37 34 32 34 -15 1 -22
6 -47 13 -55 10 -13 15 -12 38 2 14 10 38 30 53 47 15 16 39 35 53 43 32 16
51 8 90 -37 14 -18 57 -57 93 -86 37 -30 75 -63 84 -75 10 -11 46 -38 80 -60
69 -44 285 -205 291 -216 2 -4 0 -22 -5 -39 -7 -27 -13 -33 -37 -33 -16 0 -34
7 -41 15 -10 12 -16 13 -27 4 -7 -7 -27 -13 -43 -14 -24 -2 -30 1 -30 16 0 23
-16 25 -24 3 -4 -10 -13 -13 -25 -9 -10 3 -24 -1 -31 -10 -17 -21 -29 -19 -39
6 -7 20 -8 20 -20 -10 -14 -33 -26 -40 -33 -18 -2 6 -3 74 -3 150 1 76 -1 140
-5 142 -13 8 -19 -55 -16 -178 2 -115 2 -119 -20 -127 -12 -5 -32 -19 -45 -32
-16 -17 -20 -18 -16 -6 8 22 -2 28 -30 17 -15 -6 -23 -17 -23 -33 0 -16 -7
-27 -20 -31 -11 -3 -20 -13 -20 -21 0 -12 124 -14 890 -14 620 0 890 3 890 11
0 5 4 8 8 5 4 -2 9 4 9 15 1 11 -3 17 -8 13 -5 -3 -16 0 -24 6 -18 15 -20 -1
-3 -18 15 -15 4 -27 -14 -16 -7 5 -24 9 -38 9 -21 0 -25 4 -22 28 2 15 -1 27
-7 27 -6 0 -11 -11 -11 -23 0 -13 -6 -24 -12 -24 -7 -1 -28 -6 -46 -12 -31 -9
-33 -9 -26 11 5 17 3 20 -11 14 -13 -4 -16 -2 -11 9 6 17 -9 21 -19 5 -4 -6
-11 -8 -16 -5 -18 11 -9 22 18 22 17 0 36 11 50 28 13 15 27 25 30 21 3 -3 -1
-14 -10 -24 -10 -10 -17 -29 -16 -43 0 -15 3 -19 6 -9 3 8 9 17 12 20 4 3 14
16 22 30 14 21 24 25 63 25 26 0 50 -5 54 -11 11 -18 86 -52 101 -46 10 3 12
0 8 -11 -3 -9 -1 -19 4 -23 7 -4 10 3 8 17 -5 38 7 50 38 38 19 -7 29 -6 35 3
8 11 11 11 15 0 4 -10 12 -7 30 10 18 16 27 19 30 11 5 -14 45 -18 56 -6 4 3
0 15 -10 25 -15 17 -15 18 14 18 16 0 33 -3 37 -7 8 -8 13 -9 63 -11 24 -2 31
-6 27 -17 -9 -23 13 -18 30 7 9 12 16 17 16 10 0 -9 7 -11 21 -7 14 5 19 4 15
-4 -4 -6 -1 -9 7 -5 8 3 20 -2 27 -11 14 -16 35 -21 25 -5 -3 5 -1 19 5 31 9
15 15 18 23 10 15 -15 23 -14 41 4 12 12 20 14 36 5 13 -7 20 -7 20 0 0 5 7
10 16 10 14 0 14 -3 4 -15 -7 -9 -10 -18 -6 -22 3 -3 6 -1 6 6 0 19 88 70 111
64 13 -4 29 3 44 17 35 33 40 20 7 -15 -29 -31 -34 -62 -16 -86 18 -23 24 -47
11 -52 -6 -2 -3 -6 6 -10 16 -6 17 -2 11 28 -5 30 -4 34 10 29 12 -5 16 0 16
17 0 19 -2 21 -10 9 -15 -24 -21 -5 -7 23 8 15 17 24 20 20 4 -3 7 1 7 11 0
13 5 16 19 11 11 -3 22 -1 25 4 4 6 13 8 20 5 7 -3 22 3 31 13 12 11 20 14 22
6 2 -6 13 -9 23 -6 15 4 20 0 20 -16 0 -15 6 -21 23 -20 16 1 18 2 5 6 -32 8
-19 18 22 17 22 -1 40 2 40 6 0 4 11 7 25 6 14 0 25 -5 25 -10 0 -4 9 -6 20
-3 11 3 20 1 20 -5 0 -6 13 -8 30 -6 16 2 32 0 35 -6 2 -6 2 -1 -1 12 -6 24
-7 24 56 27 63 4 62 4 54 18 -6 9 -5 9 8 0 13 -11 18 -7 34 27 17 36 22 39 52
35 18 -2 43 0 55 5 12 5 16 9 10 9 -7 1 -13 10 -13 22 0 19 1 19 16 4 9 -9 21
-13 28 -10 6 3 19 8 28 11 10 4 18 12 18 18 0 7 14 23 31 35 18 13 29 19 25
13 -3 -6 -2 -13 3 -16 5 -3 12 1 15 10 3 8 10 12 16 9 6 -3 13 1 16 9 8 20 34
21 34 1 0 -9 6 -12 16 -8 13 5 13 7 2 14 -9 6 -6 9 12 9 26 1 80 41 80 60 0 5
7 10 15 10 9 0 20 11 25 25 5 14 17 25 25 25 10 0 13 5 9 12 -5 8 -2 9 10 5
10 -4 16 -2 15 6 -4 33 2 46 17 40 19 -7 36 15 28 40 -3 9 0 17 6 17 8 0 10 9
6 25 -4 14 -2 25 3 25 10 0 9 25 -1 35 -13 13 6 46 29 51 23 6 24 10 19 65 -4
56 -26 106 -39 92 -4 -3 -7 4 -7 16 0 12 -5 32 -11 43 -6 12 -11 39 -11 62 0
23 -2 36 -5 29 -7 -19 -53 6 -53 29 0 10 5 18 10 18 17 0 11 25 -10 48 -28 30
-44 28 -36 -3 4 -14 2 -25 -3 -25 -10 0 -25 49 -17 57 7 7 -32 43 -57 52 -20
8 -19 10 16 24 20 9 37 21 37 27 0 6 6 10 14 8 8 -2 15 2 15 7 0 6 -11 9 -24
7 -16 -2 -33 5 -48 22 -14 14 -31 26 -38 26 -8 0 -20 9 -27 20 -7 11 -18 20
-25 20 -14 0 -68 61 -77 87 -3 8 -10 15 -15 15 -21 1 -59 40 -60 61 0 15 -6
22 -20 22 -13 0 -19 6 -17 18 2 9 -2 17 -8 17 -6 0 -8 5 -5 10 3 6 -1 10 -10
10 -11 0 -15 -5 -11 -16 3 -9 2 -12 -5 -9 -6 4 -8 14 -5 22 4 11 2 13 -9 9 -8
-3 -16 -1 -16 4 -1 6 -2 15 -3 21 0 6 -9 16 -19 24 -10 7 -15 19 -11 28 3 8 0
18 -5 22 -6 3 -8 11 -5 17 5 7 2 9 -8 5 -10 -3 -20 3 -28 19 -14 26 -25 30
-35 14 -3 -5 -16 -10 -28 -10 -21 1 -21 1 -3 15 16 12 17 17 5 45 -8 16 -23
33 -34 37 -28 8 -75 62 -75 84 0 11 -7 22 -15 25 -8 3 -17 14 -20 25 -4 10
-13 19 -21 19 -8 0 -14 5 -14 10 0 6 -9 10 -20 10 -24 0 -26 13 -5 30 8 7 15
18 14 24 0 8 -2 8 -5 0 -3 -6 -15 -9 -28 -7 -17 4 -27 16 -36 46 -8 23 -20 49
-27 58 -12 14 -11 17 3 23 15 6 15 9 -7 29 -26 24 -73 52 -64 37 3 -5 1 -11
-4 -15 -11 -6 -51 29 -51 45 0 6 -5 10 -12 10 -9 0 -9 3 0 12 16 16 15 28 -3
28 -8 0 -15 5 -15 11 0 6 -7 8 -16 5 -8 -3 -12 -2 -9 4 8 12 -19 53 -28 43 -4
-3 -7 -1 -7 6 0 7 -5 9 -10 6 -18 -11 -40 16 -36 41 3 14 1 22 -5 19 -5 -4 -9
6 -9 22 0 15 -10 39 -21 53 l-21 25 7 -30 c6 -28 5 -29 -8 -10 -13 17 -17 18
-33 5 -16 -14 -16 -13 -5 8 12 22 9 37 -8 37 -11 0 -43 34 -45 48 -1 6 -5 18
-9 25 -5 6 -6 12 -2 12 3 0 1 9 -5 20 -20 37 17 23 51 -20 30 -37 61 -57 42
-28 -4 7 -7 20 -8 28 -1 36 -32 61 -89 70 -31 5 -63 7 -71 3 -8 -3 -15 -1 -16
3 -4 44 -8 56 -24 74 -15 17 -16 20 -3 20 9 0 23 -10 32 -22 l17 -23 -7 25
c-8 32 -6 30 -40 34 -57 8 -87 23 -83 43 8 35 -54 123 -87 123 -7 0 -15 6 -17
13 -3 7 -6 5 -6 -5 -1 -10 -5 -18 -10 -18 -5 0 -8 8 -7 18 0 9 -5 16 -11 15
-7 -2 -13 2 -13 8 0 6 -7 9 -15 6 -8 -4 -17 -1 -21 5 -5 7 -12 5 -21 -8 -11
-15 -17 -16 -32 -7 -14 9 -21 9 -30 0 -7 -7 -16 -12 -22 -12 -5 0 -9 -4 -8 -9
0 -5 -6 -13 -15 -18 -9 -5 -16 -16 -16 -23 0 -8 -7 -15 -15 -15 -8 0 -14 -3
-13 -7 1 -5 -6 -20 -16 -36 -13 -20 -22 -25 -31 -17 -22 18 -65 8 -72 -18 -5
-21 -6 -22 -20 -5 -13 17 -14 16 -8 -9 7 -36 -4 -80 -19 -75 -6 3 -10 10 -8
16 1 6 -1 11 -6 11 -13 0 -39 -35 -34 -48 2 -7 -1 -12 -8 -12 -6 0 -9 -4 -6
-9 8 -12 -23 -23 -37 -14 -7 4 -6 -1 2 -10 12 -15 11 -17 -13 -17 -15 0 -36 5
-46 10 -15 8 -24 5 -45 -15 -14 -15 -30 -23 -35 -20 -16 10 -24 -23 -10 -40
10 -12 7 -17 -16 -26 -44 -17 -77 -21 -69 -9 11 18 -5 11 -28 -12 -25 -26 -61
-48 -78 -48 -13 0 -35 -22 -36 -35 0 -5 -10 -14 -22 -20 -11 -5 -21 -13 -21
-17 0 -5 -5 -8 -11 -8 -7 0 -25 -14 -41 -30 -16 -17 -33 -28 -38 -25 -6 4 -10
-1 -10 -9 0 -10 -6 -13 -15 -9 -17 6 -55 -23 -55 -42 0 -19 -33 -41 -60 -39
-13 1 -29 -4 -35 -11 -5 -7 -22 -15 -37 -19 -14 -3 -28 -14 -30 -23 -2 -11
-15 -17 -41 -19 -20 -2 -47 -13 -59 -24 -12 -11 -27 -19 -32 -18 -6 1 -27 -12
-46 -30 -19 -19 -50 -40 -68 -47 -18 -8 -40 -21 -48 -30 -9 -8 -22 -15 -30
-15 -8 0 -14 -4 -14 -10 0 -5 -9 -10 -20 -10 -11 0 -23 -7 -26 -15 -4 -8 -10
-15 -16 -15 -9 0 -58 -45 -58 -54 0 -11 -35 -46 -46 -46 -6 0 -27 -12 -47 -27
-19 -16 -49 -36 -66 -45 -16 -9 -37 -32 -45 -51 -14 -34 -42 -64 -30 -33 4 12
0 16 -15 16 -16 0 -23 -8 -27 -30 -5 -20 -12 -30 -25 -30 -16 0 -17 -4 -9 -25
8 -20 5 -32 -15 -61 -29 -43 -30 -50 -9 -58 13 -5 14 -9 4 -22 -10 -12 -15
-12 -21 -2 -6 9 -11 4 -18 -14 -5 -14 -14 -29 -20 -32 -6 -4 -5 -19 5 -41 22
-53 19 -66 -11 -55 -20 7 -25 6 -25 -5 0 -9 6 -12 15 -9 8 4 15 1 15 -5 0 -7
-7 -14 -15 -17 -8 -4 -12 -10 -9 -15 3 -5 11 -7 17 -3 7 3 5 0 -4 -8 -9 -7
-14 -19 -12 -25 3 -7 -2 -16 -11 -19 -9 -3 -16 -12 -16 -20 0 -19 10 -18 26 3
7 10 16 15 20 11 4 -4 2 -13 -4 -21 -7 -8 -7 -18 -2 -27 5 -8 7 -24 3 -35 -5
-18 -5 -18 21 -2 26 17 26 17 26 -8 0 -14 -4 -25 -10 -25 -5 0 -10 -7 -10 -16
0 -11 6 -14 20 -9 11 3 20 2 20 -4 0 -5 3 -18 6 -28 4 -13 3 -15 -4 -4 -7 9
-12 10 -16 2 -4 -6 0 -18 8 -27 9 -8 16 -12 16 -8 0 5 6 2 12 -4 10 -10 10
-15 -2 -22 -12 -7 -8 -10 15 -11 51 -3 55 -4 55 -12 0 -14 35 -43 48 -39 7 2
15 -8 18 -28 8 -39 45 -60 69 -40 8 7 18 10 21 7 9 -9 -9 -32 -25 -32 -8 0
-16 -6 -18 -12 -3 -7 3 -13 12 -13 9 0 14 -4 11 -9 -3 -5 8 -14 25 -20 17 -6
28 -14 25 -19 -7 -12 37 -60 52 -55 6 3 12 -2 12 -11 0 -9 7 -16 16 -16 8 0
22 -7 30 -15 8 -8 22 -11 32 -8 15 6 15 5 3 -10 -12 -15 -11 -17 3 -17 9 0 16
-4 16 -10 0 -5 -4 -10 -10 -10 -5 0 -8 -10 -6 -22 2 -20 8 -22 40 -20 33 3 37
1 42 -27 5 -25 9 -29 20 -20 7 6 21 9 30 7 16 -3 17 -4 1 -20 -22 -22 -21 -28
2 -28 11 0 26 -8 33 -17 14 -19 44 -31 33 -13 -3 5 -2 10 4 10 5 0 18 -13 28
-30 9 -16 21 -30 26 -30 4 0 6 4 3 9 -3 5 1 14 9 21 12 10 15 9 15 -4 0 -9 7
-16 15 -16 8 0 15 7 15 15 0 19 7 19 26 1 16 -17 19 -46 4 -46 -5 0 -10 -8
-10 -17 0 -15 2 -16 10 -3 15 24 21 6 9 -29 -13 -36 -12 -38 16 -43 14 -2 21
4 25 24 4 24 7 25 24 13 10 -8 16 -21 13 -29 -4 -9 1 -17 11 -19 16 -4 15 -5
0 -6 -10 0 -18 -8 -18 -16 0 -18 5 -19 29 -3 16 10 28 8 65 -11 37 -20 48 -22
61 -11 8 7 23 9 32 6 13 -5 14 -9 5 -15 -10 -6 -10 -11 2 -21 9 -7 13 -16 10
-21 -5 -9 9 -13 32 -10 20 2 24 -29 9 -59 -21 -40 -19 -48 5 -22 12 13 27 19
38 16 13 -5 14 -4 3 4 -8 5 -10 15 -6 22 6 9 11 8 19 -6 6 -11 11 -23 11 -27
0 -4 5 -11 10 -15 6 -4 18 -22 29 -41 14 -26 16 -35 6 -41 -14 -9 -7 -40 10
-40 5 0 15 9 22 20 16 26 48 26 55 0 3 -11 12 -20 21 -20 13 0 12 -3 -3 -20
-10 -12 -24 -19 -31 -16 -6 2 -17 -1 -24 -7 -10 -9 -11 -9 -6 0 8 14 -3 43
-16 43 -6 0 -8 -6 -5 -14 4 -9 -3 -16 -18 -20 -16 -4 -22 -11 -19 -21 8 -20
-1 -19 -26 2 -15 13 -17 20 -7 31 10 13 8 14 -11 8 -25 -8 -30 10 -9 34 6 8
-1 4 -17 -10 -23 -20 -28 -21 -23 -7 4 11 3 16 -3 12 -14 -9 -12 9 2 23 9 9 9
12 0 12 -17 0 -37 -40 -20 -40 17 -1 -21 -30 -39 -30 -7 0 -10 6 -7 15 5 11
-1 15 -26 15 -35 0 -70 15 -70 30 0 6 8 10 18 10 12 0 8 6 -13 18 -31 19 -65
25 -65 11 0 -4 -9 -7 -20 -6 -11 1 -20 7 -20 15 0 7 -4 11 -9 7 -5 -3 -12 -1
-16 5 -11 19 -26 10 -20 -11 6 -18 5 -19 -14 -10 -11 6 -18 17 -15 25 3 7 -3
16 -13 20 -10 3 -33 15 -52 26 -27 17 -39 19 -62 11 -28 -10 -43 2 -16 12 22
9 -16 28 -45 23 -15 -3 -30 -1 -33 4 -4 6 -11 8 -16 5 -5 -4 -9 2 -10 12 0 10
-3 13 -6 6 -2 -7 -12 -13 -20 -13 -11 0 -14 7 -9 24 5 21 2 25 -30 33 -35 8
-36 9 -18 23 14 12 16 12 9 1 -5 -10 -4 -12 4 -7 6 4 18 2 26 -4 10 -8 15 -9
15 -2 0 6 -13 17 -29 25 -26 13 -31 13 -44 0 -10 -11 -17 -12 -22 -4 -3 6 -3
11 2 10 22 -4 25 2 8 15 -16 11 -21 11 -33 0 -14 -14 -32 -11 -32 6 0 5 6 7
14 4 10 -4 14 1 13 15 -1 17 -6 20 -29 16 -19 -4 -34 1 -48 15 -11 11 -29 20
-40 20 -17 0 -19 3 -10 19 14 26 13 31 -6 31 -9 0 -12 5 -8 11 5 9 -1 10 -20
5 -19 -5 -26 -3 -26 8 0 20 -27 27 -40 10 -16 -18 -30 -18 -30 1 0 8 -7 15
-16 15 -9 0 -21 13 -27 30 -8 21 -16 28 -28 25 -19 -6 -42 17 -37 38 2 8 -9
26 -24 40 -16 15 -28 30 -28 34 0 4 -18 20 -39 35 -30 21 -41 24 -50 15 -10
-9 -14 -9 -21 3 -17 30 -60 75 -60 63 0 -26 -31 -12 -36 16 -5 21 -15 33 -35
40 -16 5 -29 15 -29 21 0 6 -16 24 -35 41 -19 17 -35 40 -35 50 0 33 -29 68
-50 62 -14 -4 -20 0 -20 11 0 9 5 16 10 16 18 0 10 16 -15 30 -13 7 -23 18
-22 24 1 6 -11 12 -26 14 -16 2 -31 11 -35 20 -3 9 -16 27 -29 40 -13 13 -23
27 -23 32 0 6 -6 10 -14 10 -8 0 -16 3 -18 8 -2 4 -21 22 -43 41 -22 19 -40
39 -40 43 0 5 64 53 142 106 77 53 203 140 277 192 75 52 144 100 154 105 91
53 205 142 193 149 -5 3 7 50 26 103 19 54 35 114 34 134 -1 48 -28 162 -51
219 -10 25 -26 66 -36 93 -10 28 -33 62 -56 83 -39 34 -61 67 -134 193 -37 64
-66 96 -162 184 -28 26 -63 65 -77 87 -14 22 -40 47 -57 56 -35 18 -161 140
-220 214 -19 25 -67 70 -106 100 -39 30 -79 68 -88 85 -10 16 -81 93 -159 170
-77 78 -148 153 -158 168 l-18 27 -164 0 -165 0 1 -1637z m3236 685 c-3 -8 -6
-5 -6 6 -1 11 2 17 5 13 3 -3 4 -12 1 -19z m73 -48 c0 -5 -4 -10 -9 -10 -6 0
-13 5 -16 10 -3 6 1 10 9 10 9 0 16 -4 16 -10z m-140 -48 c0 -15 -2 -15 -10
-2 -13 20 -13 33 0 25 6 -3 10 -14 10 -23z m-140 -66 c0 -3 -4 -8 -10 -11 -5
-3 -10 -1 -10 4 0 6 5 11 10 11 6 0 10 -2 10 -4z m430 -31 c-14 -17 -30 -20
-30 -6 0 5 8 12 18 14 9 3 19 5 21 6 2 0 -2 -6 -9 -14z m-139 -66 c-9 -22 -10
-22 -10 -3 -1 11 2 24 6 27 12 12 14 0 4 -24z m480 -66 c-8 -15 -10 -15 -11
-2 0 17 10 32 18 25 2 -3 -1 -13 -7 -23z m-216 7 c3 -5 1 -10 -4 -10 -6 0 -11
5 -11 10 0 6 2 10 4 10 3 0 8 -4 11 -10z m-405 -54 c0 -2 -7 -7 -16 -10 -8 -3
-12 -2 -9 4 6 10 25 14 25 6z m272 -8 c-8 -8 -8 -15 -1 -24 8 -9 5 -11 -10 -7
-12 3 -21 7 -21 10 0 8 25 32 35 33 5 0 4 -5 -3 -12z m-162 -2 c0 -3 -4 -8
-10 -11 -5 -3 -10 -1 -10 4 0 6 5 11 10 11 6 0 10 -2 10 -4z m-304 -21 c-3 -8
-9 -22 -12 -30 -3 -8 -2 -15 4 -15 6 0 13 6 15 13 4 8 6 7 6 -3 1 -8 -8 -28
-19 -45 -22 -33 -26 -50 -10 -40 6 3 10 -1 10 -9 0 -18 -20 -32 -21 -14 0 7
-5 2 -10 -11 -6 -14 -15 -21 -24 -18 -8 4 -12 1 -9 -7 3 -7 -5 -21 -17 -32
-22 -19 -22 -19 -16 4 4 19 3 21 -9 11 -12 -9 -13 -7 -11 17 4 37 17 65 26 59
4 -2 15 11 24 30 9 19 22 35 27 35 6 0 9 -4 6 -9 -5 -8 9 -8 34 -1 3 1 -6 6
-20 11 -15 6 -20 13 -14 17 6 4 14 17 18 30 4 12 12 22 18 22 5 0 7 -7 4 -15z
m-36 1 c0 -2 -7 -9 -15 -16 -13 -11 -14 -10 -9 4 5 14 24 23 24 12z m738 -10
c-2 -1 -12 -8 -22 -16 -18 -14 -18 -14 -6 7 8 12 18 19 23 16 4 -3 7 -6 5 -7z
m-682 -75 c-15 -15 -16 -13 -4 19 9 26 13 30 16 16 2 -10 -3 -26 -12 -35z
m611 29 c-5 -31 -17 -36 -17 -7 0 15 4 27 10 27 5 0 9 -9 7 -20z m-715 -22
c-7 -7 -12 -8 -12 -2 0 14 12 26 19 19 2 -3 -1 -11 -7 -17z m458 -15 c-1 -5
-7 -19 -15 -33 -8 -14 -15 -36 -16 -50 -1 -22 -2 -21 -11 9 -11 40 -3 75 12
51 8 -12 10 -10 10 8 0 12 5 22 10 22 6 0 10 -3 10 -7z m460 -13 c0 -5 -2 -10
-4 -10 -3 0 -8 5 -11 10 -3 6 -1 10 4 10 6 0 11 -4 11 -10z m-80 -30 c0 -5 -8
-10 -17 -10 -15 0 -16 2 -3 10 19 12 20 12 20 0z m-274 -24 c0 -13 -8 -29 -17
-35 -14 -8 -16 -6 -11 12 4 17 21 45 28 47 1 0 1 -11 0 -24z m-508 -32 c-11
-11 -18 -12 -22 -5 -4 6 0 11 8 11 9 0 16 5 16 12 0 6 3 8 7 4 4 -3 0 -14 -9
-22z m-97 -31 c13 -16 12 -17 -3 -4 -17 13 -22 21 -14 21 2 0 10 -8 17 -17z
m309 -13 c0 -5 -5 -10 -11 -10 -5 0 -7 5 -4 10 3 6 8 10 11 10 2 0 4 -4 4 -10z
m-720 -10 c0 -5 -4 -10 -9 -10 -5 0 -18 -3 -28 -6 -16 -5 -16 -4 1 10 23 18
36 20 36 6z m1837 -16 c-3 -3 -12 -4 -19 -1 -8 3 -5 6 6 6 11 1 17 -2 13 -5z
m-654 -55 c-9 -9 -12 -7 -10 9 1 14 5 18 11 12 7 -7 6 -14 -1 -21z m-1275 -50
l2 -34 -15 34 c-18 40 -18 44 -2 39 6 -3 13 -20 15 -39z m1682 7 c0 -3 -4 -8
-10 -11 -5 -3 -10 -1 -10 4 0 6 5 11 10 11 6 0 10 -2 10 -4z m-490 -16 c0 -5
-4 -10 -10 -10 -5 0 -10 5 -10 10 0 6 5 10 10 10 6 0 10 -4 10 -10z m-65 -18
c-3 -3 -11 0 -18 7 -9 10 -8 11 6 5 10 -3 15 -9 12 -12z m-209 -18 c-9 -9 -20
-14 -23 -10 -4 3 2 13 13 20 25 18 31 12 10 -10z m758 -18 c-6 -16 -8 -17 -16
-2 -11 19 0 42 13 29 6 -6 7 -18 3 -27z m-580 15 c3 -5 -1 -11 -9 -14 -9 -4
-12 -1 -8 9 6 16 10 17 17 5z m621 -20 c3 -5 1 -12 -5 -16 -5 -3 -10 1 -10 9
0 18 6 21 15 7z m-834 -54 c-16 -16 -20 -5 -8 23 9 22 11 23 14 6 3 -10 0 -23
-6 -29z m452 18 c-3 -9 -8 -14 -10 -11 -3 3 -2 9 2 15 9 16 15 13 8 -4z
m-1373 -19 c0 -2 -8 -10 -17 -17 -16 -13 -17 -12 -4 4 13 16 21 21 21 13z
m887 -28 c-4 -12 -1 -28 5 -35 14 -18 0 -16 -18 2 -18 17 -18 21 -2 40 18 20
21 18 15 -7z m1009 -10 c-18 -26 -22 -17 -5 14 6 11 13 17 16 15 3 -3 -2 -16
-11 -29z m-117 -22 c-3 -3 -11 5 -18 17 -13 21 -12 21 5 5 10 -10 16 -20 13
-22z m-374 4 c3 -5 1 -10 -4 -10 -6 0 -11 5 -11 10 0 6 2 10 4 10 3 0 8 -4 11
-10z m-325 -114 c-5 -5 -13 -6 -17 -2 -4 4 -1 11 7 16 10 6 11 10 3 10 -7 0
-10 7 -6 17 5 14 8 12 15 -7 5 -14 5 -27 -2 -34z m1070 -10 c0 -8 -4 -18 -10
-21 -5 -3 -10 3 -10 14 0 12 5 21 10 21 6 0 10 -6 10 -14z m-720 -32 c0 -8 -5
-12 -10 -9 -6 4 -8 11 -5 16 9 14 15 11 15 -7z m12 -46 c-8 -8 -9 -4 -5 13 4
13 8 18 11 10 2 -7 -1 -18 -6 -23z m-2132 1 c0 -5 -7 -9 -15 -9 -15 0 -20 12
-9 23 8 8 24 -1 24 -14z m440 -58 c0 -6 -4 -13 -10 -16 -5 -3 -10 1 -10 9 0 9
5 16 10 16 6 0 10 -4 10 -9z m2155 -1 c3 -5 1 -10 -4 -10 -6 0 -11 5 -11 10 0
6 2 10 4 10 3 0 8 -4 11 -10z m-2641 -24 c-6 -16 -25 -21 -37 -9 -4 3 3 11 16
18 27 14 29 13 21 -9z m2511 -86 c-5 -15 -2 -20 11 -20 14 0 15 -3 6 -12 -8
-8 -16 -5 -31 13 -19 24 -16 31 17 38 2 1 0 -8 -3 -19z m-61 -92 c-9 -16 -18
-27 -21 -24 -3 3 -1 12 6 19 6 8 9 22 5 31 -5 12 -2 15 10 10 14 -5 14 -9 0
-36z m90 21 c-3 -5 -10 -7 -15 -3 -5 3 -7 10 -3 15 3 5 10 7 15 3 5 -3 7 -10
3 -15z m-34 1 c0 -5 -2 -10 -4 -10 -3 0 -8 5 -11 10 -3 6 -1 10 4 10 6 0 11
-4 11 -10z m830 -30 c0 -5 -5 -10 -11 -10 -5 0 -7 5 -4 10 3 6 8 10 11 10 2 0
4 -4 4 -10z m-932 -50 c-7 -17 -16 -30 -20 -30 -3 0 -14 -7 -23 -16 -9 -9 -18
-14 -22 -11 -9 9 12 60 27 65 9 3 11 -1 7 -12 -4 -10 -3 -15 3 -11 6 3 10 14
10 24 0 21 23 47 28 31 2 -5 -2 -24 -10 -40z m-1858 -14 c0 -2 -8 -10 -17 -17
-16 -13 -17 -12 -4 4 13 16 21 21 21 13z m243 -16 c-3 -11 -9 -20 -14 -20 -10
0 -12 24 -2 33 13 13 21 7 16 -13z m-403 -30 c-6 -11 -13 -20 -16 -20 -2 0 0
9 6 20 6 11 13 20 16 20 2 0 0 -9 -6 -20z m-468 -22 c-7 -7 -12 -8 -12 -2 0 6
3 14 7 17 3 4 9 5 12 2 2 -3 -1 -11 -7 -17z m18 -28 c0 -5 -9 -10 -20 -10 -11
0 -20 5 -20 10 0 6 9 10 20 10 11 0 20 -4 20 -10z m35 -90 c-3 -5 -10 -10 -16
-10 -5 0 -9 5 -9 10 0 6 7 10 16 10 8 0 12 -4 9 -10z m1005 -74 c0 -3 -4 -8
-10 -11 -5 -3 -10 -1 -10 4 0 6 5 11 10 11 6 0 10 -2 10 -4z m-90 -200 c0 -3
-4 -8 -10 -11 -5 -3 -10 -1 -10 4 0 6 5 11 10 11 6 0 10 -2 10 -4z m1166 -84
c-15 -15 -15 -15 -4 10 7 15 15 23 17 17 2 -6 -4 -18 -13 -27z m-1726 -46 c0
-3 -4 -8 -10 -11 -5 -3 -10 -1 -10 4 0 6 5 11 10 11 6 0 10 -2 10 -4z m70 -20
c0 -3 -4 -8 -10 -11 -5 -3 -10 -1 -10 4 0 6 5 11 10 11 6 0 10 -2 10 -4z m620
-36 c-6 -11 -13 -20 -16 -20 -2 0 0 9 6 20 6 11 13 20 16 20 2 0 0 -9 -6 -20z
m-380 -4 c0 -2 -7 -9 -15 -16 -13 -11 -14 -10 -9 4 5 14 24 23 24 12z m-896
-92 c5 -14 4 -15 -9 -4 -17 14 -19 20 -6 20 5 0 12 -7 15 -16z m-363 -39 c0
-5 -9 -11 -21 -13 -20 -3 -27 8 -13 22 10 9 34 3 34 -9z m1243 -29 c-6 -16
-24 -23 -24 -8 0 10 22 33 27 28 2 -2 1 -11 -3 -20z m331 -85 c-3 -6 -11 -11
-17 -11 -6 0 -6 6 2 15 14 17 26 13 15 -4z m626 -58 c-12 -20 -14 -14 -5 12 4
9 9 14 11 11 3 -2 0 -13 -6 -23z m-821 -33 c0 -5 -4 -10 -10 -10 -5 0 -10 5
-10 10 0 6 5 10 10 10 6 0 10 -4 10 -10z m1155 -19 c-3 -6 -11 -11 -17 -11 -6
0 -6 6 2 15 14 17 26 13 15 -4z m-592 -11 c-3 -11 -12 -20 -21 -20 -13 0 -12
3 3 20 10 11 19 20 21 20 1 0 0 -9 -3 -20z m2064 -25 c-4 -8 -11 -15 -17 -15
-7 0 -7 6 0 21 13 23 26 19 17 -6z m-111 -60 c-11 -8 -25 -15 -30 -14 -6 0 -5
3 3 6 11 5 11 7 0 14 -10 6 -5 9 16 9 29 -1 29 -1 11 -15z m-201 -115 c-3 -5
-10 -10 -16 -10 -5 0 -9 5 -9 10 0 6 7 10 16 10 8 0 12 -4 9 -10z m-145 -30
c0 -5 -5 -10 -11 -10 -5 0 -7 5 -4 10 3 6 8 10 11 10 2 0 4 -4 4 -10z m-1696
-21 c-3 -5 -10 -7 -15 -3 -5 3 -7 10 -3 15 3 5 10 7 15 3 5 -3 7 -10 3 -15z
m766 7 c0 -3 -4 -8 -10 -11 -5 -3 -10 -1 -10 4 0 6 5 11 10 11 6 0 10 -2 10
-4z m-1563 -31 c1 -5 -2 -17 -7 -25 -9 -13 -11 -13 -20 0 -15 23 -12 42 7 38
9 -2 18 -7 20 -13z m957 -26 c-4 -7 0 -9 14 -5 18 6 20 3 17 -15 -5 -23 -35
-50 -47 -43 -4 3 -16 0 -27 -5 -21 -12 -81 -4 -81 10 0 5 9 13 20 19 16 9 19
8 13 -7 -4 -11 1 -9 17 7 17 17 25 20 28 11 2 -7 -2 -17 -9 -22 -12 -7 -12 -9
-1 -9 8 0 16 8 19 19 3 13 11 17 26 14 20 -4 20 -3 4 7 -17 11 -15 30 4 30 6
0 7 -5 3 -11z m132 -26 c-10 -10 -19 5 -10 18 6 11 8 11 12 0 2 -7 1 -15 -2
-18z m104 17 c0 -5 -4 -10 -10 -10 -5 0 -10 5 -10 10 0 6 5 10 10 10 6 0 10
-4 10 -10z m210 0 c0 -5 -4 -10 -10 -10 -5 0 -10 5 -10 10 0 6 5 10 10 10 6 0
10 -4 10 -10z m-855 -40 c3 -5 2 -10 -4 -10 -5 0 -13 5 -16 10 -3 6 -2 10 4
10 5 0 13 -4 16 -10z m775 0 c0 -5 -7 -10 -15 -10 -8 0 -15 5 -15 10 0 6 7 10
15 10 8 0 15 -4 15 -10z m45 0 c3 -5 1 -10 -4 -10 -6 0 -11 5 -11 10 0 6 2 10
4 10 3 0 8 -4 11 -10z m95 6 c0 -3 -4 -8 -10 -11 -5 -3 -10 -1 -10 4 0 6 5 11
10 11 6 0 10 -2 10 -4z m-663 -68 c-3 -8 -6 -5 -6 6 -1 11 2 17 5 13 3 -3 4
-12 1 -19z m-1335 -20 c-7 -7 -12 -8 -12 -2 0 14 12 26 19 19 2 -3 -1 -11 -7
-17z"/>
<path d="M699 3831 c45 -49 116 -129 158 -178 42 -48 106 -118 142 -155 59
-61 74 -71 143 -93 43 -14 104 -28 136 -31 77 -7 104 -11 122 -17 8 -3 34 -8
58 -11 24 -3 48 -8 53 -12 25 -15 258 -34 334 -27 44 4 83 6 86 6 3 -1 39 4
80 11 41 7 90 12 109 10 19 -1 69 -5 110 -8 41 -3 238 -6 436 -7 l361 -2 32
33 c17 18 31 37 31 42 0 21 66 36 135 31 l70 -5 75 58 c41 31 111 91 155 132
43 41 95 84 115 97 19 12 79 66 133 119 l97 96 -1626 0 -1626 0 81 -89z"/>
<path d="M4292 3881 c18 -22 62 -60 97 -86 62 -46 63 -46 81 -27 10 10 52 47
94 82 42 34 76 64 76 66 0 2 -86 4 -191 4 l-191 0 34 -39z"/>
<path d="M6130 3899 c-19 -12 -43 -30 -53 -40 -10 -10 -41 -36 -70 -58 -29
-21 -91 -79 -138 -127 -75 -77 -168 -154 -185 -154 -6 0 -85 -60 -99 -76 -19
-21 -160 -122 -211 -150 -29 -16 -67 -41 -85 -57 -19 -15 -67 -53 -106 -84
-40 -31 -73 -59 -73 -63 0 -5 19 -34 43 -66 23 -33 54 -77 67 -99 13 -22 53
-73 88 -112 43 -49 65 -82 66 -100 1 -16 5 -33 9 -39 10 -17 -17 -36 -39 -27
-28 10 -93 59 -144 107 -25 24 -81 70 -125 103 -44 33 -113 97 -153 141 -40
44 -96 95 -125 113 -142 88 -184 116 -212 144 -27 27 -81 77 -171 156 -46 41
-164 168 -164 177 0 5 -22 19 -50 32 -27 13 -50 27 -50 32 0 4 -5 8 -10 8 -6
0 -16 5 -23 10 -34 29 -96 64 -123 70 -42 10 -81 -8 -136 -61 -25 -24 -103
-84 -174 -134 -71 -49 -160 -119 -197 -155 l-69 -65 -94 0 c-80 -1 -97 -4
-123 -22 -16 -12 -41 -25 -56 -29 -24 -6 -26 -10 -21 -38 11 -57 -12 -96 -113
-196 -53 -52 -108 -108 -122 -125 -14 -16 -40 -42 -58 -57 -18 -16 -30 -28
-27 -28 7 0 53 28 71 43 6 5 26 18 46 30 20 12 50 31 68 42 18 11 63 44 99 73
37 29 72 56 77 60 6 4 31 20 56 34 25 15 64 42 87 60 22 18 77 56 123 83 45
28 94 60 109 73 15 12 31 22 35 22 4 0 21 10 38 23 70 49 141 87 164 87 26 0
63 -35 148 -136 22 -27 61 -70 87 -95 26 -26 50 -59 54 -73 3 -14 21 -34 39
-45 21 -12 43 -40 62 -77 20 -40 43 -68 72 -87 23 -16 50 -45 60 -65 11 -20
31 -48 46 -62 15 -14 38 -46 51 -72 13 -27 28 -48 34 -48 14 0 104 -81 112
-101 4 -11 11 -19 15 -19 4 0 31 -30 58 -67 28 -37 71 -88 97 -115 26 -26 49
-57 53 -68 3 -11 12 -20 20 -20 7 0 21 -12 31 -27 10 -16 24 -34 31 -41 7 -7
13 -21 13 -31 0 -19 87 -111 106 -111 6 0 18 -10 27 -22 8 -13 34 -43 57 -68
23 -25 65 -72 92 -105 126 -153 131 -157 141 -140 5 9 6 19 3 22 -3 4 3 12 14
20 11 8 20 21 20 29 0 8 7 14 15 14 8 0 15 8 15 19 0 10 18 38 40 61 34 37
120 155 120 166 0 2 20 33 45 70 25 36 45 69 45 73 0 5 12 30 26 56 25 44 29
47 59 42 69 -11 130 -51 228 -147 83 -83 97 -102 97 -130 0 -23 -9 -40 -31
-61 -17 -16 -35 -29 -40 -29 -6 0 -34 -18 -64 -40 -168 -124 -449 -258 -516
-245 -10 2 -19 3 -19 1 0 -13 36 -69 62 -97 18 -19 46 -52 63 -74 16 -22 35
-46 42 -53 6 -7 29 -34 50 -59 21 -26 58 -69 83 -96 25 -27 49 -56 54 -65 5
-8 21 -29 35 -45 54 -60 67 -76 91 -112 39 -58 164 -206 214 -255 25 -24 46
-49 46 -55 0 -15 -68 -75 -84 -75 -17 0 -94 -42 -180 -97 -46 -30 -84 -47
-111 -49 -66 -6 -136 -26 -142 -39 -2 -8 -22 -16 -43 -20 -26 -4 -40 -13 -43
-26 -3 -11 -9 -18 -14 -17 -10 4 -34 -16 -76 -59 -17 -18 -37 -33 -44 -33 -31
0 -118 -65 -118 -89 0 -10 -12 -18 -35 -21 -19 -4 -46 -12 -59 -19 -13 -7 -21
-8 -17 -3 5 9 -45 11 -73 3 -2 -1 2 -8 9 -16 7 -9 10 -18 6 -22 -3 -3 -6 0 -7
8 0 8 -5 3 -11 -11 -6 -15 -12 -20 -15 -12 -3 6 -11 12 -19 12 -7 0 -11 -6 -8
-13 5 -14 -54 -53 -73 -49 -7 2 -13 -5 -13 -15 0 -12 -3 -14 -8 -6 -6 9 -12 7
-22 -7 -14 -19 -37 -29 -26 -12 6 9 -49 9 -74 -1 -8 -3 -28 -8 -43 -11 -15 -4
-26 -10 -23 -14 3 -5 -5 -14 -17 -22 -20 -12 -21 -12 -8 4 13 15 11 16 -20 11
-37 -7 -52 -15 -26 -15 10 0 17 -8 17 -17 0 -14 -2 -15 -9 -4 -5 7 -13 11 -19
7 -6 -3 -15 1 -20 11 -8 14 -13 15 -26 4 -8 -7 -20 -10 -26 -6 -5 3 -10 1 -10
-5 0 -6 -4 -9 -10 -5 -5 3 -6 13 -3 22 4 10 2 14 -4 10 -6 -4 -10 -18 -10 -32
l0 -25 208 0 208 0 78 36 c43 19 85 39 93 44 91 55 283 175 350 220 102 69
130 80 130 52 0 -10 -5 -34 -11 -51 -9 -25 -9 -35 1 -44 10 -10 12 -8 8 9 -3
11 1 29 8 39 8 10 14 13 14 7 0 -7 5 -12 10 -12 6 0 10 14 10 30 0 18 5 30 13
30 26 0 46 -36 56 -100 6 -36 22 -103 37 -150 15 -47 29 -91 30 -97 3 -13 154
-19 154 -7 0 4 -9 22 -21 41 -15 24 -19 41 -14 61 20 71 3 132 -52 195 -29 32
-33 44 -33 91 0 50 14 111 30 129 22 24 126 -37 114 -66 -3 -8 2 -17 11 -21
11 -4 14 -2 10 7 -4 6 0 4 8 -5 8 -10 18 -18 22 -18 4 0 14 -8 22 -17 11 -14
13 -15 12 -3 -4 32 12 49 41 44 16 -4 31 -1 35 5 3 6 1 10 -5 9 -15 -4 -73
100 -66 118 7 18 65 18 72 0 3 -8 12 -12 20 -9 8 3 14 0 14 -6 0 -17 27 -13
34 5 4 10 15 14 34 11 21 -3 32 1 40 14 14 23 57 25 66 4 7 -19 40 -19 56 0
17 21 34 19 87 -9 37 -20 55 -24 96 -20 28 3 62 10 75 15 17 6 29 6 36 -1 13
-13 29 -13 21 0 -3 6 1 17 10 26 12 12 26 15 60 10 25 -4 53 -3 63 3 13 7 23
7 32 -2 10 -10 12 -9 7 5 -3 9 2 23 13 33 18 16 19 16 32 -4 7 -12 18 -21 25
-21 7 0 13 -5 13 -11 0 -6 7 -9 15 -5 8 3 31 -3 50 -14 43 -24 81 -26 89 -5 4
12 10 13 23 6 28 -14 70 -2 77 22 11 42 7 537 -5 537 -6 0 -36 22 -67 50 -31
27 -76 57 -101 66 -130 46 -153 58 -162 81 -15 41 -11 55 36 99 30 29 57 45
82 49 21 4 79 19 128 34 l90 27 3 707 2 707 -57 58 c-114 114 -329 316 -388
365 -33 27 -96 83 -140 126 -44 42 -106 99 -139 126 -72 61 -119 107 -171 169
-37 43 -109 96 -131 96 -5 0 -25 -10 -44 -21z"/>
<path d="M7147 3762 c-26 -15 -50 -35 -53 -44 -3 -10 -9 -18 -14 -18 -5 0 -18
-10 -30 -22 -11 -12 -20 -18 -20 -13 0 5 -8 -2 -17 -15 -10 -14 -17 -29 -15
-33 1 -5 -6 -6 -17 -2 -11 3 -22 1 -26 -5 -3 -5 -2 -10 4 -10 5 0 13 -10 17
-22 3 -12 55 -71 115 -131 l109 -110 0 227 c0 124 -1 226 -2 225 -2 0 -24 -13
-51 -27z"/>
<path d="M4920 3600 c0 -5 7 -7 15 -4 8 4 15 8 15 10 0 2 -7 4 -15 4 -8 0 -15
-4 -15 -10z"/>
<path d="M3752 3193 c9 -2 20 -13 23 -24 4 -10 10 -19 15 -19 5 0 6 7 3 17 -5
12 -3 14 7 8 9 -5 11 -4 6 4 -4 6 -11 9 -16 6 -5 -3 -11 -1 -15 5 -3 5 -14 9
-23 9 -16 -1 -16 -2 0 -6z"/>
<path d="M1417 3042 c19 -30 55 -77 122 -162 24 -30 113 -127 196 -215 84 -88
171 -182 193 -210 22 -27 62 -72 90 -98 45 -45 51 -48 71 -35 11 7 21 16 21
20 0 5 6 8 13 8 16 0 59 43 56 56 -7 37 7 68 59 130 59 69 69 76 332 230 14 8
39 21 57 29 17 8 39 25 50 38 10 12 32 32 48 44 30 21 65 96 65 138 0 21 -2
21 -462 17 -411 -3 -634 3 -813 24 -22 2 -57 6 -77 8 l-37 4 16 -26z"/>
<path d="M3860 2923 c0 -6 8 -17 18 -24 16 -13 16 -13 2 6 -8 11 -16 22 -17
24 -2 2 -3 0 -3 -6z"/>
<path d="M4039 2853 c5 -10 16 -27 25 -38 14 -18 15 -18 16 -2 0 9 -4 17 -9
17 -5 0 -11 9 -14 20 -3 11 -10 20 -16 20 -8 0 -9 -5 -2 -17z"/>
<path d="M4187 2791 c11 -11 30 -40 43 -65 12 -25 26 -43 32 -40 5 4 3 13 -6
23 -9 10 -16 22 -16 27 0 12 -56 74 -66 74 -4 0 2 -9 13 -19z"/>
<path d="M4070 2770 c-13 -8 -12 -10 3 -10 9 0 17 5 17 10 0 12 -1 12 -20 0z"/>
<path d="M4276 2644 c13 -37 44 -60 44 -34 0 6 -7 10 -16 10 -8 0 -13 4 -10 9
3 5 -1 14 -9 21 -13 11 -14 10 -9 -6z"/>
<path d="M4096 2602 c-3 -5 3 -20 12 -35 19 -28 50 -23 39 6 -7 19 -44 40 -51
29z"/>
<path d="M4250 2481 c0 -11 28 -41 38 -41 4 0 13 4 20 9 11 6 10 11 -3 25 -18
17 -55 22 -55 7z"/>
<path d="M4337 2354 c3 -8 9 -11 14 -8 6 3 18 0 27 -8 15 -11 16 -11 4 3 -17
22 -52 32 -45 13z"/>
<path d="M4600 2290 c6 -11 13 -20 16 -20 2 0 0 9 -6 20 -6 11 -13 20 -16 20
-2 0 0 -9 6 -20z"/>
<path d="M4440 2202 c0 -22 13 -43 33 -53 19 -11 19 -9 -3 22 -31 45 -30 44
-30 31z"/>
<path d="M4507 2194 c-7 -7 14 -44 25 -44 5 0 8 6 8 14 0 16 -24 38 -33 30z"/>
<path d="M4788 2108 c6 -6 20 -13 29 -14 16 -2 16 -1 -1 12 -24 17 -45 19 -28
2z"/>
<path d="M4566 2095 c6 -16 47 -29 42 -13 -2 6 -14 15 -26 19 -16 6 -20 5 -16
-6z"/>
<path d="M4730 2076 c0 -3 9 -10 20 -16 11 -6 20 -8 20 -6 0 3 -9 10 -20 16
-11 6 -20 8 -20 6z"/>
<path d="M4610 1985 c7 -9 15 -13 17 -11 7 7 -7 26 -19 26 -6 0 -6 -6 2 -15z"/>
<path d="M4870 1955 c7 -9 15 -13 17 -11 7 7 -7 26 -19 26 -6 0 -6 -6 2 -15z"/>
<path d="M4760 1730 c0 -5 5 -10 11 -10 5 0 7 5 4 10 -3 6 -8 10 -11 10 -2 0
-4 -4 -4 -10z"/>
<path d="M5305 1716 c10 -14 19 -26 22 -26 7 0 -17 39 -28 46 -6 3 -3 -5 6
-20z"/>
<path d="M4890 1717 c0 -7 13 -23 30 -35 l29 -22 -20 35 c-21 36 -39 46 -39
22z"/>
<path d="M5020 1711 c0 -6 4 -13 10 -16 6 -3 7 1 4 9 -7 18 -14 21 -14 7z"/>
<path d="M5175 1630 c3 -5 11 -10 16 -10 6 0 7 5 4 10 -3 6 -11 10 -16 10 -6
0 -7 -4 -4 -10z"/>
<path d="M1456 1565 c-3 -9 0 -15 9 -15 16 0 20 16 6 24 -5 3 -11 -1 -15 -9z"/>
<path d="M5086 1546 c3 -9 10 -16 15 -16 5 0 9 -6 9 -14 0 -8 6 -16 14 -19 11
-5 12 0 3 23 -6 16 -13 27 -16 25 -2 -3 -10 0 -18 7 -11 8 -12 7 -7 -6z"/>
<path d="M5060 1519 c0 -5 5 -7 10 -4 6 3 10 8 10 11 0 2 -4 4 -10 4 -5 0 -10
-5 -10 -11z"/>
<path d="M5260 1350 c8 -5 22 -9 30 -9 10 0 8 3 -5 9 -27 12 -43 12 -25 0z"/>
<path d="M5185 1330 c3 -5 8 -10 11 -10 2 0 4 5 4 10 0 6 -5 10 -11 10 -5 0
-7 -4 -4 -10z"/>
<path d="M5382 1286 c7 -8 15 -12 17 -11 5 6 -10 25 -20 25 -5 0 -4 -6 3 -14z"/>
<path d="M5233 1245 c0 -8 4 -15 9 -15 4 0 8 -9 8 -20 0 -11 4 -20 10 -20 5 0
7 -6 4 -14 -5 -13 12 -33 21 -24 6 6 -19 78 -27 78 -5 0 -8 7 -8 15 0 8 -4 15
-8 15 -5 0 -9 -7 -9 -15z"/>
<path d="M5425 1160 c3 -5 8 -10 11 -10 2 0 4 5 4 10 0 6 -5 10 -11 10 -5 0
-7 -4 -4 -10z"/>
<path d="M5451 1144 c0 -11 3 -14 6 -6 3 7 2 16 -1 19 -3 4 -6 -2 -5 -13z"/>
<path d="M1181 1104 c0 -11 3 -14 6 -6 3 7 2 16 -1 19 -3 4 -6 -2 -5 -13z"/>
<path d="M1265 600 c4 -6 11 -8 16 -5 14 9 11 15 -7 15 -8 0 -12 -5 -9 -10z"/>
<path d="M1376 574 c-8 -22 1 -31 16 -16 9 9 9 15 1 23 -7 7 -12 5 -17 -7z"/>
<path d="M260 546 c-7 -9 -9 -23 -5 -33 5 -10 7 -26 6 -36 -1 -10 3 -25 9 -33
13 -15 75 -20 83 -6 3 4 -3 25 -14 46 -10 22 -19 46 -19 53 0 7 -4 13 -9 13
-5 0 -16 2 -24 5 -7 3 -20 -1 -27 -9z"/>
<path d="M1006 552 c-4 -7 -14 -11 -22 -8 -7 3 -16 1 -19 -4 -4 -6 -2 -10 4
-10 5 0 13 -9 16 -21 l7 -21 15 21 c8 12 13 29 11 39 -3 13 -5 14 -12 4z"/>
<path d="M1835 550 c4 -6 11 -8 16 -5 14 9 11 15 -7 15 -8 0 -12 -5 -9 -10z"/>
<path d="M1081 521 c-6 -11 -11 -24 -11 -30 0 -20 17 -11 28 14 14 29 -2 44
-17 16z"/>
<path d="M5096 428 c3 -5 10 -6 15 -3 13 9 11 12 -6 12 -8 0 -12 -4 -9 -9z"/>
<path d="M5346 399 c-11 -11 -15 -19 -9 -19 12 0 38 28 32 34 -2 2 -13 -5 -23
-15z"/>
<path d="M4900 374 c0 -8 5 -12 10 -9 6 4 8 11 5 16 -9 14 -15 11 -15 -7z"/>
<path d="M1004 353 c-3 -10 -10 -29 -15 -42 -5 -13 -7 -26 -4 -30 11 -10 35
32 35 61 0 32 -8 37 -16 11z"/>
<path d="M931 344 c0 -11 3 -14 6 -6 3 7 2 16 -1 19 -3 4 -6 -2 -5 -13z"/>
<path d="M6050 340 c0 -5 5 -10 11 -10 5 0 7 5 4 10 -3 6 -8 10 -11 10 -2 0
-4 -4 -4 -10z"/>
<path d="M207 333 c-3 -5 -8 -24 -12 -43 -6 -31 -5 -33 8 -20 20 19 33 70 19
70 -6 0 -13 -3 -15 -7z"/>
<path d="M4888 323 c7 -3 16 -2 19 1 4 3 -2 6 -13 5 -11 0 -14 -3 -6 -6z"/>
<path d="M6057 313 c-12 -11 -8 -23 8 -23 8 0 15 7 15 15 0 16 -12 20 -23 8z"/>
<path d="M1391 284 c0 -11 3 -14 6 -6 3 7 2 16 -1 19 -3 4 -6 -2 -5 -13z"/>
<path d="M545 280 c3 -5 8 -10 11 -10 2 0 4 5 4 10 0 6 -5 10 -11 10 -5 0 -7
-4 -4 -10z"/>
<path d="M6745 270 c-3 -5 -1 -10 4 -10 6 0 11 5 11 10 0 6 -2 10 -4 10 -3 0
-8 -4 -11 -10z"/>
<path d="M175 223 c-3 -8 -5 -30 -5 -48 0 -19 -5 -37 -11 -40 -7 -5 -4 -14 7
-26 9 -10 14 -19 10 -19 -4 0 2 -10 14 -22 23 -25 26 -44 8 -51 -7 -3 -4 -6 7
-6 11 0 26 3 34 8 11 7 10 11 -4 19 -17 9 -16 11 7 26 14 9 30 16 34 15 14 -3
67 13 82 24 20 15 -5 38 -34 31 -16 -4 -24 -2 -24 7 -1 10 -5 8 -15 -5 -7 -10
-18 -15 -24 -11 -6 3 -11 1 -11 -4 0 -6 -7 -11 -15 -11 -8 0 -15 -5 -15 -10 0
-6 -6 -5 -14 2 -11 11 -11 16 0 32 11 16 11 23 1 34 -9 12 -7 18 11 30 12 8
22 20 22 27 0 17 -58 15 -65 -2z"/>
<path d="M948 211 c-11 -11 -14 -25 -11 -44 5 -23 1 -29 -15 -34 -17 -4 -20
-9 -12 -23 5 -10 6 -20 1 -22 -16 -6 -62 -88 -48 -88 23 0 50 43 79 124 31 87
33 113 6 87z"/>
<path d="M500 194 c0 -8 5 -12 10 -9 6 4 8 11 5 16 -9 14 -15 11 -15 -7z"/>
<path d="M880 200 c-13 -8 -12 -10 3 -10 9 0 17 5 17 10 0 12 -1 12 -20 0z"/>
<path d="M6150 176 c0 -19 60 -86 77 -86 19 0 16 9 -19 49 -39 45 -58 57 -58
37z"/>
<path d="M2790 163 c0 -4 5 -15 10 -23 8 -13 10 -13 10 2 0 9 -4 20 -10 23 -5
3 -10 3 -10 -2z"/>
<path d="M505 124 c-15 -19 -25 -38 -22 -41 9 -8 27 7 27 23 0 8 5 14 11 14 5
0 7 5 4 10 -3 6 1 10 9 10 9 0 16 5 16 10 0 20 -18 9 -45 -26z"/>
<path d="M1352 148 c-5 -7 -13 -24 -17 -38 -9 -30 -45 -83 -52 -76 -2 2 1 14
7 26 11 21 11 21 -19 5 -28 -14 -46 -5 -21 10 12 7 14 35 2 35 -4 0 -16 -14
-26 -31 -14 -24 -21 -28 -27 -18 -7 11 -9 9 -9 -6 0 -17 -2 -17 -10 -5 -5 8
-10 26 -10 39 0 18 -4 22 -19 18 -16 -4 -21 1 -23 22 -3 24 -5 23 -26 -19
l-23 -45 6 38 c7 47 -11 50 -30 5 -8 -18 -24 -44 -36 -58 -11 -14 -18 -19 -14
-12 11 22 -9 12 -28 -13 l-18 -25 76 0 c42 0 74 4 71 9 -3 5 3 11 15 14 16 4
18 3 8 -9 -10 -12 5 -14 100 -14 80 0 111 3 111 12 0 9 3 9 12 0 17 -17 48
-15 48 2 0 8 6 21 13 28 17 16 30 78 17 78 -5 0 -17 -11 -27 -25 -10 -14 -26
-36 -36 -48 -17 -21 -18 -21 -13 -2 9 30 18 115 13 115 -3 0 -9 -6 -15 -12z
m-292 -118 c8 -5 11 -10 5 -10 -5 0 -17 5 -25 10 -8 5 -10 10 -5 10 6 0 17 -5
25 -10z"/>
<path d="M6885 140 c3 -5 8 -10 11 -10 2 0 4 5 4 10 0 6 -5 10 -11 10 -5 0 -7
-4 -4 -10z"/>
<path d="M465 130 c-3 -5 -1 -10 4 -10 6 0 11 5 11 10 0 6 -2 10 -4 10 -3 0
-8 -4 -11 -10z"/>
<path d="M4135 130 c-3 -5 -1 -10 4 -10 6 0 11 5 11 10 0 6 -2 10 -4 10 -3 0
-8 -4 -11 -10z"/>
<path d="M6760 126 c0 -8 5 -18 10 -21 6 -3 10 3 10 14 0 12 -4 21 -10 21 -5
0 -10 -6 -10 -14z"/>
<path d="M834 115 c-4 -8 -10 -15 -16 -15 -14 0 -78 -76 -78 -94 0 -3 16 -6
35 -6 19 0 35 2 35 4 0 2 3 13 7 23 6 16 5 16 -10 4 -15 -12 -17 -11 -17 6 0
25 38 66 55 59 11 -4 25 13 25 30 0 11 -31 2 -36 -11z"/>
<path d="M3966 114 c-3 -9 -1 -12 4 -9 6 3 10 1 10 -4 0 -6 4 -11 8 -11 14 0
10 29 -4 34 -7 3 -15 -2 -18 -10z"/>
<path d="M40 109 c0 -5 5 -7 10 -4 6 3 10 8 10 11 0 2 -4 4 -10 4 -5 0 -10 -5
-10 -11z"/>
<path d="M96 104 c-9 -23 -2 -28 13 -10 7 8 8 17 3 20 -6 3 -13 -1 -16 -10z"/>
<path d="M537 96 c-11 -16 -13 -26 -5 -28 8 -3 8 -10 -1 -25 -21 -41 -11 -48
13 -9 15 25 26 35 30 27 4 -7 0 -23 -8 -36 -30 -46 2 -26 38 24 43 59 48 87 7
40 -26 -29 -31 -31 -37 -16 -5 14 -9 15 -20 6 -17 -14 -19 2 -2 19 6 6 9 14 6
17 -3 3 -13 -5 -21 -19z"/>
<path d="M756 104 c-11 -7 -16 -17 -13 -21 4 -4 15 1 24 10 22 21 14 30 -11
11z"/>
<path d="M3665 100 c-4 -6 -1 -10 5 -10 6 0 8 -5 4 -12 -5 -8 -2 -9 9 -5 10 4
17 1 17 -5 0 -6 2 -9 5 -6 9 8 -5 36 -20 42 -8 3 -17 1 -20 -4z"/>
<path d="M355 73 l-17 -28 23 22 c12 12 20 25 17 28 -3 3 -13 -7 -23 -22z"/>
<path d="M940 60 c-14 -22 -28 -40 -32 -40 -18 0 -6 -20 12 -20 20 0 37 23 50
71 12 41 -2 36 -30 -11z"/>
<path d="M410 80 c-8 -5 -10 -10 -3 -10 6 0 9 -9 6 -20 -8 -29 12 -25 25 5 7
14 12 28 12 30 0 8 -24 5 -40 -5z"/>
<path d="M3570 80 c0 -5 5 -10 11 -10 5 0 7 5 4 10 -3 6 -8 10 -11 10 -2 0 -4
-4 -4 -10z"/>
<path d="M4245 80 c4 -6 11 -8 16 -5 14 9 11 15 -7 15 -8 0 -12 -5 -9 -10z"/>
<path d="M30 69 c0 -5 5 -7 10 -4 6 3 10 8 10 11 0 2 -4 4 -10 4 -5 0 -10 -5
-10 -11z"/>
<path d="M3980 76 c0 -2 7 -7 16 -10 8 -3 12 -2 9 4 -6 10 -25 14 -25 6z"/>
<path d="M4100 56 c0 -9 5 -16 10 -16 6 0 10 4 10 9 0 6 -4 13 -10 16 -5 3
-10 -1 -10 -9z"/>
<path d="M442 29 l-24 -29 30 0 c37 0 46 10 24 26 -10 8 -12 13 -4 14 6 0 12
5 12 10 0 17 -14 10 -38 -21z"/>
<path d="M42 25 c-10 -22 -9 -25 8 -25 11 0 20 5 20 11 0 5 -5 7 -10 4 -17
-11 -11 7 8 21 15 12 15 13 1 14 -9 0 -21 -11 -27 -25z"/>
<path d="M613 23 c-12 -13 -18 -23 -12 -23 14 0 42 28 37 38 -2 4 -13 -3 -25
-15z"/>
<path d="M120 30 c0 -5 5 -10 11 -10 5 0 7 5 4 10 -3 6 -8 10 -11 10 -2 0 -4
-4 -4 -10z"/>
<path d="M4477 26 c-3 -8 -2 -18 3 -21 13 -8 24 15 12 27 -6 6 -11 4 -15 -6z"/>
<path d="M380 15 c-10 -12 -10 -15 4 -15 9 0 16 7 16 15 0 8 -2 15 -4 15 -2 0
-9 -7 -16 -15z"/>
<path d="M689 14 c-12 -14 -11 -16 5 -13 11 2 21 10 24 17 5 17 -13 15 -29 -4z"/>
<path d="M5980 20 c0 -5 5 -10 11 -10 5 0 7 5 4 10 -3 6 -8 10 -11 10 -2 0 -4
-4 -4 -10z"/>
<path d="M268 3 c6 -2 18 -2 25 0 6 3 1 5 -13 5 -14 0 -19 -2 -12 -5z"/>
</g>
</svg>
