<?xml version="1.0" standalone="no"?>
<!DOCTYPE svg PUBLIC "-//W3C//DTD SVG 20010904//EN"
 "http://www.w3.org/TR/2001/REC-SVG-20010904/DTD/svg10.dtd">
<svg version="1.0" xmlns="http://www.w3.org/2000/svg"
 width="318.000000pt" height="159.000000pt" viewBox="0 0 318.000000 159.000000"
 preserveAspectRatio="xMidYMid meet">
<metadata>
Created by potrace 1.16, written by Peter Selinger 2001-2019
</metadata>
<g transform="translate(0.000000,159.000000) scale(0.100000,-0.100000)"
fill="#000000" stroke="none">
<path d="M3009 909 c-25 -4 -60 -14 -77 -23 -32 -16 -32 -17 -33 -99 -1 -76
-14 -225 -17 -202 -4 23 -42 13 -62 -16 -12 -16 -18 -29 -14 -29 4 0 -3 -10
-15 -21 -23 -22 -24 -22 -55 -3 -17 10 -33 16 -36 14 -3 -3 -8 34 -12 82 -11
151 -25 177 -88 163 -35 -8 -36 -9 -51 -168 -8 -78 -17 -127 -23 -126 -49 6
-186 -3 -186 -11 0 -6 6 -10 13 -8 6 2 14 -2 17 -7 3 -6 -5 -11 -16 -13 -18
-3 -23 4 -29 40 -5 24 -9 57 -10 73 -5 105 -5 105 -24 105 -23 0 -32 -24 -30
-72 1 -18 -2 -66 -6 -105 -8 -70 -9 -73 -34 -74 -22 -1 -20 -3 8 -8 48 -8 50
-27 4 -25 -96 3 -137 7 -120 11 9 2 17 9 17 14 0 5 12 10 28 10 21 1 22 3 6 6
-15 3 -21 12 -21 29 0 25 2 26 48 22 27 -1 49 0 49 4 0 4 -24 8 -52 10 -45 3
-53 6 -54 23 -2 55 -5 66 -14 60 -5 -3 -10 -17 -10 -31 0 -13 -9 -33 -20 -44
-26 -26 -55 -13 -63 30 -8 38 -27 39 -27 1 0 -46 -27 -47 -34 0 -3 21 -10 39
-16 39 -11 0 -23 -75 -18 -115 4 -34 27 -45 35 -17 3 13 10 19 19 15 12 -4 11
-8 -3 -18 -15 -11 -15 -15 -4 -29 7 -9 18 -16 24 -16 6 0 2 6 -9 14 -10 8 -15
18 -11 22 4 5 12 2 16 -5 5 -8 11 -9 15 -3 3 5 23 8 43 7 57 -4 59 -5 41 -16
-9 -5 -31 -7 -47 -4 -25 4 -29 2 -24 -11 4 -10 13 -14 29 -10 12 3 24 2 26 -4
2 -5 19 -12 38 -16 26 -4 31 -3 20 5 -9 6 -10 11 -3 11 21 0 43 -12 37 -21 -5
-9 11 -12 78 -13 38 -1 50 8 26 17 -10 4 -10 6 -1 6 13 1 39 -38 26 -40 -4 0
17 -7 47 -14 62 -16 96 -18 65 -5 -50 22 52 8 164 -22 36 -9 41 -13 25 -19
-18 -7 -18 -8 2 -8 119 -4 330 -37 340 -53 3 -4 23 -8 45 -8 24 0 38 4 34 10
-8 12 -11 13 55 -5 67 -18 68 -18 46 -2 -16 12 -14 13 18 9 35 -4 36 -4 36 32
0 20 -5 36 -11 36 -5 0 -7 -6 -3 -13 4 -6 3 -9 -1 -4 -16 14 -16 47 0 47 8 0
15 5 15 10 0 6 -4 10 -10 10 -15 0 -12 48 3 53 9 3 9 9 -1 27 -9 14 -10 25 -4
29 5 3 9 36 9 74 0 50 -3 67 -13 67 -22 0 -18 50 4 51 14 0 13 2 -5 11 -22 11
-23 15 -43 168 -15 113 -24 122 -111 109z m-481 -495 c32 -6 28 -34 -5 -35
-27 -1 -27 -1 4 -9 17 -4 39 -15 48 -24 15 -15 15 -16 -4 -16 -12 0 -21 5 -21
10 0 6 -4 10 -10 10 -5 0 -6 -7 -3 -17 5 -12 3 -14 -8 -8 -8 5 -27 8 -42 6
-15 -1 -35 3 -43 10 -10 8 -18 9 -25 2 -7 -7 -27 -7 -56 -2 -58 11 -72 22 -16
13 27 -4 51 -1 74 9 19 9 43 18 54 20 11 3 -3 5 -32 6 -43 1 -51 -2 -46 -15 4
-12 0 -14 -23 -8 -16 5 -37 8 -46 8 -12 0 -14 4 -8 10 6 6 10 18 10 27 0 15
10 16 88 12 48 -2 97 -6 110 -9z"/>
<path d="M193 838 c-5 -7 -10 -30 -10 -51 -1 -41 -19 -71 -39 -63 -18 7 -56
-38 -43 -51 8 -8 7 -17 -2 -34 -7 -13 -12 -28 -11 -32 2 -5 -3 -7 -10 -5 -7 3
-14 14 -16 26 -2 12 -6 22 -10 22 -4 0 -17 3 -30 6 -22 6 -22 6 -22 -115 l0
-122 48 2 c65 2 72 1 72 -14 0 -11 -14 -13 -60 -10 -55 4 -60 3 -60 -16 0 -18
7 -21 43 -22 23 -1 46 -1 51 0 4 1 17 -1 27 -4 28 -9 27 -65 -1 -66 -11 -1
-24 -3 -30 -4 -5 -1 -28 -3 -50 -4 l-40 -1 0 -62 0 -63 82 2 c66 2 77 0 53 -8
-16 -5 -48 -9 -70 -8 -22 1 -46 1 -52 0 -14 -1 -19 -61 -5 -61 6 0 200 49 277
70 29 8 29 8 5 10 -19 2 -11 7 30 20 58 20 143 27 105 9 -15 -7 -11 -7 15 -3
19 3 45 12 57 20 12 8 40 14 63 14 26 0 47 7 59 19 10 10 38 21 62 25 42 5 42
5 10 -5 -51 -16 -32 -20 24 -5 37 10 45 14 30 19 -14 4 -11 5 10 5 39 -2 115
12 138 24 11 5 33 11 50 14 60 7 87 16 81 25 -3 5 -1 9 5 9 6 0 8 8 5 18 -5
14 -4 14 4 2 6 -8 8 -18 5 -24 -4 -5 4 -7 18 -3 13 4 33 7 44 7 17 0 18 2 5
11 -12 9 -11 10 7 6 30 -7 102 10 120 28 17 17 33 20 33 5 0 -15 22 -12 66 7
22 9 44 17 49 18 6 1 12 3 15 4 3 2 16 4 30 6 14 2 43 8 65 14 53 14 91 14 52
-1 -15 -5 -27 -14 -27 -19 0 -13 44 -11 59 4 10 10 11 -2 7 -58 -2 -38 -5 -87
-5 -107 -1 -28 -5 -38 -18 -38 -14 0 -15 -2 -1 -17 12 -15 16 -47 9 -85 0 -5
-9 -8 -19 -8 -10 0 -24 -6 -31 -13 -11 -9 -13 -9 -7 1 4 7 1 12 -8 12 -9 0
-16 -1 -17 -2 -9 -48 -9 -91 2 -104 12 -14 14 -14 20 3 7 16 8 16 8 1 1 -24
28 -23 41 2 6 10 16 17 24 14 9 -3 19 6 27 25 7 16 21 32 31 34 10 3 18 11 17
19 0 10 -2 10 -6 1 -2 -7 -9 -13 -15 -13 -6 0 -7 7 -4 16 3 8 2 12 -4 9 -6 -3
-11 -3 -11 2 -7 42 -5 59 5 68 13 10 36 49 36 60 0 3 -12 2 -26 -1 -23 -6 -25
-4 -23 17 1 13 -1 37 -6 53 -5 20 -4 31 6 37 10 6 11 9 2 9 -8 0 -13 14 -13
34 0 33 1 34 35 31 20 -2 43 -9 53 -17 9 -7 21 -16 27 -20 5 -4 25 -19 43 -34
17 -14 32 -23 32 -19 0 3 7 -1 16 -9 8 -9 21 -16 28 -16 7 0 25 -11 40 -25 15
-14 29 -25 32 -25 3 0 45 -25 93 -56 92 -60 111 -84 105 -133 -2 -17 0 -31 4
-31 4 0 9 14 10 32 4 52 -1 53 121 -27 80 -52 88 -55 148 -55 35 0 63 3 63 8
-1 9 -104 72 -120 72 -15 0 -94 42 -98 53 -2 4 -10 7 -17 7 -15 0 -216 112
-211 118 4 3 379 -185 466 -233 37 -21 58 -25 120 -24 41 0 68 3 60 6 -14 5
-152 66 -265 117 -27 13 -78 36 -113 51 -34 15 -61 29 -59 31 3 4 91 -28 142
-51 17 -8 56 -21 87 -30 32 -9 60 -21 63 -26 4 -5 18 -9 33 -10 15 0 21 -3 14
-6 -9 -3 -4 -10 13 -19 15 -8 31 -12 35 -9 8 5 72 -14 80 -24 14 -17 66 -31
113 -30 l52 1 -35 14 -35 13 50 -4 c43 -4 46 -3 20 5 -16 6 -45 12 -62 15 -18
2 -40 8 -50 13 -10 5 -74 28 -143 52 -69 23 -138 48 -155 55 -77 34 -116 49
-198 76 -48 16 -144 50 -213 75 -70 25 -132 43 -140 40 -20 -8 -45 4 -37 17 4
6 0 8 -10 4 -8 -3 -21 1 -27 9 -7 8 -18 14 -26 14 -19 0 -162 59 -143 60 8 0
55 -9 104 -19 49 -11 92 -18 96 -15 4 2 10 0 14 -5 3 -5 14 -8 25 -6 11 2 20
-1 20 -6 0 -6 6 -9 13 -6 6 2 10 11 8 18 -2 8 -5 32 -7 54 -2 22 -6 51 -10 65
l-7 25 -7 -25 c-5 -16 -8 -19 -9 -7 -1 9 -8 17 -16 17 -11 0 -15 -11 -15 -41
0 -24 -4 -38 -10 -34 -6 3 -10 19 -10 36 0 32 -15 37 -46 14 -10 -8 -31 -15
-46 -15 -15 0 -34 -7 -42 -15 -18 -19 -175 -23 -186 -6 -3 6 -20 14 -38 17
-25 5 -32 3 -32 -10 0 -9 -4 -16 -10 -16 -5 0 -10 12 -10 26 0 31 -20 28 -37
-7 l-13 -24 0 28 c0 15 -4 27 -10 27 -5 0 -10 -11 -10 -25 0 -41 -27 -30 -34
15 -7 42 -30 55 -40 23 -3 -11 -4 -7 -3 7 2 19 -3 25 -18 25 -17 0 -21 -8 -25
-49 -3 -29 -11 -51 -18 -54 -9 -3 -13 3 -12 14 1 11 2 38 1 62 -1 34 -5 42
-20 42 -21 0 -31 -40 -31 -126 0 -49 -1 -52 -25 -50 -17 1 -23 6 -20 14 3 8 5
15 5 18 0 2 7 1 15 -2 21 -9 19 13 -5 38 -15 17 -20 36 -20 81 0 84 -22 71
-34 -21 l-9 -72 -44 0 c-36 0 -43 -3 -43 -20 0 -17 7 -20 44 -20 53 0 69 -16
25 -25 -17 -4 -33 -13 -36 -21 -3 -8 -10 -14 -15 -14 -6 0 -5 6 2 15 10 13 9
15 -12 15 l-25 0 -2 111 c-1 119 -10 149 -42 149 -24 0 -27 -7 -33 -100 -3
-41 -5 -78 -6 -82 0 -4 -15 -9 -32 -11 l-33 -4 33 -1 c39 -2 46 -32 7 -32 -14
0 -25 5 -25 10 0 7 -13 8 -35 4 -23 -4 -35 -2 -35 5 0 6 12 12 28 12 16 1 20
3 10 6 -20 5 -25 23 -7 23 6 0 9 6 6 13 -4 13 -39 17 -48 5 -7 -11 -51 31 -44
43 4 5 1 9 -4 9 -6 0 -11 7 -11 15 0 8 -9 15 -19 15 -16 0 -21 12 -31 70 -7
39 -19 77 -27 85 -15 16 -78 21 -87 7 -2 -4 -6 -37 -7 -72 -1 -36 -4 -73 -7
-82 -4 -16 -6 -16 -20 -2 -13 14 -17 14 -30 0 -11 -11 -21 -12 -39 -5 -30 11
-54 34 -46 43 4 3 -1 6 -10 6 -8 0 -23 -7 -31 -16 -14 -13 -16 -13 -16 -1 0 9
12 20 28 25 15 6 22 11 15 11 -7 1 -10 8 -7 16 8 19 0 19 -19 0 -13 -13 -16
-4 -27 70 -9 64 -17 88 -30 95 -26 14 -66 12 -77 -2z"/>
<path d="M1440 390 c0 -6 -5 -8 -12 -4 -7 5 -8 3 -3 -6 6 -10 4 -12 -8 -7 -9
3 -16 2 -14 -3 1 -7 -285 -180 -299 -180 -2 0 -20 -12 -41 -26 -21 -14 -65
-40 -98 -56 -33 -17 -62 -33 -65 -37 -3 -3 -25 -17 -50 -30 -70 -37 -69 -41 8
-41 51 0 73 4 79 14 10 18 89 76 103 76 5 0 10 6 10 13 0 7 8 13 18 14 10 1
33 15 51 32 18 17 41 31 52 31 10 0 25 12 33 28 8 15 15 23 16 18 0 -4 8 0 18
11 9 10 13 13 8 6 -6 -9 -2 -13 14 -13 17 0 21 4 17 20 -3 11 -1 23 4 26 5 3
9 0 9 -5 0 -6 5 -11 10 -11 6 0 10 7 10 15 0 17 34 38 45 27 3 -4 5 0 3 8 -2
8 10 18 30 25 18 6 29 14 26 18 -4 4 -2 7 5 7 19 0 43 28 31 35 -5 3 -10 1
-10 -5z"/>
</g>
</svg>
