<?xml version="1.0" standalone="no"?>
<!DOCTYPE svg PUBLIC "-//W3C//DTD SVG 20010904//EN"
 "http://www.w3.org/TR/2001/REC-SVG-20010904/DTD/svg10.dtd">
<svg version="1.0" xmlns="http://www.w3.org/2000/svg"
 width="849.000000pt" height="565.000000pt" viewBox="0 0 849.000000 565.000000"
 preserveAspectRatio="xMidYMid meet">

<g transform="translate(0.000000,565.000000) scale(0.100000,-0.100000)"
fill="#000000" stroke="none">
<path d="M4303 5096 c-13 -6 -23 -13 -23 -16 0 -4 28 -35 63 -70 45 -46 87
-76 152 -110 83 -42 91 -49 99 -83 8 -30 14 -37 33 -37 13 0 26 6 29 14 10 26
61 39 121 32 90 -11 200 -74 284 -162 35 -38 53 -72 84 -154 21 -58 46 -112
54 -121 9 -8 40 -28 69 -44 53 -29 106 -84 136 -142 24 -47 19 -54 -8 -10 -47
77 -86 105 -198 146 -89 33 -118 35 -181 11 -36 -14 -64 -32 -75 -48 -9 -15
-32 -41 -50 -59 -19 -18 -31 -37 -27 -43 4 -6 1 -9 -7 -8 -7 2 -14 -7 -16 -19
-2 -13 -7 -23 -11 -23 -11 0 -12 59 -1 79 8 16 3 25 -27 52 l-38 32 -8 -39
c-32 -151 -70 -224 -116 -224 -10 0 -29 -16 -43 -35 l-25 -36 -31 26 c-16 14
-35 25 -42 25 -7 0 15 30 47 68 77 86 87 103 114 185 27 82 23 87 -61 86 -54
0 -72 -7 -196 -75 -56 -31 -87 -72 -139 -183 l-16 -34 -54 53 c-88 87 -200
108 -317 58 -40 -17 -118 -91 -118 -112 0 -2 42 -5 93 -4 96 0 194 -24 227
-57 9 -10 -8 -6 -43 11 -55 24 -66 26 -175 22 -106 -3 -122 -7 -172 -33 -76
-41 -80 -42 -43 -11 17 14 48 33 68 41 l36 16 -21 29 c-27 38 -61 56 -142 75
-147 34 -295 10 -391 -63 -97 -76 -147 -151 -147 -224 0 -18 -5 -28 -15 -28
-8 0 -15 -7 -15 -17 0 -14 -2 -14 -21 3 -11 10 -27 34 -35 53 -8 19 -31 55
-51 79 l-37 45 -23 -27 c-13 -15 -23 -24 -23 -20 0 4 -16 -10 -35 -30 -19 -21
-35 -43 -35 -50 0 -7 -11 -18 -24 -24 -20 -9 -25 -7 -35 11 -9 19 -10 17 -5
-13 l7 -35 -36 40 c-20 22 -37 37 -37 33 0 -14 23 -58 32 -58 4 0 8 -11 8 -24
0 -28 -45 -50 -97 -46 -36 2 -43 -13 -15 -29 10 -6 12 -11 4 -11 -7 0 -10 -4
-7 -10 4 -6 -10 -8 -37 -6 -23 3 -44 9 -46 14 -1 5 -10 18 -18 28 -9 10 -12
12 -8 4 7 -15 -16 4 -54 43 -9 9 -23 17 -30 17 -17 0 -9 -58 15 -103 19 -37
10 -47 -13 -12 -20 30 -35 166 -27 235 6 45 46 138 67 153 7 6 5 7 -6 4 -9 -3
-18 -1 -20 4 -2 6 -11 7 -21 3 -12 -4 -14 -10 -8 -18 12 -14 11 -56 -1 -56 -4
0 -8 5 -8 10 0 6 -9 10 -21 10 -11 0 -17 5 -14 10 3 6 -1 10 -9 10 -9 0 -16 4
-16 10 0 5 6 8 13 6 6 -1 9 -1 5 1 -5 3 -8 11 -8 19 0 8 -6 14 -12 14 -8 0
-13 -13 -13 -30 0 -23 7 -33 33 -47 63 -34 28 -66 -70 -64 -26 0 -38 -4 -38
-13 0 -8 -5 -16 -12 -18 -6 -2 -17 -20 -23 -38 -10 -29 -18 -36 -51 -43 -21
-4 -55 -5 -74 -1 -19 5 -39 8 -45 8 -12 1 -7 -82 7 -107 28 -52 117 -146 160
-168 21 -11 38 -21 38 -23 0 -2 -19 -15 -43 -30 -45 -28 -53 -49 -37 -92 8
-20 7 -24 -10 -24 -16 0 -20 7 -20 34 0 32 -36 111 -67 148 -16 18 -50 17 -45
-2 2 -9 -4 -8 -21 3 -23 15 -24 15 -25 -14 -1 -24 5 -32 32 -43 41 -17 44 -46
4 -46 -15 0 -27 -3 -26 -7 2 -5 -5 -19 -14 -31 -12 -19 -22 -22 -39 -17 -22 7
-22 7 -6 -9 20 -21 22 -40 3 -33 -7 3 -19 0 -25 -6 -8 -8 -11 -7 -11 5 0 9 -5
20 -12 24 -7 5 -9 2 -5 -9 8 -21 -18 -40 -48 -35 -14 3 -22 1 -18 -5 3 -5 -3
-6 -17 -2 -20 6 -22 4 -17 -14 5 -19 3 -20 -11 -9 -9 7 -13 8 -9 2 4 -7 1 -17
-6 -22 -10 -8 -22 -6 -45 8 -32 20 -45 47 -17 36 9 -3 15 0 15 10 0 11 6 14
23 9 21 -7 21 -7 2 8 -16 13 -18 18 -7 41 8 18 8 27 1 32 -8 4 -7 9 2 14 8 6
-2 12 -30 20 -33 9 -46 8 -58 -1 -13 -12 -13 -15 6 -30 12 -10 21 -22 21 -27
0 -6 8 -13 18 -15 10 -3 6 -5 -10 -6 -21 -1 -28 4 -28 18 0 24 -28 36 -32 13
-2 -9 1 -32 6 -51 8 -26 7 -36 -2 -39 -8 -2 -8 -8 4 -19 8 -8 12 -18 9 -22 -4
-3 -17 6 -29 22 -12 15 -24 27 -27 27 -10 0 4 -54 17 -67 15 -15 28 -17 19 -3
-3 5 -2 10 4 10 15 0 26 -23 13 -28 -13 -4 -16 -34 -5 -46 4 -4 8 -25 9 -46 1
-36 0 -38 -18 -29 -11 6 -30 8 -42 5 -17 -5 -35 9 -92 69 l-71 74 -59 -20
c-74 -26 -80 -32 -55 -56 20 -18 19 -18 -30 -20 -34 -1 -49 3 -49 12 0 7 -7
15 -15 19 -31 12 -40 -4 -43 -75 -2 -46 -10 -84 -23 -109 -11 -22 -19 -49 -17
-62 3 -21 -1 -23 -47 -23 -44 0 -50 -2 -47 -20 1 -11 5 -44 7 -73 7 -76 27
-108 86 -138 l51 -25 84 22 c76 20 91 21 156 10 39 -6 74 -8 78 -4 3 4 18 47
34 96 22 69 37 99 76 142 47 54 48 56 38 96 -6 22 -8 42 -5 45 3 4 34 -2 68
-12 l62 -19 -73 -54 c-74 -55 -106 -95 -117 -144 -3 -16 -12 -31 -19 -34 -8
-3 -16 -27 -20 -54 -4 -27 -12 -54 -20 -60 -7 -6 -10 -17 -7 -25 3 -8 -1 -15
-8 -15 -8 -1 -18 -2 -24 -4 -5 -1 -16 -3 -23 -3 -20 -3 25 -62 46 -62 10 0 26
-18 39 -45 12 -25 18 -45 12 -45 -5 0 -9 -7 -9 -15 0 -9 -11 -21 -25 -27 l-25
-11 23 -26 c31 -33 38 -56 24 -70 -20 -20 -47 -12 -84 24 -24 23 -40 32 -47
26 -16 -14 -38 2 -30 22 4 12 -1 18 -20 23 -17 4 -26 14 -28 32 -2 21 -8 26
-23 24 -11 -2 -28 -3 -37 -3 -9 0 -19 -7 -22 -15 -4 -10 -2 -13 7 -8 18 11
-11 -25 -50 -62 -18 -18 -33 -41 -33 -52 0 -11 -11 -29 -25 -40 -25 -20 -35
-40 -13 -26 7 4 8 3 4 -4 -4 -6 -13 -9 -21 -5 -23 8 -18 -5 11 -32 l25 -24
-21 -11 c-12 -7 -31 -10 -41 -7 -31 8 -31 -10 0 -24 16 -7 27 -17 24 -22 -3
-4 -14 -1 -24 9 -10 9 -19 13 -19 7 0 -5 11 -16 25 -23 13 -7 22 -16 20 -21
-3 -4 2 -14 11 -23 8 -9 21 -34 27 -57 8 -25 21 -45 37 -54 56 -31 94 -45 120
-45 18 0 33 -8 44 -25 9 -14 14 -25 10 -25 -4 0 -1 -6 5 -14 6 -7 15 -33 20
-57 4 -24 10 -51 12 -59 2 -8 -3 -15 -11 -15 -8 0 -17 -3 -20 -7 -3 -3 -20 0
-38 8 -26 10 -32 18 -27 33 3 12 0 21 -10 25 -8 3 -15 9 -14 13 1 4 0 11 -1
16 -1 4 -3 12 -4 19 0 6 -13 15 -29 19 -25 7 -27 5 -27 -24 0 -18 7 -43 15
-57 8 -14 21 -38 30 -55 26 -52 40 -65 64 -58 20 5 22 3 17 -14 -4 -13 2 -27
21 -45 40 -37 174 -98 230 -104 50 -6 173 7 278 30 55 11 61 15 71 46 13 40
33 50 41 21 3 -12 16 -24 29 -27 24 -6 218 38 380 87 17 5 69 18 115 28 46 11
109 26 139 35 95 27 226 37 315 25 97 -14 197 -17 227 -8 23 6 30 4 35 -9 24
-72 64 -142 90 -156 49 -25 55 -38 38 -79 -22 -52 -19 -92 10 -135 14 -21 29
-58 34 -82 5 -25 13 -56 19 -70 14 -35 95 -114 137 -134 l35 -17 -21 -40 c-44
-87 -31 -206 31 -281 32 -39 164 -123 178 -114 4 2 17 -9 27 -25 30 -45 112
-107 158 -120 67 -18 174 -8 237 23 58 27 87 29 247 13 53 -6 65 -11 92 -41
28 -30 38 -34 79 -34 57 0 112 27 265 125 71 45 76 51 112 129 34 72 38 90 38
161 0 104 -34 193 -104 267 -27 29 -47 58 -45 65 3 6 21 15 41 19 19 3 37 9
40 13 2 4 35 23 72 42 37 19 70 37 71 42 2 4 9 4 14 1 6 -4 8 -3 5 3 -3 5 18
32 46 60 41 40 58 67 76 117 44 125 18 232 -83 343 -28 31 -46 54 -39 50 6 -4
14 -3 18 2 3 6 18 10 33 9 62 -3 162 6 162 14 0 4 15 8 34 8 19 0 38 5 41 11
4 5 12 8 18 6 7 -2 23 0 37 6 32 12 64 16 175 22 50 2 92 5 95 6 3 1 8 1 11 1
4 -1 49 13 100 29 132 44 226 44 409 4 41 -9 134 -19 205 -22 109 -5 147 -2
235 16 104 22 200 58 200 75 0 5 8 15 18 23 9 8 11 12 5 8 -9 -4 -11 -1 -7 9
3 9 14 16 23 17 10 0 11 2 4 6 -7 2 -13 12 -13 22 0 32 -31 135 -43 143 -16
10 -55 10 -61 0 -3 -5 -1 -38 4 -74 8 -57 7 -71 -11 -107 -11 -23 -24 -39 -29
-36 -5 3 -16 -5 -24 -18 -22 -33 -113 -62 -171 -54 -71 10 -110 33 -129 75 -9
20 -25 48 -35 61 l-19 24 -52 -22 c-62 -27 -125 -29 -168 -7 -17 9 -46 16 -65
16 -69 0 -170 73 -238 170 l-15 23 -45 -26 c-35 -21 -59 -27 -102 -27 -34 0
-57 4 -57 11 0 5 -4 8 -10 4 -5 -3 -18 3 -29 14 -19 19 -19 20 -1 26 10 3 21
12 23 20 4 8 14 11 26 8 12 -3 21 -1 21 5 0 12 55 39 94 46 16 3 31 7 33 10 4
4 -6 86 -10 86 -1 0 -24 -11 -51 -25 -57 -29 -105 -32 -166 -10 -54 19 -125
76 -147 118 -20 40 -33 95 -23 99 5 2 9 41 11 88 3 83 24 174 38 165 4 -2 15
21 25 51 22 68 63 116 115 134 36 12 47 11 103 -8 45 -14 65 -17 70 -9 4 6 3
16 -1 22 -16 19 -23 55 -11 55 22 0 95 58 125 99 24 32 36 41 60 41 38 0 100
-28 143 -65 31 -26 34 -27 52 -10 14 12 23 14 37 7 20 -11 72 -14 208 -13 l90
1 -65 63 c-35 34 -63 67 -62 73 1 7 -11 23 -28 37 -16 14 -30 33 -30 42 0 8
-7 18 -15 21 -24 9 -65 90 -65 128 0 19 5 47 10 62 6 15 8 29 6 31 -10 10 -77
-51 -83 -76 -12 -50 -82 -176 -121 -218 -44 -48 -79 -59 -65 -20 15 41 7 140
-17 200 -24 64 -120 176 -155 181 -11 2 -19 9 -18 15 2 6 -6 15 -17 21 -18 10
-17 13 20 46 45 41 96 136 105 197 7 49 -16 111 -71 188 -40 55 -59 68 -134
96 -91 34 -153 37 -245 12 -139 -38 -128 -40 -157 38 -14 37 -29 76 -32 86 -4
12 -12 16 -25 12 -28 -9 -49 4 -60 38 -11 30 -3 46 22 47 18 0 0 21 -63 74
-46 39 -71 54 -84 50 -12 -4 -16 -2 -12 5 4 6 1 11 -8 11 -8 0 -20 8 -25 19
-24 43 -194 108 -211 81 -4 -7 -13 -9 -19 -6 -6 4 -11 2 -11 -3 0 -6 -4 -11
-10 -11 -5 0 -9 5 -7 12 1 6 -6 14 -17 16 -11 2 -16 0 -12 -6 3 -6 -7 -4 -24
5 -17 8 -37 12 -45 9 -8 -3 -35 6 -60 20 -25 13 -50 24 -55 24 -5 0 -21 11
-36 25 -31 29 -46 32 -37 8 4 -11 3 -14 -6 -9 -6 4 -11 13 -10 19 1 7 -1 21
-5 32 -5 11 -9 25 -11 31 -5 16 -37 21 -62 10z m1403 -861 c-6 -16 -46 -21
-46 -6 0 6 10 17 22 26 24 16 35 7 24 -20z m24 -39 c0 -2 -8 -10 -17 -17 -16
-13 -17 -12 -4 4 13 16 21 21 21 13z m-398 -43 c31 -35 40 -58 32 -88 -12 -49
-66 -35 -104 27 -18 30 -18 33 -2 60 21 35 41 35 74 1z m-932 -22 c-12 -24
-30 -28 -30 -6 0 13 31 38 38 30 2 -2 -1 -13 -8 -24z m600 -23 c0 -11 -5 -28
-10 -39 -10 -18 -12 -18 -35 -3 -30 20 -31 28 -5 54 23 23 50 17 50 -12z
m-556 7 c-4 -8 -12 -15 -19 -15 -7 0 -18 -7 -25 -15 -10 -12 -7 -15 17 -20 64
-14 60 -20 -11 -17 -66 4 -83 1 -129 -22 -28 -14 -65 -37 -81 -51 -16 -14 -31
-25 -33 -25 -12 0 22 43 52 66 19 14 32 31 28 37 -4 6 0 8 9 5 26 -10 109 13
152 43 48 34 47 33 40 14z m-404 -10 c11 -13 8 -15 -14 -15 -16 0 -26 5 -26
15 0 8 6 15 14 15 7 0 19 -7 26 -15z m58 -10 c-2 -6 -7 -9 -11 -7 -5 1 -5 -2
-2 -8 4 -6 19 -9 33 -6 15 3 45 1 67 -3 46 -10 36 -13 -53 -15 -53 -1 -63 2
-68 18 -4 10 0 22 7 27 17 11 32 7 27 -6z m192 -5 c0 -5 -4 -10 -10 -10 -5 0
-10 5 -10 10 0 6 5 10 10 10 6 0 10 -4 10 -10z m-1083 -151 c16 -16 -9 -65
-36 -72 -33 -8 -45 16 -26 52 16 32 42 40 62 20z m1351 -47 c20 -13 20 -62 0
-76 -37 -23 -76 35 -46 68 15 17 27 19 46 8z m-883 -53 c0 -22 -4 -33 -12 -31
-7 1 -13 -2 -13 -7 0 -11 -38 -2 -46 10 -10 16 7 50 29 59 33 13 42 7 42 -31z
m577 5 c-5 -26 -35 -50 -41 -32 -2 7 -8 16 -14 19 -5 4 -7 14 -4 23 10 25 63
15 59 -10z m-612 -70 c0 -17 -22 -14 -28 4 -2 7 3 12 12 12 9 0 16 -7 16 -16z
m2168 -30 c12 -8 22 -24 22 -35 0 -11 4 -29 10 -39 15 -27 3 -48 -35 -60 -40
-13 -64 -2 -83 38 -13 28 -16 80 -6 106 7 18 55 12 92 -10z m-2075 -61 c-7 -2
-19 -2 -25 0 -7 3 -2 5 12 5 14 0 19 -2 13 -5z m-53 -10 c-8 -3 -24 -10 -35
-15 -20 -9 -20 -9 -1 6 11 9 27 16 35 15 14 0 14 -1 1 -6z m-1262 -132 c3 -10
-2 -11 -19 -6 -39 12 -48 27 -15 23 16 -2 31 -9 34 -17z m1182 -72 c0 -15 7
-32 16 -37 14 -8 14 -12 3 -30 -20 -32 -67 -49 -84 -31 -27 28 -22 82 9 114
31 31 56 23 56 -16z m-1381 5 c-15 -18 -22 -13 -13 10 3 9 10 13 16 10 5 -3 4
-12 -3 -20z m1751 6 c24 0 33 -15 25 -40 -8 -26 -30 -25 -49 2 -16 22 -16 22
-31 3 -15 -19 -15 -19 -13 10 2 17 8 30 15 30 6 0 15 4 19 8 5 5 10 3 12 -2 2
-6 12 -11 22 -11z m-1397 -27 c-6 -17 -5 -16 15 0 17 16 23 17 35 6 7 -7 12
-23 9 -35 -3 -19 -1 -22 17 -17 11 3 19 10 18 16 -1 6 6 13 16 15 10 2 17 -2
17 -12 0 -26 17 -27 41 -1 26 27 49 33 49 13 0 -9 4 -8 10 2 7 11 10 11 10 2
0 -7 3 -11 8 -8 4 2 12 -7 19 -20 6 -13 8 -24 4 -24 -4 0 -7 -13 -6 -30 2 -38
-4 -47 -35 -52 -20 -2 -25 -8 -23 -31 1 -21 -7 -36 -30 -57 -41 -38 -59 -37
-104 4 -28 24 -51 35 -87 40 -27 3 -51 8 -53 10 -11 11 19 120 43 156 29 43
37 50 27 23z m609 -38 c10 -22 8 -29 -17 -55 -15 -16 -32 -27 -37 -24 -14 9
-9 72 8 88 22 22 33 20 46 -9z m-1542 5 c0 -5 -7 -7 -15 -4 -8 4 -15 8 -15 10
0 2 7 4 15 4 8 0 15 -4 15 -10z m430 -19 c0 -5 9 -7 20 -4 11 3 20 0 20 -6 0
-6 13 -11 28 -11 34 0 155 -58 200 -95 31 -27 43 -55 22 -55 -5 0 -7 -7 -3
-15 3 -10 0 -15 -8 -13 -10 2 -13 -5 -11 -25 2 -15 -1 -33 -5 -40 -5 -7 -17
-33 -27 -59 -10 -27 -22 -48 -27 -48 -4 0 -6 -6 -3 -13 2 -7 -11 -30 -29 -50
-19 -20 -32 -38 -29 -41 3 -4 -4 -6 -16 -6 -24 0 -38 -16 -20 -23 7 -3 4 -6
-7 -6 -15 -1 -17 -3 -7 -10 8 -4 13 -11 13 -15 -1 -15 -31 -36 -50 -36 -22 0
-29 -16 -9 -22 16 -6 1 -28 -19 -28 -9 0 -13 6 -10 14 8 20 -15 26 -36 11 -17
-12 -17 -14 3 -28 21 -14 21 -15 3 -21 -22 -7 -101 28 -120 53 -7 9 -13 26
-13 37 0 12 -7 27 -15 34 -8 7 -12 16 -9 21 3 5 0 17 -5 26 -6 10 -11 15 -11
11 0 -4 -17 4 -37 18 -20 13 -40 21 -45 16 -13 -13 -12 -73 1 -107 12 -28 11
-29 -7 -12 -11 10 -26 15 -36 11 -9 -3 -16 -1 -16 5 0 6 5 11 10 11 13 0 13
12 -2 47 -20 47 -36 162 -23 167 6 2 19 31 29 64 29 100 136 192 242 209 24 4
38 12 42 25 4 18 22 26 22 9z m967 -13 c-3 -8 -6 -5 -6 6 -1 11 2 17 5 13 3
-3 4 -12 1 -19z m991 1 c-2 -6 -8 -10 -13 -10 -5 0 -11 4 -13 10 -2 6 4 11 13
11 9 0 15 -5 13 -11z m369 -11 c14 -16 18 -30 14 -47 -8 -30 -55 -49 -76 -31
-22 18 -18 27 11 34 23 6 26 11 20 36 -7 36 3 38 31 8z m-2609 -20 c-6 -18
-28 -21 -28 -4 0 9 7 16 16 16 9 0 14 -5 12 -12z m2192 -7 c0 -6 -4 -12 -8
-15 -5 -3 -9 1 -9 9 0 8 4 15 9 15 4 0 8 -4 8 -9z m-2357 -41 c3 -13 0 -20
-10 -20 -8 0 -11 5 -8 10 3 6 1 10 -4 10 -6 0 -11 5 -11 10 0 19 28 10 33 -10z
m3546 -126 c39 -50 19 -113 -32 -100 -16 4 -27 17 -34 41 -9 30 -8 38 9 60 25
31 32 31 57 -1z m-314 -149 c17 -22 25 -45 25 -72 0 -39 -19 -70 -34 -55 -4 4
-11 7 -14 7 -31 3 -50 20 -61 54 -9 33 -9 45 5 74 20 42 43 40 79 -8z m-3255
-40 c-7 -9 -15 -13 -18 -10 -3 2 1 11 8 20 7 9 15 13 18 10 3 -2 -1 -11 -8
-20z m2863 11 c9 -23 -4 -55 -25 -62 -32 -10 -39 9 -18 44 21 35 35 40 43 18z
m297 -96 c0 -5 -5 -10 -11 -10 -5 0 -7 5 -4 10 3 6 8 10 11 10 2 0 4 -4 4 -10z
m-3236 -98 c-5 -38 -10 -49 -21 -45 -15 6 -10 52 10 85 16 25 19 16 11 -40z
m126 40 c0 -11 -9 -29 -20 -42 l-20 -23 0 29 c0 29 15 54 32 54 4 0 8 -8 8
-18z m1350 -63 c0 -6 -5 -20 -12 -32 -11 -21 -11 -21 -18 -2 -4 11 -5 26 -3
33 6 15 33 16 33 1z m141 -40 c12 -30 11 -33 -15 -55 -48 -42 -87 -23 -66 31
23 61 61 72 81 24z m402 -1 c9 -33 -23 -83 -54 -83 -21 0 -24 4 -22 35 2 56
64 94 76 48z m397 -10 c28 -31 25 -42 -17 -58 -21 -8 -41 -16 -45 -18 -4 -2
-14 10 -22 26 -14 27 -13 30 7 50 27 28 51 28 77 0z m-2097 -9 c-24 -12 -43
-25 -43 -30 0 -4 6 -6 13 -3 18 7 16 -58 -2 -79 -14 -18 -6 -41 11 -31 7 4 8
2 4 -4 -8 -14 -42 -10 -58 6 -7 7 -21 12 -33 12 -12 0 -25 4 -30 9 -17 15 -71
21 -83 9 -7 -7 -14 -9 -17 -6 -3 3 9 22 27 43 45 51 139 95 203 95 l50 0 -42
-21z m-298 -39 c28 -31 8 -37 -23 -7 -19 20 -22 27 -11 27 9 0 24 -9 34 -20z
m3868 -128 c-5 -20 -3 -24 10 -19 27 10 8 -22 -23 -38 -27 -14 -28 -13 -34 9
-3 13 -9 31 -12 39 -3 9 4 25 16 37 28 28 53 11 43 -28z m-224 -10 c6 16 8 16
30 -1 47 -36 0 -113 -54 -87 -31 14 -47 53 -33 80 17 33 32 37 41 13 8 -19 10
-20 16 -5z m-427 -224 c19 -36 17 -89 -4 -110 -22 -22 -32 -23 -48 -3 -10 12
-10 23 4 58 9 23 16 50 16 60 0 24 17 21 32 -5z m-66 -45 c-11 -11 -19 6 -11
24 8 17 8 17 12 0 3 -10 2 -21 -1 -24z m-3597 -12 c7 -5 10 -14 7 -20 -11 -17
-24 -13 -36 9 -12 22 3 27 29 11z m3279 -83 c30 -64 -34 -107 -77 -52 -25 32
-26 47 -5 69 24 24 66 15 82 -17z m-415 -26 c-1 -39 -5 -44 -36 -47 -13 -2
-33 -9 -45 -16 -35 -22 -35 -5 -1 50 27 43 37 51 58 49 23 -3 26 -7 24 -36z
m-664 -21 c14 -25 -24 -101 -49 -101 -21 0 -31 24 -25 55 2 11 4 23 4 27 2 13
44 47 52 42 5 -3 13 -13 18 -23z m-1401 -73 c15 -13 16 -94 2 -103 -18 -11
-37 13 -43 53 -3 20 -8 45 -13 56 -6 16 -4 17 17 11 13 -4 30 -12 37 -17z
m3183 -266 c31 -26 30 -76 -2 -108 l-25 -24 -34 36 c-19 21 -29 34 -21 29 10
-6 12 -1 7 21 -6 31 0 48 24 57 24 9 26 8 51 -11z m-1870 -9 c13 -16 12 -17
-3 -4 -17 13 -22 21 -14 21 2 0 10 -8 17 -17z m677 -195 c-34 -44 -53 -49 -44
-12 8 32 22 44 50 44 17 0 16 -3 -6 -32z m-450 -16 c4 -24 -35 -92 -52 -92
-16 0 -46 32 -46 50 0 10 10 29 21 44 27 35 72 33 77 -2z m420 -469 c-6 -8
-20 -19 -30 -24 -25 -13 -24 6 1 28 11 9 17 21 14 27 -4 6 1 5 10 -3 14 -11
15 -17 5 -28z m342 2 c8 -9 10 -25 5 -42 -4 -16 -6 -42 -6 -59 1 -26 -4 -33
-23 -36 -13 -3 -30 0 -39 7 -20 14 -34 65 -18 65 6 0 10 3 9 8 -4 20 33 71 53
72 4 0 12 -7 19 -15z m636 0 c26 -18 22 -50 -11 -91 l-23 -29 -26 24 c-31 29
-33 64 -6 91 24 24 38 25 66 5z m-1221 -44 c-5 -15 -13 -21 -28 -19 -28 4 -35
38 -11 55 25 18 49 -5 39 -36z m236 -54 c13 -17 -4 -53 -31 -69 -24 -14 -31
-14 -40 -3 -13 15 -5 55 11 55 5 0 9 7 9 16 0 16 39 17 51 1z"/>
<path d="M5792 3713 c-15 -6 -6 -23 14 -23 8 0 14 7 14 15 0 15 -6 17 -28 8z"/>
<path d="M4820 2960 c0 -6 7 -10 15 -10 8 0 15 2 15 4 0 2 -7 6 -15 10 -8 3
-15 1 -15 -4z"/>
<path d="M2845 5030 c-7 -12 2 -12 30 0 19 8 19 9 -2 9 -12 1 -25 -3 -28 -9z"/>
<path d="M4746 4655 c-3 -8 -17 -20 -31 -25 -32 -12 -32 -31 1 -59 14 -12 24
-28 21 -34 -7 -19 19 -39 31 -24 15 19 36 90 34 115 -3 34 -13 47 -23 31 -6
-10 -9 -11 -9 -1 0 17 -17 15 -24 -3z"/>
<path d="M2939 4623 c-8 -11 -21 -22 -29 -25 -12 -5 -11 -7 5 -12 47 -16 89
-42 151 -93 36 -30 67 -53 69 -51 2 1 -39 48 -89 102 -88 95 -93 98 -107 79z"/>
<path d="M2190 4150 c0 -5 5 -10 11 -10 5 0 7 5 4 10 -3 6 -8 10 -11 10 -2 0
-4 -4 -4 -10z"/>
<path d="M2179 4029 c-17 -17 -19 -23 -8 -30 19 -12 42 -11 34 1 -3 6 0 13 9
16 8 3 17 12 20 20 8 22 -31 17 -55 -7z"/>
<path d="M6254 4015 c-10 -23 -24 -35 -38 -36 -11 -1 -37 -2 -56 -3 -25 -1
-36 -6 -38 -19 -3 -17 6 -18 136 -16 130 2 141 1 167 -19 17 -13 42 -22 63
-22 l36 0 -35 25 c-19 14 -41 35 -50 47 -14 18 -27 21 -86 21 -67 0 -69 1 -65
22 7 38 -16 38 -34 0z"/>
<path d="M2514 4015 c-6 -16 12 -45 27 -45 5 0 9 7 9 16 0 9 -5 12 -12 8 -8
-5 -9 0 -6 14 7 25 -9 30 -18 7z"/>
<path d="M2235 4010 c-3 -6 1 -13 10 -16 19 -8 30 0 20 15 -8 14 -22 14 -30 1z"/>
<path d="M6625 3954 c58 -56 82 -62 92 -25 3 13 11 17 29 13 30 -5 31 8 2 35
-17 15 -43 22 -102 27 l-79 6 58 -56z"/>
<path d="M1970 3939 c0 -11 5 -17 10 -14 6 3 10 13 10 21 0 8 -4 14 -10 14 -5
0 -10 -9 -10 -21z"/>
<path d="M2575 3870 c-67 -43 -53 -108 16 -74 26 13 38 43 31 77 -4 21 -9 21
-47 -3z"/>
<path d="M2445 3820 c3 -5 8 -10 11 -10 2 0 4 5 4 10 0 6 -5 10 -11 10 -5 0
-7 -4 -4 -10z"/>
<path d="M1910 3708 c0 -21 29 -58 46 -58 24 0 11 28 -28 59 -15 11 -18 11
-18 -1z"/>
<path d="M1811 3701 c-13 -8 -13 -12 0 -27 12 -15 12 -16 -9 -10 -18 6 -22 3
-22 -12 0 -30 26 -45 78 -46 63 -1 68 23 15 69 -43 38 -42 38 -62 26z"/>
<path d="M1670 3685 c-13 -7 -31 -11 -39 -8 -13 4 -13 3 -2 -5 9 -7 10 -12 2
-16 -16 -10 -13 -24 7 -29 13 -4 13 -5 -4 -6 -22 -1 -56 -31 -35 -31 6 0 10
-10 8 -21 -3 -33 16 -32 38 1 23 34 52 47 68 31 17 -17 25 -13 25 15 0 14 -7
28 -14 31 -8 3 -14 9 -14 14 0 4 7 6 15 3 11 -4 13 -2 9 9 -8 21 -37 27 -64
12z"/>
<path d="M1753 3482 c-13 -9 -10 -49 6 -65 10 -9 15 -8 27 7 8 11 14 26 14 33
0 16 -33 34 -47 25z"/>
<path d="M1704 3423 c3 -8 6 -16 6 -19 0 -2 7 -1 15 2 21 9 19 21 -6 27 -15 4
-19 2 -15 -10z"/>
<path d="M6658 3333 c-40 -6 -34 -26 15 -51 57 -28 85 -21 83 21 -1 29 -5 32
-36 33 -19 1 -47 -1 -62 -3z"/>
<path d="M1495 3220 c3 -5 8 -10 11 -10 2 0 4 5 4 10 0 6 -5 10 -11 10 -5 0
-7 -4 -4 -10z"/>
<path d="M6046 3105 c-33 -29 -36 -35 -19 -35 12 0 45 -16 74 -35 28 -20 55
-38 59 -40 15 -10 -31 120 -47 133 -22 16 -22 16 -67 -23z"/>
<path d="M5860 3064 c0 -5 4 -15 8 -21 6 -10 12 -10 28 2 10 8 14 15 7 15 -6
0 -18 3 -27 6 -9 3 -16 2 -16 -2z"/>
<path d="M6900 2915 c-10 -32 -10 -39 6 -57 14 -15 27 -19 52 -14 56 9 81 46
32 46 -10 0 -23 6 -27 13 -4 6 -18 20 -30 30 -21 18 -21 18 -33 -18z"/>
<path d="M7330 2826 c0 -26 39 -63 79 -74 22 -7 51 -26 65 -42 29 -35 37 -37
53 -11 10 17 8 22 -15 37 -15 10 -45 27 -67 37 -22 10 -49 26 -60 36 -28 25
-55 33 -55 17z"/>
<path d="M7240 2810 c19 -13 30 -13 30 0 0 6 -10 10 -22 10 -19 0 -20 -2 -8
-10z"/>
<path d="M6314 2763 c8 -16 33 -43 57 -62 23 -19 39 -28 35 -20 -4 8 1 4 12
-8 25 -28 45 -138 40 -218 -2 -40 1 -59 10 -62 9 -4 10 2 2 22 -9 23 -8 26 6
21 16 -6 44 15 44 34 0 6 5 8 10 5 6 -3 10 3 10 14 0 12 5 21 11 21 5 0 7 5 4
10 -3 6 -2 10 4 10 5 0 11 -6 14 -12 2 -7 8 -10 12 -6 4 4 -11 38 -33 75 -22
37 -44 80 -47 96 -4 15 -12 30 -19 34 -16 10 -169 73 -179 73 -4 0 -1 -12 7
-27z"/>
<path d="M704 2618 c3 -13 5 -25 5 -27 1 -3 6 0 12 6 9 9 8 16 -5 28 -15 15
-16 15 -12 -7z"/>
<path d="M770 2540 c-6 -11 -16 -18 -21 -14 -6 3 -30 -16 -55 -42 -24 -27 -49
-50 -54 -50 -6 -1 -13 -2 -17 -3 -4 0 -2 -6 5 -13 14 -14 16 -32 2 -23 -16 10
-52 -15 -46 -32 5 -11 2 -13 -10 -9 -9 4 -23 1 -30 -5 -15 -13 -19 -69 -5 -69
5 0 12 -11 15 -24 3 -13 30 -44 61 -69 43 -35 51 -46 38 -51 -14 -6 -12 -11
12 -36 15 -16 42 -32 59 -36 17 -3 37 -11 43 -16 21 -17 192 -4 241 18 l44 19
-40 30 c-43 32 -95 112 -112 173 -13 47 -13 209 0 217 20 12 10 21 -19 17 -16
-2 -32 1 -35 7 -11 17 -34 13 -40 -6 -3 -11 -4 -9 -3 6 3 31 -18 38 -33 11z
m-5 -91 c1 -14 -13 -29 -27 -29 -10 0 -10 34 -1 44 10 10 28 1 28 -15z"/>
</g>
</svg>
